<svg xmlns="http://www.w3.org/2000/svg" width="18" height="12" viewBox="0 0 18 12">
    <g fill="none" fill-rule="evenodd">
        <path d="M-1-4h20v20H-1z"/>
        <path fill="#5C6870" fill-rule="nonzero" d="M8.66 7.296a.448.448 0 0 0 .649 0L16.9.815c.155-.247.124-.648-.37-.648L1.469.197c-.37 0-.679.34-.401.649l7.592 6.45zm8.365-3.95a.372.372 0 0 0-.618-.278l-6.08 5.03c-.37.34-.833.525-1.327.525s-.957-.185-1.327-.493l-6.05-5.062c-.246-.216-.617-.062-.617.278-.03 1.389-.03 5.154-.03 7.006 0 .679.555 1.234 1.234 1.234h13.58c.68 0 1.235-.555 1.235-1.234V3.346z"/>
    </g>
</svg>
