<svg xmlns="http://www.w3.org/2000/svg" width="18" height="20" viewBox="0 0 18 20">
    <g fill="none" fill-rule="evenodd">
        <path d="M-1 0h20v20H-1z"/>
        <path fill="#5C6870" fill-rule="nonzero" d="M8.615 11.607a.59.59 0 0 0-.611-.382h-.267c-3.439 0-6.227-2.75-6.227-6.15V4.92c0-.305-.42-.42-.574-.19C.707 5.035.554 5.417.44 5.8c-.535 1.757.153 3.668 1.643 4.737a4.347 4.347 0 0 0 2.139.802l.23.573c.037.077.076.153.152.192l.917.382c.153.076.229.229.153.382l-.306.878c-.076.153.038.306.153.382l.496.23c.153.076.23.229.153.382l-.267.955a.363.363 0 0 0 .153.382l.725.305c.153.077.23.23.153.382l-.267.955c-.038.153.038.306.19.382l2.102.955c.153.077.344 0 .42-.152l.917-2.063a.639.639 0 0 0 .038-.459l-1.719-4.775zm8.252-.306l-4.966-5.119c.229-.764.229-1.604-.077-2.483A4.428 4.428 0 0 0 7.928.757C5.253.643 3.076 2.897 3.343 5.571c.23 1.834 1.605 3.362 3.438 3.706a4.594 4.594 0 0 0 2.293-.153l.42.458c.076.077.115.077.23.077h1.069c.19 0 .305.114.305.305l.077.955c0 .153.153.268.305.268h.612c.19 0 .305.114.305.305l.153.994c.038.152.153.229.306.229h.764c.19 0 .305.114.305.305l.153.994c.038.152.153.229.306.229h2.33c.191 0 .306-.115.306-.306v-2.254a.363.363 0 0 0-.153-.382zm-9.78-5.348c-.879 0-1.566-.688-1.566-1.528 0-.84.687-1.528 1.566-1.528s1.566.687 1.566 1.528c0 .84-.687 1.528-1.566 1.528z"/>
    </g>
</svg>
