<?xml version="1.0" encoding="UTF-8"?>
<svg width="40px" height="40px" viewBox="0 0 40 40" version="1.1" xmlns="http://www.w3.org/2000/svg" xmlns:xlink="http://www.w3.org/1999/xlink">
    <!-- Generator: Sketch 48.2 (47327) - http://www.bohemiancoding.com/sketch -->
    <title>mastercard_list@1x</title>
    <desc>Created with Sketch.</desc>
    <defs></defs>
    <g id="Recharge-Flow-step-3.2-variant-6-acordion-hover-Copy" stroke="none" stroke-width="1" fill="none" fill-rule="evenodd" transform="translate(-353.000000, -282.000000)">
        <g id="Group-4" transform="translate(320.000000, 261.000000)">
            <g id="row" transform="translate(24.000000, 0.000000)">
                <g id="MASTER-CARD/squar-48px" transform="translate(9.000000, 16.000000)">
                    <g id="MASTER-CARD">
                        <rect id="Rectangle-4" x="0" y="0" width="40" height="40"></rect>
                        <g id="master-card-copy" transform="translate(0.000000, 5.833333)" fill-rule="nonzero">
                            <path d="M40,25.2564063 C40,26.5623438 38.9414062,27.6210156 37.6355469,27.6210156 L2.36445312,27.6210156 C1.05859375,27.6210156 0,26.5621875 0,25.2564063 L0,2.39976563 C0,1.09390625 1.05859375,0.035234375 2.36445312,0.035234375 L37.6354688,0.035234375 C38.9414062,0.035234375 39.9999219,1.09390625 39.9999219,2.39976562 L39.9999219,25.2564063 L40,25.2564063 Z" id="Shape" fill="#7292C3"></path>
                            <path d="M1.68101563,25.2564063 L1.68101563,2.39976563 C1.68101563,1.09390625 2.73976563,0.035234375 4.045625,0.035234375 L2.364375,0.035234375 C1.05859375,0.035234375 0,1.09398438 0,2.39976563 L0,25.2564063 C0,26.5623438 1.05859375,27.6210156 2.36445313,27.6210156 L4.04570313,27.6210156 C2.73984375,27.6210156 1.68101563,26.5621875 1.68101563,25.2564063 Z" id="Shape" fill="#202121" opacity="0.15"></path>
                        </g>
                        <g id="mastercard-copy" transform="translate(8.046875, 12.473958)" fill-rule="nonzero">
                            <path d="M7.1028517,0 C3.17787829,0.0247583082 0,3.21812158 0,7.14866674 C0,11.0946695 3.20242701,14.296875 7.14873287,14.296875 C8.9998642,14.296875 10.6881469,13.5912632 11.9583793,12.4343035 L11.9581167,12.4340416 L11.9591013,12.4340416 C12.2196854,12.1970692 12.4623502,11.9407093 12.6851265,11.6684334 L11.2208674,11.6684334 C11.0251339,11.4324435 10.8473198,11.1858429 10.6876874,10.93171 L13.2132523,10.93171 C13.3675023,10.6861574 13.5059991,10.431042 13.6300555,10.1668224 L10.2712124,10.1668224 C10.1565423,9.92126977 10.0570347,9.67100126 9.97229562,9.41588589 L13.9289723,9.41588589 C14.1679614,8.7032003 14.296875,7.94053962 14.296875,7.14866674 C14.296875,6.62271644 14.2396384,6.11097924 14.1323198,5.61738503 L9.76231869,5.61738503 C9.81686412,5.36325213 9.8848654,5.11252514 9.9659287,4.86671051 L13.9245746,4.86671051 C13.8361598,4.60445584 13.7332389,4.34934047 13.6163371,4.1012989 L10.270753,4.1012989 C10.3913305,3.84323611 10.5281207,3.5930331 10.6806641,3.35036238 L13.2047193,3.35036238 C13.0364884,3.08247487 12.8507976,2.82663901 12.6501413,2.58547475 L11.2428562,2.58547475 C11.4607097,2.32885292 11.6998957,2.08749217 11.9594951,1.86375042 C10.6897222,0.706266765 9.00124261,0.000196494509 7.1491267,0.000196494509 C7.13304532,0 7.11781723,0 7.1028517,0 Z" id="Shape" fill="#931B1D"></path>
                            <path d="M23.9061844,7.14905963 C23.9069064,11.0955561 20.7082062,14.295696 16.7591255,14.2968746 C12.8117514,14.2981188 9.61055686,11.0991576 9.60937536,7.1520063 L9.60937536,7.14905963 C9.60812823,3.20138449 12.8078787,0.000982706833 16.7559748,4.86335416e-07 C20.7038084,-0.00144010373 23.9052654,3.19771754 23.90625,7.14513075 C23.9061844,7.14513075 23.9061844,7.14689875 23.9061844,7.14905963 Z" id="Shape" fill="#F16622"></path>
                            <path d="M23.9061844,7.22682443 C23.9069064,11.1735715 20.7082062,14.3742792 16.7591255,14.3749995 C12.8117514,14.3764401 9.61055686,11.1770421 9.60937536,7.23049144 L9.60937536,7.22682443 C9.60812823,3.27981538 12.8078787,0.0791077203 16.7559748,0.0781254863 C20.7038084,0.0766848765 23.9052654,3.27588645 23.90625,7.22309194 C23.9061844,7.22315742 23.9061844,7.22538382 23.9061844,7.22682443 Z" id="Shape" fill="#F7981D"></path>
                            <path d="M7.1028517,0.0781904958 C3.17787829,0.103406367 0,3.29593215 0,7.22659525 C0,11.1727154 3.20242701,14.375 7.14873287,14.375 C8.9998642,14.375 10.6881469,13.6689556 11.9583793,12.5122348 L11.9581167,12.5115144 L11.9591013,12.5115144 C12.2196854,12.2747472 12.4623502,12.0191827 12.6851265,11.7459343 L11.2208674,11.7459343 C11.0251339,11.5104115 10.8473198,11.2643439 10.6876874,11.0102203 L13.2132523,11.0102203 C13.3675023,10.7644147 13.5059991,10.5085882 13.6300555,10.2446403 L10.2712124,10.2446403 C10.1565423,9.99883468 10.0570347,9.74864084 9.97229562,9.49399329 L13.9289723,9.49399329 C14.1679614,8.78080985 14.296875,8.0184391 14.296875,7.22659525 C14.296875,6.7009262 14.2396384,6.18894577 14.1323198,5.69563164 L9.76231869,5.69563164 C9.81686412,5.44177004 9.8848654,5.19052827 9.9659287,4.94498463 L13.9245746,4.94498463 C13.8361598,4.68254308 13.7332389,4.42737156 13.6163371,4.1791426 L10.270753,4.1791426 C10.3913305,3.9220717 10.5281207,3.67089543 10.6806641,3.42849558 L13.2047193,3.42849558 C13.0364884,3.16087987 12.8507976,2.90524988 12.6501413,2.66311202 L11.2428562,2.66311202 C11.4607097,2.40702357 11.6998957,2.16560616 11.9594951,1.94141414 C10.6897222,0.784169393 9.00124261,0.078125 7.1491267,0.078125 C7.13304532,0.0781904958 7.11781723,0.0781904958 7.1028517,0.0781904958 Z" id="Shape" fill="#CB2026"></path>
                            <g id="Group" transform="translate(0.625000, 5.312500)" fill="#FFFFFF">
                                <path d="M9.04951308,3.70423895 L9.14474564,3.05246767 C9.09287791,3.05246767 9.01648256,3.0747104 8.94917878,3.0747104 C8.68532703,3.0747104 8.6559593,2.93293777 8.67309593,2.82799434 L8.88625727,1.4975889 L9.28739826,1.4975889 L9.3843314,0.776185345 L9.00621366,0.776185345 L9.08332849,0.328162716 L8.32467297,0.328162716 C8.30825581,0.344927263 7.8768314,2.85043508 7.8768314,3.15490302 C7.8768314,3.60662177 8.1272093,3.80786234 8.48106105,3.80489224 C8.75753634,3.80231816 8.97364099,3.72502963 9.04951308,3.70423895 Z" id="Shape"></path>
                                <path d="M9.29007994,2.46128637 C9.29007994,3.54523976 9.99712936,3.80304418 10.5999201,3.80304418 C11.156468,3.80304418 11.4009593,3.67684806 11.4009593,3.67684806 L11.5348474,2.9369639 C11.5348474,2.9369639 11.1117297,3.12665409 10.7294259,3.12665409 C9.91517442,3.12665409 10.0578924,2.51224003 10.0578924,2.51224003 L11.5994695,2.51224003 C11.5994695,2.51224003 11.698561,2.01484779 11.698561,1.81235318 C11.698561,1.30730469 11.4494259,0.691372575 10.6170567,0.691372575 C9.85421512,0.691570582 9.29007994,1.5220757 9.29007994,2.46128637 Z M10.6202616,1.37786099 C11.0480887,1.37786099 10.9690116,1.86436288 10.9690116,1.90363416 L10.1270924,1.90363416 C10.1268314,1.85353852 10.2064317,1.37786099 10.6202616,1.37786099 Z" id="Shape"></path>
                                <path d="M15.4225073,3.70423895 L15.5583576,2.86726562 C15.5583576,2.86726562 15.1861265,3.05695582 14.930843,3.05695582 C14.392936,3.05695582 14.1772892,2.64054822 14.1772892,2.19503367 C14.1772892,1.28915409 14.640109,0.790771821 15.1557776,0.790771821 C15.5420058,0.790771821 15.8522965,1.010559 15.8522965,1.010559 L15.9759157,0.198534483 C15.9759157,0.198534483 15.5160392,0.00983432112 15.1220276,0.00983432112 C14.246359,0.00983432112 13.3941715,0.777175377 13.3941715,2.22090652 C13.3941715,3.17668373 13.8545058,3.80911638 14.7595422,3.80911638 C15.015218,3.80924838 15.4225073,3.70423895 15.4225073,3.70423895 Z" id="Shape"></path>
                                <path d="M4.87824855,0.703186961 C4.35819767,0.703186961 3.95947674,0.87188847 3.95947674,0.87188847 L3.84959302,1.53276805 C3.84959302,1.53276805 4.17898256,1.39792565 4.67607558,1.39792565 C4.95850291,1.39792565 5.16479651,1.42980469 5.16479651,1.66219828 C5.16479651,1.80298087 5.13961483,1.85505657 5.13961483,1.85505657 C5.13961483,1.85505657 4.9171657,1.83604795 4.81388808,1.83604795 C4.15824855,1.83604795 3.46905523,2.11906519 3.46905523,2.97306708 C3.46905523,3.64529903 3.92082122,3.79987608 4.20109012,3.79987608 C4.73631541,3.79987608 4.96635174,3.44894262 4.9791061,3.44742457 L4.95412064,3.74080415 L5.62179506,3.74080415 L5.91985465,1.62800916 C5.91985465,0.732029903 5.14667878,0.703186961 4.87824855,0.703186961 Z M5.0409811,2.4225431 C5.05543605,2.55170932 4.96072674,3.15675108 4.50405523,3.15675108 C4.26859012,3.15675108 4.20717297,2.97451913 4.20717297,2.86680361 C4.20717297,2.65711476 4.32,2.40498653 4.87602471,2.40498653 C5.00500727,2.40498653 5.01893895,2.419309 5.0409811,2.4225431 Z" id="Shape"></path>
                                <path d="M6.62978198,3.78377155 C6.80036337,3.78377155 7.77688953,3.827993 7.77688953,2.80898572 C7.77688953,1.85617861 6.87309593,2.04415275 6.87309593,1.66134025 C6.87309593,1.47145205 7.02045785,1.41066406 7.28960756,1.41066406 C7.39654797,1.41066406 7.80795785,1.4455132 7.80795785,1.4455132 L7.90390988,0.767869073 C7.90390988,0.767869073 7.63763808,0.708071121 7.20444767,0.708071121 C6.64279797,0.708071121 6.07375727,0.933798491 6.07375727,1.7089938 C6.07375727,2.5879445 7.02333576,2.4990396 7.02333576,2.86898168 C7.02333576,3.11596175 6.75778343,3.13622441 6.55319041,3.13622441 C6.19979651,3.13622441 5.88139535,3.0134604 5.87989099,3.01913658 L5.77883721,3.68912446 C5.79649709,3.69539467 5.99324128,3.78377155 6.62978198,3.78377155 Z" id="Shape"></path>
                                <path d="M21.7046512,0.0953731142 L21.5413953,1.12177263 C21.5413953,1.12177263 21.2557631,0.723449623 20.8091642,0.723449623 C20.1138881,0.723449623 19.5348401,1.57052128 19.5348401,2.54431708 C19.5348401,3.1728556 19.8434302,3.78806169 20.4753924,3.78806169 C20.9298401,3.78806169 21.1811991,3.46775323 21.1811991,3.46775323 L21.1481686,3.74113416 L21.8858285,3.74113416 L22.4655959,0.0937230603 L21.7046512,0.0953731142 Z M21.3526962,2.09754849 C21.3526962,2.50233971 21.1539898,3.04289736 20.7430378,3.04289736 C20.4698983,3.04289736 20.3424201,2.8112298 20.3424201,2.44768992 C20.3424201,1.85347252 20.6062718,1.46029768 20.9390625,1.46029768 C21.2124637,1.46036369 21.3526962,1.65051589 21.3526962,2.09754849 Z" id="Shape"></path>
                                <polygon id="Shape" points="0.77127907 3.74430226 1.23357558 0.990626347 1.30087936 3.74430226 1.82361192 3.74430226 2.79837209 0.990626347 2.36642442 3.74430226 3.14273983 3.74430226 3.74114826 0.0929310345 2.54027616 0.0929310345 1.79260901 2.33291218 1.75369186 0.0929310345 0.647202035 0.0929310345 0.0404869186 3.74430226"></polygon>
                                <path d="M12.4570203,3.74945043 C12.6777689,2.48029499 12.7186483,1.44920932 13.2458285,1.63718346 C13.3381177,1.14619343 13.4269404,0.956305226 13.5272747,0.748134429 C13.5272747,0.748134429 13.4803125,0.738036099 13.3808939,0.738036099 C13.0419549,0.738036099 12.7900727,1.20724542 12.7900727,1.20724542 L12.8571148,0.776515356 L12.1507849,0.776515356 L11.6782195,3.74945043 L12.4570203,3.74945043 Z" id="Shape"></path>
                                <path d="M17.1723401,0.703186961 C16.6522892,0.703186961 16.2538299,0.87188847 16.2538299,0.87188847 L16.1442078,1.53276805 C16.1442078,1.53276805 16.4728779,1.39792565 16.9704288,1.39792565 C17.2525945,1.39792565 17.4594113,1.42980469 17.4594113,1.66219828 C17.4594113,1.80298087 17.433968,1.85505657 17.433968,1.85505657 C17.433968,1.85505657 17.2115189,1.83604795 17.1074564,1.83604795 C16.4515552,1.83604795 15.7631468,2.11906519 15.7631468,2.97306708 C15.7631468,3.64529903 16.2151744,3.79987608 16.4951817,3.79987608 C17.030407,3.79987608 17.2607049,3.44894262 17.272936,3.44742457 L17.2482122,3.74080415 L17.9163445,3.74080415 L18.2142078,1.62800916 C18.2144695,0.732029903 17.4415552,0.703186961 17.1723401,0.703186961 Z M17.3353343,2.4225431 C17.3497892,2.55170932 17.2555378,3.15675108 16.7981468,3.15675108 C16.5629433,3.15675108 16.501984,2.97451913 16.501984,2.86680361 C16.501984,2.65711476 16.614811,2.40498653 17.1698547,2.40498653 C17.2996221,2.40498653 17.3130959,2.419309 17.3353343,2.4225431 Z" id="Shape"></path>
                                <path d="M18.8240625,3.74945043 C19.0450727,2.48029499 19.085952,1.44920932 19.6130669,1.63718346 C19.7053561,1.14619343 19.7941788,0.956305226 19.8950363,0.748134429 C19.8950363,0.748134429 19.8472892,0.738036099 19.7484593,0.738036099 C19.4085392,0.738036099 19.1574419,1.20724542 19.1574419,1.20724542 L19.2250073,0.776515356 L18.5182195,0.776515356 L18.0453924,3.74925242 L18.8241279,3.74925242 L18.8241279,3.74945043 L18.8240625,3.74945043 Z" id="Shape"></path>
                            </g>
                        </g>
                    </g>
                </g>
            </g>
        </g>
    </g>
</svg>