<?xml version="1.0" encoding="UTF-8"?>
<svg width="20px" height="20px" viewBox="0 0 20 20" version="1.1" xmlns="http://www.w3.org/2000/svg" xmlns:xlink="http://www.w3.org/1999/xlink">
    <defs></defs>
    <g id="Form" stroke="none" stroke-width="1" fill="none" fill-rule="evenodd">

        <rect id="Rectangle-7" x="0" y="0" width="20" height="20"></rect>
        <g transform="translate(1.666667, 4.166667)" fill="#5C6870" fill-rule="nonzero" id="Shape">
            <path d="M7.99382716,7.12962963 C8.17901235,7.31481481 8.45679012,7.31481481 8.64197531,7.12962963 L16.2345679,0.648148148 C16.3888889,0.401234568 16.3580247,0 15.8641975,0 L0.802469136,0.0308641975 C0.432098765,0.0308641975 0.12345679,0.37037037 0.401234568,0.679012346 L7.99382716,7.12962963 Z M16.3580247,3.17901235 C16.3580247,2.87037037 15.9876543,2.68518519 15.7407407,2.90123457 L9.66049383,7.93209877 C9.29012346,8.27160494 8.82716049,8.45679012 8.33333333,8.45679012 C7.83950617,8.45679012 7.37654321,8.27160494 7.00617284,7.96296296 L0.956790123,2.90123457 C0.709876543,2.68518519 0.339506173,2.83950617 0.339506173,3.17901235 C0.308641975,4.56790123 0.308641975,8.33333333 0.308641975,10.1851852 C0.308641975,10.8641975 0.864197531,11.4197531 1.54320988,11.4197531 L15.1234568,11.4197531 C15.8024691,11.4197531 16.3580247,10.8641975 16.3580247,10.1851852 L16.3580247,3.17901235 Z"></path>
        </g>
        
    </g>
</svg>