<?xml version="1.0" encoding="UTF-8"?>
<svg width="20px" height="20px" viewBox="0 0 20 20" version="1.1" xmlns="http://www.w3.org/2000/svg" xmlns:xlink="http://www.w3.org/1999/xlink">
    <g id="Form" stroke="none" stroke-width="1" fill="none" fill-rule="evenodd">
        <g id="Shape">
            <path d="M0,0 L20,0 L20,20 L0,20 L0,0 Z M0,0 L20,0 L20,20 L0,20 L0,0 Z M0,0 L20,0 L20,20 L0,20 L0,0 Z M0,0 L20,0 L20,20 L0,20 L0,0 Z"></path>
            <path d="M10,5.83333333 C12.3,5.83333333 14.1666667,7.7 14.1666667,10 C14.1666667,10.5416667 14.0583333,11.05 13.8666667,11.525 L16.3,13.9583333 C17.5583333,12.9083333 18.55,11.55 19.1583333,10 C17.7166667,6.34166667 14.1583333,3.75 9.99166667,3.75 C8.825,3.75 7.70833333,3.95833333 6.675,4.33333333 L8.475,6.13333333 C8.95,5.94166667 9.45833333,5.83333333 10,5.83333333 Z M1.66666667,3.55833333 L3.56666667,5.45833333 L3.95,5.84166667 C2.56666667,6.91666667 1.48333333,8.35 0.833333333,10 C2.275,13.6583333 5.83333333,16.25 10,16.25 C11.2916667,16.25 12.525,16 13.65,15.55 L14,15.9 L16.4416667,18.3333333 L17.5,17.275 L2.725,2.5 L1.66666667,3.55833333 Z M6.275,8.16666667 L7.56666667,9.45833333 C7.525,9.63333333 7.5,9.81666667 7.5,10 C7.5,11.3833333 8.61666667,12.5 10,12.5 C10.1833333,12.5 10.3666667,12.475 10.5416667,12.4333333 L11.8333333,13.725 C11.275,14 10.6583333,14.1666667 10,14.1666667 C7.7,14.1666667 5.83333333,12.3 5.83333333,10 C5.83333333,9.34166667 6,8.725 6.275,8.16666667 Z M9.86666667,7.51666667 L12.4916667,10.1416667 L12.5083333,10.0083333 C12.5083333,8.625 11.3916667,7.50833333 10.0083333,7.50833333 L9.86666667,7.51666667 Z" fill="#5C6870" fill-rule="nonzero"></path>
        </g>
    </g>
</svg>