<svg xmlns="http://www.w3.org/2000/svg" width="24" height="24" viewBox="0 0 24 24">
    <g fill="none" fill-rule="evenodd">
        <path d="M0 0h24v24H0z"/>
        <path fill="#2196f3" fill-rule="nonzero" d="M12.666 2c.728.071 1.356.548 1.783 1.142a5.312 5.312 0 0 1 .966 3.628c-.102.718-.214 1.434-.318 2.152 1.538.006 3.075 0 4.613.003.901.02 1.76.679 2.01 1.582.19.657.047 1.396-.359 1.935.375.388.592.913.639 1.458v.218c-.051.706-.421 1.376-1.006 1.749.228.62.21 1.348-.116 1.927-.22.416-.584.73-.995.93.2.844-.14 1.796-.834 2.288a1.997 1.997 0 0 1-1.216.392c-2.403-.002-4.807 0-7.21-.001a3.359 3.359 0 0 1-2.052-.796c-.01.309-.057-9.259.024-9.084.057-.087.115-.173.164-.265.813-1.569 1.631-3.135 2.445-4.702.176-.314.137-.687.116-1.033-.077-.964-.14-1.928-.215-2.893.367-.351.833-.58 1.333-.63h.228zM3 11.008l2.997-.003a1 1 0 0 1 1.001 1V21a1 1 0 0 1-1.001 1l-2.993-.001a1 1 0 0 1-1-1L2 12.01a1 1 0 0 1 .999-1z"/>
        <path fill="#2196f3" d="M11.969 3.043c.071.91.142 1.82.2 2.731.032.407-.04.823-.226 1.184-.822 1.578-1.642 3.156-2.463 4.735-.17.434-.604.643-.905.966.002 2.317 0 4.633.002 6.95.395.152.669.508 1.054.677.365.167.765.27 1.167.256 2.325-.002 4.65-.003 6.975 0 .762.071 1.452-.71 1.317-1.489-.047-.344-.249-.632-.39-.94.33-.086.69-.075.987-.263.424-.243.677-.759.62-1.257-.017-.462-.356-.798-.602-1.15.351-.134.75-.186 1.034-.462.455-.409.557-1.165.218-1.683-.223-.382-.646-.537-.996-.76.192-.148.387-.295.573-.453a1.32 1.32 0 0 0 .403-1.273 1.367 1.367 0 0 0-.935-.97c-.206-.073-.425-.056-.64-.057h-5.235c.148-1.054.316-2.104.464-3.157.089-.878-.124-1.771-.53-2.542-.253-.464-.596-.914-1.083-1.126a1.089 1.089 0 0 0-1.01.083z"/>
    </g>
</svg>
