<svg xmlns="http://www.w3.org/2000/svg" xmlns:xlink="http://www.w3.org/1999/xlink" width="1280" height="629" viewBox="0 0 1280 629">
    <defs>
        <path id="a" d="M0 0h1280v650H0z"/>
        <path id="c" d="M.008 549.05V190.428h.913v24.216l2.22.005v-23.897h3.412l4.55-7.807h3.148l.035-3.672 6.864.025v3.647h2.476l4.62 7.953 3.574.034v30.274h.654v-4.67h2.76v-63.402h4.78v-3.265l6.828-5.678v-4.826h5.05l.001-6.398 3.123.012-.01-10.461h2.253l-.012 10.47 3.101.012-.046 6.365h4.977v4.684l8.194 6.814v2.412h3.926v20.727h11.267v12.492h4.439v9.175h1.947v4.173h4.32v3.685h3.464v-37.333h3.136v-15.19h4.677V100.46l3.972.047V98.96h5.879l.044-9 1.786.038-.023 8.962h21.149v1.88l4.067.045v44.301l3.243 2.696h8.573v-26.404l11.95-9.936h19.803v7.665h4.78v8.08l9.376-.052.047-39.876h9.896l.046 40.21 3.169-.011V98.764h2.228v-2.099h8.34v-5.104h8.147v5.104h8.338v2.1h2.478v56.56h1.54v-2.98h4.777V57.595h3.112l-.006-17.088 3.744-.072.09 17.16h21.982l.035-35.26 3.752.067.04 35.193h3.26v71.696h5.12v-23.408h2.443v-2.998h3.347v2.998h3.348v-.876h2.605v.876h2.976v-.876h3.72v.876h4.091v-2.203h2.79v2.203h1.302v-.876h2.604v.876h3.488l.01 5.124h3.32v-2.087h2.036V98.055h11.773v-5.04l5.362-.018v5.058h3.972v-.795h3.972v.795h3.972v-.795h1.986v.795h2.43v10.667h8.26v2.286h4.878l.01 5.785h1.279v-3.25h2.085v1.587h1.39v1.663h11.813v-1.03h3.476v1.03h2.779v-7.476l1.39-.015v7.491h10.423v-1.506h1.622v1.506h1.128v69.634h1.35v-16.892h1.394v-1.18l6.969.02v1.019l4.124.01-.058 27.556h1.94V79.62l17.85-3.405.542-13.63c-1.787-.715-3.008-2.062-3.008-3.627 0-1.68 1.4-3.12 3.407-3.782l1.47-27.28 1.548-27.77.73 27.773 1.268 27.32c1.944.68 3.296 2.091 3.296 3.739 0 1.55-1.199 2.886-2.956 3.608l.741 13.76 16.344 3.01v104.806h.573l2.78-2.006v-38.71l2.484-.023 3.829-5.463 2.46-.003v-12.182l11.005.002.051-7.397 3.723.01.037-5.429 6.694-.027v5.474l2.653.008v7.362l21.573.001-.008 4.456h6.106v18.518h2l11.009 8.182v15.303h14.468v3.606l5.853 4.247v2.48h4.182v.82h4.775v-7.138h4.95v-5.497h6.318v5.497h2.046v21.436h5.635v9.408h5.463l.05-18.815h5.976v-5.11h11.779v8.091h3.536l-.052 16.466 10.266.036v-2.838h1.195v-2.793h4.938l-.023-3.399 9.117.009-.012 3.39h5.297v2.793h7.616v3.265h8.6v-7.24h6.657v5.254h5.464v-10.08h11.384V549.05H.008z"/>
    </defs>
    <g fill="none" fill-rule="evenodd" transform="translate(0 -21)">
        <mask id="b" fill="#fff">
            <use xlink:href="#a"/>
        </mask>
        <g mask="url(#b)">
            <g transform="translate(296 21)">
                <mask id="d" fill="#fff">
                    <use xlink:href="#c"/>
                </mask>
                <path d="M33.008 629.075h696.867V-66.502H33.008z" mask="url(#d)"/>
            </g>
        </g>
        <g mask="url(#b)">
            <path fill="#B3C2BD" d="M1025.86 217.083v66.528H329v-72.206h.921v36.904h2.22v-36.58h3.412l4.55-7.806h3.148l.035-3.672 6.864.025v3.647h2.476l4.62 7.952 3.574.034v38.428h1.707v-3.833h1.706v-72.388h4.78v-3.265l6.829-5.678v-4.825h5.05l.001-6.397 3.123.013-.01-10.46h2.253l-.012 10.468 3.101.012-.046 6.364h4.977v4.684l8.194 6.813v2.412h3.926v20.724h11.267v12.49h4.439v17.032h9.73v-37.328h3.137v-15.19h4.677v-50.537l3.972.047v-1.548h5.879l.044-8.998 1.786.038-.023 8.96h21.149v1.88l4.067.045v44.296l3.243 2.696h8.573v-26.401l11.95-9.936h19.803v7.664h4.78v28.815h5.805V156.8h13.314v15.045h3.415v-52.093h2.228v-2.099h8.34v-5.103h8.147v5.103h8.338v2.1h2.478v60.181h6.317V78.59h3.112l-.006-17.086 3.744-.072.09 17.158h21.982l.035-35.255 3.752.067.04 35.188h3.26v130.873h5.12v-82.59h2.443v-2.998h3.347v2.997h3.348v-.876h2.605v.876h2.976v-.876h3.72v.876h4.091v-2.203h2.79v2.203h1.302v-.876h2.604v.876h3.488l.148 76.286v6.245l.785-.01 4.433-.063v-90.286h11.773v-5.04l5.362-.018v5.058h3.972v-.794h3.972v.794h3.972v-.794h1.986v.794h2.43v85.018l3.953.028 8.34 11.4v-77.71h2.134v-3.249h2.085v1.586h1.39v1.664h11.813v-1.031h3.476v1.03h2.779v-7.475l1.39-.015v7.49h10.423v-1.506h1.622v1.507h1.128v80.23h15.72V100.61l17.849-3.405.542-13.628c-1.787-.715-3.008-2.063-3.008-3.627 0-1.68 1.4-3.12 3.407-3.782l1.47-27.277 1.548-27.767.73 27.771 1.268 27.316c1.944.68 3.296 2.091 3.296 3.739 0 1.55-1.199 2.886-2.956 3.607l.741 13.758 16.344 3.01v114.95h12.126V146.74l11.005.002.051-7.396 3.723.01.037-5.428 6.694-.028v5.474l2.653.008v7.361l21.573.001-.008 4.456h6.106v18.515h2l11.009 8.182v26.452h8.142v-2.145h9.95l.046 2.145h11.14v-7.137h4.95v-5.496h6.318v5.496h2.046v21.433h5.635v9.408h5.463l.05-18.813h5.976v-5.11h11.779v8.09h3.536l-.052 16.464 10.266.036v-2.837h1.195v-2.793h4.938l-.023-3.399 9.117.009-.012 3.39h5.297v2.793h7.616v3.264h8.6v-7.24h6.657v5.254h5.464v-10.078h11.384"/>
            <g fill="#8BA29E">
                <path d="M1287.819 249.482h-5.854v5.465h-5.296v-2.484h-8.92v-4.77h-10.731v4.77l-.976 2.185h-10.174v-1.192h-4.042v-1.789h-4.042v-6.06h-10.313v3.776h-5.157v6.06h-4.878v-8.345h-4.878v-15.803l-13.564.005h-2.984l-5.22-5.863h-9.697l-3.72 6.692-3.421 2.127v25.956h-3.066v-57.03h-4.182v-2.48l-5.853-4.247v-3.605h-16.167v3.498l-7.108 5.096v1.838h-3.485v15.5h-9.895v9.339h-3.763v12.717h-8.502v-27.92h-2.787v-11.326h-4.042v-37.849l-2.672.027-4.154-5.222-16.73.025-2.466.003-3.829 5.462-2.483.024v38.704l-2.78 2.006h-7.534v-25.306l-10.403-7.481h-17.332v5.763h-4.32v39.84h-4.157l.058-27.552-4.124-.01-6.969-1.04v1.18l-1.394 16.891h-2.927v-44.61h-6.41l-5.54-.894.034-5.143-8.571-.025v5.168h-4.6l-6.55.894v64.183h-4.03l-.151-94.983h-4.878v-2.286h-14.634v2.32l-13.659.023v-2.144h-15.47v2.087h-4.878v108.375l-3.883.018-.131-88.82h-8.111v-1.39h-9.757v1.29h-7.526v-1.192h-7.665v1.192h-3.345v71.337h-3.77l-6.962 4.956v-51.454h-7.386v-2.98h-18.537v2.98h-7.526v53.354h-13.798v-81.157l-12.915.049L810.19 108h-9.896l-.047 39.871-13.054.072v72.328H768.38v-8.346h-7.387v-12.12h-3.484v-1.293h-2.37v1.293h-8.92v-1.094H734.93v1.094h-5.407l-9.646 6.896v19.036h-25.505v-5.267h-4.32v-4.173h-5.575v4.173l-1.812 15.997h-4.878v7.053h-4.739v-4.768h-5.296v-3.777H657.44v6.062h-4.042v1.788h-4.042v1.192H639.32v-2.185l-1.115-4.67h-10.731v4.67h-8.92v2.484h-41.296v-5.465h-5.715v3.974h-4.878v-7.537l-7.657-.02.063 33.489-.071 195.06h732.86V253.457h-4.041zM554.819 249.482h-5.854v5.465h-5.296v-2.484h-8.92v-4.77h-10.731v4.77l-.976 2.185h-10.174v-1.192h-4.042v-1.789h-4.042v-6.06h-10.313v3.776h-5.157v6.06h-4.878v-8.345h-4.878v-15.803l-13.564.005h-2.984l-5.22-5.863h-9.697l-3.72 6.692-3.421 2.127v25.956h-3.066v-57.03h-4.182v-2.48l-5.853-4.247v-3.605h-16.167v3.498l-7.108 5.096v1.838h-3.485v15.5h-9.895v9.339h-3.763v12.717h-8.502v-27.92h-2.787v-11.326h-4.042v-37.849l-2.672.027-4.154-5.222-16.73.025-2.466.003-3.829 5.462-2.483.024v38.704l-2.78 2.006h-7.534v-25.306l-10.403-7.481H301.72v5.763h-4.32v39.84h-4.157l.058-27.552-4.124-.01-6.969-1.04v1.18l-1.394 16.891h-2.927v-44.61h-6.41l-5.54-.894.034-5.143-8.571-.025v5.168h-4.6l-6.55.894v64.183h-4.03l-.151-94.983h-4.878v-2.286h-14.634v2.32l-13.659.023v-2.144h-15.47v2.087h-4.878v108.375l-3.883.018-.131-88.82h-8.111v-1.39h-9.757v1.29h-7.526v-1.192h-7.665v1.192h-3.345v71.337h-3.77l-6.962 4.956v-51.454h-7.386v-2.98h-18.537v2.98h-7.526v53.354H90.152v-81.157l-12.915.049L77.19 108h-9.896l-.047 39.871-13.054.072v72.328H35.38v-8.346h-7.387v-12.12h-3.484v-1.293h-2.37v1.293h-8.92v-1.094H1.93v1.094h-5.407l-9.646 6.896v19.036h-25.505v-5.267h-4.32v-4.173h-5.575v4.173l-1.812 15.997h-4.878v7.053h-4.739v-4.768h-5.296v-3.777H-75.56v6.062h-4.042v1.788h-4.042v1.192H-93.68v-2.185l-1.115-4.67h-10.731v4.67h-8.92v2.484h-41.296v-5.465h-5.715v3.974h-4.878v-7.537l-7.657-.02.063 33.489-.071 195.06h732.86V253.457h-4.041z"/>
            </g>
            <path fill="#9FA09C" d="M-3 650h1285v-80.016H-3z"/>
            <path fill="#527236" d="M-14 569.984h1306V451.583H-14z"/>
            <path fill="#73A441" d="M-14 504.173h1306V357.177H-14z"/>
            <path fill="#6F6F6C" d="M-14 586.957h1306v-16.973H-14z"/>
            <path fill="#4B6933" d="M639.5 535c-92.508 0-167.5-8.53-167.5-19.05 0-3.404 7.844-6.599 21.593-9.364l-1.433 2.795c-.321.542-.445 1.067-.415 1.566l-.03.053v4.048c.333 4.405 3.605 5.919 6.705 5.919h279.104c3.399 0 6.859-2.09 6.796-7.269v-1.786l-.178-.352c.296-.823.246-1.751-.32-2.748L782.37 506c15.622 2.896 24.63 6.303 24.63 9.95 0 10.52-74.993 19.05-167.5 19.05"/>
            <path fill="#52524F" d="M778.193 520h-279.48c-3.104 0-6.38-1.539-6.713-6.018v-4.115l30.592-55.554c1.644-3.255 5.023-5.313 8.721-5.313h213.872c3.992 0 12.793 7.725 14.576 11.233L785 510.795v1.816c.062 5.265-3.402 7.389-6.806 7.389"/>
            <path fill="#FFFEFD" d="M778.219 515H498.713c-3.103 0-8.213-2.674-6.293-5.963l30.174-59.723c1.645-3.256 5.024-5.314 8.723-5.314h213.891c3.991 0 7.64 2.217 9.424 5.724l29.87 58.735c2.094 3.745-2.879 6.541-6.283 6.541"/>
            <path fill="#52524F" d="M523 444h229V300H523z"/>
            <path fill="#FFFEFD" d="M529 435h219V305H529z"/>
            <path fill="#C3C3BE" d="M678.4 512h-81.923c-.91 0-1.602-.803-1.458-1.69l3.454-21.315a2.391 2.391 0 0 1 2.37-1.995h73.89a2.1 2.1 0 0 1 2.087 1.781l3.166 21.437c.125.945-.621 1.782-1.586 1.782M543.943 456h-8.986c-1.253 0-2.118-.372-1.932-.83l.547-1.353c.184-.452 1.336-.817 2.573-.817h8.882c1.238 0 2.114.365 1.954.817l-.476 1.353c-.162.458-1.31.83-2.562.83M559.057 456h-9.044c-1.262 0-2.155-.372-1.994-.83l.47-1.353c.158-.452 1.297-.817 2.543-.817h8.94c1.246 0 2.149.365 2.015.817l-.4 1.353c-.136.458-1.269.83-2.53.83M574.172 456h-9.103c-1.27 0-2.19-.372-2.056-.83l.395-1.353c.131-.452 1.255-.817 2.51-.817h8.997c1.254 0 2.184.365 2.076.817l-.322 1.353c-.11.458-1.227.83-2.497.83M589.287 456h-9.16c-1.277 0-2.225-.372-2.119-.83l.317-1.353c.105-.452 1.214-.817 2.477-.817h9.055c1.262 0 2.22.365 2.138.817l-.244 1.353c-.083.458-1.186.83-2.464.83M604.404 456h-9.218c-1.284 0-2.262-.372-2.181-.83l.237-1.353c.08-.452 1.173-.817 2.443-.817h9.111c1.27 0 2.257.365 2.202.817l-.165 1.353c-.056.458-1.143.83-2.429.83M618.522 456h-9.274c-1.294 0-2.3-.372-2.246-.83l.157-1.353c.053-.452 1.13-.817 2.41-.817h9.166c1.278 0 2.293.365 2.264.817l-.084 1.353c-.029.458-1.1.83-2.393.83M634.64 456h-9.33c-1.301 0-2.335-.372-2.31-.83l.077-1.353c.024-.452 1.087-.817 2.373-.817h9.222c1.286 0 2.328.365 2.328.817l-.003 1.353c-.001.458-1.056.83-2.357.83M649.693 456h-9.327c-1.301 0-2.357-.372-2.359-.83l-.007-1.353c-.002-.452 1.038-.817 2.324-.817h9.22c1.285 0 2.349.365 2.375.817l.08 1.353c.028.458-1.004.83-2.306.83M664.756 456h-9.272c-1.293 0-2.365-.372-2.395-.83l-.088-1.353c-.03-.452.982-.817 2.26-.817h9.164c1.279 0 2.358.365 2.412.817l.16 1.353c.055.458-.949.83-2.24.83M679.816 456h-9.215c-1.284 0-2.372-.372-2.43-.83l-.169-1.353c-.056-.452.928-.817 2.198-.817h9.108c1.27 0 2.366.365 2.446.817l.241 1.353c.081.458-.893.83-2.179.83M693.876 456h-9.158c-1.277 0-2.38-.372-2.465-.83l-.248-1.353c-.083-.452.873-.817 2.136-.817h9.05c1.263 0 2.373.365 2.48.817l.32 1.353c.11.458-.838.83-2.115.83M708.933 456h-9.099c-1.27 0-2.388-.372-2.499-.83l-.326-1.353c-.11-.452.819-.817 2.073-.817h8.994c1.255 0 2.379.365 2.512.817l.399 1.353c.134.458-.785.83-2.054.83M723.99 456h-9.041c-1.26 0-2.395-.372-2.531-.83l-.404-1.353c-.136-.452.765-.817 2.012-.817h8.936c1.246 0 2.384.365 2.544.817l.475 1.353c.16.458-.73.83-1.991.83M740.046 456h-8.983c-1.253 0-2.4-.372-2.563-.83l-.48-1.353c-.162-.452.712-.817 1.95-.817h8.878c1.239 0 2.391.365 2.576.817l.55 1.353c.188.458-.676.83-1.928.83M543.91 460h-11.466c-.285 0-.481-.075-.438-.167l1.7-3.67c.042-.09.302-.163.583-.163h11.265c.28 0 .479.073.442.163l-1.5 3.67c-.039.092-.3.167-.587.167M564.222 467H552.47c-.292 0-.5-.075-.465-.168l1.4-3.669c.034-.09.295-.163.582-.163h11.543c.288 0 .498.073.468.163l-1.19 3.669c-.03.093-.293.168-.585.168M565.252 473h-11.78c-.294 0-.503-.094-.468-.21l1.375-4.587c.034-.112.295-.203.582-.203h11.567c.287 0 .498.091.47.203l-1.162 4.587c-.03.116-.29.21-.584.21M573.238 478h-12.724c-.316 0-.545-.095-.51-.21l1.37-4.587c.033-.112.313-.203.624-.203h12.487c.311 0 .541.091.513.203l-1.135 4.586c-.028.116-.309.211-.625.211M534.23 486h-12.71c-.338 0-.567-.107-.512-.24l2.337-5.531c.054-.127.365-.229.696-.229h12.44c.33 0 .56.102.513.229l-2.062 5.532c-.05.132-.363.239-.701.239M551.53 486h-12.987c-.345 0-.586-.107-.537-.24l2.046-5.531c.047-.127.359-.229.696-.229h12.709c.338 0 .58.102.539.229l-1.766 5.532c-.042.132-.356.239-.7.239M566.966 486h-12.434c-.33 0-.567-.107-.528-.24l1.642-5.531c.037-.127.33-.229.654-.229h12.169c.322 0 .56.102.528.229l-1.373 5.532c-.032.132-.327.239-.658.239M588.282 486H571.63c-.383 0-.664-.122-.628-.273l1.326-5.466c.034-.144.367-.261.742-.261h16.295c.375 0 .658.117.632.261l-.974 5.466c-.026.15-.36.273-.742.273M686.379 486h-16.035c-.369 0-.683-.122-.7-.273l-.643-5.466c-.017-.144.262-.261.623-.261h15.693c.36 0 .674.117.7.261l.981 5.466c.027.15-.25.273-.62.273M704.443 486h-12.666c-.34 0-.636-.106-.663-.237l-1.112-5.535c-.025-.127.223-.228.555-.228h12.395c.333 0 .627.101.658.228l1.387 5.535c.033.13-.216.237-.554.237M667.633 486h-75.295c-.79 0-1.387-.256-1.335-.572l.807-4.878c.05-.304.717-.55 1.49-.55h73.687c.774 0 1.427.246 1.461.55l.55 4.878c.036.316-.575.572-1.365.572M587.604 478H575.5c-.3 0-.524-.095-.498-.21l1.037-4.587c.026-.112.286-.203.582-.203h11.878c.296 0 .52.091.5.203l-.813 4.586c-.02.116-.282.211-.582.211M604.862 478h-12.34c-.308 0-.54-.095-.52-.21l.784-4.587c.018-.112.279-.203.58-.203h12.112c.301 0 .534.091.521.203l-.555 4.586c-.015.116-.275.211-.582.211M619.13 478h-12.586c-.313 0-.557-.095-.543-.21l.522-4.587c.013-.112.272-.203.58-.203h12.352c.308 0 .552.091.545.203l-.289 4.586c-.007.116-.268.211-.58.211M636.41 478h-12.842c-.32 0-.574-.095-.568-.21l.249-4.587c.006-.112.266-.203.58-.203h12.603c.314 0 .568.091.568.203l-.011 4.586c0 .116-.26.211-.58.211M652.434 478h-12.82c-.32 0-.58-.095-.58-.21l-.034-4.587c-.001-.112.252-.203.566-.203h12.582c.314 0 .573.091.58.203l.272 4.586c.007.116-.247.211-.566.211M668.458 478h-12.566c-.313 0-.573-.095-.58-.21l-.312-4.587c-.008-.112.235-.203.543-.203h12.332c.308 0 .567.091.58.203l.544 4.586c.014.116-.228.211-.541.211M682.48 478h-12.32c-.307 0-.567-.095-.582-.21l-.577-4.587c-.014-.112.218-.203.52-.203h12.09c.302 0 .562.091.582.203l.806 4.586c.02.116-.212.211-.52.211M698.501 478h-12.083c-.302 0-.563-.095-.584-.21l-.833-4.587c-.02-.112.203-.203.499-.203h11.86c.295 0 .555.091.58.203l1.058 4.586c.027.116-.195.211-.497.211M718.087 486h-9.36c-1.19 0-2.252-.375-2.37-.836l-.346-1.342c-.117-.455.743-.822 1.92-.822h9.256c1.177 0 2.244.367 2.385.822l.412 1.342c.143.461-.707.836-1.897.836M736.01 486h-9.965c-1.267 0-2.42-.375-2.576-.836l-.452-1.342c-.153-.455.738-.822 1.991-.822h9.854c1.253 0 2.412.367 2.59.822l.524 1.342c.181.461-.7.836-1.966.836M734.139 483h-9.304c-1.183 0-2.259-.375-2.402-.836l-.417-1.341c-.142-.456.692-.823 1.863-.823h9.2c1.17 0 2.251.367 2.415.823l.485 1.34c.166.462-.658.837-1.84.837M752.067 486h-9.898c-1.258 0-2.428-.375-2.61-.836l-.535-1.342c-.18-.455.681-.822 1.926-.822h9.788c1.245 0 2.42.367 2.625.822l.606 1.342c.207.461-.644.836-1.902.836M582.493 473h-12.001c-.3 0-.518-.094-.49-.21l1.14-4.587c.028-.112.288-.203.582-.203h11.784c.293 0 .513.091.49.203l-.92 4.587c-.024.116-.286.21-.585.21M596.744 473h-12.233c-.304 0-.532-.094-.51-.21l.895-4.587c.021-.112.282-.203.58-.203h12.012c.298 0 .527.091.511.203l-.672 4.587c-.017.116-.278.21-.583.21M614.005 473h-12.471c-.311 0-.55-.094-.533-.21l.64-4.587c.015-.112.275-.203.58-.203h12.245c.305 0 .544.091.534.203l-.414 4.587c-.01.116-.27.21-.58.21M628.326 473h-11.809c-.294 0-.525-.094-.517-.21l.35-4.587c.01-.112.25-.203.539-.203h11.594c.29 0 .52.091.517.203l-.135 4.587c-.004.116-.245.21-.54.21M644.468 473h-11.935c-.297 0-.536-.094-.533-.21l.093-4.587c.002-.112.24-.203.532-.203h11.718c.291 0 .53.091.533.203l.124 4.587c.003.116-.235.21-.532.21M658.485 473h-11.792c-.294 0-.535-.094-.539-.21l-.154-4.587c-.004-.112.226-.203.515-.203h11.578c.288 0 .529.091.539.203l.368 4.587c.01.116-.222.21-.515.21M674.468 473h-12.454c-.31 0-.57-.094-.581-.21l-.433-4.587c-.01-.112.228-.203.532-.203h12.229c.304 0 .565.091.58.203l.658 4.587c.017.116-.22.21-.531.21M689.488 473h-12.216c-.305 0-.565-.094-.583-.21l-.688-4.587c-.017-.112.212-.203.51-.203h11.996c.299 0 .56.091.581.203l.91 4.587c.023.116-.205.21-.51.21M704.51 473h-11.992c-.299 0-.56-.094-.583-.21l-.933-4.587c-.023-.112.197-.203.49-.203h11.773c.293 0 .554.091.582.203l1.15 4.587c.03.116-.189.21-.488.21M719.529 473h-11.773c-.293 0-.555-.094-.585-.21l-1.168-4.587c-.03-.112.181-.203.469-.203h11.559c.289 0 .55.091.583.203l1.382 4.587c.036.116-.174.21-.467.21M715.487 478h-12.706c-.316 0-.596-.095-.626-.21l-1.153-4.587c-.028-.112.2-.203.511-.203h12.47c.31 0 .59.091.624.203l1.39 4.586c.035.116-.194.211-.51.211M747.367 473h-23.122c-.41 0-.782-.13-.833-.289l-1.407-4.432c-.048-.154.238-.279.64-.279h22.702c.402 0 .779.125.841.28l1.802 4.431c.066.16-.214.289-.623.289"/>
            <path fill="#C3C3BE" d="M750.25 478h-31.946c-.487 0-.925-.15-.982-.333l-1.317-4.345c-.053-.178.29-.322.768-.322h31.354c.477 0 .926.144 1.002.322l1.86 4.345c.078.183-.252.333-.738.333M550.792 473h-23.16c-.409 0-.687-.13-.623-.29l1.77-4.429c.063-.155.438-.281.838-.281h22.74c.4 0 .686.126.638.281l-1.374 4.428c-.05.161-.422.291-.83.291M557.74 478h-31.994c-.484 0-.812-.15-.735-.336l1.824-4.34c.075-.179.52-.324.995-.324h31.4c.475 0 .817.145.765.324l-1.28 4.34c-.055.185-.491.336-.975.336M580.456 467H568.49c-.299 0-.515-.075-.486-.168l1.171-3.669c.028-.09.289-.163.581-.163h11.756c.293 0 .51.073.487.163l-.958 3.669c-.024.093-.285.168-.584.168M594.698 467h-12.19c-.303 0-.53-.075-.506-.168l.935-3.669c.023-.09.283-.163.581-.163h11.973c.298 0 .526.073.508.163l-.718 3.669c-.019.093-.279.168-.583.168M609.026 467h-11.534c-.288 0-.508-.075-.491-.168l.639-3.669c.016-.09.257-.163.54-.163h11.329c.282 0 .502.073.49.163l-.434 3.669c-.011.093-.253.168-.54.168M625.268 467h-11.756c-.293 0-.522-.075-.512-.168l.402-3.669c.01-.09.25-.163.538-.163h11.548c.288 0 .517.073.512.163l-.192 3.669c-.005.093-.247.168-.54.168M639.465 467h-11.934c-.297 0-.535-.075-.531-.168l.156-3.669c.004-.09.243-.163.536-.163h11.721c.292 0 .53.073.531.163l.056 3.669c.002.093-.238.168-.535.168M654.48 467h-11.851c-.296 0-.537-.075-.539-.168l-.09-3.669c-.002-.09.231-.163.521-.163h11.64c.29 0 .531.073.538.163l.3 3.669c.009.093-.225.168-.52.168M670.5 467h-11.623c-.289 0-.53-.075-.54-.168l-.337-3.669c-.008-.09.216-.163.5-.163h11.417c.284 0 .526.073.538.163l.544 3.669c.014.093-.21.168-.5.168M686.483 467H674.2c-.305 0-.566-.075-.581-.168l-.617-3.669c-.016-.09.216-.163.516-.163h12.066c.3 0 .56.073.58.163l.836 3.669c.02.093-.21.168-.516.168M700.504 467h-12.062c-.301 0-.562-.075-.584-.168l-.857-3.669c-.02-.09.202-.163.497-.163h11.848c.295 0 .555.073.582.163l1.07 3.669c.027.093-.195.168-.494.168M715.522 467h-11.838c-.295 0-.556-.075-.584-.168l-1.098-3.67c-.026-.09.187-.162.476-.162h11.629c.289 0 .55.072.581.162l1.309 3.67c.033.093-.18.168-.475.168M729.541 467h-11.633c-.29 0-.552-.075-.585-.168l-1.32-3.67c-.032-.09.173-.162.458-.162h11.425c.284 0 .545.072.583.162l1.526 3.67c.04.093-.165.168-.454.168M745.526 467h-12.243c-.305 0-.586-.075-.628-.168l-1.65-3.669c-.04-.09.17-.163.469-.163H743.5c.3 0 .58.073.626.163l1.867 3.669c.047.093-.161.168-.467.168M559.132 460h-11.67c-.29 0-.495-.075-.458-.167l1.484-3.67c.037-.09.297-.163.582-.163h11.466c.286 0 .493.073.46.163l-1.28 3.67c-.033.092-.294.167-.584.167M572.355 460H560.48c-.296 0-.51-.075-.477-.167l1.266-3.67c.031-.09.292-.163.583-.163h11.667c.29 0 .505.073.479.163l-1.06 3.67c-.027.092-.288.167-.583.167M588.59 460H576.5c-.301 0-.524-.075-.498-.167l1.036-3.67c.025-.09.286-.163.581-.163h11.88c.296 0 .52.073.5.163l-.825 3.67c-.022.092-.283.167-.583.167M601.914 460h-11.432c-.284 0-.5-.075-.48-.167l.744-3.67c.019-.09.26-.163.54-.163h11.231c.28 0 .496.073.482.163l-.545 3.67c-.015.092-.256.167-.54.167M617.15 460h-11.647c-.291 0-.515-.075-.502-.167l.513-3.67c.012-.09.254-.163.538-.163h11.445c.286 0 .51.073.503.163l-.31 3.67c-.009.092-.25.167-.54.167M632.386 460h-11.864c-.295 0-.529-.075-.522-.167l.282-3.67c.007-.09.248-.163.539-.163h11.656c.292 0 .525.073.523.163l-.076 3.67c-.002.092-.242.167-.538.167M647.47 460h-11.934c-.297 0-.537-.075-.536-.167l.032-3.67c0-.09.237-.163.53-.163h11.725c.293 0 .533.073.537.163l.176 3.67c.004.092-.233.167-.53.167M661.489 460h-11.74c-.293 0-.534-.075-.54-.167l-.209-3.67c-.005-.09.224-.163.511-.163h11.536c.287 0 .529.073.539.163l.414 3.67c.01.092-.218.167-.511.167M676.51 460h-11.522c-.288 0-.53-.075-.54-.167l-.448-3.67c-.011-.09.209-.163.49-.163h11.321c.282 0 .524.073.54.163l.648 3.67c.017.092-.203.167-.49.167M690.528 460h-11.31c-.28 0-.523-.075-.54-.167l-.677-3.67c-.016-.09.195-.163.471-.163h11.113c.276 0 .518.073.54.163l.873 3.67c.023.092-.188.167-.47.167M706.511 460H694.55c-.298 0-.56-.075-.584-.167l-.964-3.67c-.024-.09.194-.163.487-.163h11.753c.293 0 .554.073.582.163l1.173 3.67c.03.092-.187.167-.486.167M720.53 460h-11.76c-.293 0-.554-.075-.584-.167l-1.183-3.67c-.03-.09.181-.163.469-.163h11.554c.287 0 .548.073.582.163l1.388 3.67c.035.092-.174.167-.467.167M741.775 460h-17.007c-.785 0-1.502-.209-1.599-.467l-1.159-3.08c-.094-.25.457-.453 1.23-.453h16.71c.773 0 1.492.203 1.609.453l1.425 3.08c.119.258-.423.467-1.21.467M547.217 467H530.22c-.786 0-1.325-.21-1.204-.467l1.443-3.08c.118-.25.839-.453 1.61-.453h16.693c.773 0 1.321.203 1.226.453l-1.172 3.08c-.098.258-.815.467-1.6.467"/>
            <path fill="#D2D0CC" d="M639.394 332.958h95.226v-2.716h-95.226zM538.757 354.39h29.997v-18.363h-29.997zM572.072 354.39h29.998v-18.363h-29.998z"/>
            <path fill="#E5E4DF" d="M605.388 354.39h29.998v-18.363h-29.998zM704.622 354.201h29.998v-18.364h-29.998z"/>
            <path fill="#D2D0CC" d="M638.092 354.39h29.998v-18.363h-29.998zM671.408 354.39h29.998v-18.363h-29.998zM539.153 360.503h40.73v-1.68h-40.73zM539.153 364.34h97.535v-1.51h-97.535zM539.153 367.788h97.535v-1.508h-97.535zM539.153 371.237h97.535v-1.509h-97.535zM643.131 359.814h34.524v-1.681H643.13zM643.131 364.34h91.489v-1.51H643.13zM643.131 367.788h91.489v-1.508H643.13zM643.131 373.579h91.489v-1.51H643.13z"/>
            <path fill="#E5E4DF" d="M643.131 379.428h82.673v-1.509h-82.673zM643.131 383.48h82.673v-1.509h-82.673zM643.131 387.532h82.673v-1.509h-82.673zM643.131 391.584h82.673v-1.508h-82.673zM643.131 395.637h82.673v-1.51h-82.673z"/>
            <path fill="#D2D0CC" d="M539.153 376.238h97.535v-1.509h-97.535zM539.153 379.428h97.535v-1.509h-97.535zM539.385 404.56h97.536v-1.509h-97.536zM539.39 409.672h97.535v-1.508H539.39zM539.395 414.785h97.534v-1.51h-97.534z"/>
            <path fill="#E5E4DF" d="M539.405 418.388H734.62v-1.509H539.405zM539.405 421.888H734.62v-1.509H539.405zM539.405 425.604H734.62v-1.509H539.405z"/>
            <path fill="#D2D0CC" d="M539.39 383.48h97.535v-1.509H539.39zM539.606 387.1h29.89v-1.508h-29.89zM539.606 389.774h29.89v-1.509h-29.89zM539.606 399.947h30.45v-7.371h-30.45zM575.286 399.947h30.45v-7.371h-30.45zM643.131 410.583h30.451v-11.776h-30.45z"/>
            <path fill="#E5E4DF" d="M676.887 410.583h30.45v-11.776h-30.45z"/>
            <path fill="#D2D0CC" d="M710.579 410.583h15.225v-11.776H710.58z"/>
            <path fill="#3B4646" d="M735.202 512.652s-3.885-2.443-5.374-2.443h-30.085c-1.489 0-5.374 2.443-5.374 2.443 0 1.49-.51 2.972.979 2.972h38.875c1.49 0 .979-1.482.979-2.972"/>
            <path fill="#D3B293" d="M726.205 463.927l-4.618-3.955c-3.855-1.788-3.77-4.57-3.77-4.57h-7.99s.114 2.758-3.742 4.546l-3.231 3.965 11.183-.167 12.168.18"/>
            <path fill="#EAD0B0" d="M733.802 550.297s-.288 5.305.937 8.087l-9.71-.972s1.525-2.885-.007-7.115h8.78M694.706 549.58s.287 5.305-.936 8.088l9.709-.972s-1.526-2.886.007-7.115h-8.78"/>
            <path fill="#1C3C44" d="M695.515 557.086c-.689-.056-1.284-.237-1.686-.49a34.475 34.475 0 0 1-1.099.99c-.272.235-.57.487-.89.748-.011.01-.022.016-.032.026-.12.1-.245.2-.374.303-.028.016-.056.042-.082.064-.277.22-.57.444-.873.662l-.195.141c-.114.084-.233.168-.352.25-.087.064-.173.126-.266.188-.249.173-.504.35-.769.51-.124.09-.259.172-.388.255a22.925 22.925 0 0 1-3.864 1.972c-4.018 1.542-4.374 3.783-4.25 4.929.05.466.179.751.179.751s1.625.838 3.747.881c7.777.17 19.91-4.016 19.91-4.016s.87-1.038.575-3.428a9.66 9.66 0 0 0-.046-.343c-.024-.161-1.137-4.685-1.569-5.97-1.001.344-2.595.84-5.475 1.425-.258.053-.494.092-.71.12-.143.019-.283.032-.411.046a4.471 4.471 0 0 1-.686.01l-.02-.001-.081-.001a.042.042 0 0 0-.026-.007l-.267-.015"/>
            <path fill="#FFFFFE" d="M684.185 567.794c-1.763-.037-3.217-.589-3.796-.839-.021.246-.016.484.006.679.05.466.179.751.179.751s1.634.838 3.758.882c7.775.167 19.91-4.019 19.91-4.019s.387-.468.556-1.493c-3.16 1.023-13.547 4.19-20.613 4.04M695.926 559.182c-.08.256-.435.377-.786.263l-3.492-1.11c.32-.262.618-.514.89-.749l2.898.924c.35.113.575.412.49.672M694.293 560.152c-.079.261-.434.383-.785.27l-3.221-1.033c.303-.218.595-.443.873-.662.026-.022.054-.048.081-.064l2.562.823c.356.113.575.412.49.666M692.6 561.207c-.08.261-.429.383-.785.27l-3.11-.999c.265-.16.52-.337.769-.51.092-.062.178-.124.265-.187l2.382.76c.351.113.57.411.48.666"/>
            <path fill="#1C3C44" d="M733.037 557.802c.688-.055 1.284-.237 1.685-.49a35.692 35.692 0 0 0 1.099.991c.271.235.57.487.89.748.01.01.021.015.032.026.12.1.246.199.375.303.027.016.054.042.081.063.277.22.57.444.874.663l.194.141c.114.083.233.167.353.25.087.063.173.125.265.188.25.172.504.35.769.51.124.09.259.172.39.255a22.82 22.82 0 0 0 3.255 1.722c.2.087.398.174.608.25 4.017 1.542 4.374 3.782 4.25 4.929-.05.466-.18.751-.18.751s-1.625.837-3.747.881c-7.777.17-19.91-4.016-19.91-4.016s-.868-1.038-.575-3.428c.014-.113.029-.225.047-.343.024-.162 1.136-4.684 1.568-5.971 1.001.345 2.595.841 5.476 1.425.258.054.493.092.708.121.145.019.284.032.413.046.257.022.486.023.684.01l.022-.002h.08c.01-.006.015-.006.027-.007l.267-.016"/>
            <path fill="#FFFFFE" d="M744.365 568.511c1.764-.038 3.217-.589 3.797-.84.02.246.016.485-.005.68-.05.466-.18.751-.18.751s-1.633.837-3.759.882c-7.773.166-19.909-4.02-19.909-4.02s-.387-.467-.556-1.493c3.16 1.024 13.548 4.19 20.612 4.04M732.626 559.899c.08.255.434.377.785.264l3.493-1.112c-.32-.261-.62-.513-.891-.748l-2.897.924c-.35.113-.575.412-.49.672M734.258 560.869c.08.261.435.383.785.27l3.222-1.033a23.366 23.366 0 0 1-.873-.663c-.027-.02-.054-.047-.081-.063l-2.563.823c-.356.113-.575.412-.49.666M735.95 561.924c.08.261.43.383.786.269l3.11-.998c-.265-.16-.52-.338-.769-.51a10.483 10.483 0 0 1-.265-.187l-2.382.76c-.35.113-.57.41-.48.666"/>
            <path fill="#FFFEFE" d="M724.19 463.233l-10.804 30.458-10.794-30.427 10.81-.392 10.787.361"/>
            <path fill="#E2E0DC" d="M723.54 461.643l-.212-.18c.081.01.164.02.25.026l-.038.154m-1.47-1.257l-.483-.414a9.27 9.27 0 0 1-1.068-.58l.065-.04 1.241.293.246.741"/>
            <path fill="#ADAEAA" d="M723.578 461.489a3.98 3.98 0 0 1-.25-.026l-1.257-1.077-.246-.74 2.089.494-.336 1.349"/>
            <path fill="#BB9E85" d="M723.153 463.199l-6.656-.224c-.056-.2-.277-.345-.616-.345h-.41l5.048-3.237a9.27 9.27 0 0 0 1.068.58l1.74 1.49.213.18-.387 1.556"/>
            <path fill="#DFE0DD" d="M721.441 469.522l-5.365-5.485.377-.734a.443.443 0 0 0 .044-.328l6.656.224-1.043 4.183-.669 2.14"/>
            <path fill="#E26B58" d="M715.534 465.09c-.056.11-.294.19-.535.19h-1.607c-.242 0-.48-.08-.536-.19l-.92-1.787c-.178-.348.066-.673.574-.673h3.37c.508 0 .752.325.573.673l-.919 1.787"/>
            <path fill="#E26B58" d="M718.396 504.534h-8.412l2.863-39.48h2.687l2.862 39.48"/>
            <path fill="#576A90" d="M744.94 482.84l-2.447-8.33c-2.794-11.159-16.898-14.069-16.898-14.069l-3.094 5.695-8.362 26.732-8.362-26.732-3.094-5.695s-14.104 2.91-16.898 14.069l-2.448 8.33a24.855 24.855 0 0 0-.577 11.552l.022.123a9.545 9.545 0 0 0 2.016 4.334l5.085 6.174 5.236-4.37-4.406-6.157s.021-3.2.667-4.983l6.263-8.163-.628 19.065-1.764 7.963s-.246 2.092 1.312 2.589l17.544.211v.001h.064l17.544-.212c1.558-.497 1.311-2.59 1.311-2.59l-1.764-7.962-.628-19.065 6.264 8.163c.646 1.783.667 4.983.667 4.983l-4.406 6.157 5.237 4.37 5.084-6.174a9.534 9.534 0 0 0 2.015-4.334l.023-.123c.716-3.844.524-7.8-.578-11.552"/>
            <path fill="#FFFEFE" d="M714.996 462.5l6.555 6.699 2.44-9.153-4.028-1.128-4.967 3.582"/>
            <path fill="#D5D4CF" d="M725.823 472.25h-3.751l1.271 1.987-8.362 18.604 6.785-29.856.783-3.343s3.124.745 4.191 1.18l-.917 11.429"/>
            <path fill="#E2E0DC" d="M704.33 462.1l-.15-.602h.642l-.492.603m1.29-1.581l-.202-.753 1.697-.401.007.023c-.31.194-.654.381-1.037.56l-.466.57"/>
            <path fill="#ADAEAA" d="M704.822 461.498h-.641l-.339-1.358 1.576-.373.201.753-.797.978M707.126 459.41l-.01-.036.09-.023.006.005-.086.054"/>
            <path fill="#BB9E85" d="M704.602 463.19l-.272-1.09 1.755-2.152a9.528 9.528 0 0 0 1.037-.559l.055-.035 5.136 3.293c-.204.04-.344.144-.403.279l-7.308.265"/>
            <path fill="#DFE0DD" d="M706.71 469.117l-.933-2.981-.815-1.501-.36-1.444 7.308-.265a.434.434 0 0 0 .026.377l.16.31-5.386 5.504"/>
            <path fill="#C8604E" d="M712.096 463.612l-.16-.309a.434.434 0 0 1-.026-.377c.06-.135.2-.238.403-.279l.447.287-.664.678"/>
            <path fill="#4F6081" d="M706.206 469.633l-1.244-4.998.815 1.5.933 2.982-.504.516"/>
            <path fill="#FFFEFE" d="M712.76 462.5l-6.554 6.699-2.441-9.153 4.029-1.128 4.966 3.582"/>
            <path fill="#D5D4CF" d="M701.933 472.25h3.752l-1.271 1.987 8.36 18.604-6.784-29.856-.783-3.343s-3.123.745-4.19 1.18l.916 11.429"/>
            <path fill="#3B4646" d="M704 548.779l-10.732-1.18s-.865-13.924-.652-15.35c.798-5.354.59-14.19 1.811-17.894 1.22-3.703 5.769-5.078 5.769-5.078s5.692-3.863 8.973-1.61c.91.626 4.33 2.244-1.754 28.404-1.595 6.86-3.415 12.708-3.415 12.708M724.021 548.643l10.78-.786s1.57-13.878 1.43-15.311c-.527-5.378.128-14.198-.904-17.943-1.032-3.746-5.506-5.286-5.506-5.286s-5.492-4.068-8.883-1.937c-.942.592-4.442 2.085.313 28.442a200.1 200.1 0 0 0 2.77 12.82"/>
            <path fill="#313A39" d="M704.421 551.95h-11.346a.856.856 0 0 1-.853-.855v-3.19c0-.47.383-.854.853-.854h11.346c.47 0 .854.384.854.854v3.19c0 .47-.384.854-.854.854M724.04 551.95h11.345c.47 0 .854-.385.854-.855v-3.19a.857.857 0 0 0-.854-.854h-11.346a.857.857 0 0 0-.854.854v3.19c0 .47.385.854.854.854"/>
            <path fill="#D3B293" d="M701.695 438.605c.06 1.753-.298 3.281-1.203 3.312-.906.032-1.562-1.368-1.623-3.122-.06-1.752.636-3.2 1.54-3.23.907-.032 1.225 1.286 1.286 3.04"/>
            <path fill="#E9CFB0" d="M725.273 438.253c-.06 1.753.298 3.281 1.203 3.312.906.031 1.562-1.368 1.623-3.122.06-1.753-.635-3.2-1.54-3.23-.907-.033-1.225 1.286-1.286 3.04"/>
            <path fill="#EAD0B0" d="M725.99 438.985c0 9.656-5.51 17.483-12.307 17.483-6.798 0-12.308-7.827-12.308-17.483s5.51-17.484 12.308-17.484c6.797 0 12.307 7.828 12.307 17.484"/>
            <path fill="#2A2B29" d="M702.019 444.579s-2.816-10.488 3.215-15.74c0 0 4.494 3.62 9.962 2.348 0 0 1.807-.388 3.986-1.754 0 0 4.27-1.81 5.673 2.373 1.494 4.457.734 8.991.825 11.701 0 0 2.423-7.23 2.512-8.673 0 0 .752-5.243-.61-8.33 0 0-.998-3.306-4.81-5.003 0 0-1.304-4.295-10.303-3.572 0 0-6.646-.934-8.216 3.784 0 0-5.617 1.231-5.093 11.002 0 0-.5 7.371 2.859 11.864"/>
            <path fill="#F6F6F4" d="M736.974 510.22h-46.678a2.31 2.31 0 0 1-2.309-2.31v-27.665a2.309 2.309 0 0 1 2.31-2.309h46.677a2.309 2.309 0 0 1 2.308 2.309v27.665a2.309 2.309 0 0 1-2.308 2.31"/>
            <path fill="#DADAD5" d="M688.4 509.206a2.314 2.314 0 0 0 1.93 1.052h46.677c1.275 0 2.286-1.054 2.286-2.33v-27.664c0-.565-.193-1.079-.53-1.48L688.4 509.206"/>
            <path fill="#BBBBB6" d="M738.748 510.122h-50.175a.833.833 0 0 0-.832.833v1.25c0 .46.373.832.832.832h50.175c.46 0 .832-.372.832-.833v-1.25a.832.832 0 0 0-.832-.832"/>
            <path fill="#ECD1B1" d="M531.304 224.876c.215-.388.492-.951.831-1.765a5.653 5.653 0 0 0 .226-3.683c-.395-1.421-1-3.366-1.674-4.724 0 0-.678-3.712.607-7.51 0 0 8.25-10.279 18.075-2.29 0 0 9.548 7.506 2.142 19.227l-.821.831 4.754-.427 1.498 3.43-10.321 9.956-2.808-6.429s-5.525 2.817-6.63 1.243c0 0-.621-.68-.121-1.732 0 0-.015-.18-.047-.472a6.227 6.227 0 0 1-.632-.779c-.708-1.031-1.786-2.57-2.07-2.788-.284-.217-.745-.412-1.698-.697-.681-.203-1.657-.77-1.311-1.39"/>
            <path fill="#2A2B29" d="M531.326 214.307a.74.74 0 0 1-1.273.1c-.54-.774-1.76-3.042-.385-8.402.361-1.405 2.047-3.125 3.781-3.827 1.642-.665 4.24-1.437 6.81-1.05.492.075.972.216 1.435.396.537.21 1.703.54 3.502.407 1.742-.129 3.49.138 5.093.83 2.42 1.045 4.798 3.362 5.89 6.39 0 0 1.868 5.876 1.032 7.99a.516.516 0 0 0-.04.167c-.051.855-2.842 5.47-.255 10.383.084.161-.068.356-.217.46-.636.445-2.448 1.428-4.534.039 0 0-1.17-.688-2.157-2.96-.546-1.257-.752-2.631-.661-4 .063-.97-.07-2.362-1.05-3.555a.423.423 0 0 0-.034-.038c-.232-.237-2.536-2.5-3.556-.494a.447.447 0 0 1-.04.065c-.14.195-.923 1.226-2.02 1.753a1.75 1.75 0 0 1-2.195-.604c-.434-.64-2.165-2.866-2.431-3.742-.061-.202-.03-.597-.057-1.059-.157-2.685-3.591-3.735-5.22-1.595-.453.597-.933 1.363-1.418 2.346"/>
            <path fill="#C3A38A" d="M502.552 327.61s-.407 5.639-2.072 8.412l10.382.276s-1.225-3.252.96-7.512l-9.27-1.177"/>
            <path fill="#A2635B" d="M502.414 332.516c-.719-.151-1.323-.423-1.714-.744a37.94 37.94 0 0 1-1.292.9c-.319.211-.668.436-1.04.67-.014.01-.025.013-.038.023-.14.089-.285.177-.436.269-.03.014-.064.037-.095.057-.322.193-.66.391-1.01.582l-.225.123c-.132.072-.268.145-.406.216-.1.055-.2.11-.305.163-.286.149-.579.302-.88.436-.143.077-.297.146-.445.217-1.154.54-2.39 1.02-3.668 1.38-.222.066-.445.131-.676.184-4.448 1.09-5.125 3.408-5.148 4.634-.01.5.088.818.088.818s1.605 1.102 3.84 1.432c8.187 1.222 21.56-1.571 21.56-1.571s1.057-.98 1.067-3.542a9.5 9.5 0 0 0-.003-.37c-.004-.172-.574-5.098-.857-6.514-1.103.23-2.851.54-5.973.771-.28.022-.532.031-.764.033-.154 0-.303-.005-.44-.008a4.756 4.756 0 0 1-.726-.081l-.022-.004-.084-.012c-.01-.007-.016-.008-.027-.01l-.28-.052"/>
            <path fill="#FFFEFD" d="M489.018 342.304c-1.857-.276-3.318-1.053-3.896-1.396-.056.258-.083.51-.086.718-.01.499.088.818.088.818s1.614 1.103 3.851 1.435c8.186 1.217 21.56-1.575 21.56-1.575s.473-.443.788-1.502c-3.473.657-14.866 2.608-22.305 1.502M502.568 334.784c-.119.26-.51.34-.865.174l-3.538-1.643c.372-.233.721-.458 1.04-.67l2.935 1.364c.356.167.553.511.428.775M500.714 335.59c-.118.265-.51.346-.865.179l-3.263-1.522c.35-.19.688-.388 1.01-.582.031-.02.064-.043.095-.057l2.594 1.212c.361.168.553.513.429.77M498.786 336.477c-.12.265-.505.347-.866.179l-3.15-1.471c.301-.135.594-.287.88-.436.106-.053.205-.108.305-.162l2.414 1.121c.355.167.546.512.417.769"/>
            <path fill="#182F33" d="M506.013 331.18l-4.637-.418s2.085-46.76 12.3-45.873c6.875.597.522 21.797.522 21.797l-8.185 24.493"/>
            <path fill="#F6F6F4" d="M509.89 278.527h35.197c.474 0 .858.384.858.859v2.638a.858.858 0 0 1-.858.86h-35.196a.86.86 0 0 1-.859-.86v-2.638c0-.475.385-.859.859-.859"/>
            <path fill="#F6F6F4" d="M492.635 250.222l19.144 30.027a.653.653 0 0 1-.199.902l-.562.358a.652.652 0 0 1-.9-.2l-19.145-30.028a.654.654 0 0 1 .2-.902l.56-.358a.653.653 0 0 1 .902.2"/>
            <path fill="#D3B293" d="M508.181 329.173s-.408 5.64-2.073 8.413l10.383.276s-1.225-3.253.96-7.512l-9.27-1.177"/>
            <path fill="#8F5248" d="M508.044 334.08c-.72-.151-1.325-.423-1.714-.744a39.047 39.047 0 0 1-2.334 1.57c-.012.009-.025.013-.037.023-.14.089-.286.177-.436.268-.031.015-.063.038-.094.058-.322.194-.662.391-1.012.582l-.224.123a19.7 19.7 0 0 1-.406.216c-.1.055-.2.11-.306.163-.285.149-.578.301-.879.436-.143.077-.296.146-.445.216-1.154.54-2.39 1.02-3.669 1.381-.221.066-.444.131-.675.184-4.449 1.09-5.125 3.407-5.148 4.634-.01.5.088.818.088.818s1.604 1.101 3.84 1.432c8.188 1.222 21.56-1.571 21.56-1.571s1.057-.98 1.067-3.542c0-.122 0-.242-.004-.37-.004-.173-.572-5.098-.855-6.514-1.104.23-2.853.54-5.973.77-.28.023-.534.032-.764.034-.156 0-.305-.005-.442-.008a4.728 4.728 0 0 1-.724-.081l-.022-.004-.086-.012c-.01-.007-.015-.008-.027-.01l-.279-.053"/>
            <path fill="#FFFEFD" d="M494.647 343.868c-1.858-.276-3.318-1.054-3.896-1.396-.056.257-.083.51-.086.718-.01.499.088.818.088.818s1.613 1.102 3.851 1.435c8.186 1.218 21.56-1.575 21.56-1.575s.473-.442.787-1.502c-3.473.656-14.865 2.608-22.304 1.502M508.197 336.348c-.118.26-.51.34-.865.173l-3.539-1.642c.374-.233.723-.458 1.04-.67l2.936 1.364c.355.167.552.511.428.775M506.343 337.154c-.119.265-.51.346-.865.179l-3.264-1.522c.35-.19.69-.388 1.012-.583.03-.019.063-.042.094-.056l2.595 1.212c.36.167.552.513.428.77M504.414 338.04c-.119.266-.505.348-.865.18l-3.15-1.471c.301-.135.594-.288.88-.435.106-.055.205-.109.305-.163l2.413 1.122c.355.166.547.51.417.768"/>
            <path fill="#1C3C44" d="M509.364 294.115c.872-5.786 2.101-10.778 7.413-11.025 7.574-.351 12.19-.299 20.64-.156.835.014 6.787.47 9.021-.484 12.337 5.925 19.54 7.83 23.316 8.406-.125.791-.27 1.569-.441 2.321-.719 3.16-5.61 6.734-8.918 6.93-5.634.332-12.78 0-18.37 0-6.56.029-14.726 0-18.638-.156l.001 3.184c.014 8.822-2.972 28.44-3.132 29.354-7.153.391-8.952-.528-14.867-.684-.952-.025.834-13.992.939-14.7 1.145-7.82 1.511-14.91 3.036-22.99"/>
            <path fill="#5273A2" d="M545.195 236.936c.572-.694.572-.694 4.382-4.396 2.873-2.5 4.66-4.125 6.813-5.933 2.006 3.623 1.45 2.806 3.255 6.413 3.406 7.575 4.04 8.68 5.785 14.7 2.966 10.229 5.336 20.343 5.134 30.992-.044 2.287-.1 4.77-.272 7.245a56.686 56.686 0 0 1-.538 4.899c-3.776-.576-10.979-2.48-23.316-8.406.204-.087.381-.186.516-.298l-2.58-25.882c-.771.974-1.782 2.133-2.849 3.341l-4.04-5.678c3.706-4.917 3.287-11.626 7.71-16.997"/>
            <path fill="#ECD1B1" d="M523.423 270.13l-2.78 2.848-3.941-3.782 2.929-3.09 3.792 4.025"/>
            <path fill="#ECD1B1" d="M517.307 268.591l3.361 4.278s-.607 4.007-1.497 4.946c0 0-1.462 2.967-3.97 3.227 0 0-2.298.447-2.017-.78 0 0-2.972-.217-1.94-2.208 0 0-3.204-.255-1.563-2.818 0 0-2.251-.677-.218-2.439 0 0 .486-.392 1.186-1.931 0 0 .88-1.733 3.08-1.515 0 0 1.509.548 3.578-.76"/>
            <path fill="#5273A2" d="M516.873 267.994l17.923-13.173s4.248-3.573 5.445-5.606c2.249-3.82 1.741-2.598 1.785-3.607l5.902 3.215c-.322 2.642-.695 5.48-.795 7.547-.184 3.846-3.914 6.169-3.914 6.169l-20.647 13.837-5.699-8.382"/>
            <path fill="#FFFFFE" d="M519.304 266.263l5.56 7.75a1.2 1.2 0 0 1-.274 1.67l-1.751 1.258a1.2 1.2 0 0 1-1.67-.275l-5.56-7.75a1.2 1.2 0 0 1 .274-1.67l1.751-1.258a1.2 1.2 0 0 1 1.67.275"/>
            <path fill="#21437B" d="M527.824 330.242h218.925V305.13H527.824z"/>
            <path fill="#B9927C" d="M763.586 302.182s-.01-.722-.625-1.732l.037-.078-.17-.13c-.684-1.023-2.037-2.431-4.359-3.922-2.19-1.668-4.551-2.867-5.104-3.26-3.435-2.448-11.336-6.968-11.336-6.968h-28.818s-6.818 4.52-10.253 6.967c-.553.394-2.915 1.593-5.104 3.261-2.323 1.49-3.675 2.899-4.36 3.922l-.17.13.038.078c-.616 1.01-.625 1.732-.625 1.732-1.08 2.857 3.618 11.747 3.618 11.747l12.395 28.35c7.523 1.144 8.06-1.7 8.06-1.7-.19-1.618-1.986-11.895-1.986-11.895-2.562-10.62-6.754-16.27-8.797-19.168a1.261 1.261 0 0 1 .587-1.909c1.468-.553 3.01-1.148 4.517-1.759 5.263-2.127 9.227-4.097 12.208-5.888l9.694.03c-.004.041.04.064.123.073 2.96 1.763 6.874 3.698 12.035 5.785 1.58.64 3.197 1.263 4.727 1.838.667.25.926 1.055.532 1.648-1.862 2.806-5.708 8.336-8.32 19.17 0 0-2.088 10.32-2.278 11.94 0 0 .197 2.979 7.72 1.836l12.395-28.351s4.698-8.89 3.62-11.747"/>
            <path fill="#D4B394" d="M741.217 245.834l-5.814-2.147c-4.354-1.434-3.417-3.938-3.417-3.938h-9.023s.937 2.504-3.417 3.938l-5.815 2.149 13.743 1.654 13.743-1.656"/>
            <path fill="#FFFEFD" d="M719.567 243.172c.01 0 .02 0 .03-.002l2.542 13.133.019.09 2.057 10.624.723 17.18h4.465l1.027-16.542 4.717-24.369c-.536-.288-1.267-.588-1.957-.694 0 0 .492 3.548-5.086 3.69-6.264.161-6.346-3.69-6.346-3.69-.771.08-1.502.373-2.222.58.011 0 .02 0 .03-.002l.001.002"/>
            <path fill="#D1642D" d="M753.84 268.884l-3.644-13.825c-2.338-9.334-15.16-11.874-15.16-11.874l-7.72 39.675-7.472-39.78s-13.072 2.645-15.41 11.98l-3.642 13.824s-.754 2.825-.15 6.7c.253 1.63.907 3.172 1.898 4.49l2.963 3.944 6.27-1.37-3.8-6.488s.016-2.677.557-4.168l3.242-7.832 1.264 12.519.555 9.457h27.45l.553-9.457 1.265-12.52 3.241 7.833c.54 1.49.558 4.168.558 4.168l-3.802 6.488 6.27 1.37 2.964-3.943a10.043 10.043 0 0 0 1.898-4.49c.605-3.876-.149-6.701-.149-6.701"/>
            <path fill="#ECD1B1" d="M739.155 225.728c0 8.967-5.092 16.236-11.373 16.236-6.282 0-11.374-7.269-11.374-16.236s5.092-16.236 11.374-16.236c6.28 0 11.373 7.27 11.373 16.236"/>
            <path fill="#2A2B29" d="M715.294 222.589c-.197-2.299-.386-5.802.84-9.302.778-2.22 1.828-4.891 3.997-5.799 2.69-1.125.82.705 6.427-.4 2.397-.473 4.626-1.676 8.505-.573 0 0 3.813 1.165 4.942 9.825l.006.038c.045.238.504 2.814.325 6.019-.032.56-.575 3.257-1.027 3.59-.697.512-.705-.101-.77-.13-.231-.105.304-3.283.27-3.535-.202-1.452-1.229-6.038-3.597-7.183-.013-.006-1.485-.5-3.922.686-4.707 2.287-6.913.28-7.524.104-.042-.011-.755-.43-.793-.448-.461-.223-3.16-1.339-4.507 1.15a.688.688 0 0 1-.047.078c-.178.252-1.378 1.975-1.816 5.898-.026.234.52 3.061.458 3.346 0 .004-.692.343-.801-.1-.028-.116-.863-2.045-.966-3.264"/>
            <path fill="#2A2B29" d="M738.504 225.737c.037.449-.486 2.785-1.068 4.087-.144.322-.276.62-.402.896-.792 1.743-2.902 2.828-4.58 1.909-.835-.458-1.321-.973-3.554-1.266l-1.12.014-1.122-.014c-2.232.293-2.72.808-3.554 1.266-1.678.92-3.788-.166-4.58-1.91-.125-.274-.258-.573-.401-.895-.582-1.302-1.105-3.638-1.069-4.087h-.822c.101 1.512.288 3.051.608 4.428 0 0 1.6 11.2 10.477 11.802 0 0 .157.018.434.02h.058c.275-.002.432-.02.432-.02 8.876-.602 10.478-11.802 10.478-11.802.32-1.377.507-2.916.608-4.428h-.823"/>
            <path fill="#EAD0B0" d="M748.508 340.885s-.264 4.872.86 7.428l-8.919-.893s1.401-2.651-.006-6.535h8.065M708.028 340.095s.264 4.872-.86 7.427l8.918-.892s-1.4-2.651.007-6.535h-8.065"/>
            <path fill="#223639" d="M708.77 346.989c-.632-.052-1.178-.218-1.547-.451a32.788 32.788 0 0 1-1.01.91c-.25.217-.523.448-.817.688-.01.01-.02.014-.03.024-.11.09-.225.182-.344.277-.025.016-.05.039-.075.06-.254.2-.523.406-.802.608-.06.042-.12.086-.179.13-.104.076-.214.152-.323.23-.08.056-.16.114-.245.172-.228.157-.462.32-.706.468-.114.082-.237.157-.356.234a20.864 20.864 0 0 1-2.991 1.58c-.183.082-.366.161-.559.232-3.69 1.416-4.018 3.474-3.903 4.526.045.43.164.692.164.692s1.493.769 3.442.808c7.144.156 18.288-3.69 18.288-3.69s.799-.953.53-3.147c-.014-.104-.026-.207-.044-.317-.022-.147-1.044-4.301-1.44-5.483-.92.316-2.384.773-5.03 1.308a8.95 8.95 0 0 1-.651.112c-.133.017-.261.03-.378.041a3.87 3.87 0 0 1-.63.009h-.02l-.074-.001c-.008-.006-.013-.006-.024-.006l-.245-.014"/>
            <path fill="#31414D" d="M698.365 356.825c-1.62-.034-2.955-.54-3.487-.772-.02.227-.016.446.005.624.045.429.164.692.164.692s1.5.769 3.453.81c7.14.152 18.287-3.693 18.287-3.693s.356-.43.511-1.372c-2.903.94-12.443 3.85-18.933 3.711"/>
            <path fill="#223639" d="M747.805 347.779c.632-.052 1.18-.218 1.549-.451.265.25.589.545.959.867.015.014.029.029.05.043.249.217.523.448.817.688.01.01.02.014.03.024.11.09.225.182.345.277.024.016.049.04.074.06.254.2.523.407.802.608.06.042.119.086.178.13.105.076.214.152.324.23.08.057.159.115.244.172.228.157.463.32.706.468.114.082.239.157.358.234.929.588 1.935 1.134 2.99 1.581.183.081.367.16.56.231 3.69 1.416 4.016 3.474 3.903 4.526-.047.43-.165.692-.165.692s-1.493.769-3.442.808c-7.144.156-18.288-3.69-18.288-3.69s-.8-.953-.53-3.147c.013-.104.027-.207.044-.316.022-.147 1.044-4.302 1.44-5.484.92.317 2.383.773 5.03 1.308.238.05.453.086.65.112.133.017.262.03.38.041.236.022.446.023.63.009h.019l.073-.001c.01-.006.015-.006.024-.006l.246-.014"/>
            <path fill="#31414D" d="M758.21 357.615c1.621-.034 2.956-.54 3.489-.771.019.226.015.445-.005.623a2.502 2.502 0 0 1-.165.692s-1.501.769-3.452.81c-7.141.152-18.29-3.693-18.29-3.693s-.355-.43-.51-1.372c2.903.94 12.445 3.85 18.934 3.711"/>
            <path fill="#9E635E" d="M716.952 342.271H706.53a.787.787 0 0 1-.784-.785v-2.93c0-.432.353-.786.784-.786h10.422c.432 0 .785.354.785.785v2.93a.788.788 0 0 1-.785.786M739.54 342.402h10.422a.788.788 0 0 0 .785-.785v-2.93a.787.787 0 0 0-.785-.785H739.54a.787.787 0 0 0-.785.785v2.93c0 .432.353.785.785.785"/>
            <path fill="#F6F6F4" d="M750.41 287.956h-45.052a2.229 2.229 0 0 1-2.228-2.23v-26.7c0-1.232.997-2.23 2.228-2.23h45.052c1.23 0 2.228.998 2.228 2.23v26.7c0 1.232-.998 2.23-2.228 2.23"/>
            <path fill="#DADAD5" d="M703.528 286.978a2.233 2.233 0 0 0 1.862 1.014h45.052c1.23 0 2.205-1.016 2.205-2.247v-26.701a2.2 2.2 0 0 0-.511-1.43l-48.608 29.364"/>
            <path fill="#BBBBB6" d="M752.122 287.862h-48.428a.803.803 0 0 0-.802.803v1.206c0 .444.36.803.802.803h48.428a.803.803 0 0 0 .804-.803v-1.206a.804.804 0 0 0-.804-.803"/>
            <path fill="#304753" d="M561.402 445.994l5.255-.211 5.13-.228-2.138.447s-2.906.47-5.664.684l-5.24.35s-2.948.244-3.45 1.87c0 0-.422 1.06-.19 2.153.193.937.777 1.55.777 1.55.92 1.35 3.96.572 3.96.572l5.036-1.485c2.662-.753 5.552-1.318 5.552-1.318l2.16-.32-4.892 1.561-5.003 1.62c-2.082.874-6.99 1.59-6.99 1.59-4.12.632-5.133-1.268-5.133-1.268-.21-.345-.501-.951-.596-1.598-.237-1.32-.273-1.646-.087-2.174 0 0 .691-2.098 4.405-2.868 0 0 4.852-1.028 7.108-.927"/>
            <path fill="#E5BD95" d="M558.745 447.036l5.24-.35c2.758-.215 5.67-.686 5.67-.686l3.105-.648.878 4.549-3.202.475s-2.893.566-5.555 1.32l-5.037 1.484s-3.042.78-3.961-.57c0 0-.585-.614-.777-1.55-.233-1.095.19-2.154.19-2.154.5-1.626 3.45-1.87 3.45-1.87"/>
            <path fill="#304753" d="M615.693 445.883l-5.254-.212-5.131-.227 2.139.447s2.906.469 5.664.684l5.239.35s2.948.244 3.45 1.87c0 0 .423 1.06.19 2.153-.192.937-.777 1.55-.777 1.55-.919 1.351-3.96.572-3.96.572l-5.036-1.486c-2.661-.752-5.552-1.317-5.552-1.317l-2.16-.32 4.893 1.561 5.002 1.619c2.082.876 6.99 1.59 6.99 1.59 4.12.632 5.134-1.267 5.134-1.267.21-.345.5-.952.596-1.599.237-1.318.272-1.646.087-2.173 0 0-.691-2.097-4.405-2.867 0 0-4.853-1.03-7.11-.928"/>
            <path fill="#E5BD95" d="M618.35 446.925l-5.24-.35c-2.757-.215-5.67-.685-5.67-.685l-3.104-.648-.878 4.547 3.202.477s2.892.565 5.554 1.318l5.038 1.485s3.041.78 3.96-.57c0 0 .585-.614.778-1.55.232-1.095-.19-2.155-.19-2.155-.502-1.625-3.45-1.87-3.45-1.87"/>
            <path fill="#2A2B29" d="M575.278 402.108h24.5v-32.64h-24.5z"/>
            <path fill="#EBD0B1" d="M598.89 377c0 7.705-4.816 13.952-10.757 13.952-5.94 0-10.757-6.247-10.757-13.952s4.816-13.951 10.757-13.951S598.89 369.295 598.89 377"/>
            <path fill="#2A2B29" d="M605.486 403.367s-2.695-7.381-2.936-12.136c0 0 .386-15.95.45-19.874 0 0-.04-5.964-3.196-10.265 0 0-1.893-3.017-4.774-2.878 0 0-1.853-3.26-5.286-3.641 0 0-.595-.078-1.681-.078-1.088 0-1.682.078-1.682.078-3.433.38-5.713 2.056-5.713 2.056-2.765 1.74-4.543 4.303-4.543 4.303-3.156 4.3-3 10.425-3 10.425.064 3.924.45 19.874.45 19.874-.24 4.755-2.936 12.136-2.936 12.136l-2.21 15.016c3.039 2.948 11.087.243 11.087.243 3.146-.97 3.96-1.992 3.96-1.992-1.657-5.861-3.643-21.192-3.643-21.192-.533-6.67.043-9.047.043-9.047-2.122-2.327-2.556-6.423-2.556-6.423-.552-7.575 1.729-10.505 1.729-10.505 3.226 1.132 6.247 1.343 9.014 1.25 2.766.093 5.883-.152 9.11-1.283 0 0 2.183 2.963 1.632 10.538 0 0-.434 4.096-2.556 6.423 0 0 .576 2.377.043 9.047 0 0-1.987 15.331-3.643 21.192 0 0 .874.961 3.96 1.992 0 0 8.048 2.705 11.085-.243l-2.208-15.016"/>
            <path fill="#D4B494" d="M585.321 398.231l-6.315.278-1.104 3.95 9.197 6.546 8.61-3.333 2.353-7.163-12.74-.278"/>
            <path fill="#EBD0B1" d="M568.492 405.67c.158-.882 1.805-1.184 3.68-.678 1.874.508 3.265 1.633 3.108 2.514a.73.73 0 0 1-.062.187s-4.802 4.753-.299 15.425c4.406 10.443 6.887 7.963 6.887 7.963l-6.682 1.11s-5.618-5.922-6.694-9.184c-2.027-6.147.063-17.072.063-17.072a.84.84 0 0 1-.001-.265M608.464 405.67c-.159-.882-1.806-1.184-3.68-.678-1.874.508-3.266 1.633-3.108 2.514a.73.73 0 0 0 .062.187s4.802 4.753.299 15.425c-4.407 10.443-6.887 7.963-6.887 7.963l6.682 1.11s5.618-5.922 6.693-9.184c2.027-6.147-.062-17.072-.062-17.072a.84.84 0 0 0 0-.265"/>
            <path fill="#8A566E" d="M601.865 431.154c0-2.709.37-5.418.789-7.607 1.656-1.247 2.764-3.507 2.764-6.091 0-1.72-.495-3.301-1.311-4.533.01-1.23.021-1.998.027-2.78l5.276-1.245-.745-3.637c-.323-1.532-2.17-3.133-3.98-3.808l-1.771-.827-.078-.042a14.782 14.782 0 0 0-1.064-.495c-.935-.403-2.248-.932-3.71-1.58-1.39.96-4.32 7.346-9.532 8.066-5.212-.72-8.134-7.106-9.524-8.066-1.462.648-2.766 1.177-3.701 1.58-.45.194-.812.36-1.065.495-.028.014-.052.028-.077.042l-1.997.932a4.036 4.036 0 0 0-1.05.717c-1.386.806-2.59 2.057-2.845 3.266l-.745 3.636 5.419 1.28c.006.682.016 1.4.024 2.466-.815 1.232-1.311 2.812-1.311 4.533 0 2.647 1.162 4.953 2.885 6.18.41 2.176.773 4.852.773 7.526 0 7.487.14 6.355-.025 6.732-.801 1.638 2.324.548 1.442 4.482l22.734.487c-.882-3.933 3.93-2.722 3.127-4.362-.164-.377-.73.14-.73-7.347"/>
            <path fill="#E6E4CB" d="M588.842 358.622c-.207.003-.411-.005-.628-.01h-.03c-.186.005-.41.013-.617.01-1.701-.026-9.818.62-11.86 11.893h.732s1.462-7.404 8.57-9.316c.562-.15 2.789-.285 3.177-.267 1.46.064 2.209.015 3.217.382 6.936 2.522 8.184 9.2 8.184 9.2h.784c-3.002-11.458-9.83-11.918-11.53-11.892"/>
            <path fill="#D4B494" d="M592.022 390.013s-1.877.938-3.914.938c-1.925 0-3.549-.76-3.549-.76s2.793 6.35-5.553 8.318l9.55 4.043 9.506-4.043c-7.48-.595-6.04-8.496-6.04-8.496"/>
            <path fill="#C8A78B" d="M584.914 391.467l8.802 5.227s-2.333-2.001-1.694-6.681c0 0-3.678 1.997-7.46.185 0 0 .23.53.352 1.27"/>
            <path fill="#C47F4C" d="M563.37 442.459l7.04 1.521c2.034.21 10.154 1.637 13.437 2.562 14.983 4.218 26.265 4.352 26.265 4.352l1.235-4.483s-15.187-5.266-21.538-6.799c-5.62-1.355-16.423-6.922-25.817-7.184-4.375-.123-7.73 6.46-.621 10.03"/>
            <path fill="#B77449" d="M614.394 442.504l-7.042 1.506c-2.034.206-10.157 1.616-13.442 2.534-14.992 4.187-26.275 4.297-26.275 4.297l-1.226-4.485s15.2-5.234 21.553-6.753c5.623-1.345 16.438-6.889 25.833-7.132 4.374-.113 7.715 6.476.6 10.033"/>
            <path fill="#F6F6F4" d="M603.762 438.864h-30.489a1.508 1.508 0 0 1-1.507-1.508v-18.07c0-.833.675-1.508 1.507-1.508h30.489c.832 0 1.507.675 1.507 1.509v18.07c0 .832-.675 1.507-1.507 1.507"/>
            <path fill="#DADAD5" d="M572.035 438.202c.27.41.734.687 1.26.687h30.488c.832 0 1.493-.688 1.493-1.52v-18.07c0-.37-.126-.705-.346-.967l-32.895 19.87"/>
            <path fill="#BBBBB6" d="M604.92 438.801h-32.772c-.3 0-.544.244-.544.544v.816c0 .3.243.543.544.543h32.772c.3 0 .543-.242.543-.543v-.816c0-.3-.242-.544-.543-.544"/>
            <path fill="#FFFEFD" d="M729.458 317.438a6.56 6.56 0 1 1-6.56-6.56 6.56 6.56 0 0 1 6.56 6.56"/>
            <path fill="#D25950" d="M729.505 314.805a3.927 3.927 0 1 1-7.854.001 3.927 3.927 0 0 1 7.854-.001"/>
            <path fill="#FFFEFD" d="M561.555 317.438a3.362 3.362 0 1 1-6.724.002 3.362 3.362 0 0 1 6.724-.002M543.42 317.438a3.363 3.363 0 1 1-6.725 0 3.363 3.363 0 0 1 6.725 0M552.488 317.438a3.363 3.363 0 1 1-6.725 0 3.363 3.363 0 0 1 6.725 0"/>
        </g>
    </g>
</svg>
