<?xml version="1.0" encoding="UTF-8"?>
<svg width="433px" height="409px" viewBox="0 0 433 409" version="1.1" xmlns="http://www.w3.org/2000/svg" xmlns:xlink="http://www.w3.org/1999/xlink">
    <!-- Generator: Sketch 48.2 (47327) - http://www.bohemiancoding.com/sketch -->
    <title>Graphic</title>
    <desc>Created with Sketch.</desc>
    <defs></defs>
    <g id="Message-Page" stroke="none" stroke-width="1" fill="none" fill-rule="evenodd" transform="translate(-158.000000, -221.000000)">
        <g id="Graphic" transform="translate(158.000000, 221.000000)">
            <g>
                <path d="M82.0011291,212.763148 L292.092294,212.763148 C296.386794,212.763148 299.900374,216.275604 299.900374,220.570666 L299.900374,353.296784 C299.900374,357.591284 296.386794,361.10374 292.092294,361.10374 L82.0011291,361.10374 C77.7066291,361.10374 74.1941731,357.591284 74.1941731,353.296784 L74.1941731,220.570666 C74.1941731,216.275604 77.7066291,212.763148 82.0011291,212.763148" id="Fill-30" fill="#1E273B"></path>
                <polyline id="Fill-31" fill="#F6F6F4" points="85.9040453 228.251214 288.187692 228.251214 288.187692 336.846894 85.9040453 344.056081 85.9040453 228.251214"></polyline>
                <path d="M187.046712,223.622435 C188.614732,223.622435 189.885554,222.351614 189.885554,220.783593 C189.885554,219.215573 188.614732,217.945313 187.046712,217.945313 C185.478129,217.945313 184.208431,219.215573 184.208431,220.783593 C184.208431,222.351614 185.478129,223.622435 187.046712,223.622435" id="Fill-32" fill="#EBC62A"></path>
                <path d="M187.04615,357.235095 C189.592849,357.235095 191.658636,355.170431 191.658636,352.622047 C191.658636,350.074224 189.592849,348.00956 187.04615,348.00956 C184.49608,348.00956 182.433102,350.074224 182.433102,352.622047 C182.433102,355.170431 184.49608,357.235095 187.04615,357.235095" id="Fill-33" fill="#EBC62A"></path>
                <polyline id="Fill-34" fill="#D8D8D2" points="74.1941731 361.10374 299.900374 361.10374 339.101451 377.781727 34.9925343 377.781727 74.1941731 361.10374"></polyline>
                <path d="M34.9925343,377.781727 L339.101451,377.781727 L339.101451,382.159937 C339.101451,385.261707 336.561493,387.802227 333.458037,387.802227 L40.635386,387.802227 C37.5324918,387.802227 34.9925343,385.263393 34.9925343,382.159937 L34.9925343,377.781727" id="Fill-35" fill="#C1C1BC"></path>
                <polygon id="Fill-36" fill="#9C9D99" points="156.332385 384.781919 217.760477 384.781919 217.760477 380.865519 156.332385 380.865519"></polygon>
                <polyline id="Fill-37" fill="#FFFFFE" points="85.9040453 344.056081 288.187692 344.056081 288.187692 228.251214 85.9040453 344.056081"></polyline>
                <path d="M406.162282,127.858569 L381.093054,153.86153 L410.760723,176.075624 L411.030393,178.91278 L378.180052,156.885771 L369.700606,165.679832 L359.711005,158.646493 L331.616975,186.486022 L331.34562,183.649427 L356.27608,156.227887 L326.748302,135.432372 L326.476946,132.596339 L368.890471,157.17061 L405.891488,125.023098 L406.162282,127.858569 M323.368434,130.0311 L329.047804,189.591725 L414.137782,181.476334 L408.455603,121.916832 L323.368434,130.0311" id="Fill-38" fill="#EBC62A"></path>
                <polyline id="Fill-39" fill="#FFFFFE" points="406.162282 127.858569 381.093054 153.86153 410.760723 176.075624 411.030393 178.91278 378.180052 156.885771 369.700606 165.679832 359.711005 158.646493 331.616975 186.486022 331.34562 183.649427 356.27608 156.227887 326.748302 135.432372 326.476946 132.596339 368.890471 157.17061 405.891488 125.023098 406.162282 127.858569"></polyline>
                <path d="M279.891959,210.233865 L276.366581,228.012444 L294.917091,229.340008 L295.800823,230.463635 L275.956457,230.079354 L274.763728,236.093003 L268.638279,235.834007 L264.331419,255.20982 L263.448249,254.085632 L266.532603,235.74524 L248.42424,234.979489 L247.539946,233.855301 L272.112532,232.721 L279.008227,209.109677 L279.891959,210.233865 M245.532026,233.615407 L264.091525,257.217179 L297.808743,230.703529 L279.248683,207.101757 L245.532026,233.615407" id="Fill-40" fill="#DF582B"></path>
                <polyline id="Fill-41" fill="#FFFFFE" points="279.891959 210.233865 276.366581 228.012444 294.917091 229.340008 295.800823 230.463635 275.956457 230.079354 274.763728 236.093003 268.638279 235.834007 264.331419 255.20982 263.448249 254.085632 266.532603 235.74524 248.42424 234.979489 247.539946 233.855301 272.112532 232.721 279.008227 209.109677 279.891959 210.233865"></polyline>
                <path d="M410.994437,118.997089 L390.747813,121.146025 L395.513113,141.487033 L394.602975,142.810103 L388.393254,121.396032 L381.545313,122.12358 L379.778973,115.466655 L357.560385,117.312773 L358.470522,115.989141 L379.171652,113.17839 L373.951846,93.4991978 L374.862545,92.1761277 L384.277411,118.154931 L411.905136,117.674019 L410.994437,118.997089 M374.449613,89.9423585 L355.326615,117.724582 L395.014784,145.04331 L414.137782,117.261648 L374.449613,89.9423585" id="Fill-42" fill="#DF582B"></path>
                <polyline id="Fill-43" fill="#FFFFFE" points="410.994437 118.997089 390.747813 121.146025 395.513113 141.487033 394.602975 142.810103 388.393254 121.396032 381.545313 122.12358 379.778973 115.466655 357.560385 117.312773 358.470522 115.989141 379.171652 113.17839 373.951846 93.4991978 374.862545 92.1761277 384.277411 118.154931 411.905136 117.674019 410.994437 118.997089"></polyline>
                <path d="M252.116477,52.5154876 L240.802121,79.6128613 L269.83157,87.6833077 L270.874295,89.7519038 L239.486916,82.7635096 L235.660968,91.9294918 L226.016883,89.5490893 L212.951356,118.930234 L211.90863,116.861637 L222.701062,88.7310893 L194.192975,81.6932555 L193.151935,79.6246593 L232.533354,85.7225797 L251.074313,50.4463297 L252.116477,52.5154876 M190.040052,78.5987885 L211.924361,122.041555 L273.985055,90.7788984 L252.101308,47.3361319 L190.040052,78.5987885" id="Fill-44" fill="#DF582B"></path>
                <polyline id="Fill-45" fill="#FFFFFE" points="252.116477 52.5154876 240.802121 79.6128613 269.83157 87.6833077 270.874295 89.7519038 239.486916 82.7635096 235.660968 91.9294918 226.016883 89.5490893 212.951356 118.930234 211.90863 116.861637 222.701062 88.7310893 194.192975 81.6932555 193.151935 79.6246593 232.533354 85.7225797 251.074313 50.4463297 252.116477 52.5154876"></polyline>
                <path d="M248.846162,179.371782 L237.273372,189.291155 L248.846162,199.811669 L248.846162,201.013949 L235.927268,190.44512 L232.013677,193.799706 L228.098401,190.44512 L215.181192,201.013949 L215.181192,199.811669 L226.752297,189.291155 L215.181192,179.371782 L215.181192,178.169501 L232.013677,190.192865 L248.846162,178.169501 L248.846162,179.371782 Z M213.97835,202.216229 L250.04788,202.216229 L250.04788,176.967783 L213.97835,176.967783 L213.97835,202.216229 Z" id="Fill-46" fill="#16837E"></path>
                <polyline id="Fill-47" fill="#FFFFFE" points="248.846162 179.371782 237.273372 189.291155 248.846162 199.811669 248.846162 201.013949 235.927268 190.44512 232.013677 193.799706 228.098401 190.44512 215.181192 201.013949 215.181192 199.811669 226.752297 189.291155 215.181192 179.371782 215.181192 178.169501 232.013677 190.192865 248.846162 178.169501 248.846162 179.371782"></polyline>
                <path d="M203.879758,285.052213 L192.30753,294.971025 L203.879758,305.491538 L203.879758,306.693819 L190.961426,296.124989 L187.047273,299.480137 L183.132559,296.124989 L170.21535,306.693819 L170.21535,305.491538 L181.786455,294.971025 L170.21535,285.052213 L170.21535,283.849371 L187.047273,295.872735 L203.879758,283.849371 L203.879758,285.052213 Z M169.012508,307.896099 L205.082038,307.896099 L205.082038,282.647652 L169.012508,282.647652 L169.012508,307.896099 Z" id="Fill-48" fill="#16837E"></path>
                <polyline id="Fill-49" fill="#FFFFFE" points="203.879758 285.052213 192.30753 294.971025 203.879758 305.491538 203.879758 306.693819 190.961426 296.124989 187.047273 299.480137 183.132559 296.124989 170.21535 306.693819 170.21535 305.491538 181.786455 294.971025 170.21535 285.052213 170.21535 283.849371 187.047273 295.872735 203.879758 283.849371 203.879758 285.052213"></polyline>
                <path d="M373.961397,204.096056 L336.326655,199.735824 L336.676665,238.609364 L334.482784,240.639757 L331.950692,199.228507 L319.220567,197.753747 L318.730666,184.947777 L277.639088,179.229081 L279.831845,177.19925 L318.562684,180.544286 L317.117139,142.685942 L319.310457,140.655549 L325.801085,191.66313 L376.154716,202.065663 L373.961397,204.096056 M319.472821,136.4324 L273.415376,179.066155 L334.32042,244.863468 L380.378427,202.229713 L319.472821,136.4324" id="Fill-50" fill="#16837E"></path>
                <polyline id="Fill-51" fill="#FFFFFE" points="373.961397 204.096056 336.326655 199.735824 336.676665 238.609364 334.482784 240.639757 331.950692 199.228507 319.220567 197.753747 318.730666 184.947777 277.639088 179.229081 279.831845 177.19925 318.562684 180.544286 317.117139 142.685942 319.310457 140.655549 325.801085 191.66313 376.154716 202.065663 373.961397 204.096056"></polyline>
                <path d="M354.747948,39.4572637 L338.687956,68.9091964 L370.718611,81.5123516 L371.658525,83.9871387 L336.819927,72.3340096 L331.388317,82.2955192 L320.71162,78.4510316 L302.389768,110.291232 L301.450416,107.817569 L317.040732,77.1290852 L285.479753,65.7607953 L284.539839,63.2871319 L328.569701,74.8734052 L353.808596,36.9824766 L354.747948,39.4572637 M281.126824,61.7533819 L300.855456,113.704809 L375.072102,85.5208887 L355.34347,33.5700234 L281.126824,61.7533819" id="Fill-52" fill="#16837E"></path>
                <polyline id="Fill-53" fill="#FFFFFE" points="354.747948 39.4572637 338.687956 68.9091964 370.718611 81.5123516 371.658525 83.9871387 336.819927 72.3340096 331.388317 82.2955192 320.71162 78.4510316 302.389768 110.291232 301.450416 107.817569 317.040732 77.1290852 285.479753 65.7607953 284.539839 63.2871319 328.569701 74.8734052 353.808596 36.9824766 354.747948 39.4572637"></polyline>
                <path d="M262.525751,141.942663 L250.09732,139.663949 L249.359098,152.608125 L248.584357,153.23567 L248.652337,139.398773 L244.44885,138.627966 L244.566831,134.355938 L231.017582,131.54912 L231.792323,130.921574 L244.607843,132.886797 L244.959538,120.255551 L245.733717,119.628567 L246.771948,136.745891 L263.300492,141.315118 L262.525751,141.942663 M245.88035,118.226843 L229.615859,131.401924 L248.437724,154.637956 L264.702216,141.462313 L245.88035,118.226843" id="Fill-54" fill="#EBC62A"></path>
                <polyline id="Fill-55" fill="#FFFFFE" points="262.525751 141.942663 250.09732 139.663949 249.359098 152.608125 248.584357 153.23567 248.652337 139.398773 244.44885 138.627966 244.566831 134.355938 231.017582 131.54912 231.792323 130.921574 244.607843 132.886797 244.959538 120.255551 245.733717 119.628567 246.771948 136.745891 263.300492 141.315118 262.525751 141.942663"></polyline>
                <path d="M308.406787,27.8726758 L292.612533,26.3889272 L293.111423,42.6590371 L292.211398,43.5292857 L290.775404,26.2164505 L285.433122,25.7141896 L285.111765,20.3573008 L267.85792,18.3370206 L268.757945,17.466772 L285.00165,18.5156772 L284.053871,2.68041071 L284.952772,1.8107239 L288.132635,23.1045673 L309.306812,27.0035508 L308.406787,27.8726758 M284.982548,0.0410123626 L266.088209,18.3061209 L292.181622,45.2984354 L311.075962,27.0333269 L284.982548,0.0410123626" id="Fill-56" fill="#EBC62A"></path>
                <polyline id="Fill-57" fill="#FFFFFE" points="308.406787 27.8726758 292.612533 26.3889272 293.111423 42.6590371 292.211398 43.5292857 290.775404 26.2164505 285.433122 25.7141896 285.111765 20.3573008 267.85792 18.3370206 268.757945 17.466772 285.00165 18.5156772 284.053871 2.68041071 284.952772 1.8107239 288.132635 23.1045673 309.306812 27.0035508 308.406787 27.8726758"></polyline>
                <path d="M400.432349,235.803669 L377.508124,233.649677 L378.232301,257.264371 L376.926085,258.527327 L374.84232,233.399109 L367.088174,232.670437 L366.622431,224.896066 L341.58017,221.962839 L342.886386,220.700445 L366.462315,222.222959 L365.086434,199.239743 L366.391526,197.977349 L371.006821,228.882692 L401.738003,234.541837 L400.432349,235.803669 M366.434224,195.408739 L339.01156,221.918456 L376.883387,261.094251 L404.306051,234.584534 L366.434224,195.408739" id="Fill-58" fill="#EBC62A"></path>
                <polyline id="Fill-59" fill="#FFFFFE" points="400.432349 235.803669 377.508124 233.649677 378.232301 257.264371 376.926085 258.527327 374.84232 233.399109 367.088174 232.670437 366.622431 224.896066 341.58017 221.962839 342.886386 220.700445 366.462315 222.222959 365.086434 199.239743 366.391526 197.977349 371.006821 228.882692 401.738003 234.541837 400.432349 235.803669"></polyline>
                <path d="M176.729012,295.727225 L160.979141,303.961159 L171.367067,318.950335 L171.05189,320.316103 L159.14763,304.919051 L153.819956,307.703959 L150.252442,302.865624 L132.803648,311.485523 L133.119387,310.119194 L149.026004,301.201533 L138.480771,286.896084 L138.795948,285.530316 L154.766611,303.605532 L177.04419,294.361457 L176.729012,295.727225 M137.744795,283.849371 L131.12158,312.535552 L172.102481,321.997048 L178.725696,293.310867 L137.744795,283.849371" id="Fill-60" fill="#EBC62A"></path>
                <polyline id="Fill-61" fill="#FFFFFE" points="176.729012 295.727225 160.979141 303.961159 171.367067 318.950335 171.05189 320.316103 159.14763 304.919051 153.819956 307.703959 150.252442 302.865624 132.803648 311.485523 133.119387 310.119194 149.026004 301.201533 138.480771 286.896084 138.795948 285.530316 154.766611 303.605532 177.04419 294.361457 176.729012 295.727225"></polyline>
                <path d="M270.27765,266.190459 L253.314824,271.495099 L260.875706,288.09106 L260.321758,289.379298 L251.342298,272.112532 L245.605062,273.906401 L242.953865,268.510747 L224.251104,273.894041 L224.80449,272.605804 L242.042043,266.65564 L234.206434,250.70464 L234.758696,249.416402 L247.26522,270.041688 L270.829912,264.902221 L270.27765,266.190459 M234.023283,247.575341 L222.408919,274.628331 L261.057734,291.219798 L272.670974,264.166808 L234.023283,247.575341" id="Fill-62" fill="#EBC62A"></path>
                <polyline id="Fill-63" fill="#FFFFFE" points="270.27765 266.190459 253.314824 271.495099 260.875706 288.09106 260.321758 289.379298 251.342298 272.112532 245.605062 273.906401 242.953865 268.510747 224.251104 273.894041 224.80449 272.605804 242.042043 266.65564 234.206434 250.70464 234.758696 249.416402 247.26522 270.041688 270.829912 264.902221 270.27765 266.190459"></polyline>
                <path d="M334.461997,118.709441 L314.653026,135.688559 L334.461997,153.696357 L334.461997,155.754279 L312.350154,137.663332 L305.64997,143.406187 L298.949224,137.663332 L276.83738,155.754279 L276.83738,153.696357 L296.64579,135.688559 L276.83738,118.709441 L276.83738,116.651519 L305.64997,137.231298 L334.461997,116.651519 L334.461997,118.709441 Z M274.779459,157.812201 L336.520481,157.812201 L336.520481,114.593598 L274.779459,114.593598 L274.779459,157.812201 Z" id="Fill-64" fill="#C52936"></path>
                <polyline id="Fill-65" fill="#FFFFFE" points="334.461997 118.709441 314.653026 135.688559 334.461997 153.696357 334.461997 155.754279 312.350154 137.663332 305.64997 143.406187 298.949224 137.663332 276.83738 155.754279 276.83738 153.696357 296.64579 135.688559 276.83738 118.709441 276.83738 116.651519 305.64997 137.231298 334.461997 116.651519 334.461997 118.709441"></polyline>
                <path d="M343.803265,267.683758 L324.669032,277.160985 L336.753633,295.436206 L336.339015,297.068273 L322.444251,278.262701 L315.972725,281.468407 L311.814746,275.562626 L290.629894,285.458404 L291.043951,283.825775 L310.384931,273.532795 L298.093582,256.073327 L298.508201,254.440698 L317.21658,276.571081 L344.217321,266.051691 L343.803265,267.683758 M297.29019,252.393451 L288.582085,286.676415 L337.557026,299.116082 L346.26513,264.83368 L297.29019,252.393451" id="Fill-66" fill="#C52936"></path>
                <polyline id="Fill-67" fill="#FFFFFE" points="343.803265 267.683758 324.669032 277.160985 336.753633 295.436206 336.339015 297.068273 322.444251 278.262701 315.972725 281.468407 311.814746 275.562626 290.629894 285.458404 291.043951 283.825775 310.384931 273.532795 298.093582 256.073327 298.508201 254.440698 317.21658 276.571081 344.217321 266.051691 343.803265 267.683758"></polyline>
                <path d="M214.481735,245.709559 L209.113048,263.949386 L228.366386,267.093854 L229.183262,268.35063 L208.488874,266.069669 L206.673093,272.238378 L200.298761,271.387793 L193.964317,291.219798 L193.147441,289.961898 L198.107128,271.095088 L179.26279,268.579288 L178.445913,267.320827 L204.223026,268.464679 L213.664297,244.452221 L214.481735,245.709559 M176.371137,266.880365 L193.522732,293.294574 L231.257477,268.792777 L214.105882,242.378007 L176.371137,266.880365" id="Fill-68" fill="#C52936"></path>
                <polyline id="Fill-69" fill="#FFFFFE" points="214.481735 245.709559 209.113048 263.949386 228.366386 267.093854 229.183262 268.35063 208.488874 266.069669 206.673093 272.238378 200.298761 271.387793 193.964317 291.219798 193.147441 289.961898 198.107128 271.095088 179.26279 268.579288 178.445913 267.320827 204.223026 268.464679 213.664297 244.452221 214.481735 245.709559"></polyline>
                <path d="M420.869989,72.9918929 L407.105566,69.5929231 L405.397092,84.0393874 L404.487516,84.6888434 L405.505522,69.1974066 L400.850338,68.0484986 L401.274507,63.2714011 L386.292073,59.2049973 L387.202772,58.5555412 L401.420578,61.6292212 L402.673984,47.5086085 L403.584683,46.8585907 L403.58075,66.0990069 L421.779565,72.341875 L420.869989,72.9918929 M403.844802,45.2984354 L384.732479,58.9448777 L404.226835,86.2484368 L423.339158,72.6025563 L403.844802,45.2984354" id="Fill-70" fill="#C52936"></path>
                <polyline id="Fill-71" fill="#FFFFFE" points="420.869989 72.9918929 407.105566 69.5929231 405.397092 84.0393874 404.487516 84.6888434 405.505522 69.1974066 400.850338 68.0484986 401.274507 63.2714011 386.292073 59.2049973 387.202772 58.5555412 401.420578 61.6292212 402.673984 47.5086085 403.584683 46.8585907 403.58075 66.0990069 421.779565 72.341875 420.869989 72.9918929"></polyline>
                <path d="M408.018512,212.665393 L401.909356,205.47306 L395.364232,212.609212 L394.620391,212.605841 L401.199224,204.637082 L399.132313,202.204993 L401.220573,199.790882 L394.712529,191.764257 L395.456931,191.767628 L401.93857,198.961084 L408.111212,191.823247 L408.855052,191.826618 L401.366082,202.215106 L408.762915,212.668202 L408.018512,212.665393 M409.602826,191.085587 L393.972059,191.016484 L393.872618,213.346872 L409.503946,213.415975 L409.602826,191.085587" id="Fill-72" fill="#C52936"></path>
                <polyline id="Fill-73" fill="#FFFFFE" points="408.018512 212.665393 401.909356 205.47306 395.364232 212.609212 394.620391 212.605841 401.199224 204.637082 399.132313 202.204993 401.220573 199.790882 394.712529 191.764257 395.456931 191.767628 401.93857 198.961084 408.111212 191.823247 408.855052 191.826618 401.366082 202.215106 408.762915 212.668202 408.018512 212.665393"></polyline>
                <path d="M184.624735,191.764257 C184.624735,195.022212 181.983089,197.663295 178.725696,197.663295 C175.467742,197.663295 172.826096,195.022212 172.826096,191.764257 C172.826096,188.506302 175.467742,185.865218 178.725696,185.865218 C181.983089,185.865218 184.624735,188.506302 184.624735,191.764257" id="Fill-74" fill="#EBC62A"></path>
                <path d="M432.283786,201.013949 C432.283786,203.887624 429.954508,206.217463 427.080834,206.217463 C424.206598,206.217463 421.87732,203.887624 421.87732,201.013949 C421.87732,198.140275 424.206598,195.810997 427.080834,195.810997 C429.954508,195.810997 432.283786,198.140275 432.283786,201.013949" id="Fill-75" fill="#EBC62A"></path>
                <path d="M399.771657,299.116082 C399.771657,302.374037 397.130573,305.015121 393.872618,305.015121 C390.614663,305.015121 387.97358,302.374037 387.97358,299.116082 C387.97358,295.858128 390.614663,293.217044 393.872618,293.217044 C397.130573,293.217044 399.771657,295.858128 399.771657,299.116082" id="Fill-76" fill="#EBC62A"></path>
                <path d="M386.277466,33.5700234 C386.277466,36.8274162 383.636382,39.4690618 380.378427,39.4690618 C377.120473,39.4690618 374.479389,36.8274162 374.479389,33.5700234 C374.479389,30.3120687 377.120473,27.6704231 380.378427,27.6704231 C383.636382,27.6704231 386.277466,30.3120687 386.277466,33.5700234" id="Fill-77" fill="#EBC62A"></path>
                <path d="M329.267473,12.3598901 C329.267473,15.6178448 326.626389,18.2589286 323.368434,18.2589286 C320.110479,18.2589286 317.469396,15.6178448 317.469396,12.3598901 C317.469396,9.10193544 320.110479,6.46085165 323.368434,6.46085165 C326.626389,6.46085165 329.267473,9.10193544 329.267473,12.3598901" id="Fill-78" fill="#C52936"></path>
                <path d="M429.238196,130.922136 C429.238196,134.180091 426.597113,136.821174 423.339158,136.821174 C420.081765,136.821174 417.44012,134.180091 417.44012,130.922136 C417.44012,127.664181 420.081765,125.023098 423.339158,125.023098 C426.597113,125.023098 429.238196,127.664181 429.238196,130.922136" id="Fill-79" fill="#C52936"></path>
                <path d="M416.929431,285.530316 C416.929431,288.788271 414.288348,291.429916 411.030393,291.429916 C407.772438,291.429916 405.131354,288.788271 405.131354,285.530316 C405.131354,282.272923 407.772438,279.631277 411.030393,279.631277 C414.288348,279.631277 416.929431,282.272923 416.929431,285.530316" id="Fill-80" fill="#C52936"></path>
                <path d="M197.557674,178.169501 C197.557674,181.427456 194.916591,184.06854 191.658636,184.06854 C188.400681,184.06854 185.759598,181.427456 185.759598,178.169501 C185.759598,174.911547 188.400681,172.270463 191.658636,172.270463 C194.916591,172.270463 197.557674,174.911547 197.557674,178.169501" id="Fill-81" fill="#C52936"></path>
                <path d="M199.248732,150.81257 C199.248732,152.908695 197.549809,154.60818 195.453684,154.60818 C193.357559,154.60818 191.658636,152.908695 191.658636,150.81257 C191.658636,148.717007 193.357559,147.018084 195.453684,147.018084 C197.549809,147.018084 199.248732,148.717007 199.248732,150.81257" id="Fill-82" fill="#16837E"></path>
                <path d="M264.702216,110.291232 C264.702216,112.386795 263.003293,114.08628 260.907168,114.08628 C258.811604,114.08628 257.111558,112.386795 257.111558,110.291232 C257.111558,108.195107 258.811604,106.496184 260.907168,106.496184 C263.003293,106.496184 264.702216,108.195107 264.702216,110.291232" id="Fill-83" fill="#16837E"></path>
                <path d="M425.575174,89.9423585 C425.575174,92.0384835 423.876251,93.7374066 421.780126,93.7374066 C419.684563,93.7374066 417.984516,92.0384835 417.984516,89.9423585 C417.984516,87.8462335 419.684563,86.1473104 421.780126,86.1473104 C423.876251,86.1473104 425.575174,87.8462335 425.575174,89.9423585" id="Fill-84" fill="#16837E"></path>
                <path d="M388.527527,279.631277 C388.527527,281.727402 386.828604,283.426887 384.733041,283.426887 C382.636916,283.426887 380.937431,281.727402 380.937431,279.631277 C380.937431,277.535714 382.636916,275.836791 384.733041,275.836791 C386.828604,275.836791 388.527527,277.535714 388.527527,279.631277" id="Fill-85" fill="#16837E"></path>
                <path d="M318.66662,311.691147 C318.66662,313.78671 316.967696,315.486757 314.871571,315.486757 C312.776008,315.486757 311.075962,313.78671 311.075962,311.691147 C311.075962,309.595022 312.776008,307.896099 314.871571,307.896099 C316.967696,307.896099 318.66662,309.595022 318.66662,311.691147" id="Fill-86" fill="#16837E"></path>
                <path d="M195.453684,202.216229 C195.453684,204.311793 193.754761,206.011277 191.659198,206.011277 C189.563073,206.011277 187.863588,204.311793 187.863588,202.216229 C187.863588,200.120104 189.563073,198.421181 191.659198,198.421181 C193.754761,198.421181 195.453684,200.120104 195.453684,202.216229" id="Fill-87" fill="#16837E"></path>
                <path d="M263.497126,164.318559 C263.497126,165.150043 262.822389,165.824218 261.991467,165.824218 C261.159984,165.824218 260.485246,165.150043 260.485246,164.318559 C260.485246,163.487076 261.159984,162.813462 261.991467,162.813462 C262.822389,162.813462 263.497126,163.487076 263.497126,164.318559" id="Fill-88" fill="#DF582B"></path>
                <path d="M406.637576,274.331132 C406.637576,275.162054 405.9634,275.836791 405.131916,275.836791 C404.300433,275.836791 403.626257,275.162054 403.626257,274.331132 C403.626257,273.499648 404.300433,272.825473 405.131916,272.825473 C405.9634,272.825473 406.637576,273.499648 406.637576,274.331132" id="Fill-89" fill="#DF582B"></path>
                <path d="M427.080834,237.834624 C427.080834,238.666107 426.406096,239.340283 425.575174,239.340283 C424.743691,239.340283 424.068953,238.666107 424.068953,237.834624 C424.068953,237.00314 424.743691,236.328964 425.575174,236.328964 C426.406096,236.328964 427.080834,237.00314 427.080834,237.834624" id="Fill-90" fill="#DF582B"></path>
                <path d="M373.164746,266.684854 C373.164746,267.515776 372.49057,268.189952 371.659087,268.189952 C370.827603,268.189952 370.152865,267.515776 370.152865,266.684854 C370.152865,265.853371 370.827603,265.179195 371.659087,265.179195 C372.49057,265.179195 373.164746,265.853371 373.164746,266.684854" id="Fill-91" fill="#DF582B"></path>
                <path d="M418.435652,223.020734 C418.435652,223.851655 417.761477,224.526393 416.929993,224.526393 C416.09851,224.526393 415.424334,223.851655 415.424334,223.020734 C415.424334,222.18925 416.09851,221.515074 416.929993,221.515074 C417.761477,221.515074 418.435652,222.18925 418.435652,223.020734" id="Fill-92" fill="#DF582B"></path>
                <path d="M415.644003,101.312334 C415.644003,102.143255 414.969827,102.817993 414.138343,102.817993 C413.30686,102.817993 412.632684,102.143255 412.632684,101.312334 C412.632684,100.481412 413.30686,99.8066745 414.138343,99.8066745 C414.969827,99.8066745 415.644003,100.481412 415.644003,101.312334" id="Fill-93" fill="#DF582B"></path>
                <path d="M384.732479,45.2984354 C384.732479,46.1293571 384.057742,46.8040948 383.22682,46.8040948 C382.394775,46.8040948 381.720599,46.1293571 381.720599,45.2984354 C381.720599,44.4669519 382.394775,43.7927761 383.22682,43.7927761 C384.057742,43.7927761 384.732479,44.4669519 384.732479,45.2984354" id="Fill-94" fill="#DF582B"></path>
                <path d="M270.869801,116.651519 C270.869801,117.482441 270.195625,118.156617 269.364141,118.156617 C268.532658,118.156617 267.85792,117.482441 267.85792,116.651519 C267.85792,115.820036 268.532658,115.14586 269.364141,115.14586 C270.195625,115.14586 270.869801,115.820036 270.869801,116.651519" id="Fill-95" fill="#DF582B"></path>
                <path d="M185.714091,167.329878 C185.714091,168.160799 185.039915,168.835537 184.208431,168.835537 C183.376948,168.835537 182.702772,168.160799 182.702772,167.329878 C182.702772,166.498394 183.376948,165.824218 184.208431,165.824218 C185.039915,165.824218 185.714091,166.498394 185.714091,167.329878" id="Fill-96" fill="#DF582B"></path>
                <path d="M180.231356,140.655549 C180.231356,141.486471 179.55718,142.161209 178.725696,142.161209 C177.894213,142.161209 177.219475,141.486471 177.219475,140.655549 C177.219475,139.824066 177.894213,139.14989 178.725696,139.14989 C179.55718,139.14989 180.231356,139.824066 180.231356,140.655549" id="Fill-97" fill="#DF582B"></path>
                <path d="M193.164295,115.14586 C193.164295,115.977343 192.49012,116.651519 191.659198,116.651519 C190.827152,116.651519 190.152977,115.977343 190.152977,115.14586 C190.152977,114.314938 190.827152,113.640201 191.659198,113.640201 C192.49012,113.640201 193.164295,114.314938 193.164295,115.14586" id="Fill-98" fill="#DF582B"></path>
                <path d="M240.55717,36.9824766 C240.55717,37.8139602 239.882995,38.488136 239.051511,38.488136 C238.220027,38.488136 237.54529,37.8139602 237.54529,36.9824766 C237.54529,36.1515549 238.220027,35.4773791 239.051511,35.4773791 C239.882995,35.4773791 240.55717,36.1515549 240.55717,36.9824766" id="Fill-99" fill="#C52936"></path>
                <path d="M248.664696,26.1653255 C248.664696,26.9962473 247.990521,27.6704231 247.159599,27.6704231 C246.327554,27.6704231 245.653378,26.9962473 245.653378,26.1653255 C245.653378,25.333842 246.327554,24.6596662 247.159599,24.6596662 C247.990521,24.6596662 248.664696,25.333842 248.664696,26.1653255" id="Fill-100" fill="#EBC62A"></path>
                <path d="M174.498614,176.967783 C174.498614,177.890842 173.749717,178.639739 172.82722,178.639739 C171.903037,178.639739 171.15414,177.890842 171.15414,176.967783 C171.15414,176.044724 171.903037,175.295265 172.82722,175.295265 C173.749717,175.295265 174.498614,176.044724 174.498614,176.967783" id="Fill-101" fill="#16837E"></path>
                <path d="M184.376413,408.478637 C82.5483352,408.478637 0,396.3519 0,381.393062 C0,372.313599 30.4199368,364.276299 77.0993091,359.36212 C78.4414808,360.44979 80.148831,361.10374 82.0011291,361.10374 L292.092294,361.10374 C293.63728,361.10374 295.08114,360.649234 296.296904,359.86719 C340.344743,364.816764 368.752827,372.61754 368.752827,381.393062 C368.752827,396.3519 286.205054,408.478637 184.376413,408.478637 M34.9925343,377.781727 L34.9925343,382.159937 C34.9925343,385.263393 37.5324918,387.802227 40.635386,387.802227 L333.458037,387.802227 C336.561493,387.802227 339.101451,385.261707 339.101451,382.159937 L339.101451,377.781727 L34.9925343,377.781727 M339.101451,377.781727 L299.900374,361.10374 L74.1941731,361.10374 L34.9925343,377.781727 L339.101451,377.781727" id="Fill-134" fill="#F3F2EE"></path>
                <path d="M292.092294,361.10374 L82.0011291,361.10374 C80.148831,361.10374 78.4414808,360.44979 77.0993091,359.36212 C75.3295975,357.92781 74.1941731,355.738424 74.1941731,353.296784 L74.1941731,220.570666 C74.1941731,216.275604 77.7066291,212.763148 82.0011291,212.763148 L272.049609,212.763148 L252.353562,228.251214 L85.9040453,228.251214 L85.9040453,344.056081 L288.187692,344.056081 L288.187692,238.268905 L297.808743,230.703529 L283.70049,212.763148 L292.092294,212.763148 C296.386794,212.763148 299.900374,216.275604 299.900374,220.570666 L299.900374,253.05639 L297.29019,252.393451 L288.582085,286.676415 L299.900374,289.551213 L299.900374,353.296784 C299.900374,356.046298 298.459885,358.475016 296.296904,359.86719 C295.08114,360.649234 293.63728,361.10374 292.092294,361.10374 M187.04615,348.00956 C184.49608,348.00956 182.433102,350.074224 182.433102,352.622047 C182.433102,355.170431 184.49608,357.235095 187.04615,357.235095 C189.592849,357.235095 191.658636,355.170431 191.658636,352.622047 C191.658636,350.074224 189.592849,348.00956 187.04615,348.00956 M187.046712,217.945313 C185.478129,217.945313 184.208431,219.215573 184.208431,220.783593 C184.208431,222.351614 185.478129,223.622435 187.046712,223.622435 C188.614732,223.622435 189.885554,222.351614 189.885554,220.783593 C189.885554,219.215573 188.614732,217.945313 187.046712,217.945313" id="Fill-135" fill="#2C3648"></path>
                <polyline id="Fill-136" fill="#F6F6F4" points="85.9040453 344.056081 85.9040453 228.251214 252.353562 228.251214 245.532026 233.615407 255.864894 246.755655 245.687087 252.582782 234.023283 247.575341 227.438832 262.911717 214.105882 242.378007 176.371137 266.880365 186.609621 282.647652 169.012508 282.647652 169.012508 291.06867 137.744795 283.849371 131.12158 312.535552 138.135255 314.154698 85.9040453 344.056081"></polyline>
                <path d="M187.046712,223.622435 C185.478129,223.622435 184.208431,222.351614 184.208431,220.783593 C184.208431,219.215573 185.478129,217.945313 187.046712,217.945313 C188.614732,217.945313 189.885554,219.215573 189.885554,220.783593 C189.885554,222.351614 188.614732,223.622435 187.046712,223.622435" id="Fill-137" fill="#EBC634"></path>
                <path d="M187.04615,357.235095 C184.49608,357.235095 182.433102,355.170431 182.433102,352.622047 C182.433102,350.074224 184.49608,348.00956 187.04615,348.00956 C189.592849,348.00956 191.658636,350.074224 191.658636,352.622047 C191.658636,355.170431 189.592849,357.235095 187.04615,357.235095" id="Fill-138" fill="#EBC634"></path>
                <polyline id="Fill-139" fill="#D8D8D2" points="339.101451 377.781727 34.9925343 377.781727 74.1941731 361.10374 299.900374 361.10374 339.101451 377.781727"></polyline>
                <path d="M333.458037,387.802227 L40.635386,387.802227 C37.5324918,387.802227 34.9925343,385.263393 34.9925343,382.159937 L34.9925343,377.781727 L339.101451,377.781727 L339.101451,382.159937 C339.101451,385.261707 336.561493,387.802227 333.458037,387.802227 Z M156.332385,384.781919 L217.760477,384.781919 L217.760477,380.865519 L156.332385,380.865519 L156.332385,384.781919 Z" id="Fill-140" fill="#C1C1BC"></path>
                <polygon id="Fill-141" fill="#A0A19D" points="156.332385 384.781919 217.760477 384.781919 217.760477 380.865519 156.332385 380.865519"></polygon>
                <polyline id="Fill-142" fill="#FFFFFE" points="288.187692 344.056081 85.9040453 344.056081 138.135255 314.154698 172.102481 321.997048 175.358188 307.896099 205.082038 307.896099 205.082038 285.78875 222.462853 274.503047 222.408919 274.628331 261.057734 291.219798 272.670974 264.166808 245.687087 252.582782 255.864894 246.755655 264.091525 257.217179 288.187692 238.268905 288.187692 344.056081"></polyline>
                <path d="M365.465096,186.118596 L349.448926,168.815874 L359.711005,158.646493 L369.700606,165.679832 L378.180052,156.885771 L411.030393,178.91278 L410.760723,176.075624 L381.093054,153.86153 L391.75683,142.800552 L395.014784,145.04331 L408.757297,125.078717 L414.137782,181.476334 L365.465096,186.118596 M347.119648,166.299512 L336.520481,154.849198 L336.520481,142.314584 L356.27608,156.227887 L347.119648,166.299512 M368.890471,157.17061 L336.520481,138.4156 L336.520481,128.777133 L367.141547,125.856828 L388.226396,140.37071 L368.890471,157.17061" id="Fill-143" fill="#EBC634"></path>
                <polyline id="Fill-144" fill="#FFFFFE" points="411.030393 178.91278 378.180052 156.885771 369.700606 165.679832 359.711005 158.646493 349.448926 168.815874 347.119648 166.299512 356.27608 156.227887 336.520481 142.314584 336.520481 138.4156 368.890471 157.17061 388.226396 140.37071 391.75683 142.800552 381.093054 153.86153 410.760723 176.075624 411.030393 178.91278"></polyline>
                <path d="M264.091525,257.217179 L245.532026,233.615407 L279.248683,207.101757 L297.808743,230.703529 L264.091525,257.217179 M263.448249,254.085632 L264.331419,255.20982 L268.638279,235.834007 L274.763728,236.093003 L275.956457,230.079354 L295.800823,230.463635 L294.917091,229.340008 L276.366581,228.012444 L279.891959,210.233865 L279.008227,209.109677 L272.112532,232.721 L247.539946,233.855301 L248.42424,234.979489 L266.532603,235.74524 L263.448249,254.085632" id="Fill-145" fill="#E06136"></path>
                <polyline id="Fill-146" fill="#FFFFFE" points="264.331419 255.20982 263.448249 254.085632 266.532603 235.74524 248.42424 234.979489 247.539946 233.855301 272.112532 232.721 279.008227 209.109677 279.891959 210.233865 276.366581 228.012444 294.917091 229.340008 295.800823 230.463635 275.956457 230.079354 274.763728 236.093003 268.638279 235.834007 264.331419 255.20982"></polyline>
                <path d="M395.014784,145.04331 L355.326615,117.724582 L374.449613,89.9423585 L414.137782,117.261648 L395.014784,145.04331 M388.393254,121.396032 L394.602975,142.810103 L395.513113,141.487033 L390.747813,121.146025 L410.994437,118.997089 L411.905136,117.674019 L384.277411,118.154931 L374.862545,92.1761277 L373.951846,93.4991978 L379.171652,113.17839 L358.470522,115.989141 L357.560385,117.312773 L379.778973,115.466655 L381.545313,122.12358 L388.393254,121.396032" id="Fill-147" fill="#E06136"></path>
                <polyline id="Fill-148" fill="#FFFFFE" points="394.602975 142.810103 388.393254 121.396032 381.545313 122.12358 379.778973 115.466655 357.560385 117.312773 358.470522 115.989141 379.171652 113.17839 373.951846 93.4991978 374.862545 92.1761277 384.277411 118.154931 411.905136 117.674019 410.994437 118.997089 390.747813 121.146025 395.513113 141.487033 394.602975 142.810103"></polyline>
                <path d="M211.924361,122.041555 L190.040052,78.5987885 L252.101308,47.3361319 L273.985055,90.7788984 L211.924361,122.041555 M211.90863,116.861637 L212.951356,118.930234 L226.016883,89.5490893 L235.660968,91.9294918 L239.486916,82.7635096 L270.874295,89.7519038 L269.83157,87.6833077 L240.802121,79.6128613 L252.116477,52.5154876 L251.074313,50.4463297 L232.533354,85.7225797 L193.151935,79.6246593 L194.192975,81.6932555 L222.701062,88.7310893 L211.90863,116.861637" id="Fill-149" fill="#E06136"></path>
                <polyline id="Fill-150" fill="#FFFFFE" points="212.951356 118.930234 211.90863 116.861637 222.701062 88.7310893 194.192975 81.6932555 193.151935 79.6246593 232.533354 85.7225797 251.074313 50.4463297 252.116477 52.5154876 240.802121 79.6128613 269.83157 87.6833077 270.874295 89.7519038 239.486916 82.7635096 235.660968 91.9294918 226.016883 89.5490893 212.951356 118.930234"></polyline>
                <path d="M213.97835,202.216229 L250.04788,202.216229 L250.04788,176.967783 L213.97835,176.967783 L213.97835,202.216229 Z M235.927268,190.44512 L248.846162,201.013949 L248.846162,199.811669 L237.273372,189.291155 L248.846162,179.371782 L248.846162,178.169501 L232.013677,190.192865 L215.181192,178.169501 L215.181192,179.371782 L226.752297,189.291155 L215.181192,199.811669 L215.181192,201.013949 L228.098401,190.44512 L232.013677,193.799706 L235.927268,190.44512 Z" id="Fill-151" fill="#1F8883"></path>
                <polyline id="Fill-152" fill="#FFFFFE" points="248.846162 201.013949 235.927268 190.44512 232.013677 193.799706 228.098401 190.44512 215.181192 201.013949 215.181192 199.811669 226.752297 189.291155 215.181192 179.371782 215.181192 178.169501 232.013677 190.192865 248.846162 178.169501 248.846162 179.371782 237.273372 189.291155 248.846162 199.811669 248.846162 201.013949"></polyline>
                <path d="M205.082038,307.896099 L175.358188,307.896099 L176.898118,301.226253 L183.132559,296.124989 L187.047273,299.480137 L190.961426,296.124989 L203.879758,306.693819 L203.879758,305.491538 L192.30753,294.971025 L196.577872,291.310812 L205.082038,285.78875 L205.082038,307.896099 M177.426784,298.934617 L178.725696,293.310867 L169.012508,291.06867 L169.012508,282.647652 L186.609621,282.647652 L192.614842,291.896221 L187.047273,295.872735 L170.21535,283.849371 L170.21535,285.052213 L181.786455,294.971025 L177.426784,298.934617" id="Fill-153" fill="#1F8883"></path>
                <polyline id="Fill-154" fill="#FFFFFE" points="203.879758 306.693819 190.961426 296.124989 187.047273 299.480137 183.132559 296.124989 176.898118 301.226253 177.426784 298.934617 181.786455 294.971025 170.21535 285.052213 170.21535 283.849371 187.047273 295.872735 192.614842 291.896221 193.522732 293.294574 196.577872 291.310812 192.30753 294.971025 203.879758 305.491538 203.879758 306.693819"></polyline>
                <path d="M334.32042,244.863468 L273.415376,179.066155 L296.37612,157.812201 L317.694683,157.812201 L318.562684,180.544286 L279.831845,177.19925 L277.639088,179.229081 L318.730666,184.947777 L319.220567,197.753747 L331.950692,199.228507 L334.482784,240.639757 L336.676665,238.609364 L336.326655,199.735824 L359.214924,202.387582 L339.01156,221.918456 L348.502271,231.736141 L334.32042,244.863468 M376.499669,205.820261 L374.42096,203.670202 L376.154716,202.065663 L372.050109,201.217887 L366.434224,195.408739 L362.472317,199.239181 L325.801085,191.66313 L321.493663,157.812201 L336.520481,157.812201 L336.520481,154.849198 L380.378427,202.229713 L376.499669,205.820261" id="Fill-155" fill="#1F8883"></path>
                <path d="M334.482784,240.639757 L331.950692,199.228507 L319.220567,197.753747 L318.730666,184.947777 L277.639088,179.229081 L279.831845,177.19925 L318.562684,180.544286 L317.694683,157.812201 L321.493663,157.812201 L325.801085,191.66313 L362.472317,199.239181 L359.214924,202.387582 L336.326655,199.735824 L336.676665,238.609364 L334.482784,240.639757 M374.42096,203.670202 L372.050109,201.217887 L376.154716,202.065663 L374.42096,203.670202" id="Fill-156" fill="#FFFFFE"></path>
                <path d="M300.855456,113.704809 L281.126824,61.7533819 L355.34347,33.5700234 L375.072102,85.5208887 L300.855456,113.704809 M301.450416,107.817569 L302.389768,110.291232 L320.71162,78.4510316 L331.388317,82.2955192 L336.819927,72.3340096 L371.658525,83.9871387 L370.718611,81.5123516 L338.687956,68.9091964 L354.747948,39.4572637 L353.808596,36.9824766 L328.569701,74.8734052 L284.539839,63.2871319 L285.479753,65.7607953 L317.040732,77.1290852 L301.450416,107.817569" id="Fill-157" fill="#1F8883"></path>
                <polyline id="Fill-158" fill="#FFFFFE" points="302.389768 110.291232 301.450416 107.817569 317.040732 77.1290852 285.479753 65.7607953 284.539839 63.2871319 328.569701 74.8734052 353.808596 36.9824766 354.747948 39.4572637 338.687956 68.9091964 370.718611 81.5123516 371.658525 83.9871387 336.819927 72.3340096 331.388317 82.2955192 320.71162 78.4510316 302.389768 110.291232"></polyline>
                <path d="M248.437724,154.637956 L229.615859,131.401924 L245.88035,118.226843 L264.702216,141.462313 L248.437724,154.637956 M248.652337,139.398773 L248.584357,153.23567 L249.359098,152.608125 L250.09732,139.663949 L262.525751,141.942663 L263.300492,141.315118 L246.771948,136.745891 L245.733717,119.628567 L244.959538,120.255551 L244.607843,132.886797 L231.792323,130.921574 L231.017582,131.54912 L244.566831,134.355938 L244.44885,138.627966 L248.652337,139.398773" id="Fill-159" fill="#EBC634"></path>
                <polyline id="Fill-160" fill="#FFFFFE" points="248.584357 153.23567 248.584357 153.23567 248.652337 139.398773 244.44885 138.627966 244.566831 134.355938 231.017582 131.54912 231.792323 130.921574 244.607843 132.886797 244.959538 120.255551 245.733717 119.628567 246.771948 136.745891 263.300492 141.315118 262.525751 141.942663 250.09732 139.663949 249.359098 152.608125 248.584357 153.23567"></polyline>
                <path d="M292.181622,45.2984354 L266.088209,18.3061209 L284.982548,0.0410123626 L311.075962,27.0333269 L292.181622,45.2984354 M267.85792,18.3370206 L285.111765,20.3573008 L285.433122,25.7141896 L290.775404,26.2164505 L292.211398,43.5292857 L293.111423,42.6590371 L292.612533,26.3889272 L308.406787,27.8726758 L309.306812,27.0035508 L288.132635,23.1045673 L284.952772,1.8107239 L284.053871,2.68041071 L285.00165,18.5156772 L268.757945,17.466772 L267.85792,18.3370206" id="Fill-161" fill="#EBC634"></path>
                <polyline id="Fill-162" fill="#FFFFFE" points="292.211398 43.5292857 290.775404 26.2164505 285.433122 25.7141896 285.111765 20.3573008 267.85792 18.3370206 268.757945 17.466772 285.00165 18.5156772 284.053871 2.68041071 284.952772 1.8107239 288.132635 23.1045673 309.306812 27.0035508 308.406787 27.8726758 292.612533 26.3889272 293.111423 42.6590371 292.211398 43.5292857"></polyline>
                <path d="M376.883387,261.094251 L339.01156,221.918456 L366.434224,195.408739 L404.306051,234.584534 L376.883387,261.094251 M341.58017,221.962839 L366.622431,224.896066 L367.088174,232.670437 L374.84232,233.399109 L376.926085,258.527327 L378.232301,257.264371 L377.508124,233.649677 L400.432349,235.803669 L401.738003,234.541837 L371.006821,228.882692 L366.391526,197.977349 L365.086434,199.239743 L366.462315,222.222959 L342.886386,220.700445 L341.58017,221.962839" id="Fill-163" fill="#EBC634"></path>
                <polyline id="Fill-164" fill="#FFFFFE" points="376.926085 258.527327 374.84232 233.399109 367.088174 232.670437 366.622431 224.896066 341.58017 221.962839 342.886386 220.700445 366.462315 222.222959 365.086434 199.239743 366.391526 197.977349 371.006821 228.882692 401.738003 234.541837 400.432349 235.803669 377.508124 233.649677 378.232301 257.264371 376.926085 258.527327"></polyline>
                <path d="M172.102481,321.997048 L131.12158,312.535552 L137.744795,283.849371 L169.012508,291.06867 L178.725696,293.310867 L172.102481,321.997048 M159.14763,304.919051 L171.05189,320.316103 L171.367067,318.950335 L160.979141,303.961159 L176.729012,295.727225 L177.04419,294.361457 L154.766611,303.605532 L138.795948,285.530316 L138.480771,286.896084 L149.026004,301.201533 L133.119387,310.119194 L132.803648,311.485523 L150.252442,302.865624 L153.819956,307.703959 L159.14763,304.919051" id="Fill-165" fill="#EBC634"></path>
                <polyline id="Fill-166" fill="#FFFFFE" points="171.05189 320.316103 159.14763 304.919051 153.819956 307.703959 150.252442 302.865624 132.803648 311.485523 133.119387 310.119194 149.026004 301.201533 138.480771 286.896084 138.795948 285.530316 154.766611 303.605532 177.04419 294.361457 176.729012 295.727225 160.979141 303.961159 171.367067 318.950335 171.05189 320.316103"></polyline>
                <polyline id="Fill-167" fill="#EBC634" points="261.057734 291.219798 222.408919 274.628331 222.462853 274.503047 224.579765 273.12829 224.251104 273.894041 242.953865 268.510747 245.605062 273.906401 251.342298 272.112532 260.321758 289.379298 260.875706 288.09106 253.314824 271.495099 270.27765 266.190459 270.829912 264.902221 247.26522 270.041688 234.758696 249.416402 234.206434 250.70464 242.042043 266.65564 226.044412 272.177702 231.257477 268.792777 227.438832 262.911717 234.023283 247.575341 272.670974 264.166808 261.057734 291.219798"></polyline>
                <polyline id="Fill-168" fill="#FFFFFE" points="260.321758 289.379298 251.342298 272.112532 245.605062 273.906401 242.953865 268.510747 224.251104 273.894041 224.579765 273.12829 226.044412 272.177702 242.042043 266.65564 234.206434 250.70464 234.758696 249.416402 247.26522 270.041688 270.829912 264.902221 270.27765 266.190459 253.314824 271.495099 260.875706 288.09106 260.321758 289.379298"></polyline>
                <path d="M274.779459,157.812201 L336.520481,157.812201 L336.520481,114.593598 L274.779459,114.593598 L274.779459,157.812201 Z M312.350154,137.663332 L334.461997,155.754279 L334.461997,153.696357 L314.653026,135.688559 L334.461997,118.709441 L334.461997,116.651519 L305.64997,137.231298 L276.83738,116.651519 L276.83738,118.709441 L296.64579,135.688559 L276.83738,153.696357 L276.83738,155.754279 L298.949224,137.663332 L305.64997,143.406187 L312.350154,137.663332 Z" id="Fill-169" fill="#C73541"></path>
                <polyline id="Fill-170" fill="#FFFFFE" points="334.461997 155.754279 312.350154 137.663332 305.64997 143.406187 298.949224 137.663332 276.83738 155.754279 276.83738 153.696357 296.64579 135.688559 276.83738 118.709441 276.83738 116.651519 305.64997 137.231298 334.461997 116.651519 334.461997 118.709441 314.653026 135.688559 334.461997 153.696357 334.461997 155.754279"></polyline>
                <path d="M337.557026,299.116082 L288.582085,286.676415 L297.29019,252.393451 L346.26513,264.83368 L337.557026,299.116082 M322.444251,278.262701 L336.339015,297.068273 L336.753633,295.436206 L324.669032,277.160985 L343.803265,267.683758 L344.217321,266.051691 L317.21658,276.571081 L298.508201,254.440698 L298.093582,256.073327 L310.384931,273.532795 L291.043951,283.825775 L290.629894,285.458404 L311.814746,275.562626 L315.972725,281.468407 L322.444251,278.262701" id="Fill-171" fill="#C73541"></path>
                <polyline id="Fill-172" fill="#FFFFFE" points="336.339015 297.068273 322.444251 278.262701 315.972725 281.468407 311.814746 275.562626 290.629894 285.458404 291.043951 283.825775 310.384931 273.532795 298.093582 256.073327 298.508201 254.440698 317.21658 276.571081 344.217321 266.051691 343.803265 267.683758 324.669032 277.160985 336.753633 295.436206 336.339015 297.068273"></polyline>
                <path d="M193.522732,293.294574 L176.371137,266.880365 L214.105882,242.378007 L231.257477,268.792777 L226.044412,272.177702 L224.579765,273.12829 L193.522732,293.294574 M193.147441,289.961898 L193.964317,291.219798 L200.298761,271.387793 L206.673093,272.238378 L208.488874,266.069669 L229.183262,268.35063 L228.366386,267.093854 L209.113048,263.949386 L214.481735,245.709559 L213.664297,244.452221 L204.223026,268.464679 L178.445913,267.320827 L179.26279,268.579288 L198.107128,271.095088 L193.147441,289.961898" id="Fill-173" fill="#C73541"></path>
                <polyline id="Fill-174" fill="#FFFFFE" points="193.964317 291.219798 193.147441 289.961898 198.107128 271.095088 179.26279 268.579288 178.445913 267.320827 204.223026 268.464679 213.664297 244.452221 214.481735 245.709559 209.113048 263.949386 228.366386 267.093854 229.183262 268.35063 208.488874 266.069669 206.673093 272.238378 200.298761 271.387793 193.964317 291.219798"></polyline>
                <path d="M404.226835,86.2484368 L384.732479,58.9448777 L403.844802,45.2984354 L423.339158,72.6025563 L404.226835,86.2484368 M405.505522,69.1974066 L404.487516,84.6888434 L405.397092,84.0393874 L407.105566,69.5929231 L420.869989,72.9918929 L421.779565,72.341875 L403.58075,66.0990069 L403.584683,46.8585907 L402.673984,47.5086085 L401.420578,61.6292212 L387.202772,58.5555412 L386.292073,59.2049973 L401.274507,63.2714011 L400.850338,68.0484986 L405.505522,69.1974066" id="Fill-175" fill="#C73541"></path>
                <polyline id="Fill-176" fill="#FFFFFE" points="404.487516 84.6888434 404.487516 84.6888434 405.505522 69.1974066 400.850338 68.0484986 401.274507 63.2714011 386.292073 59.2049973 387.202772 58.5555412 401.420578 61.6292212 402.673984 47.5086085 403.584683 46.8585907 403.58075 66.0990069 421.779565 72.341875 420.869989 72.9918929 407.105566 69.5929231 405.397092 84.0393874 404.487516 84.6888434"></polyline>
                <path d="M409.503946,213.415975 L393.872618,213.346872 L393.972059,191.016484 L409.602826,191.085587 L409.503946,213.415975 M408.762915,212.668202 L401.366082,202.215106 L408.855052,191.826618 L408.111212,191.823247 L401.93857,198.961084 L395.456931,191.767628 L394.712529,191.764257 L401.220573,199.790882 L399.132313,202.204993 L401.199224,204.637082 L394.620391,212.605841 L395.364232,212.609212 L401.909356,205.47306 L408.018512,212.665393 L408.762915,212.668202" id="Fill-177" fill="#C73541"></path>
                <polyline id="Fill-178" fill="#FFFFFE" points="408.762915 212.668202 408.018512 212.665393 401.909356 205.47306 395.364232 212.609212 394.620391 212.605841 401.199224 204.637082 399.132313 202.204993 401.220573 199.790882 394.712529 191.764257 395.456931 191.767628 401.93857 198.961084 408.111212 191.823247 408.855052 191.826618 401.366082 202.215106 408.762915 212.668202"></polyline>
                <path d="M178.725696,197.663295 C175.467742,197.663295 172.826096,195.022212 172.826096,191.764257 C172.826096,188.506302 175.467742,185.865218 178.725696,185.865218 C181.983089,185.865218 184.624735,188.506302 184.624735,191.764257 C184.624735,195.022212 181.983089,197.663295 178.725696,197.663295" id="Fill-179" fill="#EBC634"></path>
                <path d="M427.080834,206.217463 C424.206598,206.217463 421.87732,203.887624 421.87732,201.013949 C421.87732,198.140275 424.206598,195.810997 427.080834,195.810997 C429.954508,195.810997 432.283786,198.140275 432.283786,201.013949 C432.283786,203.887624 429.954508,206.217463 427.080834,206.217463" id="Fill-180" fill="#EBC634"></path>
                <path d="M393.872618,305.015121 C390.614663,305.015121 387.97358,302.374037 387.97358,299.116082 C387.97358,295.858128 390.614663,293.217044 393.872618,293.217044 C397.130573,293.217044 399.771657,295.858128 399.771657,299.116082 C399.771657,302.374037 397.130573,305.015121 393.872618,305.015121" id="Fill-181" fill="#EBC634"></path>
                <path d="M380.378427,39.4690618 C377.120473,39.4690618 374.479389,36.8274162 374.479389,33.5700234 C374.479389,30.3120687 377.120473,27.6704231 380.378427,27.6704231 C383.636382,27.6704231 386.277466,30.3120687 386.277466,33.5700234 C386.277466,36.8274162 383.636382,39.4690618 380.378427,39.4690618" id="Fill-182" fill="#EBC634"></path>
                <path d="M323.368434,18.2589286 C320.110479,18.2589286 317.469396,15.6178448 317.469396,12.3598901 C317.469396,9.10193544 320.110479,6.46085165 323.368434,6.46085165 C326.626389,6.46085165 329.267473,9.10193544 329.267473,12.3598901 C329.267473,15.6178448 326.626389,18.2589286 323.368434,18.2589286" id="Fill-183" fill="#C73541"></path>
                <path d="M423.339158,136.821174 C420.081765,136.821174 417.44012,134.180091 417.44012,130.922136 C417.44012,127.664181 420.081765,125.023098 423.339158,125.023098 C426.597113,125.023098 429.238196,127.664181 429.238196,130.922136 C429.238196,134.180091 426.597113,136.821174 423.339158,136.821174" id="Fill-184" fill="#C73541"></path>
                <path d="M411.030393,291.429916 C407.772438,291.429916 405.131354,288.788271 405.131354,285.530316 C405.131354,282.272923 407.772438,279.631277 411.030393,279.631277 C414.288348,279.631277 416.929431,282.272923 416.929431,285.530316 C416.929431,288.788271 414.288348,291.429916 411.030393,291.429916" id="Fill-185" fill="#C73541"></path>
                <path d="M191.658636,184.06854 C188.400681,184.06854 185.759598,181.427456 185.759598,178.169501 C185.759598,174.911547 188.400681,172.270463 191.658636,172.270463 C194.916591,172.270463 197.557674,174.911547 197.557674,178.169501 C197.557674,181.427456 194.916591,184.06854 191.658636,184.06854" id="Fill-186" fill="#C73541"></path>
                <path d="M195.453684,154.60818 C193.357559,154.60818 191.658636,152.908695 191.658636,150.81257 C191.658636,148.717007 193.357559,147.018084 195.453684,147.018084 C197.549809,147.018084 199.248732,148.717007 199.248732,150.81257 C199.248732,152.908695 197.549809,154.60818 195.453684,154.60818" id="Fill-187" fill="#1F8883"></path>
                <path d="M260.907168,114.08628 C258.811604,114.08628 257.111558,112.386795 257.111558,110.291232 C257.111558,108.195107 258.811604,106.496184 260.907168,106.496184 C263.003293,106.496184 264.702216,108.195107 264.702216,110.291232 C264.702216,112.386795 263.003293,114.08628 260.907168,114.08628" id="Fill-188" fill="#1F8883"></path>
                <path d="M421.780126,93.7374066 C419.684563,93.7374066 417.984516,92.0384835 417.984516,89.9423585 C417.984516,87.8462335 419.684563,86.1473104 421.780126,86.1473104 C423.876251,86.1473104 425.575174,87.8462335 425.575174,89.9423585 C425.575174,92.0384835 423.876251,93.7374066 421.780126,93.7374066" id="Fill-189" fill="#1F8883"></path>
                <path d="M384.733041,283.426887 C382.636916,283.426887 380.937431,281.727402 380.937431,279.631277 C380.937431,277.535714 382.636916,275.836791 384.733041,275.836791 C386.828604,275.836791 388.527527,277.535714 388.527527,279.631277 C388.527527,281.727402 386.828604,283.426887 384.733041,283.426887" id="Fill-190" fill="#1F8883"></path>
                <path d="M314.871571,315.486757 C312.776008,315.486757 311.075962,313.78671 311.075962,311.691147 C311.075962,309.595022 312.776008,307.896099 314.871571,307.896099 C316.967696,307.896099 318.66662,309.595022 318.66662,311.691147 C318.66662,313.78671 316.967696,315.486757 314.871571,315.486757" id="Fill-191" fill="#1F8883"></path>
                <path d="M191.659198,206.011277 C189.563073,206.011277 187.863588,204.311793 187.863588,202.216229 C187.863588,200.120104 189.563073,198.421181 191.659198,198.421181 C193.754761,198.421181 195.453684,200.120104 195.453684,202.216229 C195.453684,204.311793 193.754761,206.011277 191.659198,206.011277" id="Fill-192" fill="#1F8883"></path>
                <path d="M261.991467,165.824218 C261.159984,165.824218 260.485246,165.150043 260.485246,164.318559 C260.485246,163.487076 261.159984,162.813462 261.991467,162.813462 C262.822389,162.813462 263.497126,163.487076 263.497126,164.318559 C263.497126,165.150043 262.822389,165.824218 261.991467,165.824218" id="Fill-193" fill="#E06136"></path>
                <path d="M405.131916,275.836791 C404.300433,275.836791 403.626257,275.162054 403.626257,274.331132 C403.626257,273.499648 404.300433,272.825473 405.131916,272.825473 C405.9634,272.825473 406.637576,273.499648 406.637576,274.331132 C406.637576,275.162054 405.9634,275.836791 405.131916,275.836791" id="Fill-194" fill="#E06136"></path>
                <path d="M425.575174,239.340283 C424.743691,239.340283 424.068953,238.666107 424.068953,237.834624 C424.068953,237.00314 424.743691,236.328964 425.575174,236.328964 C426.406096,236.328964 427.080834,237.00314 427.080834,237.834624 C427.080834,238.666107 426.406096,239.340283 425.575174,239.340283" id="Fill-195" fill="#E06136"></path>
                <path d="M371.659087,268.189952 C370.827603,268.189952 370.152865,267.515776 370.152865,266.684854 C370.152865,265.853371 370.827603,265.179195 371.659087,265.179195 C372.49057,265.179195 373.164746,265.853371 373.164746,266.684854 C373.164746,267.515776 372.49057,268.189952 371.659087,268.189952" id="Fill-196" fill="#E06136"></path>
                <path d="M416.929993,224.526393 C416.09851,224.526393 415.424334,223.851655 415.424334,223.020734 C415.424334,222.18925 416.09851,221.515074 416.929993,221.515074 C417.761477,221.515074 418.435652,222.18925 418.435652,223.020734 C418.435652,223.851655 417.761477,224.526393 416.929993,224.526393" id="Fill-197" fill="#E06136"></path>
                <path d="M414.138343,102.817993 C413.30686,102.817993 412.632684,102.143255 412.632684,101.312334 C412.632684,100.481412 413.30686,99.8066745 414.138343,99.8066745 C414.969827,99.8066745 415.644003,100.481412 415.644003,101.312334 C415.644003,102.143255 414.969827,102.817993 414.138343,102.817993" id="Fill-198" fill="#E06136"></path>
                <path d="M383.22682,46.8040948 C382.394775,46.8040948 381.720599,46.1293571 381.720599,45.2984354 C381.720599,44.4669519 382.394775,43.7927761 383.22682,43.7927761 C384.057742,43.7927761 384.732479,44.4669519 384.732479,45.2984354 C384.732479,46.1293571 384.057742,46.8040948 383.22682,46.8040948" id="Fill-199" fill="#E06136"></path>
                <path d="M269.364141,118.156617 C268.532658,118.156617 267.85792,117.482441 267.85792,116.651519 C267.85792,115.820036 268.532658,115.14586 269.364141,115.14586 C270.195625,115.14586 270.869801,115.820036 270.869801,116.651519 C270.869801,117.482441 270.195625,118.156617 269.364141,118.156617" id="Fill-200" fill="#E06136"></path>
                <path d="M184.208431,168.835537 C183.376948,168.835537 182.702772,168.160799 182.702772,167.329878 C182.702772,166.498394 183.376948,165.824218 184.208431,165.824218 C185.039915,165.824218 185.714091,166.498394 185.714091,167.329878 C185.714091,168.160799 185.039915,168.835537 184.208431,168.835537" id="Fill-201" fill="#E06136"></path>
                <path d="M178.725696,142.161209 C177.894213,142.161209 177.219475,141.486471 177.219475,140.655549 C177.219475,139.824066 177.894213,139.14989 178.725696,139.14989 C179.55718,139.14989 180.231356,139.824066 180.231356,140.655549 C180.231356,141.486471 179.55718,142.161209 178.725696,142.161209" id="Fill-202" fill="#E06136"></path>
                <path d="M191.659198,116.651519 C190.827152,116.651519 190.152977,115.977343 190.152977,115.14586 C190.152977,114.314938 190.827152,113.640201 191.659198,113.640201 C192.49012,113.640201 193.164295,114.314938 193.164295,115.14586 C193.164295,115.977343 192.49012,116.651519 191.659198,116.651519" id="Fill-203" fill="#E06136"></path>
                <path d="M239.051511,38.488136 C238.220027,38.488136 237.54529,37.8139602 237.54529,36.9824766 C237.54529,36.1515549 238.220027,35.4773791 239.051511,35.4773791 C239.882995,35.4773791 240.55717,36.1515549 240.55717,36.9824766 C240.55717,37.8139602 239.882995,38.488136 239.051511,38.488136" id="Fill-204" fill="#C73541"></path>
                <path d="M247.159599,27.6704231 C246.327554,27.6704231 245.653378,26.9962473 245.653378,26.1653255 C245.653378,25.333842 246.327554,24.6596662 247.159599,24.6596662 C247.990521,24.6596662 248.664696,25.333842 248.664696,26.1653255 C248.664696,26.9962473 247.990521,27.6704231 247.159599,27.6704231" id="Fill-205" fill="#EBC634"></path>
                <path d="M172.82722,178.639739 C171.903037,178.639739 171.15414,177.890842 171.15414,176.967783 C171.15414,176.044724 171.903037,175.295265 172.82722,175.295265 C173.749717,175.295265 174.498614,176.044724 174.498614,176.967783 C174.498614,177.890842 173.749717,178.639739 172.82722,178.639739" id="Fill-206" fill="#1F8883"></path>
            </g>
        </g>
    </g>
</svg>