<svg class="" width="20" height="20" viewBox="0 0 22 24" version="1.1" xmlns="http://www.w3.org/2000/svg" xmlns:xlink="http://www.w3.org/1999/xlink"><defs></defs><g stroke="none" stroke-width="1" fill="none" fill-rule="evenodd"><g transform="translate(-1163.000000, -315.000000)"><g transform="translate(302.000000, 173.000000)"><g transform="translate(50.000000, 47.000000)"><g transform="translate(0.000000, 67.000000)"><g transform="translate(423.000000, 0.000000)"><g transform="translate(387.000000, 28.000000)"><g><rect x="0" y="0" width="24" height="24"></rect><g transform="translate(1.000000, 0.000000)" fill-rule="nonzero" fill="#2196f3"><path d="M20,0 L7,0 C5.9,0 5,0.9 5,2 L5,3 L17,3 C18.1,3 19,3.9 19,5 L19,19 L20,19 C21.1,19 22,18.1 22,17 L22,2 C22,0.9 21.1,0 20,0 Z M17,7 C17,5.9 16.1,5 15,5 L2,5 C0.9,5 0,5.9 0,7 L0,22 C0,23.1 0.9,24 2,24 L15,24 C16.1,24 17,23.1 17,22 L17,7 Z M8,10.5 C8,10.8 7.8,11 7.5,11 L3.5,11 C3.2,11 3,10.8 3,10.5 L3,9.5 C3,9.2 3.2,9 3.5,9 L7.5,9 C7.8,9 8,9.2 8,9.5 L8,10.5 Z M12,18.5 C12,18.8 11.8,19 11.5,19 L3.5,19 C3.2,19 3,18.8 3,18.5 L3,17.5 C3,17.2 3.2,17 3.5,17 L11.5,17 C11.8,17 12,17.2 12,17.5 L12,18.5 Z M14,14.5 C14,14.8 13.8,15 13.5,15 L3.5,15 C3.2,15 3,14.8 3,14.5 L3,13.5 C3,13.2 3.2,13 3.5,13 L13.5,13 C13.8,13 14,13.2 14,13.5 L14,14.5 Z"></path></g></g></g></g></g></g></g></g></g></svg>
