<svg xmlns="http://www.w3.org/2000/svg" width="18" height="17" viewBox="0 0 18 17">
    <g fill="none" fill-rule="evenodd">
        <path d="M-1-1h20v20H-1z"/>
        <path fill="#2196F3" d="M.667 8.844a8.177 8.177 0 1 1 4.123 7.1L.667 17.02l1.13-4.03a8.136 8.136 0 0 1-1.13-4.147zm2.294 1.16v.912c.431.185.87.277 1.313.277.241 0 .463-.032.666-.095.203-.064.378-.153.524-.268a1.24 1.24 0 0 0 .342-.416c.083-.162.124-.34.124-.533 0-.25-.05-.453-.15-.607a1.22 1.22 0 0 0-.37-.373 2.04 2.04 0 0 0-.486-.224 18.43 18.43 0 0 1-.485-.16 1.66 1.66 0 0 1-.37-.176.309.309 0 0 1-.15-.271c0-.136.06-.245.18-.327a.824.824 0 0 1 .473-.123c.186 0 .375.026.565.077.19.051.38.13.57.237v-.9a3.404 3.404 0 0 0-1.21-.227c-.242 0-.463.03-.664.092-.2.062-.373.15-.517.262a1.219 1.219 0 0 0-.336.404c-.08.156-.12.328-.12.517 0 .247.05.446.149.598.1.152.224.274.374.366a2.2 2.2 0 0 0 .485.222c.174.055.335.11.486.163.15.054.274.114.374.182.1.068.149.161.149.28 0 .144-.063.261-.187.351a.82.82 0 0 1-.492.136c-.203 0-.41-.03-.618-.093a2.483 2.483 0 0 1-.619-.283zm3.627-3.197v4.386h.984V8.49l.903 1.256h.612l.915-1.256v2.703h.972V6.807h-.91l-1.28 1.772-1.288-1.772h-.908zm5.145 3.197v.912c.431.185.87.277 1.313.277.241 0 .463-.032.666-.095.203-.064.378-.153.524-.268a1.24 1.24 0 0 0 .342-.416c.083-.162.124-.34.124-.533 0-.25-.05-.453-.15-.607a1.22 1.22 0 0 0-.37-.373 2.04 2.04 0 0 0-.486-.224 18.43 18.43 0 0 1-.485-.16 1.66 1.66 0 0 1-.371-.176.309.309 0 0 1-.15-.271c0-.136.061-.245.182-.327a.824.824 0 0 1 .472-.123c.186 0 .375.026.565.077.19.051.38.13.57.237v-.9a3.404 3.404 0 0 0-1.21-.227c-.242 0-.463.03-.664.092-.2.062-.373.15-.517.262a1.219 1.219 0 0 0-.336.404c-.08.156-.12.328-.12.517 0 .247.05.446.149.598.099.152.224.274.374.366a2.2 2.2 0 0 0 .485.222c.174.055.335.11.485.163.15.054.275.114.375.182.1.068.149.161.149.28 0 .144-.063.261-.187.351a.82.82 0 0 1-.492.136c-.203 0-.41-.03-.618-.093a2.483 2.483 0 0 1-.619-.283z"/>
    </g>
</svg>
