<svg xmlns="http://www.w3.org/2000/svg" xmlns:xlink="http://www.w3.org/1999/xlink" width="80" height="80" viewBox="0 0 80 80">
    <defs>
        <radialGradient id="b" r="45.413%" fx="50%" fy="50%">
            <stop offset="0%" stop-color="#FFF"/>
            <stop offset="100%" stop-color="#329FF4"/>
        </radialGradient>
        <circle id="a" cx="40" cy="40" r="40"/>
    </defs>
    <g fill="none" fill-rule="evenodd">
        <mask id="c" fill="#fff">
            <use xlink:href="#a"/>
        </mask>
        <use fill="url(#b)" xlink:href="#a"/>
        <g fill-rule="nonzero" mask="url(#c)">
            <path fill="#30273D" d="M59.045 74.145s2.804 3.59 2.948 6.804C62.136 84.164 60.088 91 60.088 91L41 90.591 42.827 74l16.218.145z"/>
            <path fill="#41494F" d="M42.972 73.706l-1.85 17.241H24.562s-1.893-14.662-.324-17.715l18.735.474z"/>
            <path fill="#FFF" d="M44.786 45.42l-.597 16.43-.526 14.175-10.366 4.146-.94-.254-8.938-2.404c-.35-1.702.012-12.757.012-12.757-.375-.978-.749-2.287-1.11-3.759-1.486-6.045-2.74-14.846-2.74-14.846 1.99-1.913 7.675-3.827 7.675-3.827l9.118-1.741 8.412 4.836z"/>
            <path fill="#FFBE91" d="M36.374 40.583l-1.26-1.235v-3.934l-6.583.531v4.944l-1.276 1.435s.274.268.786.576a6.287 6.287 0 0 0 1.65.692 6.278 6.278 0 0 0 1.62.209 6.872 6.872 0 0 0 1.587-.182l.085-.02a7.61 7.61 0 0 0 1.256-.41h.002c.1-.046.196-.09.287-.138a3.999 3.999 0 0 0 1.151-.842c.079-.086.15-.172.212-.257.533-.723.483-1.37.483-1.37z"/>
            <path fill="#E49866" d="M35.114 38.633v-3.218l-6.584.531v3.393c2.163-.192 4.424-.698 6.584-.706z"/>
            <path fill="#FFBE91" d="M42.08 30.517a2.982 2.982 0 0 0 .59-2.837c-.088-.273-.222-.54-.434-.73-.664-.598-1.485-.224-1.937.396-.092-3.34-.602-6.33-.602-6.33l-7.78-4.788-7.78 4.787s-.543 3.184-.61 6.651c-.37-.792-1.354-1.412-2.126-.717-.213.191-.346.458-.435.731a2.982 2.982 0 0 0 .59 2.837 2.892 2.892 0 0 0 2.144.95v4.266s3.578 2.953 8.682 2.553c5.104-.4 8.085-3.39 8.085-3.39l-.367-3.184c.013-.083.024-.167.035-.252a2.89 2.89 0 0 0 1.946-.943z"/>
            <path fill="#453535" d="M26.65 18.99s5.784 4.143 13.188 4.356l.475 4.414s5.958-12.934-3.77-15.149C26.037 10.22 26.65 18.99 26.65 18.99z"/>
            <path fill="#554142" d="M39.181 13.68c-.098 1.434-1.549 2.676-3.108 2.28-1.414-.478-2.984-1.914-3.926-.797-.472.637.942 2.073.47 2.87-.785 1.435-2.826-.797-3.455.16-.481.684-.194 1.55.281 2.41 1.578.784 3.74 1.67 6.25 2.22.27-.342.482-.764.694-1.122.471-1.116-.314-2.392 0-3.509 0-.478.785-.478 1.257-.318 1.38.84 3.003 1.927 4.443 1.204-.159-2.108-.931-4.12-2.906-5.398z"/>
            <path fill="#453535" d="M30.86 16.538s-5.153-4.564-8.137 1.017c-2.984 5.581.803 10.206.803 10.206s-.55-6.022 7.333-11.223z"/>
            <path fill="#554142" d="M25.864 17.395c-.157.479-.628.957-.785 1.435-1.288-.523-1.203-1.796-1.218-2.853-.401.4-.785.917-1.138 1.578a9.608 9.608 0 0 0-1.017 2.917c.208-.082.437-.068.703.113.47.318.314 1.275.628 1.913.628 1.276 1.1-1.116 2.041-.638.082.028.153.08.218.148a15.634 15.634 0 0 1 2.12-2.668c-.605-.547-1.16-1.15-1.552-1.945z"/>
            <g fill="#E49866">
                <path d="M23.072 28.208c-.21-.231-.516-.376-.813-.353a.849.849 0 0 0-.618.35.643.643 0 0 0-.13.434c.013.105.045.15.042.151.002 0 .005-.056.041-.139a.571.571 0 0 1 .234-.251.637.637 0 0 1 .426-.086c.141.027.296.12.426.264.02.021.037.044.055.067a.72.72 0 0 0-.502 1.16.56.56 0 0 0 .258.185l-.01-.082a.924.924 0 0 1 .003-.195c.016-.153.083-.32.157-.442.066-.115.168-.24.282-.327.02.044.038.088.055.133.067.183.109.37.141.53l.073.395.03.148s.022-.05.054-.142c.032-.092.075-.225.11-.398.035-.172.063-.388.032-.637a1.39 1.39 0 0 0-.346-.765zM41.662 28.242a1.57 1.57 0 0 1 .386-.175s-.039-.02-.115-.045a.985.985 0 0 0-.343-.042 1.203 1.203 0 0 0-.988.633 1.23 1.23 0 0 0 .034 1.184 1.005 1.005 0 0 0 .327.338l-.03-.118a1.61 1.61 0 0 1-.043-.305c-.011-.21.03-.471.128-.713l.034.02c.118.074.224.189.308.286.084.097.183.219.241.347.03.062.05.123.062.168l.018.073s.024-.014.061-.047a.539.539 0 0 0 .126-.176.691.691 0 0 0-.107-.724.673.673 0 0 0-.365-.215.643.643 0 0 0-.236-.005c.142-.21.328-.38.502-.484z"/>
            </g>
            <path fill="#E49866" d="M32.146 31.588s-.338.065-.886.13l-.214.023c-.04.004-.07.009-.12.011a.544.544 0 0 1-.472-.26.568.568 0 0 1-.076-.195c-.007-.033-.009-.078-.01-.103l-.003-.07a10.815 10.815 0 0 1 .672-4.226s0 .35-.017.906a57.41 57.41 0 0 1-.104 2.154c-.03.418-.065.816-.1 1.18l-.01.099a.15.15 0 0 0 .007.053.17.17 0 0 0 .07.091c.017.011.036.02.057.024.027.006.073.01.108.014l.214.027c.547.071.884.142.884.142z"/>
            <g fill="#453535">
                <path d="M29.526 24.36l-.178-.101a3.077 3.077 0 0 0-.468-.207 3.414 3.414 0 0 0-1.387-.172c-.49.039-.981.193-1.342.394-.18.098-.329.2-.429.28l-.16.129s-.003-.075.015-.213c.017-.138.066-.336.182-.565a2.04 2.04 0 0 1 .583-.695 2.057 2.057 0 0 1 1.066-.414 2.048 2.048 0 0 1 1.802.828c.15.207.23.395.268.528.04.133.048.208.048.208zM38.718 23.96l-.184-.047a1.456 1.456 0 0 0-.203-.047c-.079-.013-.16-.036-.257-.043l-.144-.018c-.048-.006-.102-.006-.153-.01-.103-.012-.215-.007-.325-.013-.225.003-.459.011-.706.024-.246.018-.48.038-.703.064-.109.02-.22.028-.32.052-.051.011-.104.017-.152.029l-.14.036c-.095.019-.174.051-.25.074a1.501 1.501 0 0 0-.197.072l-.176.07s.014-.067.055-.187a1.06 1.06 0 0 1 .093-.212c.043-.078.092-.174.165-.26.035-.046.074-.093.115-.142.043-.047.092-.09.142-.136.1-.097.22-.175.353-.257.267-.151.595-.264.95-.288.355-.02.694.052.977.168.14.066.27.129.381.212.056.04.11.076.157.118.047.043.09.085.131.126.083.076.143.166.196.238.054.07.09.14.117.199.056.114.078.177.078.177z"/>
            </g>
            <g transform="translate(26.15 24.462)">
                <ellipse cx="1.393" cy="2.542" fill="#FFF" rx="1.181" ry="2.321"/>
                <path fill="#453535" d="M1.393.627c-.38 0-.67.424-.72 1.355l.72.56-.75.444c.042.958.362 1.47.75 1.47.417 0 .755-.856.755-1.914 0-1.057-.338-1.915-.755-1.915z"/>
                <path fill="#E49866" d="M2.768 5.063l-.115-.03a2.852 2.852 0 0 0-.3-.06 3.082 3.082 0 0 0-.9.006 3.096 3.096 0 0 0-1.132.406l-.101.063s.01-.043.037-.117a1.3 1.3 0 0 1 .16-.299 1.46 1.46 0 0 1 .958-.59c.46-.07.863.104 1.085.281a1.279 1.279 0 0 1 .308.34z"/>
            </g>
            <g transform="translate(35.356 24.462)">
                <ellipse cx="1.31" cy="2.503" fill="#FFF" rx="1.181" ry="2.321"/>
                <path fill="#453535" d="M1.31.588c-.381 0-.695.518-.746 1.45l.746.465-.73.483c.042.958.341 1.431.73 1.431.417 0 .754-.857.754-1.914 0-1.058-.337-1.915-.754-1.915z"/>
            </g>
            <path fill="#E49866" d="M37.83 29.896l-.093-.068a2.202 2.202 0 0 0-2.13-.21l-.104.048s.012-.04.045-.11a1.08 1.08 0 0 1 .185-.267 1.238 1.238 0 0 1 1.017-.386 1.242 1.242 0 0 1 .924.577 1.09 1.09 0 0 1 .155.416z"/>
            <path fill="#E48466" d="M33.422 32.903c-1.279.875-2.97.895-4.25 0-.185-.13-.421.13-.234.275 1.414 1.094 3.297 1.176 4.782.168.283-.192-.015-.636-.298-.443z"/>
            <path fill="#7A7976" d="M36.971 42.798c-.078.097-.16.193-.243.285a6.678 6.678 0 0 0-.836-1.13c-.063.084-.133.17-.212.256.306.364.56.751.778 1.163a7.308 7.308 0 0 1-1.204.993 5.683 5.683 0 0 0-.725-1.314 4.843 4.843 0 0 1-.287.137c.301.439.509.9.669 1.39-.413.238-.856.438-1.332.592a6.415 6.415 0 0 0-.68-1.551c-.113.027-.225.05-.335.068.29.52.48 1.045.63 1.597-.033.01-.064.017-.097.025a7.11 7.11 0 0 1-1.935.208c.033-.574.09-1.144.149-1.716-.132 0-.262-.005-.388-.013-.07.565-.099 1.139-.102 1.711a7.674 7.674 0 0 1-1.446-.256 9.437 9.437 0 0 1 .317-1.651 4.82 4.82 0 0 1-.372-.11 7.343 7.343 0 0 0-.269 1.662 7.596 7.596 0 0 1-1.029-.421 9.14 9.14 0 0 1 .355-1.635 5.673 5.673 0 0 1-.336-.188 7.953 7.953 0 0 0-.31 1.67 7.639 7.639 0 0 1-.913-.584 15.32 15.32 0 0 0-.049.277 7.751 7.751 0 0 0 1.223.766 7.665 7.665 0 0 0 1.36.536 7.665 7.665 0 0 0 1.794.296 7.292 7.292 0 0 0 1.937-.172c.067-.014.133-.032.2-.05a7.615 7.615 0 0 0 1.739-.693 8.238 8.238 0 0 0 1.926-1.453c.044-.046.09-.092.132-.138a33.312 33.312 0 0 0-.109-.557z"/>
            <path fill="#BFBFBF" d="M44.786 45.067l-.019.55-.025.692-.033.904-.025.746-.062 1.68-.026.755-.101 2.836-.027.743-.086 2.452-.027.734-.031.897-.027.74-.07 1.994-.024.676-.014.384-.037.957-.028.79-.077 2.045-.028.79-.08 2.125-.025.68-.077 2.093-.026.694-.045 1.213-.033.877-.07 1.91-.77.308-.572.228-.752.301-.762.305-1.014.407-.864.346-2.015.805c.26-.903.496-1.818.716-2.746.055-.231.11-.462.162-.695.168-.738.326-1.485.479-2.236a11.92 11.92 0 0 0 .165-1.225c.055-.68.048-1.35.004-2.012-.014-.194-.03-.39-.05-.583a30.326 30.326 0 0 0-.411-2.627 67.08 67.08 0 0 0-.116-.591c-.192-.965-.387-1.922-.519-2.88-.026-.188-.05-.376-.07-.564a13.705 13.705 0 0 1-.077-2.17c.01-.22.028-.442.055-.664.019-.185.045-.37.077-.557.13-.743.237-1.483.325-2.22a39.856 39.856 0 0 0 .258-3.36 41.93 41.93 0 0 0-.007-3.157 43.577 43.577 0 0 0-.166-2.48 46.001 46.001 0 0 0-.236-2.026c-.025-.183-.052-.365-.078-.548-.101-.675-.217-1.348-.344-2.02l-.002-.009a17.98 17.98 0 0 0-.1-.513l-.008-.043a56.231 56.231 0 0 0-.478-2.147l1.327.763v.001l.071.04.37.212.112.059 1.326.69.664.347 1.048.545.937.49 2.438 1.269z"/>
            <path fill="#6A6A6A" d="M44.742 46.309l.025-.692c-.205-.09-.41-.179-.61-.268a47.812 47.812 0 0 0-1.587-.673c-.067-.295-.14-.588-.221-.879l-.938-.49c.113.345.222.693.322 1.044-.223-.083-.446-.168-.669-.248l-.433-.15c-.079-.4-.167-.797-.267-1.19l-.665-.347c.095.435.178.872.253 1.308-.392-.13-.785-.254-1.18-.372a29.717 29.717 0 0 0-.398-1.626l-.113-.06-.37-.211-.07-.04c.154.591.287 1.183.407 1.78-.4-.115-.823-.267-1.249-.355.036.171.069.342.1.514l.002.01c.429.103.865.267 1.258.416.096.523.184 1.047.256 1.575-.39-.011-.779-.001-1.17.027.027.184.053.365.078.549.39-.016.78-.013 1.167.01.079.628.143 1.256.193 1.886a7.05 7.05 0 0 0-1.124.13c.019.187.034.374.049.56a6.977 6.977 0 0 1 1.122-.097c.052.738.088 1.478.113 2.218a3.563 3.563 0 0 0-1.118-.2c.008.175.013.35.018.527a3.17 3.17 0 0 1 1.12.254c.02.853.028 1.71.026 2.564a5.447 5.447 0 0 0-1.157-.188c-.007.188-.014.376-.024.566.404.029.796.115 1.18.24-.005.705-.015 1.41-.025 2.115a6.122 6.122 0 0 0-1.326-.132c-.019.19-.04.38-.063.57.455-.003.917.061 1.38.162l-.004.172c-.012.711-.025 1.424-.035 2.135a4.509 4.509 0 0 0-1.743.308 9.472 9.472 0 0 0-.055.663 4.64 4.64 0 0 1 1.79-.358c-.009.803-.014 1.605-.009 2.407a22.6 22.6 0 0 0-1.704.122c.02.188.044.376.07.564.546-.04 1.092-.064 1.639-.07.008.652.023 1.304.047 1.956.01.244.022.488.036.732-.408.055-.81.137-1.203.262.04.196.078.394.116.591.37-.1.748-.165 1.128-.204.06.87.143 1.739.221 2.608a14.37 14.37 0 0 0-.938.223c.02.193.037.389.05.583.312-.08.624-.15.94-.21.058.668.111 1.338.148 2.007a9.457 9.457 0 0 0-1.092.216c-.017.204-.04.41-.067.615a9.08 9.08 0 0 1 1.187-.223c.016.413.025.828.024 1.242-.002.443-.02.88-.056 1.314-.588.145-1.17.305-1.732.512-.052.233-.107.464-.162.695.59-.23 1.206-.394 1.83-.54-.102.85-.273 1.679-.53 2.48l.863-.345c.185-.743.3-1.512.363-2.295.254-.056.509-.113.763-.172-.008.69-.042 1.378-.111 2.06l.761-.305c.052-.64.07-1.286.066-1.935a11.39 11.39 0 0 0 .726-.219c-.013.617-.025 1.236-.04 1.853l.572-.228c.02-.616.036-1.23.055-1.845.266-.109.53-.231.786-.373l.032-.877c-.252.175-.518.33-.794.468l.047-1.64c.259-.01.524-.023.793-.042l.025-.694c-.264.032-.53.056-.8.075l.062-2.163c.272-.004.543-.004.815-.004l.025-.68c-.273.009-.548.02-.823.033l.06-2.14c.283.003.564-.001.843-.017l.029-.791c-.283.02-.566.035-.85.041.02-.756.04-1.513.063-2.27.289.06.576.122.864.184l.028-.79c-.29-.05-.581-.093-.872-.131l.05-1.542c.293.113.583.225.872.331l.024-.676-.536-.177-.338-.116c.024-.665.047-1.33.068-1.995.29.099.582.198.876.295l.027-.74-.883-.266c.01-.34.018-.68.024-1.017.289.142.587.274.89.385l.027-.733a5.64 5.64 0 0 1-.352-.142 8.829 8.829 0 0 1-.55-.268c.01-.815.013-1.631.002-2.446.32.14.65.276.986.403l.027-.743a22.282 22.282 0 0 1-1.027-.39 54.142 54.142 0 0 0-.173-3.231c.446.239.88.504 1.3.786l.028-.756a14.68 14.68 0 0 0-1.401-.792c-.016-.157-.03-.311-.05-.468-.05-.446-.107-.904-.175-1.363.588.266 1.151.584 1.687.944l.025-.746a12.568 12.568 0 0 0-1.828-.941c-.049-.295-.1-.59-.16-.884.402.168.8.34 1.196.519.277.125.55.263.825.402zm-2.23 2.215a10.097 10.097 0 0 0-1.382-.455 37.229 37.229 0 0 0-.145-1.765c.429.11.853.246 1.27.402.103.604.188 1.21.257 1.818zm-1.002-3.622c.138.053.275.112.413.166a17.187 17.187 0 0 1 .2.917c-.4-.137-.806-.252-1.217-.344a25.242 25.242 0 0 0-.153-1.022c.253.092.506.186.757.283zm-2.609-.921l.014.004c.382.123.764.25 1.142.383.058.38.112.76.157 1.139-.355-.06-.71-.1-1.068-.126a35.317 35.317 0 0 0-.245-1.4zm.335 2.007c.352.037.7.09 1.048.157.062.595.111 1.188.147 1.782a8.128 8.128 0 0 0-.981-.098 42.558 42.558 0 0 0-.214-1.84zm.267 2.453c.323.024.645.069.966.132.045.928.066 1.86.067 2.791-.295-.17-.592-.332-.892-.474a57.602 57.602 0 0 0-.141-2.45zm.171 8.22c.01-.671.017-1.342.022-2.015.257.114.512.243.762.38-.022.611-.05 1.224-.079 1.836a22.48 22.48 0 0 0-.705-.2zm.677.826c-.033.69-.066 1.381-.093 2.072a7.117 7.117 0 0 0-.628-.096c.01-.729.022-1.457.035-2.188.229.066.458.137.686.212zm-.655-3.503c0-.823-.008-1.646-.031-2.469.205.112.406.233.604.353l.263.16a93.201 93.201 0 0 1-.048 2.292 9.205 9.205 0 0 0-.788-.336zm-.074 6.082c.205.02.409.05.614.09-.026.758-.045 1.519-.053 2.28-.19-.004-.38-.005-.57-.005-.005-.788 0-1.576.01-2.365zm-.003 2.993c.187.001.374.006.562.013a42.496 42.496 0 0 0 .063 2.588c-.182.004-.364.012-.547.025a74.505 74.505 0 0 1-.078-2.626zm.16 3.955c-.017-.22-.03-.44-.044-.66.184-.007.368-.01.553-.009.056.821.13 1.641.209 2.46-.186.026-.372.054-.558.084-.058-.641-.116-1.27-.16-1.875zm.376 4.524a68.771 68.771 0 0 0-.16-2.045c.186-.03.373-.057.562-.081.067.694.135 1.387.196 2.082-.201.012-.4.026-.598.044zm.516 2.96c-.157.038-.314.074-.473.11.038-.81.027-1.635-.01-2.455.205-.016.411-.027.617-.035.003.045.008.09.01.134.057.734.093 1.46.104 2.183-.083.02-.164.043-.248.062zm1.704-.526a9.617 9.617 0 0 1-.752.265 40.481 40.481 0 0 0-.129-2.14c.308-.006.616-.01.924-.017l-.043 1.892zm.057-2.535a27.88 27.88 0 0 1-.518.016c-.16.003-.318.008-.476.013-.066-.713-.143-1.423-.217-2.127a17.676 17.676 0 0 1 1.26-.083c-.018.727-.033 1.454-.05 2.181zm.063-2.814c-.368.022-.734.046-1.1.08-.08.007-.16.017-.238.025a71.7 71.7 0 0 1-.216-2.368c.536.019 1.073.054 1.606.075l-.052 2.188zm.07-2.933c-.491-.002-.992-.015-1.509-.027l-.154-.003a49.565 49.565 0 0 1-.069-2.558c.28.017.56.037.837.064.32.03.638.078.952.13l-.057 2.394zm.074-3.089c-.34-.035-.674-.064-.997-.092a22.608 22.608 0 0 0-.807-.051c.006-.72.022-1.44.045-2.16.602.155 1.203.364 1.802.589l-.043 1.714zm.088-3.548l-.03 1.219a30.236 30.236 0 0 0-1.64-.523l-.155-.042c.025-.668.055-1.336.087-2.006.386.134.765.265 1.129.377.209.063.418.13.628.2l-.019.775zm.036-1.468c-.468-.14-.934-.284-1.402-.423a40.776 40.776 0 0 1-.343-.104c.027-.555.054-1.11.079-1.665.47.283.931.578 1.387.846l.303.173-.024 1.173zm.036-1.946c-.44-.257-.871-.528-1.31-.783-.12-.068-.241-.137-.362-.202.03-.745.055-1.488.069-2.233a18.447 18.447 0 0 0 1.602.839c.012.792.01 1.585.001 2.38zm-.018-3.097a19.92 19.92 0 0 1-1.131-.547 20.915 20.915 0 0 1-.445-.244 58.79 58.79 0 0 0 0-1.585c-.008-.475-.022-.95-.042-1.427.489.137.966.313 1.428.522.017.173.031.349.047.523.075.918.117 1.838.143 2.758z"/>
            <g>
                <path fill="#BFBFBF" d="M30.946 79.538l-3.669-.987h-.001l-.705-.19-1.045-.282-.703-.189-1.404-.377a7.402 7.402 0 0 1-.085-.772c-.03-.46-.049-1.056-.058-1.735l-.008-.762c-.005-.817 0-1.716.011-2.625v-.002a347.484 347.484 0 0 1 .091-4.723c.033-1.277.061-2.138.061-2.138-.084-.222-.17-.461-.254-.715-.206-.61-.408-1.309-.608-2.066a70.065 70.065 0 0 1-.237-.932l-.011-.046-.053.158v.001l-.022.066-.512 1.548-.501 1.515-.352 1.062-.05.153-.07-.012-.37-.066-.195-.035-.627-.111-.66-.118-.07-.013-.498-.09-1.053-.187-.665-.118-.09-.016-.447-.08-1.263-.225-.521-.094-.043-.008-1.168-.209c.207-1.23.496-2.507.835-3.789a68.5 68.5 0 0 1 1.09-3.639v-.001A86.131 86.131 0 0 1 16.5 52.55a108.542 108.542 0 0 1 2.124-5.106c.443-.995.723-1.576.723-1.576.347-.333.813-.658 1.349-.966.208-.121.43-.24.658-.357a22.632 22.632 0 0 1 1.809-.817 44.251 44.251 0 0 1 2.067-.766c.216-.073.424-.14.615-.202.784-.255 1.329-.41 1.4-.433a12.514 12.514 0 0 0-.525 2.251 15.945 15.945 0 0 0-.141 1.654 22.357 22.357 0 0 0 .163 3.344c.027.234.057.47.088.705.187 1.378.448 2.755.696 4.125.049.263.096.525.141.786.029.158.055.316.082.474.327 1.794.818 3.53 1.29 5.26.069.253.138.505.205.757.357 1.331.688 2.66.908 4.009a19.439 19.439 0 0 1 .267 2.572c.032.781.061 1.562.093 2.344l.03.736a793.112 793.112 0 0 0 .15 3.424c.074 1.59.157 3.179.254 4.769z"/>
                <path fill="#6A6A6A" d="M27.257 76.16c.006-.153.017-.306.025-.46 1.123-.325 2.277-.602 3.41-.932-.013-.242-.024-.483-.035-.725-.51.154-1.016.32-1.52.465-.605.176-1.213.346-1.818.526.061-.91.146-1.818.232-2.727.977-.42 1.973-.706 2.99-.962-.01-.246-.019-.492-.03-.737-.977.183-1.947.494-2.886.9.12-1.279.229-2.558.263-3.843.781-.446 1.58-.862 2.362-1.316-.03-.22-.062-.439-.098-.657-.754.338-1.514.72-2.258 1.147a29.715 29.715 0 0 0-.301-3.852c.533-.46 1.084-.891 1.65-1.304-.067-.252-.136-.504-.205-.758-.542.378-1.066.79-1.57 1.228-.305-1.913-.73-3.807-1.131-5.708.425-.436.867-.855 1.33-1.252a78.634 78.634 0 0 0-.142-.786c-.473.383-.925.794-1.358 1.225-.283-1.374-.544-2.753-.728-4.145.435-.428.897-.832 1.39-1.206-.03-.234-.06-.47-.087-.704-.494.355-.957.74-1.395 1.147a25.834 25.834 0 0 1-.158-3.224c.454-.431.919-.85 1.39-1.267.009-.29.026-.58.051-.87-.482.36-.95.75-1.403 1.16.04-.633.11-1.264.211-1.89.426-.049.854-.058 1.282-.054l.048-.316.049-.277a.718.718 0 0 1 .01-.056 9.325 9.325 0 0 0-1.272.053c.082-.41.177-.817.29-1.222-.192.062-.4.13-.616.203-.108.368-.2.739-.28 1.111a6.59 6.59 0 0 0-1.39.426c.054-.334.117-.668.188-1.002-.194.074-.388.15-.585.23-.08.358-.147.718-.207 1.077a5.567 5.567 0 0 0-.798.564 8.628 8.628 0 0 0-1.155 1.206c.064-.679.175-1.356.35-2.03-.227.116-.448.235-.657.356a12.228 12.228 0 0 0-.396 2.659c-.568.882-1.047 1.835-1.497 2.765a19.685 19.685 0 0 1-.179-2.882c-.172.383-.369.83-.582 1.327.028.873.122 1.743.259 2.608a53.422 53.422 0 0 0-1.302 3.017c-.08-.237-.158-.475-.23-.715a10.79 10.79 0 0 1-.268-1.13c-.14.361-.281.733-.42 1.112.166.555.363 1.102.573 1.632a50.18 50.18 0 0 0-.696 1.985 22.9 22.9 0 0 1-.65-1.453c-.098.284-.195.573-.291.861v.002c.206.487.434.967.671 1.442-.282.92-.536 1.848-.759 2.781a9.692 9.692 0 0 1-.76-1.463c-.084.294-.164.587-.242.879.234.49.514.962.81 1.427a40.985 40.985 0 0 0-.477 2.57l.042.008.522.095c.125-.645.26-1.286.4-1.924.143.215.286.431.426.648.18.28.357.568.521.863-.03.212-.059.424-.084.637l.446.08.755.134a6.21 6.21 0 0 0-.245-.585 9.704 9.704 0 0 0-.276-.527c.137-.861.312-1.714.525-2.557.49.964.94 1.954 1.274 2.985-.076.291-.151.582-.224.872l.498.09.07.012.66.118a13.409 13.409 0 0 0-.36-1.253c.156-.575.319-1.15.49-1.726.348 1.016.603 2.055.691 3.126l.44.078.05-.153.352-1.062.501-1.515.512-1.549c-.2.423-.386.853-.558 1.289a41.818 41.818 0 0 0-.828-3.62c.25-.637.518-1.265.806-1.878.096.493.185.984.26 1.471.136.889.251 1.778.342 2.671l.054-.158.011.046.06.244.047.184.046.18.06.23.024.094c.2.757.403 1.456.608 2.067a54.009 54.009 0 0 0-.223-2.865c.213-.422.44-.836.683-1.241.103-.172.211-.34.32-.507.313 1.843.602 3.68.826 5.523a24.319 24.319 0 0 0-1.413 1.943c-.01.347-.019.725-.027 1.125.47-.76.986-1.493 1.541-2.193.107.97.192 1.941.252 2.917a13.43 13.43 0 0 0-1.844 1.87c-.005.334-.01.67-.013 1.004a11.708 11.708 0 0 1 1.9-2.077c.05 1.08.066 2.166.04 3.26-.69.442-1.344.928-1.95 1.443 0 .263.004.519.007.763.609-.516 1.25-.991 1.917-1.423a48.796 48.796 0 0 1-.151 2.233c-.6.255-1.18.557-1.708.924.019.29.043.527.07.696a8.194 8.194 0 0 1 1.57-.918c-.045.458-.096.915-.151 1.372l.703.188c.082-.62.148-1.245.201-1.871.297-.112.596-.215.897-.31-.043.804-.07 1.63-.053 2.464l.705.19a24.22 24.22 0 0 1-.019-2.39zm-1.603-19.997c-.482.52-.935 1.067-1.359 1.639a96.674 96.674 0 0 1-.669-4.181c.393-.55.814-1.076 1.268-1.572.2 1.382.472 2.758.76 4.114zm-.865-4.893a16.61 16.61 0 0 0-1.272 1.475c-.04-.352-.08-.705-.112-1.059a35.34 35.34 0 0 1-.139-2.166l.005-.006c.415-.493.849-.957 1.295-1.406.01 1.052.093 2.108.223 3.162zM22.99 53.47a20.933 20.933 0 0 0-1.04 1.671 84.084 84.084 0 0 1-.609-3.054c.426-.637.877-1.257 1.351-1.858.054 1.081.16 2.163.298 3.241zm1.832-8.737a18.116 18.116 0 0 0-.243 2.4c-.46.45-.903.926-1.33 1.417 0-1.105.062-2.208.203-3.304.426-.23.881-.407 1.37-.513zm-2.873 1.687c.275-.293.571-.555.887-.785a25.25 25.25 0 0 0-.178 3.62c-.514.634-1 1.293-1.457 1.964-.176-1.18-.283-2.36-.261-3.536.309-.447.643-.871 1.009-1.263zm-1.657 2.287c.034 1.11.176 2.223.368 3.335a33.625 33.625 0 0 0-1.14 1.931 36.694 36.694 0 0 1-.563-2.636c.408-.882.84-1.779 1.335-2.63zm-1.814 3.68c.163.832.358 1.66.571 2.484a29.882 29.882 0 0 0-.98 2.157 34.681 34.681 0 0 1-.756-1.775c.354-.963.741-1.919 1.165-2.867zm.795 3.33c.152.564.31 1.126.466 1.685.148.532.296 1.064.438 1.597-.189.501-.367 1.007-.537 1.516-.309-.76-.65-1.509-.996-2.246l-.248-.529c.267-.685.559-1.36.877-2.024zm-2.274.417a54.44 54.44 0 0 0 .76 1.682 29.812 29.812 0 0 0-.6 1.772c-.267-.498-.534-.995-.793-1.496.197-.656.409-1.309.633-1.958zm-1.584 5.532c.213-.908.444-1.81.697-2.705.263.501.531.999.795 1.498-.23.848-.423 1.706-.577 2.573-.295-.46-.61-.911-.915-1.366zm3.447 1.416a23.595 23.595 0 0 0-.705-1.575c-.2-.408-.41-.811-.622-1.213.17-.59.358-1.176.564-1.755.44.935.883 1.88 1.263 2.842a56.68 56.68 0 0 0-.5 1.701zm2.264.32a26 26 0 0 1 .064.508c-.122.39-.233.784-.332 1.18-.113-1.265-.442-2.497-.88-3.698.147-.46.3-.92.462-1.375.28 1.118.524 2.243.686 3.386zm-.528-5.462c-.29-1.043-.59-2.088-.866-3.139.04-.077.079-.154.12-.23a29.2 29.2 0 0 1 .965-1.669c.203 1.052.437 2.1.653 3.14a28.374 28.374 0 0 0-.872 1.898zm2.231 2.146c-.037-.306-.076-.61-.119-.915a48.2 48.2 0 0 0-.567-3.119c.3-.575.624-1.133.97-1.673.146 1.011.315 2.019.49 3.02.066.37.13.74.194 1.109-.345.51-.669 1.037-.968 1.578zm1.625-1.394c.429-.6.888-1.167 1.375-1.706.065.299.13.596.193.893.342 1.577.673 3.163.907 4.76a21.884 21.884 0 0 0-1.549 1.602c-.256-1.858-.593-3.703-.926-5.55zm1.22 8.117a47.724 47.724 0 0 0-.182-1.717 18.946 18.946 0 0 1 1.552-1.613 27.61 27.61 0 0 1 .221 3.273c0 .155 0 .31-.003.464a19.06 19.06 0 0 0-1.481 1.016c-.03-.477-.066-.951-.107-1.423zm.151 2.203l.058-.046c.438-.335.894-.635 1.358-.918-.047 1.26-.16 2.514-.28 3.77-.359.175-.712.364-1.059.565a57.237 57.237 0 0 0-.077-3.371zm-.045 6.518c.057-.79.093-1.583.111-2.375.325-.19.656-.368.993-.536a90.315 90.315 0 0 0-.221 2.616c-.288.091-.575.186-.86.287l-.023.008z"/>
            </g>
            <g>
                <path fill="#532D13" d="M43.443 23.53s-4.117 12.788-1.22 17.54c2.896 4.752 4.618 4.04 4.618 4.04l-.548-3.01 2.036.713c-.199-.431-.234-.916-.187-1.39a5.673 5.673 0 0 0 3.402.934c.372-.798 1.297-1.193 2.168-1.235.87-.041 1.728.196 2.59.32.243.034.499.058.723-.04.212-.09.368-.277.511-.46 1.129-1.436 2.053-3.072 2.443-4.864.389-1.793.204-3.753-.742-5.319-.577-.954-1.405-1.724-2.25-2.445a39.502 39.502 0 0 0-5.313-3.812c-1.108-.663-2.27-1.28-3.535-1.529-1.264-.248-3.662-.22-4.696.558z"/>
                <path fill="#FFBE91" d="M58.381 43.676c-.278 3.471-2.649 13.558-7.69 10.106a6.477 6.477 0 0 1-.462-.348 9.556 9.556 0 0 1-1.025-.995c-1.27-1.413.862-7.963.862-7.963l1.137-.554c.715-1.267-.32-3.657-.32-3.657l5.363-2.245c-.114 2.81 2.135 5.656 2.135 5.656z"/>
                <path fill="#E49866" d="M56.674 40.53c-.276-.786-.464-1.65-.429-2.51l-5.361 2.244s.33.76.488 1.651a6.811 6.811 0 0 0 5.302-1.386z"/>
                <g transform="translate(42.092 16)">
                    <path fill="#FFBE91" d="M18.934 15.181c-.084-.262-.197-.524-.391-.717-.373-.37-.977-.407-1.469-.23a2.556 2.556 0 0 0-.518.263c.162-1.874.322-3.748.477-5.623l-7.13-2.356L2.84 9.415C2.5 10.417 1.355 20.735 6.08 24.35c2.158 1.65 7.496-.268 8.881-1.997.416-.52.714-1.132.934-1.76.145-.411.12-1.185.347-1.531.288-.439.997-.442 1.44-.683.546-.295 1.034-.73 1.265-1.325.23-.592.178-1.266-.014-1.872z"/>
                    <path fill="#3F364B" d="M10.953.044c5.937-.37 11.053 4.206 11.56 10.202L23 16.012c.27 3.195.532 6.484-.398 9.55-.93 3.067-3.23 5.872-6.376 6.27.406-.409.346-1.468.467-2.035-2.4 1.267-6.185 0-6.185 0 4.306-2.825 5.557-10.93 5.557-10.93.838-.113 1.543-.545 2.046-.959.726-.598.99-1.626.574-2.476-.625-1.278-2.13-.934-2.13-.934l.21-2.45-3.363-.458.031-2.954-1.755 2.525L.049 9.22S.706 1.502 10.561.072c.13-.019.262-.02.391-.028z"/>
                    <path fill="#E49866" d="M18.042 16.073a.456.456 0 0 0-.027-.096.634.634 0 0 0-.25-.29.835.835 0 0 0-.588-.115 1.02 1.02 0 0 0-.628.403 1.33 1.33 0 0 0-.251.659c-.022.209 0 .39.028.536a2.708 2.708 0 0 0 .135.459l.039-.123.092-.327c.055-.195.124-.426.233-.638.03.03.067.08.1.136.07.113.115.252.175.386.058.137.13.263.166.391.018.063.03.124.032.167l.006.073s.024-.008.067-.032a.48.48 0 0 0 .153-.14.648.648 0 0 0 .117-.294.746.746 0 0 0-.053-.383.738.738 0 0 0-.245-.297.63.63 0 0 0-.294-.11.507.507 0 0 0-.173.011c.03-.05.062-.1.098-.147a.987.987 0 0 1 .324-.291.71.71 0 0 1 .37-.071.62.62 0 0 1 .38.167l-.006-.034z"/>
                    <g fill="#3F364B">
                        <path d="M5.904 11.84l-.1-.08a2.498 2.498 0 0 0-.26-.18 3.46 3.46 0 0 0-.767-.326 3.455 3.455 0 0 0-.816-.164 2.44 2.44 0 0 0-.314 0l-.127.01s.017-.044.061-.117c.045-.073.121-.173.242-.272a1.297 1.297 0 0 1 1.189-.23 1.31 1.31 0 0 1 .857.864 1.118 1.118 0 0 1 .035.495zM15.189 12.905l-.165-.1a3.872 3.872 0 0 0-1.868-.522 3.876 3.876 0 0 0-1.884.456l-.168.094s.021-.066.078-.181c.056-.116.154-.277.312-.451a2.235 2.235 0 0 1 1.677-.727 2.236 2.236 0 0 1 1.65.786c.152.18.244.344.296.46.052.118.072.185.072.185z"/>
                    </g>
                    <ellipse cx="12.821" cy="15.146" fill="#FFF" rx="1.075" ry="2.104"/>
                    <ellipse cx="4.72" cy="14.293" fill="#FFF" rx="1.075" ry="2.104"/>
                    <path fill="#E49866" d="M5.697 16.71l-.09-.046a1.694 1.694 0 0 0-.239-.092 1.91 1.91 0 0 0-.7-.074c-.25.018-.498.088-.683.18-.092.045-.169.091-.22.128l-.084.058s0-.037.013-.104a.905.905 0 0 1 .104-.275 1.056 1.056 0 0 1 .829-.526 1.054 1.054 0 0 1 .898.394.9.9 0 0 1 .144.256c.022.064.028.101.028.101zM14.153 17.558l-.095-.023a1.927 1.927 0 0 0-.238-.047 4.04 4.04 0 0 0-.695-.022c-.257.01-.499.03-.692.073a1.93 1.93 0 0 0-.234.063l-.092.03s.01-.033.036-.092a.884.884 0 0 1 .15-.23c.075-.09.185-.18.324-.254.14-.07.308-.122.49-.13a1.21 1.21 0 0 1 .496.094c.144.064.26.146.342.23.083.083.136.16.165.218.03.057.043.09.043.09zM7.973 17.539s-.004.042-.044.112a.547.547 0 0 1-.269.224.74.74 0 0 1-.247.054.87.87 0 0 1-.29-.038 1.218 1.218 0 0 1-.28-.125 1.848 1.848 0 0 1-.19-.136c-.072-.057-.143-.117-.214-.177a73.106 73.106 0 0 0-.116-.1c.134-.131.276-.258.391-.377l.166-.16c.104-.102.197-.2.276-.285.158-.172.259-.292.259-.292s.003.039.002.11a1.773 1.773 0 0 1-.32.95c.003.009.009.011.012.011h.002s-.002 0-.003.002c.003.004-.017-.006.026.029.06.05.114.095.168.132a.88.88 0 0 0 .156.09.677.677 0 0 0 .158.045.52.52 0 0 0 .259-.02c.063-.024.098-.05.098-.05z"/>
                    <path fill="#453535" d="M4.879 15.025l.626-.131c.075-.267.047-.253.047-.601 0-.913-.303-1.654-.676-1.654-.373 0-.676.74-.676 1.654 0 .914.303 1.654.676 1.654.146 0 .281-.115.392-.308l-.39-.614zM12.978 15.927l.627-.179c.075-.266.046-.254.046-.602 0-.913-.302-1.654-.675-1.654-.374 0-.676.74-.676 1.654 0 .914.302 1.654.676 1.654.146 0 .28-.115.391-.307l-.389-.566z"/>
                    <path fill="#E48466" d="M10.366 19.673c-1.061.783-2.298.83-3.167-.292-.13-.168-.434.021-.317.207.822 1.3 2.772 1.677 3.798.375.16-.203-.127-.428-.314-.29z"/>
                </g>
                <path fill="#FFF" d="M59.336 70.828c.099 1.817.348 3.24.833 3.844l-9.286 4.22-7.524-2.866-.175-.066c.404-3.11.784-6.563.936-9.923.024-.487.04-.972.054-1.454a52.312 52.312 0 0 0-.037-3.853l-.131-.126-.002-.001-.078-.076c-1.304-1.272-2.287-2.565-2.287-4.956 0-1.863.448-3.669 1.282-5.327.532-1.058 1.109-2.118 1.45-3.26.014-.045.879-1.824.633-1.953-.086-.045.172-.178.338-.249.122-.052.264-.106.425-.153.907-.267 4.3-.153 4.3-.153s-.686 2.346-.768 2.891a17.663 17.663 0 0 0-.187 2.65c.003.716.056 1.458.378 2.096.594 1.169 2.036 1.74 3.318 1.527 1.282-.214 2.386-1.092 3.136-2.165.75-1.074 1.188-2.335 1.56-3.595.253-.861.47-1.739.777-2.583.435-1.2.636-1.17 1.859-.817.357.103.709.228 1.052.376l-.01.111c1.647.856 4.708 2.815 5.087 5.73.523 4.014.523 6.97.523 6.97h-6.833c-.212 2.073-.491 5.182-.615 8.198-.07 1.761-.089 3.491-.008 4.963z"/>
                <path fill="#DBDBDB" d="M62.563 54.486a5.433 5.433 0 0 0-1.58 1.442 5.285 5.285 0 0 0-.399.646 32.126 32.126 0 0 0-.019-2.942l-.032-.506-.093.498-.231 1.356a149.877 149.877 0 0 0-.67 4.46 150.214 150.214 0 0 0-.658 5.849l-.042.505.164-.479a32.538 32.538 0 0 0 1.328-5.767c.1-.74.166-1.454.209-2.12.239-.32.546-.73.873-1.18.362-.497.682-.957.922-1.295l.284-.405.103-.152-.16.09z"/>
            </g>
            <path fill="#532D13" d="M52.809 16.021c5.884-.372 10.954 4.231 11.457 10.263l.484 5.8c.268 3.216.527 6.524-.394 9.61-.922 3.084-3.203 5.906-6.32 6.306.403-.411.343-1.477.462-2.048-2.379 1.275-6.13 0-6.13 0 4.268-2.841 5.508-10.995 5.508-10.995.831-.113 1.53-.548 2.028-.964.72-.603.981-1.636.57-2.491-.62-1.286-2.112-.94-2.112-.94l.208-2.464-3.333-.46.03-2.973-1.739 2.54L42 25.254s.653-7.766 10.42-9.204c.13-.02.26-.021.389-.029z"/>
            <path fill="#532D13" d="M64.957 26.85a11.586 11.586 0 0 0-1.805-5.309 3.86 3.86 0 0 1-.226.126c-1.924 1.137-4.168-.65-4.81-2.6 0 .812-.48 1.3-1.121 1.625-1.283.487-1.924-.975-1.603-2.112-.481.812-1.603 1.625-2.565.974-.48-.324-.16-.974.16-1.462-.64.488-1.282.488-1.923.163-.536-.181-.872-.665-.982-1.255-2.987.916-4.883 2.478-6.082 4.034.081.23.193.445.331.633 1.764 1.787 4.97 1.462 6.412-.488-.16.813.16 1.625.962 1.95 1.282.163 2.725 0 3.366-1.137.481.812.802 1.625 1.763 1.787.642 0 1.603.163 1.924-.65 0 1.787.641 3.412 2.405 4.387 1.252.74 2.708.585 3.837-.151-.015-.172-.03-.343-.043-.514z"/>
            <g>
                <path fill="#FFBE91" d="M63.729 69.251c-.123.793-.808 1.428-1.702 1.56-1.073.156-2.306.132-3.62-.018-6.01-.68-13.678-3.98-15.117-4.618a18.65 18.65 0 0 1-.238-.106l.29-1.296.312-1.392c3.387.247 12.398 2.127 14.76 2.628l.574.122c.743-3.312.885-6.938.911-8.027h4.995c.396 3.415-.814 8.872-1.165 11.147z"/>
                <path fill="#E49866" d="M64.894 58.104h-4.995c-.007.295-.022.775-.056 1.383 1.701-.409 3.516-.201 5.126.477.012-.66-.009-1.29-.075-1.86zM62.603 68.796a.696.696 0 0 0 .022.298.893.893 0 0 1-.382.61.926.926 0 0 1-.717.135.723.723 0 0 1-.276-.126l.072-.036a2.08 2.08 0 0 0 .172-.096c.137-.081.286-.196.448-.305.16-.11.322-.206.448-.303a2.07 2.07 0 0 0 .152-.124l.06-.053z"/>
                <g>
                    <path fill="#FFBE91" d="M43.386 65.996c-1.34.493-3.705-.007-4.61-.228-.346-.084-.698-.188-.969-.414-.036-.03-.072-.066-.081-.111-.025-.123.141-.188.268-.2.223-.019.453-.014.67-.038-.031-.043-1.506-.77-1.38-.892.19-.184.498-.161.76-.124l1.046.15c-.636-.131-1.179-.448-1.526-.964.106-.15.34-.122.516-.075l1.447.383c-.474-.175-.978-.47-1.322-.821-.11-.111-.198-.313-.058-.4.07-.043.16-.023.239-.002 1.025.273 2.038.582 3.036.929-.282-.267-.567-.595-.85-.861a.503.503 0 0 1-.152-.204c-.025-.081.005-.187.088-.224.07-.03.149-.005.218.022.62.235 1.227.5 1.817.792.456.225.908.472 1.258.826.349.355.587.835.539 1.332-.057.581-.426.93-.954 1.124z"/>
                    <path fill="#E49866" d="M39.518 65.08s-.387-.093-1.017-.214l-.247-.047c-.09-.015-.19-.033-.315-.013a.419.419 0 0 0-.193.085.366.366 0 0 0-.127.199.484.484 0 0 0 .107.42.859.859 0 0 0 .33.227c.112.047.217.081.33.122a7.1 7.1 0 0 0 .7.197c.972.223 1.876.233 2.519.206a10.994 10.994 0 0 0 1.038-.097l-.278-.024c-.179-.017-.437-.039-.754-.074a21.319 21.319 0 0 1-2.435-.391 12.241 12.241 0 0 1-.675-.173c-.105-.033-.217-.063-.31-.095a.568.568 0 0 1-.213-.114.191.191 0 0 1-.06-.143c.004-.035.02-.064.082-.085.124-.037.322-.007.478-.007.642.025 1.04.02 1.04.02z"/>
                    <path fill="#E49866" d="M39.695 64.293s-.215-.093-.567-.213a11.689 11.689 0 0 0-.994-.289l-.198-.045c-.065-.014-.134-.032-.224-.042a.582.582 0 0 0-.309.043.383.383 0 0 0-.22.305c-.012.13.036.22.079.293a.8.8 0 0 0 .244.24l.08.048a2.293 2.293 0 0 0 .449.202 2.3 2.3 0 0 0 .604.114l-.145-.072a3.852 3.852 0 0 1-.73-.488l-.063-.055a.614.614 0 0 1-.125-.164c-.018-.036-.021-.071-.016-.073.002-.001 0 0-.003-.002.006.003.006.004.007.003.002-.002.002 0 .006-.002a.27.27 0 0 1 .101-.003c.05.004.118.019.187.03l.2.034a11.313 11.313 0 0 0 1.03.114c.373.025.607.022.607.022z"/>
                    <path fill="#E49866" d="M39.894 63.65s-.041-.037-.12-.1a3.106 3.106 0 0 0-.356-.236 3.26 3.26 0 0 0-1.36-.414l-.129-.008-.18.017c-.028.004-.063.001-.084.012a.31.31 0 0 0-.153.164.29.29 0 0 0-.018.144c.005.045.041.093.06.138.023.045.068.087.099.129.02.025.028.031.04.043l.033.034c.179.175.37.295.539.373a1.783 1.783 0 0 0 .569.158s-.05-.027-.133-.08a2.659 2.659 0 0 1-.721-.666l-.024-.033c-.007-.01-.019-.025-.016-.024-.001-.005-.003-.01-.002-.013 0-.005.003-.008.008-.009.005 0 .009.002.01.003l.002.002h.001l.022.002.048.003a7.924 7.924 0 0 1 1.717.316l.148.045z"/>
                    <path fill="#E49866" d="M42.066 63.315s-1.073-.548-2.495-.93a14.191 14.191 0 0 0-1.01-.231c-.077-.014-.156-.033-.252-.038a.442.442 0 0 0-.308.086.324.324 0 0 0-.098.14.334.334 0 0 0-.014.15c.013.091.052.16.095.218a.546.546 0 0 0 .152.134c.055.032.104.05.15.067.093.033.17.056.23.082a.629.629 0 0 1 .175.106s-.008-.017-.03-.046a.583.583 0 0 0-.112-.112c-.054-.044-.127-.088-.205-.14a.473.473 0 0 1-.192-.195.27.27 0 0 1-.028-.13c.005-.039.02-.051.041-.062.036-.023.156.005.312.06a24.289 24.289 0 0 0 3.589.84z"/>
                    <path fill="#E49866" d="M44.014 63.719l-.153-.155a6.85 6.85 0 0 0-2.77-1.65 53.026 53.026 0 0 0-.327-.098c-.18-.054-.334-.024-.417.091a.276.276 0 0 0-.035.234c.018.077.08.163.115.219a2.168 2.168 0 0 0 .568.547 1.992 1.992 0 0 0 .371.197l-.082-.07a2.601 2.601 0 0 1-.495-.569 2.416 2.416 0 0 1-.136-.238c-.014-.031-.013-.037-.016-.053 0-.013.003-.026.015-.033.021-.01.045.006.056.014.002.002 0 .002.007.005l.034.013.07.028.144.057c.195.076.398.16.608.248.689.288 1.297.587 1.734.823.22.117.396.216.519.284l.19.106z"/>
                </g>
            </g>
            <g>
                <path fill="#FFBE91" d="M24.973 83.724l-1.743 1.4s-8.116-8.393-8.852-12.912c-.384-2.355-.226-4.797.016-6.596a31.802 31.802 0 0 1 .15-.994l.001-.007.034-.2.031-.173.038-.203 5.932 1.065-.094.458c-.06.284-.122.565-.185.84l-.084.37a5.212 5.212 0 0 1-.04.165c-.494 2.124-.976 3.769-.976 3.769 2.927 2.044 5.772 13.018 5.772 13.018z"/>
                <path fill="#E49866" d="M14.648 64.04l5.932 1.065-.094.458c-.06.284-.122.565-.185.839-.027.124-.056.249-.084.37l-.038.166h-.002c-1.9-.586-3.861-.946-5.783-1.322a31.802 31.802 0 0 1 .15-.994l.001-.007.034-.2.031-.173.038-.203zM15.932 72.426s-.03.018-.09.04a.797.797 0 0 1-.266.044.926.926 0 0 1-.402-.093.977.977 0 0 1-.553-.858.98.98 0 0 1 .076-.414.83.83 0 0 1 .146-.232c.043-.047.07-.069.07-.069l.01.097c.005.06.019.143.042.235.045.188.141.402.263.59.12.189.276.364.426.48a1.63 1.63 0 0 0 .278.18z"/>
            </g>
        </g>
    </g>
</svg>
