<svg xmlns="http://www.w3.org/2000/svg" width="24" height="24" viewBox="0 0 24 24">
    <g fill="none" fill-rule="evenodd">
        <path d="M0 0h24v24H0z"/>
        <path fill="#FFF" fill-rule="nonzero" d="M13.592 20.53a1.926 1.926 0 0 1-2.816 0c-2.368-2.49-6.858-7.224-6.858-7.265-2.04-2.081-2.04-5.55 0-7.673C4.898 4.572 6.204 4 7.592 4s2.694.53 3.673 1.592l.408.49c.245.326.776.326 1.062 0l.326-.409.041-.04C14.122 4.57 15.429 4 16.776 4c1.387 0 2.693.53 3.673 1.592 2.04 2.081 2.04 5.55 0 7.673 0 .041-4.449 4.776-6.857 7.266z"/>
    </g>
</svg>
