<svg xmlns="http://www.w3.org/2000/svg" width="99" height="31" viewBox="0 0 99 31">
    <path fill="#FFF" fill-rule="evenodd" d="M15.001 23.91c0 4.2-1.764 6.51-7.602 6.51-2.226 0-5.418-.546-7.434-1.218l.966-4.494c1.68.504 3.906.924 6.174.924 1.806 0 2.1-.504 2.1-1.722 0-1.302-.042-1.47-3.318-2.268C.931 20.424.469 19.08.469 15.258c0-4.326 1.68-6.132 7.812-6.132 1.554 0 4.41.21 6.216.672l-.546 4.704c-1.806-.336-4.032-.588-5.628-.588-1.764 0-2.184.462-2.184 1.386 0 1.26.168 1.428 2.604 1.974 5.838 1.302 6.258 2.562 6.258 6.636zM25.249 30h-6.048v-6.972h6.048V30zm20.664 0l-3.99-13.356L37.975 30h-6.552L27.895 9.546h5.544l1.932 11.97 3.57-11.97h6.048l3.528 11.97 1.932-11.97h5.544L52.465 30h-6.552zm29.568-8.106H64.477v.588c0 2.352.924 2.982 3.696 2.982 1.89 0 4.41-.336 6.216-.882l.882 4.536c-1.848.672-4.83 1.302-7.686 1.302-6.636 0-9.156-3.276-9.156-8.316v-4.788c0-4.41 1.974-8.19 8.778-8.19s8.274 4.032 8.274 8.484v4.284zm-5.712-4.536v-.882c0-1.428-.42-2.604-2.52-2.604s-2.772 1.176-2.772 2.604v.882h5.292zm28.266 4.452c0 4.872-1.386 8.61-9.828 8.61-2.184 0-5.502-.21-8.316-.672V1.188l6.048-.84v9.912c1.638-.63 3.57-1.134 5.796-1.134 4.536 0 6.3 2.814 6.3 7.392v5.292zm-12.096-6.3v9.576c.882.084 1.638.084 2.478.084 3.024 0 3.57-1.386 3.57-3.318V16.56c0-1.344-.588-2.184-2.184-2.184-1.302 0-2.73.546-3.864 1.134z"/>
</svg>
