<svg xmlns="http://www.w3.org/2000/svg" width="17" height="16" viewBox="0 0 17 16">
    <g fill="none" fill-rule="evenodd">
        <path d="M-1-1.6h19.2v19.2H-1z"/>
        <path fill="#FFF" fill-rule="nonzero" d="M16.567 9.775v5.903h-3.422v-5.507c0-1.384-.495-2.328-1.734-2.328-.945 0-1.508.636-1.756 1.252-.09.22-.113.526-.113.834v5.75H6.118s.046-9.33 0-10.296h3.423v1.46c-.007.01-.016.022-.022.033h.022v-.033c.455-.7 1.267-1.701 3.085-1.701 2.253 0 3.941 1.47 3.941 4.633zM2.537.421C1.366.42.6 1.189.6 2.199c0 .988.744 1.78 1.892 1.78h.023c1.193 0 1.936-.792 1.936-1.78C4.428 1.19 3.708.421 2.537.421zM.803 15.678h3.422V5.383H.803v10.295z"/>
    </g>
</svg>
