<svg xmlns="http://www.w3.org/2000/svg" width="24" height="24" viewBox="0 0 24 24">
    <g fill="none" fill-rule="evenodd">
        <path d="M0 0h24v24H0z"/>
        <path fill="#2196F3" fill-rule="nonzero" d="M14.286 3H9.143v1.714h5.143V3zm-3.429 11.143h1.714V9h-1.714v5.143zm6.883-5.666l1.217-1.217a9.47 9.47 0 0 0-1.208-1.209L16.53 7.27a7.681 7.681 0 0 0-4.817-1.698A7.715 7.715 0 0 0 4 13.286 7.71 7.71 0 0 0 11.714 21 7.71 7.71 0 0 0 17.74 8.477zm-6.026 10.809c-3.317 0-6-2.683-6-6s2.683-6 6-6 6 2.683 6 6-2.683 6-6 6z"/>
    </g>
</svg>
