<svg xmlns="http://www.w3.org/2000/svg" width="85" height="32" viewBox="0 0 85 32">
    <g fill="none" fill-rule="evenodd">
        <path fill="#FFF" d="M25.246 0L0 13.568v4.448l25.246 13.568v-4.448L4.089 15.792 25.246 4.45z"/>
        <path fill="#000" fill-opacity=".246" d="M0 18.016h8.24l-4.15-2.224z"/>
        <path fill="#FFF" d="M59.035 0L84.28 13.568v4.448L59.035 31.584v-4.448L80.19 15.792 59.035 4.45z"/>
        <path fill="#000" fill-opacity=".246" d="M84.28 18.016h-8.24l4.151-2.224z"/>
        <g fill="#FFF">
            <path d="M51.581.6c2.247 1.397-.687 13.142-8.587 21.764-.394.434-1.012.42-1.354-.053a6.253 6.253 0 0 0-3.849-2.451c-.525-.093-.827-.632-.683-1.172C40.765 7.378 49.335-.797 51.581.6zM35.998 22.748c1.84-.459 3.626.885 4.165 2.82.249 1-.093 1.644-.409 2.84-.157.04.053.211-.447.447l-.013-.052c-1.288 1.55-4.363 2.877-6.295 2.743-.394-.013-.565-.474-.433-.842.802-2.157.54-3.88 1.027-5.511.118-.421.276-.908.539-.973l.052-.013c.395-.658 1.026-1.262 1.814-1.46z"/>
        </g>
    </g>
</svg>
