<svg xmlns="http://www.w3.org/2000/svg" width="14" height="18" viewBox="0 0 14 18">
    <g fill="none" fill-rule="evenodd">
        <path d="M-3-1h20v20H-3z"/>
        <path fill="#fff" fill-rule="nonzero" d="M13.573 7.65c.062-.391.1-.82.11-1.3-.004-2.062-.99-2.792-1.18-3.134.279-1.562-.047-2.272-.199-2.515-.559-.199-1.945.512-2.702 1.012-1.235-.361-3.845-.326-4.824.094C2.973.514 2.018.71 2.018.71S1.4 1.818 1.854 3.438C1.26 4.195.818 4.73.818 6.15c0 .34.02.662.056.97.512 2.691 2.644 3.852 4.738 4.052-.315.24-.694.692-.746 1.217-.396.256-1.192.34-1.812.146-.867-.274-1.2-1.992-2.499-1.747-.281.052-.225.238.018.396.396.257.769.576 1.056 1.259.221.524.685 1.46 2.153 1.46.583 0 .991-.068.991-.068s.011 1.336.011 1.857c0 .6-.81.769-.81 1.056 0 .115.269.126.484.126.425 0 1.31-.355 1.31-.978 0-.496.009-2.16.009-2.452 0-.637.341-.84.341-.84s.042 3.4-.082 3.857c-.145.536-.409.46-.409.698 0 .356 1.065.087 1.418-.692.273-.609.15-3.943.15-3.943l.285-.007s.003 1.528-.006 2.225c-.01.723-.085 1.636.344 2.068.282.283 1.145.78 1.145.326 0-.263-.605-.481-.605-1.195v-3.29c.368 0 .443 1.082.443 1.082l.133 2.008s-.088.733.792 1.04c.31.108.974.138 1.006-.045.03-.183-.8-.454-.808-1.02-.004-.346.015-.549.015-2.051 0-1.503-.201-2.058-.905-2.5 2.04-.21 4.157-1.12 4.539-3.515z"/>
    </g>
</svg>
