<svg xmlns="http://www.w3.org/2000/svg" width="24" height="24" viewBox="0 0 24 24">
    <g fill="none" fill-rule="evenodd">
        <path fill="#FFF" fill-rule="nonzero" d="M15.15 13.692h-.768l-.272-.263a6.29 6.29 0 0 0 1.526-4.111 6.318 6.318 0 1 0-6.318 6.318 6.29 6.29 0 0 0 4.111-1.526l.263.272v.768l4.86 4.85L20 18.552l-4.85-4.86zm-5.832 0a4.368 4.368 0 0 1-4.374-4.374 4.368 4.368 0 0 1 4.374-4.374 4.368 4.368 0 0 1 4.374 4.374 4.368 4.368 0 0 1-4.374 4.374z"/>
        <path d="M0 0h24v24H0z"/>
    </g>
</svg>
