<svg xmlns="http://www.w3.org/2000/svg" width="24" height="24" viewBox="0 0 24 24">
    <g fill="none" fill-rule="evenodd">
        <path d="M0 0h24v24H0z"/>
        <path fill="#FFF" fill-rule="nonzero" d="M12 3c-4.987 0-9 4.013-9 9 0 4.988 4.013 9 9 9 4.988 0 9-4.012 9-9 0-4.987-4.012-9-9-9zm3.375 5.813c0 .3-.262.562-.563.562H11.25c-.225 0-.375.15-.375.375v.75c0 .225.15.375.375.375h1.5a2.609 2.609 0 0 1 2.625 2.625v.75a2.609 2.609 0 0 1-2.625 2.625h.375v.75c0 .413-.338.75-.75.75a.752.752 0 0 1-.75-.75v-.75H9.187a.577.577 0 0 1-.562-.563v-1.125c0-.3.262-.562.563-.562h3.562c.225 0 .375-.15.375-.375v-.75c0-.225-.15-.375-.375-.375h-1.5A2.609 2.609 0 0 1 8.625 10.5v-.75a2.609 2.609 0 0 1 2.625-2.625h.375v-.75c0-.412.338-.75.75-.75s.75.338.75.75v.75h1.688c.3 0 .562.263.562.563v1.125z"/>
    </g>
</svg>
