<?xml version="1.0" encoding="utf-8"?>
<!-- Generator: Adobe Illustrator 17.0.0, SVG Export Plug-In . SVG Version: 6.00 Build 0)  -->
<!DOCTYPE svg PUBLIC "-//W3C//DTD SVG 1.1//EN" "http://www.w3.org/Graphics/SVG/1.1/DTD/svg11.dtd">
<svg version="1.1" id="Capa_1" xmlns="http://www.w3.org/2000/svg" xmlns:xlink="http://www.w3.org/1999/xlink" x="0px" y="0px"
	 width="100px" height="37px" viewBox="0 0 100 37" enable-background="new 0 0 100 37" xml:space="preserve">
<filter  width="130.8%" height="111.4%" x="-15.4%" y="-2.9%" filterUnits="objectBoundingBox" id="a">
	<feOffset  dy="1" in="SourceAlpha" result="shadowOffsetOuter1"></feOffset>
	<feGaussianBlur  in="shadowOffsetOuter1" result="shadowBlurOuter1" stdDeviation=".5"></feGaussianBlur>
	<feColorMatrix  in="shadowBlurOuter1" values="0 0 0 0 0 0 0 0 0 0 0 0 0 0 0 0 0 0 0.18 0"></feColorMatrix>
</filter>
<path fill="none" d="M-1,0h102v36H-1V0z"/>
<g enable-background="new    ">
	<path fill="#FFFFFF" d="M13.909,19.9c0,3.449-1.5,5.399-4.919,5.399c-1.2,0-2.73-0.18-3.72-0.42v6.03l-4.32,0.6V10.391h3.39
		l0.45,1.17c1.02-0.66,2.91-1.47,4.5-1.47c2.97,0,4.62,1.83,4.62,5.399V19.9z M5.27,21.19c0.75,0.18,1.86,0.359,2.76,0.359
		c1.14,0,1.56-0.689,1.56-1.649v-4.41c0-1.02-0.42-1.649-1.56-1.649c-0.99,0-2.13,0.6-2.76,1.14V21.19z"/>
	<path fill="#FFFFFF" d="M16.31,19.391V16c0-3,1.41-5.909,6.6-5.909c5.189,0,6.6,2.909,6.6,5.909v3.391
		c0,2.999-1.41,5.909-6.6,5.909C17.719,25.3,16.31,22.39,16.31,19.391z M25.189,19.51v-3.629c0-1.381-0.72-2.16-2.28-2.16
		c-1.56,0-2.28,0.779-2.28,2.16v3.629c0,1.381,0.72,2.16,2.28,2.16C24.469,21.67,25.189,20.891,25.189,19.51z"/>
	<path fill="#FFFFFF" d="M41.179,25v-9.659c0-0.66-0.3-1.051-1.05-1.051c-0.78,0-2.22,0.54-3.15,1.051V25h-4.32V10.391h3.21
		l0.45,1.11c1.8-0.87,4.14-1.41,5.82-1.41c2.49,0,3.36,1.859,3.36,4.68V25H41.179z"/>
	<path fill="#FFFFFF" d="M49.249,25V4.421l4.319-0.6V25H49.249z"/>
	<path fill="#FFFFFF" d="M65.299,25l-0.301-0.93c-1.68,0.93-3.18,1.229-4.17,1.229c-2.699,0-3.81-1.95-3.81-4.439
		c0-2.94,1.351-4.11,4.35-4.11h3.149v-1.109c0-1.5-0.27-2.01-2.579-2.01c-1.29,0-2.58,0.149-3.96,0.42l-0.57-3.24
		c1.381-0.42,3.57-0.72,5.25-0.72c5.07,0,6.18,1.529,6.18,5.579V25H65.299z M64.518,19.75h-2.069c-0.93,0-1.29,0.24-1.29,1.05
		c0,0.811,0.33,1.141,1.17,1.141c0.9,0,1.53-0.21,2.189-0.511V19.75z"/>
</g>
<g enable-background="new    ">
	<path fill="#FFFFFF" d="M95.779,25l-0.3-0.93C93.8,25,92.3,25.3,91.31,25.3c-2.7,0-3.81-1.95-3.81-4.439
		c0-2.94,1.35-4.11,4.35-4.11H95v-1.109c0-1.5-0.271-2.01-2.58-2.01c-1.29,0-2.58,0.149-3.96,0.42l-0.569-3.24
		c1.379-0.42,3.569-0.72,5.249-0.72c5.069,0,6.18,1.529,6.18,5.579V25H95.779z M95,19.75h-2.07c-0.93,0-1.29,0.24-1.29,1.05
		c0,0.811,0.33,1.141,1.17,1.141c0.899,0,1.53-0.21,2.19-0.511V19.75z"/>
</g>
<g transform="translate(-1 -1)">
	<g filter="url(#a)">
		<path id="b_2_" d="M78.788,35.668l7.109-22.273c0.289-0.905-0.057-2.057-0.617-2.057h-4.747l3.068-8.237
			c0.314-0.903-0.029-2.102-0.602-2.102h-8.178c-0.32,0-0.601,0.397-0.691,0.975l-1.099,14.262c-0.135,0.869,0.21,1.739,0.691,1.739
			h6.421L78.128,35.17C78.039,35.924,78.577,36.327,78.788,35.668z"/>
	</g>
	<g>
		<path id="b_1_" fill="#FFFFFF" d="M78.788,35.668l7.109-22.273c0.289-0.905-0.057-2.057-0.617-2.057h-4.747l3.068-8.237
			c0.314-0.903-0.029-2.102-0.602-2.102h-8.178c-0.32,0-0.601,0.397-0.691,0.975l-1.099,14.262c-0.135,0.869,0.21,1.739,0.691,1.739
			h6.421L78.128,35.17C78.039,35.924,78.577,36.327,78.788,35.668z"/>
	</g>
</g>
</svg>
