<svg xmlns="http://www.w3.org/2000/svg" width="24" height="24" viewBox="0 0 24 24">
    <g fill="none" fill-rule="evenodd">
        <path d="M0 0h24v24H0z"/>
        <path fill="#000" fill-opacity=".15" fill-rule="nonzero" d="M11.593 14.056a.537.537 0 0 0 .777 0l9.111-7.778c.186-.297.149-.778-.444-.778l-18.074.037c-.444 0-.815.407-.482.778l9.112 7.74zM21.63 9.315a.447.447 0 0 0-.741-.334l-7.296 6.038c-.445.407-1 .63-1.593.63a2.488 2.488 0 0 1-1.593-.593L3.148 8.98c-.296-.259-.74-.074-.74.334-.038 1.666-.038 6.185-.038 8.407 0 .815.667 1.482 1.482 1.482h16.296c.815 0 1.482-.667 1.482-1.482V9.315z"/>
    </g>
</svg>
