<svg xmlns="http://www.w3.org/2000/svg" width="217" height="85" viewBox="0 0 217 85">
    <g fill="none" fill-rule="evenodd">
        <g transform="translate(77)">
            <ellipse cx="32" cy="42" fill="#FFF" rx="32" ry="42"/>
            <path fill="#303131" fill-rule="nonzero" d="M17.182 28.5c1.757 0 3.182-1.455 3.182-3.25S18.939 22 17.182 22 14 23.455 14 25.25s1.425 3.25 3.182 3.25zm28.636 0c1.757 0 3.182-1.455 3.182-3.25S47.575 22 45.818 22s-3.182 1.455-3.182 3.25 1.425 3.25 3.182 3.25zM31.5 69c4.393 0 7.955-4.925 7.955-11S35.893 47 31.5 47c-4.393 0-7.955 4.925-7.955 11s3.562 11 7.955 11z"/>
        </g>
        <path fill="#FFF" d="M39.14 60.64H.62v-4.32L40.1 2.44h5.16v53.28h13.56v4.92H45.26V85h-6.12V60.64zm0-4.92v-43.2L7.7 55.72h31.44zm157.56 4.92h-38.52v-4.32l39.48-53.88h5.16v53.28h13.56v4.92h-13.56V85h-6.12V60.64zm0-4.92v-43.2l-31.44 43.2h31.44z"/>
    </g>
</svg>
