<svg xmlns="http://www.w3.org/2000/svg" width="64" height="64" viewBox="0 0 64 64">
    <g fill="none" fill-rule="evenodd">
        <path d="M0 0h64v64H0z"/>
        <path fill="#F7434C" fill-rule="nonzero" d="M54.204 28.616H9.796a.842.842 0 0 0-.842.842v26.129c0 .465.376.842.842.842h44.408a.842.842 0 0 0 .843-.842V29.458a.842.842 0 0 0-.843-.842z"/>
        <path fill="#DB2E37" fill-rule="nonzero" d="M54.204 28.616H9.796a.842.842 0 0 0-.842.842v3.369h46.093v-3.369a.842.842 0 0 0-.843-.842z"/>
        <path fill="#FFDB57" fill-rule="nonzero" d="M36.302 28.616h-8.604a.842.842 0 0 0-.842.842v26.129c0 .465.377.842.842.842h8.604a.842.842 0 0 0 .842-.842V29.458a.842.842 0 0 0-.842-.842z"/>
        <path fill="#F5BA3D" fill-rule="nonzero" d="M36.302 28.616h-8.604a.842.842 0 0 0-.842.842v3.35h10.288v-3.35a.842.842 0 0 0-.842-.842z"/>
        <path fill="#FFDB57" fill-rule="nonzero" d="M52.564 13.06c-.826-2.152-2.129-4.254-3.485-5.623-.498-.502-1.168-.757-1.931-.74-2.529.059-6.649 3.232-12.246 9.431a.842.842 0 0 0-.217.565v4.454c0 .465.377.842.842.842H48.48c2.887 0 4.078-1.404 4.569-2.582.655-1.57.482-3.825-.485-6.347z"/>
        <path fill="#EF9325" fill-rule="nonzero" d="M53.046 14.527a.84.84 0 0 0-.11-.243c-1.272-1.922-4.02-1.203-6.1-.261-6.046 2.737-8.543 6.506-8.646 6.665a.842.842 0 0 0 .706 1.301h9.585c1.836 0 3.198-.564 4.048-1.675 1.01-1.321 1.188-3.322.517-5.787z"/>
        <path fill="#FFDB57" fill-rule="nonzero" d="M29.098 16.128C23.5 9.93 19.38 6.756 16.852 6.697c-.765-.017-1.433.238-1.93.74-1.357 1.369-2.66 3.471-3.486 5.623-.967 2.522-1.14 4.776-.485 6.347.49 1.178 1.682 2.582 4.568 2.582h12.954a.842.842 0 0 0 .842-.842v-4.454a.84.84 0 0 0-.217-.565z"/>
        <path fill="#EF9325" fill-rule="nonzero" d="M25.81 20.688c-.103-.159-2.6-3.929-8.646-6.665-2.08-.942-4.828-1.661-6.1.261a.844.844 0 0 0-.11.243c-.671 2.465-.492 4.466.517 5.786.85 1.112 2.212 1.676 4.048 1.676h9.585a.842.842 0 0 0 .706-1.3z"/>
        <path fill="#F5BA3D" fill-rule="nonzero" d="M35.527 15.018h-7.054a.842.842 0 0 0-.842.842v5.287c0 .465.377.842.842.842h7.054a.842.842 0 0 0 .842-.842V15.86a.842.842 0 0 0-.842-.842z"/>
        <path fill="#F7434C" fill-rule="nonzero" d="M57.825 20.307H6.175a.842.842 0 0 0-.842.842v8.31c0 .464.377.841.842.841h51.65a.842.842 0 0 0 .842-.842v-8.31a.842.842 0 0 0-.842-.841z"/>
        <path fill="#FFDB57" fill-rule="nonzero" d="M25.531 20.306h12.937V30.3H25.531z"/>
    </g>
</svg>
