<svg xmlns="http://www.w3.org/2000/svg" width="1281" height="800" xmlns:xlink="http://www.w3.org/1999/xlink"><title>Variant 5 home nauta</title><desc>Created with Sketch.</desc><defs><linearGradient id="a" x1="50.073%" x2="49.714%" y1="77.983%" y2="-192.371%"><stop stop-color="#3276B6" offset="0%"/><stop stop-color="#4590B1" offset="20.55%"/><stop stop-color="#5499B2" offset="24.51%"/><stop stop-color="#5FA0B3" offset="30.01%"/><stop stop-color="#66A4B3" offset="37.75%"/><stop stop-color="#68A5B3" offset="59.23%"/><stop stop-color="#69A6B1" offset="79.35%"/><stop stop-color="#7AADBB" offset="100%"/></linearGradient><linearGradient id="b" x1="49.853%" x2="51.107%" y1="89.97%" y2="-179.356%"><stop stop-color="#4375B4" offset="0%"/><stop stop-color="#68A5B3" offset="21.56%"/><stop stop-color="#70A9AA" offset="62.07%"/><stop stop-color="#80AF96" offset="100%"/></linearGradient><linearGradient id="c" x1="-.001%" y1="49.986%" y2="49.986%"><stop stop-color="#C4C4C4" offset="0%"/><stop stop-color="#DBDBDB" offset="27.57%"/><stop stop-color="#fff" offset="100%"/></linearGradient><path id="d" d="M16.96 1.26c0-.76-3.6-1.3-8-1.18C4.52.18.97.98.97.98v4.38l15.98-.4v-3.7z"/><path id="f" d="M19.04 1.37C19.02.6 14.77.07 9.55.17 4.33.3.12 1.02.13 1.8v3.7l18.9-.4v-3.7z"/><path id="h" d="M19.04 1.37C19.02.6 14.77.07 9.55.17 4.33.3.12 1.02.13 1.8v3.7l18.9-.4v-3.7z"/><path id="j" d="M19.04 1.37C19.02.6 14.77.07 9.55.17 4.33.3.12 1.02.13 1.8v3.7l18.9-.4v-3.7z"/><path id="l" d="M19.04 1.37C19.02.6 14.77.07 9.55.17 4.33.3.12 1.02.13 1.8v3.7l18.9-.4v-3.7z"/><path id="n" d="M19.04 1.37C19.02.6 14.77.07 9.55.17 4.33.3.12 1.02.13 1.8v3.7l18.9-.4v-3.7z"/><path id="p" d="M19.04 1.37C19.02.6 14.77.07 9.55.17 4.33.3.12 1.02.13 1.8v3.7l18.9-.4v-3.7z"/><path id="r" d="M19.04 1.37C19.02.6 14.77.07 9.55.17 4.33.3.12 1.02.13 1.8v3.7l18.9-.4v-3.7z"/><path id="t" d="M19.04 1.37C19.02.6 14.77.07 9.55.17 4.33.3.12 1.02.13 1.8v3.7l18.9-.4v-3.7z"/><path id="v" d="M19.04 1.37C19.02.6 14.77.07 9.55.17 4.33.3.12 1.02.13 1.8v3.7l18.9-.4v-3.7z"/><path id="x" d="M19.04 1.37C19.02.6 14.77.07 9.55.17 4.33.3.12 1.02.13 1.8v3.7l18.9-.4v-3.7z"/></defs><g fill="none"><g><path id="Rectangle-path" fill="#31363B" fill-rule="nonzero" d="M0 0h1280v800H0z"/><g fill="#fff" fill-rule="nonzero" opacity=".2"><path d="M277.35 616.67H0V316.35c8 .3 21.18-2.7 29.1 3.5 4.52 3.56 6.52 7 5.96 12.8-2.42 25.04 2 50.22-1.4 75.32-1.8 13.2 8.56 22.05 18.9 17.42 4.02-1.8 3.46-5.66 3.5-9.24.08-12.02 0-24.04.03-36.06.02-16 15.86-35.8 29.3-36.44 6.2-.3 12.43.24 18.62-.13 2.48-.13 4-.02 4.88.68.14-14.75.3-27.05.5-35.76-.06-2.58-.06-4.33-.06-13.77 0-3.24 0-4.56 0-6.24 0-5.2 20-3.27 23.2-3.25 3.43.02 5.9 2.37 7.54 8.05.32 1.12 5.86 2.74 9.87 2.74 2.2 0 3.25 1.98 3.72 5.62.03-27.02.06-49.28.1-63.23 0-6.28-2.83-17.16 4.38-17.8h62.1c3.6 0 1.68 11.2 1.7 15.25 0 12.15.03 38.87.05 72.9.12 0 10.36.04 10.44.05l26.25-.3c11.3.22 1.48 0 18.78.57v-26.03c-.37-8.84 3.07-13.28 6.32-18.78 1.4-2.36 2.72-3.2 4.27-1.32 10.32 12.57 21.9 4.6 32.68 3.2 8.95-1.2 13.9 1.23 15 13.56 0 22.85.02 14.25 0 20.25-.07 36.04-.07 88.17-.04 141.8 3.3-6.83 8.46-12.4 14.02-18.1 3.5-3.56 7.67-6.05 7.7-11.82.02-1.5.7-4 1.68-4.33 16.1-5.67 15.2-19.5 15.7-32.72.05-1.5.74-2.96 1.4-5.4 4.64 3 3 7.03 3.35 10.27 1.25 11.32 6.5 19.33 14.74 27.77 7.2 7.38 12.04 17.88 20.98 24.15 14.14 9.9 10.9 24.55 10.43 38.14-.32 9.87 41.5 12.8 52.22 13.56 4.44.3 7.88 1.66 10.53 4.07-.4-8.68-1.1-17.48 5.4-25.06 2.14-2.5.57-9.55.77-14.5.25-6.26-1.7-13.2 6.14-16 3.7-1.33 2.14-7.33 2.15-11.28.12-28.6.27-57.2-.02-85.8-.12-11.3 2.53-18.74 13.12-18.62 3.93.04 5.5-2.4 5.54-6.95.03-3.65.38-7.3.6-11.04 1.26.32 2.37.35 2.42.65 3.15 17.38 3.15 16.95 18.46 17.55 8 .32 16.15-2.6 24.06 3.6 4.53 3.55 6.53 6.98 5.97 12.8-2.42 25.03 2 50.22-1.4 75.3-1.8 13.2 8.56 22.06 18.9 17.43 4.03-1.8 3.47-5.65 3.5-9.24.08-12.02 0-24.04.03-36.06.03-16 15.87-35.8 29.3-36.44 6.2-.3 12.44.24 18.63-.13 1.72-.1 3.38-.16 4.9-.05.14-14.42.3-26.46.5-35.03-.25-2.72.43-11.05 4.67-12.77 4.22-.23 7.5-.22 7.64-6.77.13-5.2 3.6-5.28 6.8-5.26 3.44.02 7.37-.5 7.57 5.57.22 6.58 3.86 6.65 7.88 6.74 4.44.1 7.62 1.44 9.72 4.02.02-26.3.05-47.96.08-61.63.02-6.28-.53-11.98 4.4-17.8 4.5-5.36 1.1-15 1.63-22.73.04-2.4.05-4.8.15-7.18.1-2.73-.38-6.3 2.58-6.95 3.95-.87 5 2.8 5.54 6.6 0 7.44.28 14.9-.08 22.32-.37 7.63 2.3 10.3 8.48 10 7.9-.43 15.84-.3 23.75-.06 5.2.16 7.57-2.26 7.4-8.7-.2-8.68-.05-17.37-.05-26.05.35-11.98-.75-24.05 1.88-35.86.66-2.95-.73-8 3.12-7.82 4.5.22 3 5.58 3.1 8.93.25 9.1.17 18.23.22 27.35-.03 9.5-.1 19-.06 28.5.04 5.6-.94 11.24 4.53 15.16 3.03 2.17 1.6 7.68 1.6 11.72.02 12.52.04 40.53.06 76.06 1.8-2.9 5.2-3.95 10.43-3.1 3.9.62 7.54.68 9.72-5.9 2.15-6.48 7.2-6.46 9.44.55 1.7 5.36 4.14 5.96 7.82 4.54 6.13-2.38 11.9 2.02 18.05 1.1v-26.07c-.37-8.84 3.07-13.28 6.32-18.78 1.38-2.36 2.7-3.2 4.27-1.32 10.3 12.57 21.88 4.6 32.67 3.2 8.95-1.2 13.9 1.23 15 13.56 0 22.85.02 14.25 0 20.25 0 6.3-.02 13.1-.03 20.3 2.26-2.18 5.56-3.37 10.3-3.32 4.37.05 6.1-2.4 6.14-6.95.04-3.64.42-7.27.66-11.03 1.4.32 2.63.35 2.7.66 3.47 17.36 3.47 16.94 20.42 17.54 8.85.3 17.88-2.62 26.64 3.6 5.02 3.55 7.23 6.98 6.6 12.78-2.67 25.05 2.22 50.23-1.55 75.32-1.98 13.2 9.5 22.06 20.96 17.42 4.44-1.8 3.82-5.65 3.85-9.23.1-12.04.03-24.06.06-36.08.03-15.98 17.56-35.8 32.44-36.43 6.86-.3 13.76.22 20.62-.14 1.9-.1 3.72-.17 5.4-.06.16-14.43.35-26.47.55-35.04-.27-2.72.48-11.05 5.18-12.76 4.68-.24 8.3-.23 8.46-6.78.14-5.2 4-5.28 7.52-5.26 3.8.02 8.16-.48 8.4 5.58.23 6.6 4.26 6.65 8.7 6.75 4.92.1 8.44 1.42 10.77 4 .02-26.3.05-47.96.08-61.62.02-6.28-3.12-17.17 4.86-17.8h68.75c4 0 1.86 11.2 1.86 15.24.02 12.53.05 40.53.07 76.07 2.02-2.9 5.77-3.96 11.56-3.12 4.32.63 8.33.68 10.75-5.9 2.38-6.48 7.97-6.46 10.45.55 1.9 5.38 4.6 5.97 8.66 4.55 6.8-2.38 13.2 2.03 20 1.1V283.8c-.42-8.83 3.4-13.27 7-18.77 1.53-2.35 3-3.2 4.72-1.3 11.43 12.56 24.23 4.6 36.17 3.18 9.9-1.16 15.4 1.25 16.62 13.58 0 22.85 0 14.25 0 20.25-.2 79.5.08 237.28 0 316.78-2.18 0-62.47.03-64.66 0H1037.23l-184 .02c0-.27 0-.55 0-.85-16.34 0-36.7 0-37.88 0H329.4c-14.87 0-50.46.02-52.05 0z"/></g><g fill-rule="nonzero"><g fill="#F0EFEF"><path id="Shape" d="M1021.5 674.3c-1.64-.3-1.47-2.53-2.88-3.06-.4 4.53-3.3 2.72-5.56 2.48-.97.65-2.84-.18-2.88 2 .63 1.63 2.87 3.06 2.03 4.67-.96 1.84-3.36.63-5.13.83-.75.1-1.53-.16-2.3-.26-.93.5-2.1.9-.98 2.36 1.68-.03 3.42-.37 5.04-.06 7.02 1.37 10.1-3.34 12.65-8.98zm-8.3 2.85c.07-2 1.53-1.72 2.65-1.66.9.03 2.6-.5 2.24 1.34-.26 1.35-1.26 2.87-2.7 3.02-1.45.15-1.68-1.56-2.2-2.7zM1016.1 668.23c1.58.32 1.14 5.06 2.56 5.56 1.23 2.16.86-6.7-.38-8.7-2.57-.4-2.36 1.37-2.2 3.13zM1034.06 675.28c.08-2.25.5-3.76 1.88-5.08 1.72-1.66 1.6-3.22.13-4.9-1.47.1-3.67-2.88-4.27 1.22-.08.54-1.55 1.03-2.43 1.23-4.7 1.06-4.7 1.02-7.92 6.56 1.18.18 1.95-.55 2.86-1.22 4.72-3.45 6.1-2.6 6.8 3.52.27 2.12-1.3 6.08 1.44 6 2.38-.05.64-4.17 1.34-6.36.1-.3.12-.64.18-.96zM1076.03 680.52c-2.65 6.4-1.98 7.6 4.26 7.62.92 0 1.84 0 2.76-.02 5.75-.1 5.87-.26 5.1-6.63-3.85-3.05-7.84-4.1-12.13-.98zm5.72 5.75c-1.5-1.13-4.83 1.62-4.94-2.2-.07-2.63 2.42-3.7 4.72-3.64 2.4.07 5.06 1.03 4.9 4-.17 2.84-2.97 1.16-4.67 1.84zM1085.8 666.4c-2.68 2.04-5.5 3.76-8.7 4.7-.33.25-.65.5-.97.73l.02-.1c.18.67.35 1.33.52 2 4.23.62 7.54 3.57 11.44 5.02.75-1.65-.6-2.35-1.32-3.33-2.15-.67-4.55-.87-5.97-3.8 2-.26 3.36-1.55 4.92-2.47.33-.9.93-1.8.08-2.74z"/></g><path id="Shape" fill="#DDAE87" d="M1076.15 671.73l-.02.1.02-.1z"/><g><path id="Shape" fill="#696968" d="M994.3 429.96c-3.72-1.7-3.64-5.45-4.3-8.6-.3-1.56 1.83-1.9 3.07-2.35 1.6-.57 2.14-1.06 2.3-3.16.16-1.72-.25-3.85.86-5.64.84-1.34-.1-2.7-1.7-2.57-.9.08-1.65.2-2.12-.72-.94-1.87-2.27-1.7-3.93-.92-1.6.76-3.35 1.25-5.04 1.86-2-4.96-3.97-9.92-6.04-14.85-.53-1.25-.5-2.22.53-3.1 6.23-.05 12.47-.15 18.7-.1 2.9.03 4.2 1.35 5.33 4.3 2.7 6.9 5.5 13.8 8.27 20.7 1.84 4.57 3.66 9.16 5.48 13.75-.66 1.36-1.9 1.38-3.18 1.38-6.08 0-12.15.02-18.22.03z"/><path id="Shape" fill="#C6C5C4" d="M1015.7 428.55c-1.8-4.6-3.63-9.18-5.47-13.76-2.76-6.9-5.57-13.8-8.27-20.7-1.14-2.95-2.42-4.27-5.33-4.3-6.23-.05-12.47.05-18.7.1.38-1.13 1.34-1.1 2.25-1.1 6.15 0 12.3.02 18.44 0 .95-.02 1.77.35 2.63.62 3.1 6.38 5.6 13.02 8.23 19.6 2.1 5.28 4.4 10.48 6.5 15.75.5 1.22 1.93 2.68-.27 3.78z"/></g><path id="Shape" fill="#C44A52" d="M1074.85 482.2c-.33.4-.65.83-.97 1.24"/><g fill="#C8C8C8"><path id="Shape" d="M1032.3 510.85c-.03.9-.17 1.52-.26 3.57 0 .8-.03 1.6-.04 2.38.04.67.08 1.34.1 2 .42.66.83 1.3 1.25 1.95 1.75 2.1 3.54 4.17 5.92 5.6.77.47 1.62 1.12 2.46.6.82-.48.15-1.38.03-2.06-.97-5.62-.32-15.84-.1-21.5-.4-.04-9.27.22-9.66.2l.3 7.25zM1102.98 455.53c-2.17-3.2-1.17-6.45-.96-9.64-.1-.05-.14-.13-.1-.23-.58-1.54-1-3.12-.94-4.8-1.5-7.9-2.98-15.8-4.47-23.7-.4-2.15-1.72-3.45-3.63-4.4-4-1.96-8.3-2.83-12.58-3.9-.67-.16-1.37-.06-1.6-.86-.6-2.28-2.66-3.03-4.35-4.17-.37.02-.74.04-1.1.07.75 2.54 1.06 5.2 1.93 7.7.84 2.44-.26 4.73-1.6 6.56-.92 1.23-1.66 2.6-2.74 3.72.04.73-.13 1.38-.66 1.9.1.3 0 .48-.32.5-.8 1.76-1.4 3.62-2.7 5.12-.4.5-.4.5-.75 1h.03c-.55 2.4-2.07 4.42-3.04 6.67-1.92 4.4-2.44 9.05-2.54 13.78.27 2.32.53 4.64.8 6.97.65 5.17 1.72 10.26 2.97 15.32.2.87.2 1.8.27 2.7-.73 1.82.74 9.42 1.23 11.06 1.17-.28 6.93-2.48 7.75-3.46l5.8-3.38c.48-1.8-3.8-6.92-2.86-7.66 1.26-1 1.87-2.05 2.34-3.32 2-5.45 5.7-10.06 7.6-15.56.56-1.63 1.24-3.22 2.15-4.82.18 2.57 2.55 4.88.5 7.7-.54.74-.28 2.06.35 2.85 1.7 2.14 2.6 4.8 4.53 6.8 3.1-1.04 6.38-1 9.5-1.8.94-.5 2.4-.28 2.58-1.85l-3.38-6.87zM1068.07 497.5c5.07-2.73 10.1-5.58 15.7-7.13 2.08 2.26 3.57 4.93 5.22 7.5.96 1.67 1.46 3.6 2.73 5.13l.12-.12s-.13.1-.13.1c.07.3.14.58.2.87 1.2 4.24 2.92 8.33 3.4 12.76.1.97.6 1.96-.4 2.75-2.75.22-4.95 1.85-7.17 3.18-4.8 2.87-9.92 4.34-15.44 4.77-2.1.17-2.93-.37-2.87-2.7.13-4.72-.1-9.46-.17-14.2-.02-.54-.04-1.1-.05-1.64-.04-3.78-.46-7.53-1.13-11.25zM1071.34 396.38c-1.18-.25-1.8.63-2.55 1.25-3.63 2.98-7.43 5.65-11.9 7.23-.16-.34-.33-.68-.5-1.02-.7-1.04-.42-2.24-.55-3.38 2.9-1.8 5.9-3.5 8.7-5.45 2-1.38 3.8-3.1 5.68-4.68.37 2.02.74 4.04 1.1 6.06zM1041.43 472c1.44-.03 2.9-.05 2.5-2.18.97 5.33-.6 18.25-.98 23.56-1.7-1.37-4.43-3.18-2.2-9.13.08-.2.37-4.2.45-4.4.46-2.6.65-5.23.23-7.86zM1043.9 469.4c-1.96-.8-2.5-3.07-4.26-4.05.04-3.05-1.53-5.75-1.86-8.73-.13-1.1-1.28-1.56-2.22-1.68-1.3-.16-.5 1.1-.8 1.66-1.47 2.56-2.13 5.84-3.9 8.27-.25.4-.97-.36-1.5-.4l-.1-.04c-3.6-1.53-7.22-3.06-10.84-4.6-1.5-.67-1.75-1.63-.96-3.12.92-1.73 1.6-3.6 2.4-5.4.12-.3.1-.78.32-.9 3.37-1.94 3.7-5.67 5.05-8.73 2.15-4.87 4.52-9.67 6.06-14.8 2.18-3.5 3.12-7.6 5.05-11.22.66-1.23 1.5-2.12 2.7-2.78 4.02-2.23 8.43-3.25 12.77-4.55 2.1-.64 4.07-1.95 4.6-4.48.15.34.32.68.48 1.03.55 1.93.45 3.43-1.03 5.26-2.22 2.75-3.7 6.1-5.5 9.2-1.13 1.86-2.27 3.7-3.4 5.56-1.96 3.02-4.1 5.95-5.82 9.1-2.86 5.16-3.88 10.64-1.87 16.4 0 2.16 1.32 3.93 1.7 5.97-.05.17.32 1.07.42 1.22.32.75.22.22.4.94.68 3.63 2.36 7.06 2.1 10.86z"/></g><path id="Shape" fill="#E5E0E6" d="M977.9 426.86c-.17-.17-.33-.35-.5-.52.17.17.33.35.5.52z"/><g><path id="Shape" fill="#fff" d="M1065.97 486.94c1.36-3.06-.75-5.74-.86-8.62-.02-.83-.13-1.65-.2-2.47-.08-.9-.06-1.84-.27-2.7-1.25-5.07-2.32-10.16-2.97-15.33-.8-1.23-1.9-1.52-3.35-1.5-5.76.1-11.54.05-17.32.05-.05.17-.02.33.07.48.32.67.42.88.75 1.7.68 3.6 2.36 7.05 2.1 10.85.08.13-.5 5.96-.56 6.1.98 5.34-.36 11.7-.74 17.03 1.47 1.32 4.17 1.16 6.25.53 2.66 2.67 4.65.72 8.04-2.1.35-.3.95-.3 1.36-.57l7.7-3.46"/><path id="Shape" fill="#fff" d="M1039.28 450.4c-2-5.76-1-11.24 1.87-16.4 1.73-3.15 3.86-6.08 5.8-9.12.92 1.4 1.53 3 1.34 4.62-.4 3.24 1.07 6.1 1.56 9.14.18 1.13.62 1.27 1.45.74 3.5-2.23 7.48-3.67 10.72-6.36 1.3-1.1 2.65-2.25 4.4-2.63-.33 2.52-2.06 4.42-3.04 6.67-1.9 4.42-2.42 9.05-2.52 13.78-6.05 0-12.1 0-18.16 0-1.17 0-2.33.08-3.42-.44z"/><path id="Shape" fill="#E5E0E6" d="M1039.28 450.4c1.1.53 2.25.47 3.42.46 6.05 0 12.1 0 18.16 0 .27 2.3.53 4.64.8 6.96-.8-1.23-1.9-1.52-3.35-1.5-5.76.1-11.54.05-17.32.05-.38-2.04-1.7-3.82-1.7-5.96zM1066.43 430.4c-1.76.37-3.1 1.52-4.4 2.62-3.25 2.7-7.22 4.13-10.72 6.36-.82.53-1.26.4-1.44-.74-.5-3.05-1.96-5.9-1.57-9.14.18-1.62-.43-3.2-1.34-4.6 1.14-1.86 2.28-3.7 3.42-5.56.75 1.12.1 2.26.02 3.38-.27 4.08.68 8.05 1.02 12.08.13 1.66 1.22 1 1.96.55 4.08-2.42 8.2-4.82 11.8-7.95 2-1.73 4.03-3.42 5.65-5.52.05.73-.12 1.38-.66 1.9-.1.18-.2.34-.3.5-.82 1.76-1.4 3.63-2.7 5.12-.22.63-.16.27-.76 1h.03z"/></g><path id="Shape" fill="#DCA299" d="M1069.86 424.3c.1-.18.2-.34.3-.5.1.28.03.46-.3.5z"/><path id="Shape" fill="#272F39" d="M1033.3 375.87c.06 1.35-.56 2.4-1.76 2.26-1.77-.2-1.7-1.9-1.9-3.27-.17-1.15.36-2.24 1.4-2.2 1.93.07 1.95 1.86 2.25 3.2zM1052.93 371.52c-.23-1.82-.2-2.97 1.35-2.94 2.32.05 1.57 2.17 1.98 3.4.28.8-.17 1.8-1.38 1.84-2.14.05-1.87-1.62-1.95-2.3z"/><path id="Shape" fill="#CC857C" d="M1054.92 400.4c-.18.1-.37.22-.55.34.2-.12.37-.23.55-.34z"/><g><path id="Shape" fill="#548238" d="M1016.25 471.93c-.08-2.88 2.7-4 3.82-6.16.35-.7 1.2-.4 1.83-.4 2.15-.06 4.3-.07 6.47-.1 3.76.03 7.5.05 11.27.08 1.77.98 2.3 3.26 4.25 4.05.08.14.1.27.02.42.4 2.13-1.05 2.15-2.5 2.17-7.84.06-15.7.13-23.54.2-.52.04-.63.2-1.15.1l-.48-.37z"/><path id="Shape" fill="#EAE9F1" d="M1037.56 511.87c3.86 0 5.3-37.25 4.87-39.88-7.85.06-16.7.13-24.55.2-.68-.2 1.54 38.6 4.83 39.54 1.84.64 13.37-.03 14.86.13z"/><g id="Group" transform="translate(1019 480)"><ellipse id="Oval" cx="10.726" cy="9.512" fill="#548238" rx="10.184" ry="8.958"/><ellipse id="Oval" cx="10.635" cy="9.883" fill="#F9F9F9" rx="8.094" ry="6.25"/><ellipse id="Oval" cx="10.604" cy="9.883" fill="#548238" rx="7.666" ry="5.625"/></g></g><g fill="#DDAE87"><path id="Shape" d="M1026.04 643.83c4.35-4.3 11.18-20.2 17.44-16.72.6-1.67 1.2-3.35 1.8-5.03 3.5-9.6 8.45-18.94 8.73-29.36.4-14.4 2.68-28.33 6.55-42.05-8.3-.78-16.7-.92-24.84-3.12.8 22.77-.9 45.32-5.3 67.63M1018.28 665.1c1.24 2 .13 4.14.38 6.2l-.04-.06c1.4.53 1.24 2.75 2.87 3.05h-.05c3.2-5.53 3.2-5.5 7.9-6.55.9-.2 2.37-.7 2.45-1.23.6-4.1 2.8-1.1 4.27-1.23 2.15-2.64 1.13-5.55.74-8.48-1.4-2.9-2.5-4.27-2.36-6.95.42-6.63 4.46-11.67 6.8-17.47-.02-.6 2.92-6.57 2.9-7.16-3.46-.63-7.6.37-12.43 7.7-1.72 2.62-1.9 7-4.88 8.38l.1.12"/><path id="Shape" d="M1004.77 680.97c.77.1 1.55.35 2.3.26 1.77-.2 4.17 1 5.14-.84.85-1.62-1.4-3.05-2.02-4.7-2.28 1.2-6.64-.02-5.4 5.27zM1013.06 673.72c2.27.24 5.16 2.05 5.56-2.48l.04.06c-1.42-.5-.98-2.75-2.57-3.07-.9 1.9-2.8 3.18-3.04 5.5zM1071.74 551.3c4.73 29.68 1.22 59.9 5.1 89.68 1.28 9.92.7 20.08.25 30.13 3.2-.93 6.02-2.66 8.7-4.7.24-13.86 2.27-27.5 4.5-41.12 2.63-16.1 4.6-32.06 2.17-48.53-1.33-9.06 2-18.2 2.56-27.37-7.76.64-15.53 1.28-23.3 1.92zM1088.1 678.75c-3.9-1.45-7.2-4.4-11.43-5.02-.23.24-.46.48-.7.72.03 2.02.05 4.05.06 6.07 4.3-3.13 8.27-2.07 12.12.97 0-.92-.03-1.83-.04-2.75zM1085.72 669.15c-1.56.92-2.93 2.2-4.9 2.47 1.4 2.93 3.8 3.13 5.96 3.8.1-.66.18-1.33.27-2-.44-1.42-.9-2.84-1.33-4.26zM1013.2 677.15c.52 1.15.75 2.86 2.2 2.7 1.44-.14 2.44-1.66 2.7-3 .34-1.85-1.35-1.32-2.25-1.36-1.12-.07-2.58-.35-2.66 1.65zM1081.75 686.27c1.7-.68 4.5 1 4.66-1.84.18-2.97-2.48-3.93-4.88-4-2.3-.07-4.8 1-4.7 3.64.1 3.82 3.42 1.07 4.93 2.2zM994.3 429.96c2.6 4.82 6.42 8.73 9.6 13.13 4.24 5.87 8.7 11.6 13.06 17.4.32.43.4.68 1.1.33.6-.3.28-.58.37-1 3.6 1.54 7.23 3.07 10.85 4.6-.5.08-.85.3-.9.85-2.17.02-4.32.03-6.48.08-.63.02-1.47-.28-1.83.4-1.1 2.17-3.9 3.3-3.82 6.17-3.06 0-5.08-1.86-6.8-4.03-4.36-5.58-8.66-11.2-12.94-16.86-4.8-6.37-9.54-12.8-14.38-19.15-.9-1.2-2.12-2.1-3.2-3.14-.32-.5-.64-1-.96-1.5 0-.13-.04-.26-.06-.4-.17-.17-.33-.35-.5-.52l.02-.02c-.53-1.94-2.03-3.34-2.85-5.14-1.38-3-1.25-4.36 1.03-6.63 2.44-2.43 4.95-4.8 7.83-6.7 1.68-.62 3.43-1.1 5.04-1.87 1.66-.78 3-.95 3.94.93.48.93 1.23.8 2.12.73 1.6-.13 2.55 1.23 1.7 2.57-1.1 1.8-.7 3.92-.84 5.64-.17 2.1-.7 2.6-2.3 3.17-1.25.46-3.4.8-3.07 2.35.66 3.16 1.45 5.9 4.3 8.6zM1076.92 362.3c3.53 4.75 3.72 12.18.68 17.56-2.1 3.74-4.77 7.07-7.36 10.46-1.9 1.57-3.67 3.3-5.7 4.7-2.8 1.94-5.78 3.64-8.68 5.44-.3-.02-.63-.04-.94-.06-.18.1-.36.22-.55.33-2.2.35-4.18 1.5-6.46 1.65-5.26.34-9.67-1.48-13.7-4.8l-3.65-3.56-2.55-4.28c-3.8-4.95-1.1-16 2.7-20.13 4.48-4.84 10.1-8.28 15.66-11.8 4.87-3.1 9.82-6.2 12.85-11.93.73 5.88 2.1 11.04 5.36 15.58 1.5 2.1 3.44 3.28 5.78 4.03l6.58-3.17zm-43.63 13.57c-.3-1.35-.33-3.14-2.26-3.2-1.04-.05-1.57 1.04-1.4 2.2.2 1.35.12 3.06 1.9 3.26 1.2.14 1.82-.9 1.75-2.26zm20.68-13.27c-.92.1-1.38.12-2.5.47-.58.18-1.54.15-1.42 1.08.14 1.1 1.12.7 1.8.7 1.8.05 3.64-.5 5.33.52.6.36 1.2.75 1.6-.15.32-.7-.02-1.38-.7-1.63-1.3-.5-2.6-.77-4.12-1zm-1.05 8.92c.08.68-.2 2.35 1.95 2.3 1.2-.03 1.66-1.04 1.38-1.85-.4-1.22.34-3.34-1.98-3.4-1.54-.02-1.58 1.12-1.35 2.95zM1073.24 403.9c.76 2.54 1.07 5.2 1.94 7.72.84 2.42-.26 4.7-1.6 6.54-.92 1.23-1.66 2.6-2.74 3.72-1.63 2.1-3.65 3.8-5.65 5.52-3.63 3.13-7.73 5.53-11.82 7.95-.74.44-1.83 1.1-1.96-.56-.33-4.03-1.3-8-1.02-12.1.07-1.1.73-2.24-.02-3.36 1.8-3.1 3.27-6.46 5.5-9.2 1.47-1.84 1.57-3.35 1.03-5.28 4.47-1.58 8.27-4.25 11.9-7.23.74-.62 1.36-1.5 2.54-1.25.9 2.44.8 5.13 1.9 7.52zM1041.68 503.4c1.3-.05 1.25.4 2.6.34.3 0 1.23-.05 3.6-.1 3.47-.67 18.54-5.5 20.2-6.13 5.06-2.73 10.08-5.58 15.7-7.13 1.15-1.44 3-1.67 4.48-2.54 3.53-2.08 7.67-3.13 10.6-6.24 4.63-4.93 8.2-11.47 6.9-18.08-3.13.8-8.4 1.5-11.48 2.53-.3 4.27-1.23 8.12-5.75 10.04l-9.8 4.4c-1.98 1.2-.27.22-3.6 2.04-.3.42-.93.5-1.25.9 0 0-1.37.54-2.33.9-.72.32-1.45.64-2.17.97l-11.3 4.86c-.4.26-3.3 1.46-3.74 1.63-2.15.8-4.75.8-5.66.87-3.7-.23-4.73.25-5.96-1.3-.92-3.1.03-1.97-.43-4.5-2.14 2.37-3.26 2.97-13.1 4-6.5.96-10.67-5.6-11.14-5.05-.52.6-2.35 2.4-2.35 3.2.4 1.04-.17.86-.05 2.05.14 1.36.28.42.26 1.8.4 3.08 1.33 2 1.84 5.12.3 1.7.7 2.35 2.38 2.18.73-.07-.6 0 .15.05 1.52.07 2.04.05 3.47.82 3.36 2.43 10.35 2.4 12.34 2.7l4.33-.2 1.28-.16z"/></g><g fill="#2A2A2A"><path id="Shape" d="M1056.4 403.84c-.5 2.53-2.47 3.84-4.58 4.48-4.34 1.3-8.75 2.32-12.76 4.55-1.2.66-2.05 1.55-2.7 2.78-1.94 3.63-2.88 7.7-5.07 11.22-5.75-3.08-8.68-8.47-6.97-14.88.3-1.2-.18-2-.82-2.95-3.05-4.5-2.97-10.14.77-14.1.8 1.8.86 4.25 3.53 4.55 1.93.2 3.65-.16 4.48-2.24.78-.72.54-1 .64-.93 4.08 3.02 9.72 6.4 15 6.05 2.27-.15 4.25-1.3 6.45-1.64.2-.12.37-.23.55-.34.3.02.62.04.94.06.12 1.14-.15 2.34.55 3.38zM1054.1 362.45c1.65-.03 2.7.66 4 1.14.68.23 1.02.92.7 1.62-.4.9-1 .5-1.6.14-1.7-1-3.55-.46-5.34-.5-.68 0-1.66.4-1.8-.7-.12-.94.84-1.02 1.4-1.24.95-.37 1.63-.5 2.63-.47zM1073.13 379.33c1.16 4.88-.3 7.6-2.9 11 .37 2 .74 4.03 1.1 6.05.92 2.44.82 5.13 1.9 7.52.38-.02.75-.04 1.12-.07 1.07-1.03 2.13-2.06 3.2-3.08 3.87-3.65 7.6-7.44 9.74-12.4 2.72-6.35 2.4-12.94 1.1-19.56-1-5.15-3.05-9.97-4.63-14.93l-.72-2.03c-1.98-6.6-6.34-11.06-12.43-14.06-2.92-1.43-6.18-1.92-9.1-3.34-7.36-3.63-14.72-3.23-22.14-.2-5.4 2.2-9.88 5.6-13.5 10.13l-.78 1.1c-1.15 2.57-2.3 5.12-3.23 7.8-.67 1.9.07 4.15-1.04 5.8-2.86 4.3-3.38 8.9-2.54 13.8 1.22 2.78.78 5.94 2 8.7 1.66 3.78 4.38 7.4 7.74 9.84 1.13-.24.2-1.2-.04-1.66-3.48-6.38-1.1-15.98 2.7-20.12 4.48-4.85 10.1-8.3 15.65-11.82 4.87-3.1 9.83-6.18 12.86-11.93.72 5.88 2.1 11.04 5.36 15.58 1.5 2.1 3 3.36 4.87 5.07 2.1 3.3.88 4.6 2.94 9.54l.76 3.27z"/></g><g id="Group"><path id="Shape" fill="#7B2727" d="M1039.88 389.42c-1.4.05-1.28.66-.67 1.6 2.05 3.16 7.37 4 10.72 1.64 1.57-1.1 2.72-2.58 3.6-4.25.7-1.3-.1-1.45-1.15-1.33.56 1.43-.27 2.15-1.38 2.76-2.38 1.3-4.96 1.7-7.62 1.77-1.6.03-2.82-.66-3.5-2.18z"/><path id="Shape" fill="#F4F5F4" d="M1039.88 389.42c.68 1.52 1.9 2.2 3.5 2.17 2.66-.06 5.24-.48 7.6-1.78 1.12-.6 1.95-1.32 1.4-2.76-3.04 1.65-6.35 2.04-9.7 2.2-.94.05-1.87.1-2.8.16z"/></g><path fill="#444443" d="M1068.07 497.5c2.45 6.24 1.5 22.38 1.36 27.1-.06 2.33.76 2.87 2.88 2.7 5.53-.43 10.66-1.9 15.46-4.77 2.2-1.33 4.4-2.96 7.16-3.18.04 2.18.07 27.28.1 29.46-2.2 2.62-5.37 3.8-8.25 5.27-7.6 3.9-15.64 6.75-24.03 8.55-9 1.94-18.1.36-27.3.04-.2-.32-.4-.64-.6-.95.9-4.5.55-29.73-.97-34.07-.78-2.23-.52-4.57-.53-6.88 1.76 2.1 3.54 4.17 5.93 5.6.77.47 1.6 1.12 2.46.6.82-.48.15-1.38.03-2.06-.97-5.62-.73-15.85-.5-21.5"/></g><g><path fill="#fff" fill-rule="nonzero" d="M781.74 309.96c6.1.4 116.03 1.2 122.1 2.12-1.96-.08-3.92-.17-5.87-.24-22.9-.8-149.97-1.47-172.83.36-6.7.54-13.62 2.15-18.33 7.22 1.1-2 2.44-3.8 4.14-5.28 4.67-4.1 12.5-3.18 18.2-3.5 5.86-.36 11.7-.67 17.56-.9 11.68-.44 23.38-.54 35.04.22zm136.15 2.83c.38.02.78.05 1.17.07 1.1.27 2.22.53 3.33.83 1.25.33 2.54.67 3.78 1.14 2.75 1.97 3.02 5.3 3.28 8.5.1 1.36.2 2.7.3 4.07-.6-3.64-2.02-7.28-4.76-9.76-3.58-3.24-8.5-2.93-12.95-3.1-12.4-.42-128.6-1.03-141-1.47-12-.42-24.04-.93-36.04-.16-9.1.6-21.73.63-28.36 8.25-3.78 4.35-5.3 10.4-6.04 16.5.1-2.92.32-6 .78-9 1.03-4.2 2.83-8.07 6.12-10.96 8.3-7.28 22.2-5.8 32.3-6.08 12.38-.36 24.77-.46 37.15-.3 12.38.17 128.58.67 140.94 1.47zm17.53 19.7c1.04 5.76 1 3.7.4 9.5-.28-.08-.57-.18-.86-.26-.46-5.9-.93-3.8-1.44-9.7-.18-2.16-.4-4.43-1.2-6.45 1.9 1.86 2.64 4.32 3.1 6.9zm29.64 34.76c4.28 3.46 12.47 16.33 8.94 22.6-2.77-.95-5.67-1.87-8.63-2.7 2.4.4 4.78.82 7.17 1.33.57.1 1.24-.14 1.4-.72 2.1-7.96-4.85-15.94-10.5-21.26-.8-.75-1.63-1.47-2.48-2.18 1.43.9 2.8 1.87 4.1 2.92zM954.9 384.7c5.9.22 11.78.9 17.6 2.04.84.17 1.67-.44 1.44-1.28-1.36-5.1-3.82-9.83-7.16-13.97 1.68 1.72 8.02 13.02 7.57 15.82-6.4-1.35-12.9-2.3-19.44-2.63zm-18.58-41.8c-.13-.72-.25-1.43-.4-2.13.1 0 .2.03.3.05.04.7.07 1.38.1 2.07zm-.24-5.36c-.1-.1-.22-.2-.33-.3-.5-8.33-.86 7.35-1.14-.98-.03-1.33-.03 18.02-.07 16.7.13.12.26.24.38.36.3.3.75-.12.48-.42-.3-.3-.6-.6-.88-.9-.1-3.35-.18-6.7-.27-10.04 2.1 13.43 2-17.86 1.85-4.42zm0 .96c-.02 1.15-.04 2.3-.05 3.47-.08-1.24-.15-2.48-.22-3.72.1.08.18.17.27.25zm3.16 10.38c-.24-3.27-.43 4.47-.6 1.2.24.07.5-.22.28-.44-.1-.1-.22-.2-.33-.32-.16-2.9-.28-5.77-.38-8.65.15.12.3.25.45.38.33.27.84-.17.5-.45-.33-.28-.65-.57-.98-.85-.2-5.6-.24 11.65-.14 6.04.04-2.14.1-4.28.15-6.42l1.04 9.5zm4.82 33.94c.05.52.1 1.04.13 1.57-.02-.05-.03-.1-.07-.13-.22-.23-.45-.44-.68-.67.17-1.3.26-2.64.3-4 .1 1.08.2 2.15.3 3.22zm-4.78 86.9c-3.87 3.7-9.33 5.43-14.9 6.37-.1-.1-.18-.2-.28-.28 3.45-1.2 6.7-2.83 9.57-5.02.4.28.77.57 1.15.85.23.16.53-.18.3-.36-.33-.3-.67-.57-1-.85.83-.67 1.64-1.38 2.4-2.15 2.06-2.07 4.3-75.88 5.3-78.25.06.06.14.12.2.18.25.2.6-.1.36-.3-.13-.12-.25-.24-.38-.36.67-1.74 1.1-3.56 1.37-5.4.15.12.3.26.44.38.16.14.37.03.4-.12.32 5-.96 81.5-4.92 85.3zm-16.95 6.7c.46-.16.92-.3 1.38-.47.1.07.18.14.27.2-.55.1-1.1.18-1.64.26zm16.56-2.64c-7.94 7.97-20.5 8.1-31.3 7.7-1.97-.08-3.95-.12-5.92-.16-.47-.38-.95-.76-1.42-1.14 2.18-.08 4.38-.17 6.6-.28.1.07.2.14.3.2.17.14.34-.07.27-.23 6.9-.35 13.8-.95 20.38-2.5 5.18-1.23 10.35-3.43 13.77-7.1-.73 1.25-1.6 2.43-2.68 3.5zm-207.3 8c-10.12-.4-23.23-.57-30.35-8.47-2.88-3.18-4.34-7.2-5.38-11.2.02.05.04.1.06.16 1.65 4.28 3.63 8.66 7.36 11.74 3.24 2.67 7.37 4.13 11.56 4.93 11.57 2.22 24.08 1.8 35.83 2 12.24.17 128.3.17 140.55-.35.03.02.06.04.1.06.1.1.26.02.34-.08 1.04-.05 2.08-.1 3.13-.14 1.54-.07 3.1-.14 4.66-.2.48.37.96.73 1.45 1.1-21.87-.33-147.5 1.37-169.37.47zm-28.43-19.07c-1.85-5.1-3.07-10.4-3.95-15.7-1.76-10.66-2.44-21.48-3.28-32.22-.65-8.4-1.2-16.8-1.65-25.2.27-3.22.5-6.43.6-9.65.52-14.97.44-7.14.27-22.14 1.05 21.98 2.06 21.1 3.12 43.1.62 12.92 1 25.86 2.1 38.75.5 5.93 1.16 11.85 2.22 17.7.86 4.8 2.12 9.6 5.47 13.47 4.75 5.5 12.1 8.1 19.38 9.44-5.5-.47-10.83-1.55-15.15-4.17-5-3.05-7.32-8.3-9.16-13.4zm-10.57-49.38c0-3.02.16-6.03.38-9.03.64 9.34 1.4 18.68 2.3 28.02.2 1.98.4 3.96.6 5.95-1.75-8.24-3.3-16.53-3.28-24.95zm.2-68.26c.05 9.25.1 18.5.13 27.73-.16-9.25-.2-18.5-.12-27.74zm253.65 33.05c5.46 0 17.8 6 23.38 7.9.47.16 1.04-.08 1.3-.46-3.1-12.42-4.93-13.48-11.24-19.52-5.9-5.64-16.53-10.88-25.1-12.73.6-5.44-.94-13.53-1.62-18.96-.5-4.06-1.33-8.28-4.84-11.07-1.5-1.18-3.26-2.02-5.13-2.66-2.28-1.23-5-1.67-7.68-1.88-.2-.04-.4-.08-.58-.12-5.9-1.24-11.83-2.22-17.8-3-25.77-3.3-135.7-2.3-161.6-1.05-5.85.28-12.3-.07-18 1.32-4.45 1.08-7.73 4.02-10.07 7.6-2.3 3.5-3.72 7.36-4.6 11.35-2.26 6.9-2.07 14.75-2.38 21.73-1.12 24.78-.73-2.82-.13 21.97.27 11.02.67-.82 1.27 10.2-.05.66-.1 1.34-.15 2.02-1.1 11.98-2.2 23.63-.2 35.6 1.95 11.57 4.57 23.18 7.3 34.62 2.03 8.48 5.8 15.98 14.84 19.52 10.38 4.07 7.95 3.32 18.96 3.3 13.3 0 26.6-.8 39.9-1.02 12.14-.2 128.6 1.8 140.65.1 9.07-1.3 18.02-5.73 21.5-14.06 1.96-4.7 2.82-81.46 2.62-86.42-1.75-3.48-8.74-3.15-7.6-4.76l6.98.5z"/><g><g id="Group" fill-rule="nonzero"><path id="Shape" fill="#2374B6" d="M761.8 396.64l1.6 36.2 154.64-.48V399.7s-9.25-3.3-13.26-2.54c-4.02.75-29.24 12.5-26.94 0 2.3-12.52-19.84-10.2-26.76 0-6.92 10.2-5.6-13.12-17.62 0-12 13.12-23.7-2.92-27.1 0-3.37 2.9-6.83 14.8-17.84 0-11-14.8-26.37 0-26.37 0"/><path id="Shape" fill="url(#a)" d="M159.03 21.26v28.57L7.1 49.95l-2.43-26.4 11.37-2s20.47 6.43 26.6 0c3.05-3.2 19.6-10.82 26.42-2.7 6.83 8.13 5.54-10.44 17.4 0 11.85 10.46 23.4-2.3 26.74 0 3.35 2.33 6.76 11.79 17.63 0 10.87-11.77 26.04 2.7 26.04 2.7" transform="translate(759 388)"/><path id="Shape" fill="url(#b)" d="M.73 27.66L2.38 54.1l156.66.33V29.87s-11.15-11.06-11.95-1.84c-.82 9.23-20.1-16.83-27.6 0-7.46 16.84-20.3-7.45-27.38 0-7.08 7.46-5.74-9.58-18.03 0-12.3 9.6-20.82-14.1-27.74 0-6.92 14.12-7 10.8-18.27 0-11.28-10.8-27 0-27 0" transform="translate(759 388)"/></g><g><g transform="translate(740 337)"><path id="Shape" fill="#fff" fill-rule="nonzero" d="M20.64 34.86c.54 6.83 2.44 31.6 3.32 39.78.9 8.17-7.9-6.75-9.5-22.06-1.6-15.3 5.6-25.24 6.18-17.72z" opacity=".5"/><g id="Group" fill-rule="nonzero"><path id="Shape" fill="#51504F" d="M12.62.6s0 .08.04.2c0 .08.02.17.04.26 0 .05 0 .1.02.16 0 .05 0 .1 0 .17 0 .46 0 1.1 0 1.7 0 .64 0 1.27 0 1.74 0 .06 0 .12 0 .17 0 .07-.02.12-.03.17-.02.1-.03.18-.04.25-.03.13-.04.2-.04.2s-.02-.07-.04-.2c0-.07-.02-.16-.04-.25 0-.05 0-.1-.02-.16 0-.04 0-.1 0-.16 0-.47 0-1.1 0-1.73 0-.6 0-1.24 0-1.72 0-.05 0-.1 0-.16s0-.1.02-.16c0-.1.03-.18.04-.25.02-.12.04-.2.04-.2z"/><path id="Shape" fill="#9E988B" d="M14.6 8.26l-.12-2.64c0-.1-.62-.66-2.03-.66-1.15 0-2.15.44-2.15.54 0 0 0 0 .02.02l-.1 3.18v.1c.23.1 1.1.16 2.16.16 1 0 1.87-.06 2.12-.15l.1-.54z"/><path id="Shape" fill="#9C9587" d="M19.78 14.28c-.1-4.5-3.5-8.07-7.62-7.97-4.1.1-7.4 3.83-7.32 8.32 0 .2 0 .42.03.62h14.87c.03-.3.04-.64.04-.96z"/><path id="Shape" fill="#231F20" d="M13.46 6.4c-.45-.07-.9-.1-1.38-.1-4.1.1-7.4 3.83-7.32 8.32 0 .2 0 .42.03.62h6.45c-4.5-6.05 1.4-8.9 2.2-8.83z" opacity=".2"/><path id="Shape" fill="url(#c)" d="M16.38 14.46c-.02-.8-3.23-2.4-7.7-2.28-4.48.12-8.25 1.9-8.24 2.7v.83s.33-.1.53-.17c1.05.67 3.6 1.3 7.62 1.04 3.76-.25 5.83-.7 6.87-1.16.56 0 .9 0 .9 0v-.94z" transform="translate(4)"/><path id="Shape" fill="#5B5A59" d="M20.38 15.3c0 .8-1.58 1.7-7.8 2.1-5.34.37-8.12-.9-8.14-1.7 0-.78 3.76-2.57 8.24-2.68 4.47-.12 7.68 1.48 7.7 2.28z"/><path id="Shape" fill="#51504F" d="M19.92 15.46c0 .73-1.46 1.56-7.17 1.95-4.93.34-7.5-.82-7.5-1.55-.02-.74 3.46-2.38 7.58-2.5 4.12-.1 7.08 1.38 7.1 2.1z"/></g><path id="Shape" fill="#fff" fill-rule="nonzero" d="M14.83 18.78c-.1.42-.7.4-1 .1-.43-.4-1-.9-1.27-1.44-.2-.38.02-.74.36-.8.06 0 .12-.02.2 0 .65 0 1.5.55 1.82 1.1" opacity=".6"/><path id="Shape" fill="#fff" fill-rule="nonzero" d="M13.84 7.17c1.03.02 2.15 1.05 2.85 1.8.56.62 1.05 1.34 1.46 2.12.16.28.57 1.14.44 1.52-.23.73-1.72-.34-2.04-.55-.57-.36-1.1-.8-1.6-1.3-.64-.63-1.53-1.4-1.95-2.3-.3-.6.03-1.2.56-1.28.1-.03.2-.03.28-.03z" opacity=".6"/><path id="Shape" fill="#F1EFD7" fill-rule="nonzero" d="M19.91 23.95l-.3-8.18c0-.3-2.07-2.04-6.75-2.04-2.03 0-3.9.4-5.23.8-1.18.36-1.9 1.3-1.9 1.45 0 .03 0 .05.05.08l-.26 8.06.2.13c.74.3 3.4 1.87 6.9 1.87 3.38 0 6.54-.24 7.4-.52l-.1-1.65z"/><g id="Group" fill="#D3C9BC" fill-rule="nonzero"><path id="Shape" d="M8.35 23.06c0-2.4 0-4.8 0-7.22 0-.2.04-3-.3-3-.35 0-.3 2.8-.3 3 0 2.4 0 4.8 0 7.22 0 .2-.05 3 .3 3 .34 0 .3-2.8.3-3zM12.1 22.6c0-2.6 0-5.2 0-7.78 0-.2.05-3-.3-3-.34 0-.3 2.8-.3 3 0 2.6 0 5.2 0 7.8 0 .2-.04 3 .3 3 .35 0 .3-2.8.3-3zM16.34 22.68c0-2.6 0-5.2 0-7.8 0-.2.04-3-.3-3-.35 0-.3 2.8-.3 3 0 2.6 0 5.2 0 7.8 0 .2-.05 3 .3 3 .34 0 .3-2.8.3-3zM19.5 18.7c-4.24-2.9-9.5-2.78-14.13-.86.08-.03.73.84 1.03.72 4-1.67 9.2-2.3 12.98.3.6.4.7.25.1-.15zM19.7 22.2c-4.3-2.92-9.6-2.8-14.27-.88.08-.03.73.84 1.02.72 4.05-1.67 9.3-2.3 13.14.3.57.4.68.25.1-.15z"/></g><path id="Shape" fill="#D1B897" fill-rule="nonzero" d="M20.34 32.7l-.4-8.18c0-.3-2.16-1.46-7.03-1.46-3.97 0-7.42.8-7.42 1.1 0 .02.14.07.18.1l-.44 9.8v.28c.75.3 3.8.52 7.43.52 3.52 0 6.48-.2 7.36-.5l.34-1.67z"/><g id="Clipped" transform="translate(4 24)"><mask id="e"><use xlink:href="#d"/></mask><g id="Group" mask="url(#e)"><g fill-rule="nonzero"><path id="Shape" fill="#231F20" d="M2.6-.84v6.8-6.8z"/><path id="Rectangle-path" fill="#B6B8BA" d="M2.4-.84h1v6.8h-1z"/></g><g fill-rule="nonzero"><path id="Shape" fill="#231F20" d="M4.9-.84v6.8-6.8z"/><path id="Rectangle-path" fill="#B6B8BA" d="M4.7-.84h1v6.8h-1z"/></g><g fill-rule="nonzero"><path id="Shape" fill="#231F20" d="M7.8-.84v6.8-6.8z"/><path id="Rectangle-path" fill="#B6B8BA" d="M7.57-.84h1v6.8h-1z"/></g><g fill-rule="nonzero"><path id="Shape" fill="#231F20" d="M11.82-.84v6.8-6.8z"/><path id="Rectangle-path" fill="#B6B8BA" d="M11.6-.84h1v6.8h-1z"/></g><g fill-rule="nonzero"><path id="Shape" fill="#231F20" d="M14.12-.84v6.8-6.8z"/><path id="Rectangle-path" fill="#B6B8BA" d="M13.9-.84h1v6.8h-1z"/></g><g fill-rule="nonzero"><path id="Shape" fill="#231F20" d="M16.42-.84v6.8-6.8z"/><path id="Shape" fill="#B6B8BA" d="M16.2-.84h.45v6.8h-.45"/></g></g></g><g id="Group"><g id="Clipped" transform="translate(3 24)"><mask id="g"><use xlink:href="#f"/></mask><g id="Group" mask="url(#g)"><g fill="#7C7871" fill-rule="nonzero"><path id="Shape" d="M.4-.73v6.78-6.8z"/><path id="Rectangle-path" d="M.17-.73h1v6.78h-1z"/></g><g fill="#7C7871" fill-rule="nonzero"><path id="Shape" d="M3.42-.73v6.78-6.8z"/><path id="Rectangle-path" d="M3.18-.73h1v6.78h-1z"/></g><g fill="#7C7871" fill-rule="nonzero"><path id="Shape" d="M6.15-.73v6.78-6.8z"/><path id="Rectangle-path" d="M5.9-.73h1v6.78h-1z"/></g><g fill="#7C7871" fill-rule="nonzero"><path id="Shape" d="M9.16-.73v6.78-6.8z"/><path id="Rectangle-path" d="M9.2-.73h1v6.78h-1z"/></g><g fill="#7C7871" fill-rule="nonzero"><path id="Shape" d="M12.95-.73v6.78-6.8z"/><path id="Rectangle-path" d="M12.7-.73h1v6.78h-1z"/></g><g fill="#7C7871" fill-rule="nonzero"><path id="Shape" d="M15.67-.73v6.78-6.8z"/><path id="Rectangle-path" d="M15.43-.73h1v6.78h-1z"/></g><g fill="#7C7871" fill-rule="nonzero"><path id="Shape" d="M18.68-.73v6.78-6.8z"/><path id="Rectangle-path" d="M18.44-.73h1v6.78h-1z"/></g></g></g><g id="Clipped" transform="translate(3 24)"><mask id="i"><use xlink:href="#h"/></mask><path id="Rectangle-path" fill="#fff" fill-rule="nonzero" d="M.25-.5h1v6.65h-1z" opacity=".2" mask="url(#i)"/></g><g id="Clipped" transform="translate(3 24)"><mask id="k"><use xlink:href="#j"/></mask><path id="Rectangle-path" fill="#fff" fill-rule="nonzero" d="M3.27-.5h1v6.65h-1z" opacity=".2" mask="url(#k)"/></g><g id="Clipped" transform="translate(3 24)"><mask id="m"><use xlink:href="#l"/></mask><path id="Rectangle-path" fill="#fff" fill-rule="nonzero" d="M5.97-.5h1v6.65h-1z" opacity=".2" mask="url(#m)"/></g><g id="Clipped" transform="translate(3 24)"><mask id="o"><use xlink:href="#n"/></mask><path id="Shape" fill="#fff" fill-rule="nonzero" d="M7.5 6.15h-.18" opacity=".2" mask="url(#o)"/></g><g id="Clipped" transform="translate(3 24)"><mask id="q"><use xlink:href="#p"/></mask><path id="Shape" fill="#fff" fill-rule="nonzero" d="M7.32-.5h.18" opacity=".2" mask="url(#q)"/></g><g id="Clipped" transform="translate(3 24)"><mask id="s"><use xlink:href="#r"/></mask><path id="Rectangle-path" fill="#fff" fill-rule="nonzero" d="M9.28-.5h1v6.65h-1z" opacity=".2" mask="url(#s)"/></g><g id="Clipped" transform="translate(3 24)"><mask id="u"><use xlink:href="#t"/></mask><path id="Rectangle-path" fill="#fff" fill-rule="nonzero" d="M12.78-.5h1v6.65h-1z" opacity=".2" mask="url(#u)"/></g><g id="Clipped" transform="translate(3 24)"><mask id="w"><use xlink:href="#v"/></mask><path id="Rectangle-path" fill="#fff" fill-rule="nonzero" d="M18.56-.5h1v6.65h-1z" opacity=".2" mask="url(#w)"/></g><g transform="translate(3 24)"><mask id="y"><use xlink:href="#x"/></mask><path id="Rectangle-path" fill="#fff" fill-rule="nonzero" d="M15.52-.5h1v6.65h-1z" opacity=".2" mask="url(#y)"/></g></g><path id="Shape" fill="#BAA37B" fill-rule="nonzero" d="M22.22 28.32c.02 1.02.22 1.85-9.55 2.04-10.25.2-9.6-.62-9.62-1.64-.03-1.02 4.25-1.64 9.54-1.75 5.3-.1 9.6.33 9.62 1.35z"/><path id="Shape" fill="#5B5A59" fill-rule="nonzero" d="M3.13 25.76s0-.08.08-.2c.1-.1.3-.23.53-.34.5-.22 1.24-.44 2.14-.6.9-.2 1.96-.34 3.1-.45.57-.05 1.16-.1 1.76-.13.6-.04 1.2-.06 1.82-.07.6-.02 1.23-.02 1.83 0 .6 0 1.2.02 1.76.05 1.15.06 2.2.16 3.12.3.9.14 1.66.33 2.16.53.25.1.43.2.53.32.1.1.08.2.1.2-.02 0 0-.1-.12-.18-.1-.1-.3-.2-.54-.27-.5-.16-1.27-.27-2.17-.36-.9-.08-1.97-.13-3.1-.16-.57 0-1.16 0-1.76 0-.6-.02-1.2 0-1.8 0-.62.02-1.22.04-1.82.06-.6.03-1.18.06-1.75.1-1.13.07-2.2.17-3.1.3-.9.12-1.64.26-2.13.44-.25.1-.44.18-.54.28-.1.1-.1.2-.1.18z"/><ellipse id="Oval" cx="12.585" cy="29.3" fill="#A38C68" fill-rule="nonzero" transform="rotate(-1.198 12.585 29.3)" rx="9.453" ry="1.38"/><ellipse cx="12.659" cy="29.212" fill="#998061" fill-rule="nonzero" transform="rotate(-1.203 12.659 29.212)" rx="8.725" ry="1"/><g id="Group" fill-rule="nonzero"><g id="Shape"><path fill="#A38C68" d="M27.38 102.17l-1.48-16.9c-1.35.74-6.3 1.35-12.24 1.47-6.25.12-11.43-.35-12.5-1.08l-1 16.67 27.22-.16z"/><path fill="#BAA37B" d="M23 53.16L21.72 39c-.83.3-4.48.6-8.88.7-4.2.08-7.74-.06-8.79-.32l-.88 14.2-.04.54c1.26.37 5.28.58 10.06.48 4.6-.1 8.47-.43 9.86-.83l-.06-.6z"/><path fill="#A38C68" d="M24.32 67.75l-1.26-13.98c-1.4.4-5.27.74-9.87.83-4.8.1-8.8-.1-10.07-.48L2.25 68.3l-.03.4c.85.6 5.53 1 11.2.88 5.33-.1 9.77-.6 10.96-1.2l-.06-.63z"/><path fill="#BAA37B" d="M25.83 84.47l-1.45-16.1c-1.2.6-5.63 1.1-10.96 1.2-5.67.12-10.35-.26-11.2-.86L1.2 85.07l-.04.6c1.08.73 6.25 1.2 12.5 1.08 5.94-.12 10.9-.73 12.24-1.46l-.07-.8z"/></g><path id="Shape" fill="#A38C68" d="M21.7 38.72l-.88-9.74c0-.02.02-.03.02-.04-.03-.3-3.66-.48-8.12-.4-4.46.1-8.08.42-8.1.72 0 .02.03.04.06.06l-.6 9.7-.03.36c1.05.26 4.6.4 8.8.32 4.4-.1 8.04-.4 8.87-.7l-.02-.28z"/></g><g id="Group" fill-rule="nonzero"><path id="Shape" fill="#968063" d="M6.88 76.22c-.9-.02-1.62.4-1.62.93v3.27l3.25.1v-3.27c0-.54-.72-1-1.62-1.03z"/><path id="Shape" fill="#231F20" d="M7.64 76.68c.25 0 .47.04.68.1-.27-.3-.8-.54-1.44-.56-.9-.02-1.62.4-1.62.93v3.27l.76.02V77.6c0-.54.73-.95 1.63-.92z" opacity=".4"/></g><g id="Group" fill-rule="nonzero"><path id="Shape" fill="#968063" d="M7.13 60.82c-.8-.02-1.46.35-1.46.83v2.96l2.93.1v-2.96c0-.48-.66-.9-1.47-.92z"/><path id="Shape" fill="#231F20" d="M7.82 61.23c.22 0 .42.05.6.1-.24-.28-.72-.5-1.3-.5-.8-.03-1.46.34-1.46.83v2.95l.7.03v-2.56c0-.5.65-.86 1.46-.84z" opacity=".4"/></g><g id="Group" fill-rule="nonzero"><path id="Shape" fill="#968063" d="M7.2 46.16c-.7-.02-1.3.3-1.3.74v2.6l2.6.1v-2.62c0-.43-.58-.8-1.3-.82z"/><path id="Shape" fill="#231F20" d="M7.8 46.52c.2 0 .38.04.54.1-.2-.26-.64-.44-1.14-.46-.7-.02-1.3.3-1.3.74v2.6l.6.03v-2.27c0-.43.6-.76 1.3-.73z" opacity=".4"/></g><g id="Group" fill-rule="nonzero"><path id="Shape" fill="#968063" d="M7.46 33.68c-.63-.02-1.13.26-1.13.64v2.27l2.26.06V34.4c0-.4-.52-.7-1.14-.72z"/><path id="Shape" fill="#231F20" d="M8 34c.15 0 .3.02.45.07-.2-.22-.56-.38-1-.4-.62 0-1.12.27-1.12.65v2.27h.52v-1.97c0-.37.5-.66 1.13-.64z" opacity=".4"/></g><g id="Group" fill="#231F20" fill-rule="nonzero" opacity=".2"><path id="Shape" d="M18.44 31.58c-.02.06-.1 1.05 0 1.07.1 0 .74-.1.74-.1l.1-1.17-.84.2zM18.7 33.05c-.02.1 0 .6 0 .6l-.46.17s-.04-.57 0-.57.46-.2.46-.2zM19.02 34.37c.05-.02.25-.14.25-.14v.45l-.25.3s-.43-.35-.32-.38c.1-.02.32-.23.32-.23zM17.74 33.9l.1 1.17-.58.24s-.54-.67-.5-.7c.07-.03.98-.7.98-.7zM6.64 38.34s-.08.6 0 .65c.1.03.53 0 .53 0s.14-.63 0-.66c-.14-.03-.53 0-.53 0zM5.3 39c.15.08.93 0 .93 0s-.1 1.4-.17 1.4c-.08 0-.8.06-.75 0 .07-.05 0-1.4 0-1.4zM18.22 65.87s-.07 1.17.15 1.17.8.3.9 0c.06-.3.02-1.06 0-1.03-.05.05-1.05-.13-1.05-.13zM19.58 67c.12.04.45 0 .45 0s.23.92 0 .92c-.22 0-.45 0-.45 0V67zM20.63 66.12s-.08 1.1 0 1.05c.07-.05.7-.16.7-.16v-1l-.7.12zM5.3 58.7s.18.95 0 .95c-.2 0-1.04 0-1.04 0s-.15-1 0-.95c.15.04 1.03 0 1.03 0zM4.55 91.1c-.03.27 0 1.04 0 1.04s.75.22.82 0c.07-.22 0-.95 0-.95l-.82-.1zM5.52 92.38c0 .08-.1.68.1.77.2.1.73.15.72.1 0-.06.18-.85 0-.87-.17-.02-.82-.1-.82 0zM4.03 92.8c0 .04 0 .72 0 .72H3.1l-.16-.9s1.1-.1 1.1.18zM1.68 93.9c0 .1-.16.5 0 .53.17.03.7 0 .7 0l-.1-.62-.6.1zM2.3 95.06s.07.5.1.58c0 .08.6.38.62.2.02-.2.07-.9 0-.87-.08.02-.73.1-.73.1z"/></g><path id="Shape" fill="#231F20" fill-rule="nonzero" d="M24.95 96.26c-1.96.18-2.26-.62-3.02-.37-4.52 1.52-3.32-.68-5.53-.44-3.42.37-6.75.75-9.58 2.06-2.84 1.3-6.36-.48-6.36-.48l-.3 5.1 27.22-.15-.65-7.45c-1.38 2.12-1.02 1.64-1.78 1.7z" opacity=".2"/></g><g fill-rule="nonzero"><g id="Group"><path id="Shape" fill="#7A7A7A" d="M770.17 429.68c.88-.52 2.44-1.08 3.52.34 1.08 1.42 1.62 2.83 1.62 3.86 0 1.03-3 .26-4.27 0-1.27-.26-.88-4.2-.88-4.2zM734.8 437.72c.1-.34.98-2.27 2.13-4.86 1.14-2.58 1.92-3.23 3.58-3.44 1.66-.22 2.47-.3 2.92 0 0 0 2.05 5.7-.93 7-3 1.28-8.5 3.73-7.7 1.3z"/><path id="Shape" fill="#919191" d="M738.1 431.35c-.6.88-1.54 2.24-.88 2.64.67.4 2.26.7 3.25.07 1-.62 1.06-1.65 1.15-2.98.1-1.34-2.04-1.96-3.52.25zM771.5 431.4c.93 1.46 1.35 1.04 2.3 1.24.92.2 1.22.12.56-1.25-.67-1.38-1.2-1.7-2.4-1.85-1.23-.15-1.6.02-.46 1.84z"/></g><g id="Group"><g id="Shape"><path fill="#575757" d="M744.7 438.67s1.4-1.78 3.04-2.63c1.64-.86 3.3.22 3.9 2.34.6 2.12-1.22 2-3.3 1.72-2.1-.3-4.36-.64-3.65-1.43z"/><path fill="#6C6D70" d="M746.5 437.78c.04-.02 1.73 1.08 2.4 1.24.74.18 1.64-1 1-2-.74-1.1 0-.44.37.14.37.58.7-.2.7-.2s.8 1.17.85 2.15c.04 1-2.82 1.24-3.52.44-.7-.8-1.8-1.76-1.8-1.76z"/><path fill="#696969" d="M747.6 436.2c.65-.36 1.5-.85 2.24 1.14.37.97-.4 1.95-2.43.53-1.17-.84-.6-1.2.2-1.66z"/></g><path id="Shape" fill="#7A7A7A" d="M749.98 438.75c.36-.6 1.93-2.33 3.2-3 1.3-.7 2.22-.86 4.4-.92 2.15-.05 4.12-.74 5.12 0 1 .75-1.56 6-4.33 6.12-2.77.12-10.06.64-8.4-2.2zM764 434.83c.73-.56.85-.56 1.48-1.08.63-.5 1.23-.8 3.7-1.07 2.47-.26 3.07.95 3.52 1.08.45.12-1.95 2.56-2.98 3.12-1.02.56-5.7-2.05-5.7-2.05z"/><path id="Shape" fill="#919191" d="M757.77 434.98c.8.07 2.44-.45 3.67-.4 1.23.08-.16.54-1.4 2-1.27 1.48-.86 3.25-1.66 2.24-.8-1.02-3.5-3-4.7-2.36-1.23.63-3.8 2.46-3.27 1.86.52-.6 1.43-1.8 3.27-2.65 1.83-.86 3.12-.78 4.1-.7z"/><g id="Shape"><path fill="#9C9C9C" d="M740.44 434.95c1.82.38 3.68.7 5.7 2.17 2 1.5 3.28 1.5 4.3 3.55 1 2.06.06 3.32-1.18 4.06-1.24.74-3.73 1.32-5.05 1.94-1.32.63-4.17.4-5.7 0-1.5-.4-4.24-.34-5.93-.63-1.68-.28-4.85-.17-5.1-2.34-.23-2.17 1.13-3.15 4.06-5.26 2.93-2.12 5.8-4.12 8.9-3.5z"/><path fill="#B2B2B2" d="M730.06 440c-.74.6-.46 3.1 1 3.27 1.46.17 2.9-1.97 4.18-2.57 1.3-.6 8.5-4.82 5.42-5.24-3.08-.4-4.55-.34-10.6 4.53z"/><path fill="#C4C4C4" d="M735.1 441.37c-.6.58-2 1.6-1.08 2.04.9.47 1.38 1.33 2.38 1.73 1 .4 6.9 1.08 9.84-1.75 2.95-2.84 2.36-4.14.6-5.2-1.77-1.06-2.92-3.46-6.2-.66-3.3 2.8-4.7 3-5.54 3.85z"/><path fill="#717275" d="M729.66 439.8c-1.63 1.3-2.36 2.25-2.18 3.9.1 1 .83 1.5 1.75 1.8.9-1.2 2.8-2.1 2.8-2.1-2.5.87-3.6-2.1-2.37-3.6z"/><path fill="#848587" d="M750.46 440.67c-.67-1.37-1.46-1.83-2.5-2.42.78 1 1.04 2.2-.02 3.76-2.12 3.15-6.2 3.67-9.08 3.66-2.9 0-4.92-1.67-5.45-2.25-.52-.56-1.9.28-1.9.28-1.26.68-1.92 1.32-2.27 1.8 1.1.37 2.45.4 3.37.57 1.7.28 4.42.22 5.94.63 1.53.4 4.38.62 5.7 0 1.32-.63 3.8-1.2 5.06-1.95 1.24-.75 2.16-2 1.16-4.06z"/><path fill="#6A6C6E" d="M733.9 441.98c-.48.44-1.25 1.1-1.9 1.3-.67.16-2.92 1.96-2.76 2.18.15.2 2.93-2.66 4.04-1.9 1.12.74 2.94 2.2 2.14 1.18-.8-1.04-2.77-1.13-1.68-2.18 1.08-1.05 2.55-2.8.14-.58z"/></g><g id="Shape"><path fill="#B2B2B2" d="M748.8 440.96c.5-1.1.94-1.93 2.54-2.96s2.25-1.95 4.15-1.04c1.9.9 2.94 1.9 3.42 3.52.48 1.63.27 4.12-3.25 4.98-3.52.86-4.84-.2-5.82.17-.98.4-3.45.6-1.04-4.67z"/><path fill="#6A6C6E" d="M752.9 442.95c-.87-1.43-.85-1.43-2.13-2.86-.37-.42-.5-.86-.52-1.28-.75.7-1.08 1.34-1.44 2.13-2.4 5.28.07 5.06 1.05 4.67.55-.2 1.2.03 2.3.13.16-.58.7-1.92.82-2.18.1-.3-.06-.62-.06-.62z"/><path fill="#848587" d="M758.92 440.47c-.13-.42-.3-.8-.5-1.14-.3 1.12-1.2 2.06-2.03 2.16-1.45.16-3.5 1.45-3.5 1.45s.18.32.07.62c-.1.26-.66 1.6-.83 2.18.86.08 1.98.08 3.53-.3 3.52-.86 3.73-3.35 3.25-4.98z"/><path fill="#626365" d="M752.1 441.37c.32.35.77 1.73 1.17 1.33.4-.4 2.03-1.14 1.77-.77-.26.37-1.16.14-1.9 1.54-.75 1.4-.75 2.5-1.03 2.12-.27-.38 1.2-1.56.5-2.73s-1.65-2.84-.5-1.5z"/><path fill="#C4C4C4" d="M751.96 437.78c.37-.17 1.58-1.43 3.24-.82 1.66.6 3.12 1.94 2.95 2.65-.17.73-1.24 1.67-2.58 1.77-1.34.1-2.14 1.67-2.63.94-.5-.73-.9-1.33-1.46-1.74-.56-.42-2.2-1.57.48-2.78z"/><path fill="#717275" d="M749 440.8c-.47.93-1.53 3.24-.85 4.34.68 1.1 1.6-.3 2.64.13 1.03.44 2.23-1.06 1.24-2.96-1-1.9-1.23-1.53-1.64-2.27-.42-.75-.67-.75-1.4.77z"/></g><g id="Shape"><path fill="#B2B2B2" d="M768.22 435.38c.95 1.02 2.05 1.54 2.44 3.6.4 2.06 1.04 4.25-2.28 5.58s-6 .44-7.1.27c-1.1-.17-1.6-1.67-2.13-3.2-.54-1.56-.47-2.4.73-4.4 1.2-2.02 5.53-4.85 8.34-1.85z"/><path fill="#818183" d="M761.87 440.96c.26-.47 6.26-5.35 7.75-4.37 0 0 2.76 4.42.33 7.04 0 0-3.98 3.08-9.35 1.1 0 0-.7-.22 1.27-3.78z"/><path fill="#767779" d="M759.44 438s1.35 2.7 2.43 2.96c0 0-1.47 2.46-1.27 3.78 0 0-.93-1.08-1.65-3.1-.72-2 .25-3.22.5-3.64z"/><path fill="#6A6C6E" d="M762.14 440.95c.53-.73 1.73-1.32 1.86-1.75.13-.43-1.5 1.4-2.13 1.37-.63-.04-1-.26-1.64-1.3-.65-1 .02.4.65 1.04.63.66 1 .74.33 1.77-.65 1.03-1.04 2.83-.6 2.06.43-.77.43-1.64 1.54-3.18z"/><path fill="#C4C4C4" d="M761.92 435.5c.13-.1 2.22-1.45 3.5-1.26 1.25.2 3.72 1.78 3.2 2-.5.2-4.07 1.82-5.37 3.2-1.3 1.4-2.17.94-2.77 0-.6-.9-.97-2.52 1.44-3.95z"/><path fill="#7D7E80" d="M759.78 439.1c.43.54 1.52 2.03 1.27 2.8-.25.74-.83 2.13-1.27 1-.43-1.13-1.1-5.2 0-3.8z"/><path fill="#858588" d="M762.38 441.37c1-1.05 1.9-2.27 4-3.37 2.14-1.1 2.64.15 2.98 1.68.34 1.53-6.54 3.96-7.78 4.64-1.25.67-.18-1.9.8-2.95z"/></g><g id="Shape"><path fill="#B2B2B2" d="M769.63 435.92c.52-1.27 2.3-3.36 4.55-3.02 2.25.34 3.92 1.07 5.46 2.7 1.54 1.65 3.4 4.92 2.4 7.63-1 2.72-4.6 2.92-6.06 2.46-1.47-.47-4.52-.64-5.2-3.2-.7-2.54-2.5-3.35-1.16-6.58z"/><path fill="#7A7A7A" d="M781.8 439.07c.2 1.6.03 3.32-1.73 3.42-2.32.1-5.16-1.1-7.17-2.47-.03 1.3-.27 2.78-.93 4.25 1.22.9 2.97 1.1 3.98 1.4 1.47.47 5.1.38 6.12-2.33.5-1.34.36-2.86-.28-4.28z"/><path fill="#78797B" d="M770.9 438.3c-.87-1.05-.92-2.33-.82-3.24-.2.3-.37.6-.48.86-1.35 3.23.47 4.04 1.15 6.6.2.8.66 1.35 1.22 1.76.66-1.47.9-2.95.93-4.25-.85-.58-1.55-1.18-2-1.73z"/></g><path id="Shape" fill="#C4C4C4" d="M772.33 433.5c-.98.26-3.1 1.82-1.87 4.12 1.22 2.3 10.58 7.13 11.13 3.37.54-3.77-4.32-8.75-9.27-7.5z"/><path id="Shape" fill="#919191" d="M777.5 442.5c1.36.46 3.18.22 3.97-.64.52-.56.4-2.28.48-2.02.57 2.06.22 4.46-1.92 5.27-4.08 1.56-3.7-.4-4.4-.97-1.1-.95-1.18-1.72-1.95-2.64-1.18-1.42 2.2.42 3.83 1z"/><path id="Shape" fill="#6A6C6E" d="M770.6 437.85c.5.52 3.23 3.17 5.8 3.92 2.56.75 4.33.7 4.86 0 .54-.68.18.8-1.75.8-3.03 0-5.86-2.3-6.2-1.58-.18.32-1.74 2.84-2 2.53-.25-.32 2.15-2.7.74-4-1.4-1.3-2.06-2.3-1.44-1.7z"/><path id="Shape" fill="#919191" d="M770.12 443.1c.82-1.6 1.56-3.6 2.43-3 .88.6.72 1.28 1.54 2 .8.74.8 2.28-.53 2.37-1.32.1-4.52.7-3.45-1.37z"/><path id="Shape" fill="#6A6C6E" d="M772.76 444.22c-.92-.25.03-1.18-.02-1.9-.06-.75-.3 1.98-1.8 1.9-.6-.04-.9-.32-1-.64-.35 1.48 2.42.97 3.63.9.16-.02.3-.05.43-.1-.44 0-.9-.07-1.24-.16z"/><path id="Shape" fill="#9E9E9E" d="M771.5 440.6c-.47.64-1 2.04-1.28 2.54-.27.5.73 1.4 1.73.26s.8-4.48-.45-2.8z"/><path id="Shape" fill="#78797B" d="M773.46 441.68c.14.47.22 2.04-.44 3.56-.67 1.53 1 1.65 1.92 1.36 0 0 1-.34.72-1.65 0 0-.13-.72-.8-1.23 0 0-.53-.66-.8-1.24-.24-.6-.6-.8-.6-.8z"/><path id="Shape" fill="#6E6F72" d="M774.85 444.07c-.17.42-.5 1.94-1.4 1.8-.88-.12-.25.87.75.8 1-.1 1.4-.47 1.43-1.34.04-.87-.66-1.57-.78-1.26z"/><path id="Shape" fill="#919191" d="M767.63 432.98c.4-.1 2.22-.28 2.96-.12.72.16.64.44-.37 1.07-1 .63-.98 2.2-1.93 1.15-1.1-1.23-4.6-1.17-.67-2.1z"/><g id="Shape"><path fill="#7D7D7D" d="M758.67 441.58c.33.36 1.03 1 1.44 2.25.42 1.25-.04 1.53-.38 1.8-.35.26-1.15.65-1.45-.3-.32-.95-.7-1.72-.48-2.78.22-1.06.44-1.44.87-.97z"/><path fill="#78797B" d="M760.2 444.1c.07.48-.82 1.13-1.3.6-.48-.55-1.13-3.34-.47-3.3-.3-.1-.46.3-.64 1.14-.23 1.06.15 1.83.46 2.78.32.95 1.12.57 1.46.3.32-.24.73-.5.47-1.53z"/><path fill="#6E6F72" d="M760.2 444.1c0 .15-.05.33-.18.5-.2.3-.54.5-.95.4-.06-.02-.6.47-.42.78 0 .05.3.4 1.07-.16.32-.23.73-.5.47-1.53z"/></g><g id="Shape"><path fill="#808080" d="M757.12 445.24c.36.42.3.55.8.35.46-.22.7-.4.63-.9-.1-.52-.4-.36-.54-.4-.12-.03-.33-.32-.88-.17-.55.16-.47.55 0 1.1z"/><path fill="#78797B" d="M758.55 444.7c-.1-.52-.4-.36-.54-.4.15.12.23.2.1.32-.15.12-.1.43-.37.43s-.46-.4-.7-.4c-.15.02-.24-.1-.27-.26-.08.2.06.48.36.84.36.42.3.55.8.35.46-.22.7-.4.63-.9z"/><path fill="#6E6F72" d="M758.1 444.74c-.02.1-.05.27-.2.35-.15.08-.34.57-.2.53.14-.03.67-.23.8-.5.14-.24 0-.6-.1-.7-.08-.1-.22.02-.3.3z"/></g></g></g></g><g id="Group" fill-rule="nonzero"><path id="Shape" fill="#B2A798" d="M885.3 440.34c.23 0 .3-.05.32-.33.04-.92.1-6.54.15-7.47.02-.2-.02-.3-.2-.4-.26-.15-.5-.33-.78-.5-.17-.08-.24-.2-.23-.42 0-.46.02-.93 0-1.4 0-.2.07-.3.23-.28.78.07 1.26-.5 1.77-1.07 1.8-2.04 3.63-4.06 5.45-6.1.32-.35.63-.7.95-1.05.3-.33.4-.32.7 0 .66.7 1.35 1.37 2.02 2.06 1.76 1.8 3.52 3.64 5.3 5.44.27.27.63.4.95.58.07.05.17.12.18.2.05.78.1 1.57.13 2.4-.36 0-.7 0-1.05 0 0 6.48 0 17.5 0 24-10.96-3.14-11.9-2.43-27.34-3.67 0-5.15 0-6.48 0-11.66l11.45-.3zM781.1 440.07c.23 0 .32-.06.33-.33.03-.93.1-6.55.15-7.48 0-.2-.03-.3-.2-.4-.26-.15-.5-.33-.78-.5-.16-.08-.23-.2-.23-.42.02-.47.02-.94.02-1.4-.02-.2.05-.3.2-.3.8.07 1.27-.5 1.78-1.06 1.8-2.05 3.63-4.07 5.45-6.1.3-.35.63-.7.95-1.06.3-.32.4-.3.7 0 .66.7 1.34 1.38 2 2.06 1.78 1.82 3.55 3.65 5.33 5.45.27.26.64.38.95.58.07.05.18.13.18.2.06.8.1 1.58.14 2.4-.36 0-.7 0-1.05 0 0 6.5 0 17.52 0 24-10.97-3.13-11.9-2.43-27.35-3.67 0-5.15 0-6.5 0-11.66l11.45-.3z"/><path id="Rectangle-path" fill="#B2A798" d="M815.2 439.05h87.06v23.93H815.2z"/><path fill="#A89F91" d="M727.18 441.2h190.85v23.7H727.18z"/><path id="Shape" fill="#B9AFA2" d="M918.02 446.3l-190.84-.5v-7.28l190.85.5z"/></g><g fill-rule="nonzero"><path id="Shape" fill="#C79E7C" d="M861.1 410.98c.2.72-1.96 4.8-2.1 5.45-.13.1-.25.22-.38.33-.26.1.17 2.23 0 2.5-.14.07-12.94-.5-13.08-.43-.25.04-.4-7.8-.65-7.76.13-.16 1.28.34 1.77-.54 2.78-4.95 10.6-1.5 11.25-1.9.35-.2 2.62 3.28 3.2 2.35z"/><path id="Shape" fill="#696968" d="M840.94 456.66c-1.1 0-2.22.2-3.1-.73-1.37-7.08-2.73-14.16-4.1-21.24-.42-2.15 0-2.7 2.1-2.7 10.5.04 21 .05 31.5.13 1.87.02 3.75-.2 5.6.17.58.35.65.9.7 1.54.06 1.08-.28 2.15-.1 3.22-.22.58-.38 1.17-.28 1.8-.13.04-.28.14-.4.12-2.14-.24-4.25.02-6.35.3-.54.08-1.25.1-1.25.8 0 .74.72.9 1.3 1 .82.15 1.65.22 2.48.32-1.05.2-2.1.3-3.14.5-.4.05-.84.2-.9.7-.05.6.42.77.83.9.35.14.72.17 1.07.26.7.17 1.46-.07 2.26.26-.6.4-1.2.2-1.7.45-.38.17-.8.32-.86.8-.06.54.43.66.77.82.33.15.7.22 1.04.32-.48 1-.28 1.44.84 1.72 1 .26 2.03.23 3.05.08-.1 1.2-.2 2.4-.3 3.6-.13 1.3-.66 1.87-1.92 2.06-.57.1-1.15.16-1.73.24-.4 0-.8 0-1.2.03-4.08.44-8.15.93-12.22 1.32-4.66.44-9.33.8-14 1.2zm.27-13.7c-.93.02-1.7.77-1.7 1.7-.04.93 1.3 2.27 2.28 2.28.88 0 1.72-.92 1.7-1.88-.03-.98-1.24-2.1-2.27-2.1z"/><path id="Shape" fill="#D8AC87" d="M848.88 412.3c-1.98-1.17-7.54-10.05-8.32-12.4-.6-1.8-.9-3.66-.9-5.57 0-.42 0-.8-.3-1.18-1.55-2.14-1.75-4.34-.24-6.6.06-.1.06-.22.08-.33.25-.08.5-.23.74-.2 1.82-2.1 2.5-2.25 4.25-3.2 1.55-.85 1.52-3.32 1.6-5.2 3.92-4.33 8.78-4.47 13.92-3.32 2.73.6 5.23 1.68 7.24 3.78.84.87 1.47 1.86 2 2.95-.14.62-.32 1.2-.06 1.87.5 1.27.8 2.58.75 3.97-.03 1.17-.03 2.35-.03 3.52 0 1.12.16 1.25 1.1.8.56-.26 1.05-.28 1.57.04.23 2.06-.17 3.97-1.34 5.7-.37.52-.8 1.06-1.47 1.07-.8.02-.94.5-1.16 1.1-1.25 3.44-3.17 6.36-6.18 8.42-.73.77-6 5.7-10.35 5.7l-2.92-.93z"/><path id="Shape" fill="#858485" d="M816.13 398.57c-2.32-1-3.23-2.7-2.6-5.3l2.6 5.3zm-9.9-12.27c.75-.9 1.64-1.48 2.86-1.24.12.03.28-.02.42-.08 2.38-.92 3.05-.66 4.4 1.84.14-.6.12-1.1.32-1.56.37-.87 1.02-1.22 1.9-1.32.84-.1 1.44.34 1.78 1.04.33.67.6.7 1.25.44 1.3-.53 2.66-.75 3.75.53.25.3.6.27.9.3 2 .23 3.36 1.26 3.94 3.27.2.7.6.8 1.27.82 1.85.07 3.25.82 3.3 2.98 0 .32.08.58.3.82.85.9 1 2.04.77 3.18-.15.73 0 1.3.23 1.94.4 1.17.52 2.4-.2 3.5-.32.46-.18.84.03 1.25.62 1.24.67 2.4-.43 3.4-.3.27-.2.52-.1.8.48 1.13.13 8.88-.14 9.97-.15.6-.35 1.2-1.04 1.33-.73.15-5.63-.42-5.97-.9-.08-.14 4.5-6.98 4.38-7.04-1.43-.82-1.44-.82-.88-2.3.1-.27.1-.4-.2-.5-.77-.2-.94-.82-.97-1.55 0-.58-.28-.8-.87-.62-1.08.3-2.18.1-3.28.1-.42 0-.7-.1-.7-.63 0-.48.18-.7.65-.68 1.23.1 2.5-.26 3.7.3.27.12.55.1.67-.16.28-.64.92-1.1 1.08-1.86-.52.04-.95.1-1.4.1-.5.03-.82.45-1.25.66-1.32.63-2.5.35-3.43-.8-.4-.5-.6-1.12-.9-1.67-.04-.37-.2-.44-.52-.3-.98.5-2 .4-3 .17-1.13-.27-1.7-1.15-1.93-2.42-.55.76.04 1.32-.07 1.9-.9-.48-1.67-.7-2.3.56-.34.73-1.15 1.1-2.05 1.03-.43-.05-.87-.1-1.16.42-.67 1.2-1.9 1.9-2.65 3.08-.35.56-.73.87-.12 1.56.74.83.88 2.03.44 3-.46.96 6.02 12.97 4.74 12.8-1.02-.12-8.63 5.57-8.85 6.4-1.8.85-3.3.54-4.1-.97-.55-1.06-.4-2.2.12-3.25.17-.34-.67-5.4.24-6.18.9-.78-.04-3.74-.08-5.6-1.37-.38-2.6-3.25-2.57-4.9.02-1.55.66-6.2 2.14-6.7 1.43-.48 1.48-.54.75-1.92-.68-1.3-.82-2.42-.4-4 .4-1.5.95-2.6 1.97-3.6.15.1 1.46-4.52 1.6-4.43l1.6-2.3zm18 1.45c1.44 1.3 1.75 2.92 1.3 5 .93-.8 1-1.62.94-2.46-.1-1.42-1-2.12-2.23-2.55zm1.32 7.07c1.18.7 1.42 1.83 1.4 3.12.44-.45.93-.84.62-1.46-.4-.83-.97-1.52-2.02-1.66z"/><path id="Shape" fill="#DDAE87" d="M806.5 424.53c1.1.15 1.1 1.2 1.38 1.92 1.46 3.84 1.3 7.76.36 11.7-.16.66-.53 1.27-1.3 1.36-.7.1-1.03-.45-1.34-.98-.1-.15-.18-.3-.27-.48-.33.32-.37.7-.42 1.08-.53 1.5-1 3.03-1 4.66-.54 1.8-.76 3.66-.88 5.52-.1 1.55-.6 3.1-.2 4.66.55 1.17 1.3 2.14 2.5 2.65.22.6.68.98 1.14 1.34 2.38 1.9 4.95 3.52 7.5 5.16.8.5 1.83.8 2.33 1.75-3.27 0-6.53 0-9.8 0-.15-.43-.5-.6-.86-.8-1.02-.62-2.02-1.26-3.03-1.9-1.46-.84-2.9-1.78-4.2-2.87-1.6-1.36-1.94-3.34-2.03-5.32-.2-4.14.44-8.23.85-12.33.42-4.1 1.53-8.02 3.18-11.76 1.2-2.72 3.06-4.8 6.1-5.34z"/><path id="Shape" fill="#DCB695" d="M822.4 401.93c.3.55.5 1.16.9 1.66.93 1.15 2.1 1.43 3.44.8.42-.2.74-.63 1.26-.66.43-.02.86-.06 1.38-.1-.16.77-.8 1.22-1.08 1.87-.1.27-.4.3-.67.16-1.2-.55-2.47-.2-3.7-.3-.47-.02-.65.2-.65.7 0 .5.28.63.7.63 1.1-.03 2.2.2 3.3-.12.57-.17.84.04.86.63.02.74.2 1.36.98 1.57.28.08.3.22.18.5-.56 1.47-.54 1.47.88 2.3.1.05.14.24.2.37-.48 1.05-.97 2.1-1.45 3.14-.48.3-.74.82-1.08 1.26-2.02 2.62-4.27 4.9-7.7 5.37-.2.05-.44.06-.56.3-.28-.14-.56-.13-.85-.15-1.95-.13-3.92-.15-5.78-.98-.43-.2-.6-.87-1.2-.65-1.18-.34-2.14-1.12-3.04-1.9-1.45-1.24-2.84-2.6-3.8-4.32.22-.83.52-1.68 1.54-1.55 1.27.16 2.12-.55 2.57-1.52.45-.96.3-2.16-.44-3-.6-.68-.23-1 .12-1.55.75-1.17 1.98-1.88 2.66-3.1.28-.5.73-.45 1.15-.4.9.07 1.72-.3 2.07-1.04.6-1.26 1.37-1.04 2.28-.57v-.02c.07.07.15.14.22.2.38 1.55 2.97 2.17 4.4 1.05.27-.22.47-.58.9-.57zm-5.95 14.37c-.5.02-.86.15-.44.72.54.74 1.18 1.36 1.98 1.77 1.73.88 4.13.1 4.85-1.57.22-.5.22-.8-.42-.7-.43.03-.86.07-1.3.1-1.57.18-3.13.23-4.65-.33zm-.83-9.35c.52-.04 1.2.1 1.9-.2.35-.15.53-.34.47-.74-.08-.4-.4-.4-.68-.4-1.4-.04-2.77-.05-4.14.24-.23.04-.44.08-.46.37-.04.36.2.4.46.5.74.3 1.5.26 2.44.25zm9.43 1.42s0 .02 0 .03c-.3 0-.6-.05-.87 0-.7.13-1.13.53-1.1 1.3 0 .65.35 1.08.97 1.16.7.1 1.2-.18 1.4-.93.05-.18 0-.48.1-.53.37-.22.64-.56.52-.93-.05-.14-.66-.07-1.02-.1zm-8.14 0c-.77 0-1.4-.03-2 .02-.64.03-1 .44-1.1 1.08-.1.6.16 1.06.68 1.28.55.23 1.15.17 1.48-.37.37-.62.62-1.32.95-2.02z"/><path id="Shape" fill="#2196F3" d="M824.45 454.3c1.14-.32 2.23-.72 3.03-1.67 1.83 3.7 3.4 7.52 4.7 11.46.2.6.26.9-.5.88-5.03-.02-10.05-.02-15.08-.03-.1 0-.2-.06-.3-.1-.5-.96-1.53-1.24-2.34-1.75-2.55-1.64-5.12-3.26-7.5-5.16-.46-.36-.92-.75-1.15-1.33.12-.3.23-.58.34-.88.15.1.3.22.46.3.83.54 1.5 1.34 2.47 1.63.33.1.67.15.92-.16.22-.3.1-.57-.13-.8-.2-.26-.26-.54-.1-.9.28.18.55.37.83.52.28.17.58.3.87.45 1.27.6 1.27.6 1.32-.82.27-.04.55-.07.83-.1.33.04.65.08.96-.1 1.85-.12 3.72-.16 5.56-.48l4.8-.97z"/><path id="Shape" fill="#C4C4C4" d="M869 457.6c1.94 1.92 3.1 4.4 4.5 6.7.27.46.1.6-.36.6-.18 0-.36 0-.55 0-10.2 0-20.42-.02-30.62.02-.97 0-1.28-.27-1.28-1.26 0-1.95.2-3.85.8-5.7.76.96 1.74 1.23 2.92 1.2 5.73-.13 11.46-.2 17.2-.32 2.12-.05 4.25-.2 6.38-.28.63-.02.95-.3 1-.95z"/><path id="Shape" fill="#DDAE87" d="M821.9 424.53c.9.66 1.1 1.44 1.7 2.06.7.76 1.4 1.54 1.87 2.47 1.36 2.72.9 4.02-2.08 5.15-2 .77-4.2.76-6.3.23-2.27-.58-3.88-2.13-5.28-4-1.47-1.94-2.45-4.15-3.3-6.43.57-.2 2.95-.2 3-.75l.27-1.85c-.07-.4-.03-.8-.03-1.2.6-.22.77.45 1.2.64 1.85.84 3.82.85 5.78 1 .3 0 .56 0 .83.12"/><path id="Shape" fill="#DDAE87" d="M820.03 423.35c-.85-.2-.28-.92-.44-1.37.1-.23.34-.24.56-.27 3.42-.47 5.67-2.74 7.7-5.36.33-.44.6-.95 1.07-1.27 2.77-1.22 5.52-2.5 8.42-3.38.46-.14.9-.3 1.4-.15.66.18.74.7.65 1.28-1.08 1.96-1.66 4.14-2.4 6.5-.2-.58-.3-.86-.16-1.16.35-.8.4-1.7.66-2.5.2-.65 0-1.36.4-1.97.2-.3-.1-.62-.35-.7-.4-.15-.58.25-.7.54-.87 1.82-1.37 3.76-1.87 5.7-.15.6-.3 1.2-.76 1.83-.3-.97-.05-1.73.06-2.5.1-.57.08-1.28-.6-1.36-.66-.06-.98.57-.92 1.18.22 2.04-.64 4.04-.17 6.1-1.83.88-3.7 1.7-5.4 2.83-1.07-.74-1.83-1.88-2.98-2.54-.7-.4-1.38-.8-2.17-1-.55-.8-1.2-1.1-2.02-.4z"/><path id="Shape" fill="#D8AC87" d="M877.57 438.86c1.9.1 2.9 1.3 2.57 3.23-.25 1.55-.78 3.04-1.36 4.5-.24.63-.8.86-1.25 1.23-1.75.13-3.5.26-5.24.4-1.03.14-2.06.17-3.07-.1-1.1-.27-1.3-.7-.82-1.7-.34-.1-.7-.18-1.03-.34-.35-.17-.83-.3-.77-.83.06-.48.48-.63.85-.8.5-.24 1.1-.04 1.7-.45-.8-.33-1.55-.1-2.25-.26-.35-.1-.72-.12-1.07-.25-.4-.13-.88-.3-.82-.9.06-.5.5-.65.9-.7 1.03-.2 2.08-.3 3.13-.5-.83-.1-1.66-.17-2.5-.3-.56-.1-1.28-.28-1.28-1 0-.73.7-.74 1.26-.8 2.1-.3 4.22-.56 6.35-.32.13.02.28-.08.4-.12 1.45.42 2.88.08 4.32 0z"/><path id="Shape" fill="#449E73" d="M869 457.6c-.05.66-.37.94-1 .96-2.13.08-4.26.23-6.4.28-5.72.12-11.45.2-17.18.32-1.18.03-2.16-.24-2.92-1.2-.2-.43-.38-.87-.56-1.3 4.66-.4 9.33-.75 14-1.2 4.06-.38 8.13-.87 12.2-1.3.4-.05.8-.04 1.2-.05.22 1.18.44 2.35.65 3.5z"/><path id="Shape" fill="#C79E7C" d="M825.73 446.86c-.25-2.77.54-5.17 2.32-7.27.54-.64.9-1.44 1.34-2.16.3 2.08.36 4.24 1.47 6.12.2.3.32.78.76.7.42-.07.44-.56.5-.92.5-2.37.7-4.8.93-7.2.06.14.15.27.17.4.63 3.42 1.23 6.85 1.94 10.25.15.7.43 1.52.1 2.3-.03.1-.05.17-.07.25-.18.08-.2.23-.2.4-1.2 3.1-2.72 3.68-6.1 2.26-1.07-1.7-2.12-3.42-3.17-5.14z"/><path id="Shape" fill="#C6C5C4" d="M835.26 449.1c.34-.78.06-1.6-.1-2.3-.7-3.4-1.3-6.83-1.93-10.25-.02-.14-.1-.27-.17-.4-.1-.64-.1-1.3-.3-1.9-.34-1.2-.07-2.15.76-3 .6-.17 1.23-.14 1.85-.17.9-.04 1.84.2 2.72-.2.38.3.83.2 1.27.2 8.84 0 17.7.02 26.54.02.74-.1 1.52.24 2.2-.24.93.5 1.92.14 2.88.24.84.1 1.67.17 1.96 1.2-1.85-.38-3.73-.15-5.6-.17-10.5-.08-21-.1-31.5-.12-2.1 0-2.52.55-2.1 2.7 1.37 7.07 2.73 14.15 4.1 21.23-.97-.24-1.1-1.14-1.27-1.9-.35-1.45-.62-2.92-.9-4.38-.06-.27-.06-.54-.4-.54z"/><g fill="#5B5B5B"><path id="Shape" d="M855.72 371.92c.5 3.02-10.43 9.48-11.53 10.9-1.56 2-1.88 2.44-4.26 3.2-.24-.03-1.5 2.53-1.74 2.6-.62-.77-.73-1.45-.45-2.4.68-2.33 4.3-10.12 6.2-11.75 1.22-1.06 10.08-3.57 11.77-2.55zM872.3 391.24c-.53-.32-1.02-.3-1.57-.04-.95.45-1.1.32-1.1-.8 0-1.18 0-2.36.02-3.53.04-1.4-.24-2.7-.75-3.97-.13-.32-17.92-.54-21.27-3.1-3.42-2.66 7.6-7.67 7.68-8 13.9.64 15.7 5.65 16.38 6.97 1.02 1.97 1.62 8.65 1.42 10.8-.06.6-.2 1.3-.8 1.67z"/></g><path id="Shape" fill="#2196F3" d="M802.6 462.16c1.02.63 2.02 1.27 3.04 1.88.35.2.7.38.87.8-1.25.28-2.53.07-3.8.13-.52.02-.6-.25-.47-.72.17-.7.43-1.36.38-2.1z"/><path id="Shape" fill="#C6C5C4" d="M835 449.75c0-.17.02-.32.2-.4 0 .18-.05.3-.2.4zM841.2 442.97c1.04 0 2.25 1.1 2.27 2.1.03.95-.8 1.88-1.7 1.87-.96 0-2.3-1.35-2.28-2.27 0-.94.77-1.7 1.7-1.7z"/><path id="Shape" fill="#5B5B5B" d="M850.78 390.1c-1.27-.13-2.58-.2-3.55-.8-.58-.37-.36-.64.26-.84 1.23-.4 4.17-.02 5.08.63.47.32.3.58-.2.8-.47.2-1.03.2-1.6.22zM863.75 392.6c-.68.05-1.35-.1-2.03-.17-.52-.05-1-.25-1.04-.63-.04-.42.53-.65 1.04-.7 1.38-.15 2.76-.05 4.07.3.3.08.5.26.5.5.02.26-.24.43-.6.53-.6.16-1.25.22-1.95.17z"/><path id="Shape" fill="#ADADAE" d="M822.4 401.93c-.42 0-.63.35-.9.57-1.43 1.12-4.02.5-4.4-1.05-.07-.06-.15-.13-.22-.2.1-.55-.48-1.1.08-1.88.23 1.27.8 2.16 1.92 2.42 1 .23 2.03.32 3-.16.32-.15.5-.08.52.3zM812.64 396.8c.56-.83.34-1.53-.32-2.15.65-.15.5-.97 1.2-1.37-.62 2.58.3 4.3 2.6 5.3-1.63.34-2.72-.25-3.48-1.78zM824.24 387.75c1.23.43 2.14 1.13 2.23 2.54.06.83 0 1.65-.95 2.46.46-2.1.15-3.7-1.28-5zM825.55 394.82c1.05.14 1.6.83 2.02 1.66.3.62-.18 1-.63 1.46.03-1.3-.2-2.42-1.4-3.12z"/><path id="Shape" fill="#C29A7F" d="M814.1 455.75c-.32.18-.64.14-.97.1-.53-.7-1.33-.86-2.3-1.34.5.8.98 1.12 1.46 1.45-.06 1.42-.06 1.42-1.32.82-.3-.14-.6-.3-.88-.45-.28-.15-.55-.34-.83-.52-.15.36-.1.64.1.9.22.23.35.5.12.8-.26.3-.6.25-.92.15-1-.28-1.65-1.1-2.48-1.62-.16-.1-.3-.2-.46-.3-.87-.7-1.62-1.6-2.8-1.77-.42-1.57.08-3.1.18-4.66.13-1.86.34-3.72.88-5.52.82 0 1.65 0 2.48-.02-.34 2.22 1.23 2.97 2.72 3.8 1.68.96 3.07 2.3 4.53 3.55.23.2.47.4.62.65.26.44.67.97.35 1.45-.34.53-.86.02-1.3-.06-.17-.04-.34-.15-.5-.23-.17-.08-.36-.2-.47.03-.1.2.02.34.18.47.76.62 1.44 1.3 1.6 2.35z"/><path id="Shape" fill="#C79E7C" d="M834.04 426.97c.53-.13 1.03-.2 1.57.1.8.4 1.64.02 2.46-.08 0 1.3.02 2.6.03 3.9-.9.37-1.82.14-2.73.18-.62.03-1.24 0-1.84.18 0-.14 0-.28 0-.42.06-.04.08-.1.05-.18.15-1.23.3-2.46.46-3.7z"/><path id="Shape" fill="#527A90" d="M841.6 414.02c-.05-.07-.1-.14-.17-.2.06.06.12.13.18.2zM844.03 413.32c-.02-.03-.05-.06-.08-.1 0 0 .04 0 .05.03.02.02.02.05.03.07z"/><path id="Shape" fill="#7B2727" d="M822.4 416.52c.65-.08.65.22.43.7-.72 1.67-3.12 2.46-4.85 1.57-.8-.42-1.44-1.04-1.97-1.77-.4-.58-.04-.7.45-.73-.15.72.28 1 .84 1.22 1.18.44 2.4.45 3.64.3.75-.1 1.26-.53 1.47-1.3z"/><path id="Shape" fill="#858485" d="M815.62 406.95c-.93 0-1.7.03-2.44-.24-.26-.1-.5-.14-.46-.5.02-.28.23-.32.46-.36 1.37-.3 2.75-.28 4.14-.25.3 0 .6 0 .67.4.05.4-.13.6-.5.76-.67.3-1.36.15-1.88.2z"/><path id="Shape" fill="#38302B" d="M825.05 408.37c.36.03.97-.04 1.02.1.12.37-.15.7-.53.93-.1.05-.04.35-.1.53-.18.75-.7 1.03-1.4.94-.6-.1-.95-.52-.97-1.17-.02-.77.42-1.17 1.1-1.3.3-.05.6 0 .88 0 0 0 0-.02 0-.03zM816.9 408.38c-.32.7-.57 1.4-.94 2-.34.55-.93.6-1.48.38-.52-.22-.77-.7-.68-1.28.1-.64.46-1.05 1.1-1.1.6-.04 1.23 0 2 0z"/><path id="Shape" fill="#F4F5F4" d="M822.4 416.52c-.2.77-.7 1.2-1.46 1.3-1.24.16-2.46.15-3.65-.3-.57-.2-1-.5-.85-1.22 1.52.56 3.08.5 4.65.35.44-.05.87-.1 1.3-.13z"/><path id="Shape" fill="#C6C5C4" d="M816.88 401.25c.07.07.15.14.22.2-.07-.06-.15-.13-.22-.2z"/><path id="Shape" fill="#7B2727" d="M857.7 406.84c-.1.02-.22.02-.32.07-3.33 1.86-6.02 1.2-8.27-2 .53-.1.9.22 1.3.47 1.16.74 2.4 1.25 3.73 1.52 1.2.23 2.38-.02 3.57-.06z"/><path id="Shape" fill="#F4F5F4" d="M857.7 406.84c-1.2.04-2.38.3-3.57.05-1.33-.28-2.57-.8-3.73-1.53-.4-.25-.77-.58-1.3-.46-.13-.38-.3-.75-.63-1.1 3.12 1.43 6.25 2.78 9.78 2.08.02.5-.6.5-.55.96z"/><path id="Shape" fill="#C79E7C" d="M812.3 455.95c-.5-.32-.97-.66-1.45-1.44.96.5 1.76.64 2.28 1.34-.28.04-.56.07-.84.1z"/><path id="Shape" fill="#D8AC87" d="M850.27 393.07c-.67.12-1.16.46-1.16 1.24 0 .7.4 1.17 1.08 1.2.72.05 1.2-.4 1.24-1.14.05-.78-.45-1.14-1.15-1.3z"/><path id="Shape" fill="#C6C5C4" d="M833.58 430.66c.03.08 0 .14-.06.18-.04-.08-.02-.14.06-.18z"/><path id="Shape" fill="#6697AB" d="M839.84 414.3c.04.6-.13 1.2.1 1.77-.2.86-.53 1.66-1.16 2.36.36-1.38.7-2.75 1.06-4.13zM847.57 418.1c-.08-.07-.15-.15-.23-.22"/><path id="Shape" fill="#38302B" d="M863.25 396.57c-.05.77-.52 1.2-1.2 1.2-.67 0-1.13-.48-1.15-1.16-.02-.73.43-1.23 1.15-1.25.72-.02 1.12.46 1.2 1.22zM850.27 393.07c.7.15 1.2.52 1.15 1.3-.04.74-.52 1.18-1.24 1.14-.67-.03-1.07-.5-1.07-1.2 0-.77.5-1.1 1.17-1.23z"/><path id="Shape" fill="#449E73" d="M867.85 418.53c-.68 2.66-.63 2.24-.65 3.26 0 .33-.02.67-.03 1-.72 2.72-1.1 5.5-1.26 8.3-8.84 0-17.7 0-26.53 0-.44 0-.9.1-1.28-.22-.02-1.3-.03-2.6-.05-3.9 1.1-.87 2-1.92 2.45-3.27.7-2.1 1.32-4.23 1.96-6.35.14-.46-2.4 3.74-2.64 3.33-.08-.73 1.68-5.7 1.02-6.23l.33-.28c-.06-.07.32-.3.26-.36-.6-.5-.12.83-.46.77 0-.55-.53 1.13-1.02 2.82-.1.28-.4 1.02-1.2 1.16-.38.07 1-5.95 1.1-5.7-.16 0-.3-.02-.45-.03.1-.6 0-1.1-.66-1.28 2.05-.23 3.78-.65 6.4-.5 0 .07-.25-.05-.25.02-.55.82-.74 1.6.24 2.25-.37 0-.74 0-1.1 0-.02-.02-.02-.05-.04-.07 0-.02-.04-.02-.06-.02.03.03.06.06.1.1-.05.64.22.97.88.9-.67.4-.15.65.17 1.33.33.72.68 1.24 1.25 1.8 1.9 1.86 3.88 1.96 6.4 2.18 1.65.14 3.85-.13 5.4-.82.26-.13-.1.87-.4.45-.4-.55-.18-1.17-.24-1.76.14-.06.28-.14.42-.2 0 .3 0 .6 0 .9.02.27-.06.67.4.63.34-.02.28-.37.3-.62 0-.44 0-.9 0-1.34.12-.1.25-.22.37-.33 0 .8-.5.47-.5 1.25 1.17 0 .02-1.13 1.14-1.15-.04.24.33-.7.3-.65-.22.26.13.37.34.75.04.07.12-.03.2-.06.4-.2.16-.18.18-.5.06-.93-.52-.62-.02-1.44.5-.83 1.65-1.25 1.54-2.07-.08-.6-.88-1.02-1.07-1.6.17-.02 1.36.1 1.46-.2 2.42.25 4.4.57 6.65 1.58.26.12.36.17.64.2-.26.1-.7.8-.52.62.67-.66-.67.44-.9 1.6-.27 1.3-.4 1.45-.42 2.77"/><path id="Shape" fill="#DDAE87" d="M874.83 413.3c.1.2.43 1.3.52 1.5.74 1.64.32 3.68.66 5.4.28 4.54.26 9.1.94 13.6.12.8.35 1.56.64 2.3.48 1.23 1.13 2.08 2.7 2.2 3.3.23 5.24 2.68 5.08 6.03-.05 1.1-.5 2-1.4 2.57-1.72 1.1-3.68 1.18-5.63 1.27-.26 0-.53-.22-.8-.34.45-.37 1-.6 1.25-1.22.58-1.46 1.1-2.95 1.36-4.5.33-1.94-.68-3.13-2.57-3.24-1.46 1.55-3.35 1.15-4.3 0-.2-1.08.43-3.94.36-5.02-.04-.63-.1-1.2-.7-1.54-.28-1.03-1.1-1.1-1.95-1.2-.96-.1-1.95.25-2.87-.24-.08-.55-.2-1.1-.26-1.67-.23-2.13-.44-4.26-.67-6.4 0-.33.03-.67.03-1 .03-1.03.05-.05-.16-1.44l-.1-.9c0-.44-.02-.66 0-.87 0-1.33.2-2.2.8-3.93.42-1.24.6-1.6 1.84-2.02.17-.06.32-.15.48-.22.8-.3 1.63-.07 2.44 0 1.14.13 1.04.06 1.78.4"/><path id="Shape" fill="#fff" d="M819.67 455.26c-1.85.33-3.72.37-5.58.5-.15-1.06-.84-1.73-1.6-2.36-.15-.13-.27-.28-.17-.47.1-.22.3-.1.47-.02.17.1.33.2.5.24.44.08.96.6 1.3.06.32-.48-.1-1-.35-1.45-.15-.25-.4-.45-.6-.64-1.47-1.24-2.87-2.58-4.54-3.53-1.5-.84-3.06-1.6-2.72-3.8-.13-1.68-.65-3.22-1.47-4.65.06-.38.1-.76.43-1.08.1.17.2.33.28.48.3.53.64 1.07 1.34 1 .77-.1 1.14-.7 1.3-1.38.94-3.93 1.1-7.85-.36-11.7-.28-.7-.28-1.76-1.37-1.9.68-.2 1.3-.5 2.02-.52.85 2.28 1.83 4.5 3.3 6.44 1.4 1.86 3 3.4 5.28 4 2.1.52 4.3.53 6.3-.23 2.98-1.14 3.44-2.44 2.08-5.16-.47-.93-1.17-1.7-1.9-2.48-.56-.63-3.76-3.9-4.18-4.68 1.34-.38.15-.13 1.34-.38.78.2 2.78 2.8 3.48 3.22 1.15.66 1.9 1.8 3 2.55.8 1.1 1.76 2.1 2.4 3.34 1.18 2.3.85 4.57-.23 6.8-.45.72-.8 1.52-1.35 2.15-1.78 2.1-2.57 4.5-2.32 7.26-.1.9.1 1.74.34 2.57.13.4.1 1.07.56 1.15.87.15.83.83.98 1.42-.03.2-.07.42-.1.63-.82.95-1.9 1.35-3.04 1.67"/><path id="Shape" fill="#D8AC87" d="M834.04 426.97c-.2-1.02-1.03-1.63-1.45-2.5-.48-2.05.38-4.05.17-6.1-.07-.6.25-1.24.9-1.16.7.1.7.8.6 1.37-.1.77-.36 1.53-.04 2.5.45-.64.6-1.24.75-1.83.5-1.94 1-3.9 1.86-5.7.13-.3.3-.7.7-.55.26.08.57.4.36.7-.4.6-.2 1.32-.4 1.96-.27.82-.32 1.7-.66 2.5-.13.3-.05.6.16 1.18.74-2.37 1.32-4.55 2.4-6.5.15 0 .3 0 .44.02 0 .48 0 .96 0 1.44-.35 1.37-.7 2.75-1.06 4.12.63-.7.97-1.5 1.17-2.35.26-.6.52-1.23.78-1.84.35.06.1-.92.7-.42.06.08.12.15.18.22V414c-.52 2.06-1.04 4.1-1.56 6.17.72-.5.8-1.32 1.13-2 .34-.72.3-1.66 1.1-2.13.23.4.33.85.2 1.3-.65 2.13-1.27 4.27-1.97 6.37-.46 1.36-1.36 2.4-2.44 3.3-.82.1-1.65.48-2.46.06-.53-.28-1.03-.22-1.56-.1z"/><path id="Shape" fill="#fff" d="M845.26 411.05c.67 0 .73 3.25 1.34 3.82 4.4 4.08 5.77 3.45 6.92 3.42 1.46-.24 5.13-1.4 6.36-4.62.64-1.54.98-2.67 1.23-2.7 1.65-.15.7-.16 1.46-.22.52-.04-.96 4.58-1.23 4.7-2.12 4.97-7.08 5.26-8.73 5.12-2.52-.22-7.26-2.55-8.22-5.07-.46-1.2-.8-3.74-1.13-4.46h2z"/><path id="Shape" fill="#DBC453" d="M824.37 454.3l-4.7.97"/></g></g></g><g><path id="Shape" fill="#fff" fill-rule="nonzero" d="M1072.04 218.13l-6.75 22.38-33 40.03-157.7 7.58-9.33-41.55-9.15-38.48 215.92 10.06zm-214.52-8.7l9.04 37.35 9.2 40.33 155.65-7.35 32.57-38.83 6.66-21.72-213.1-9.76zM1060.9 270.03v10.3l-10.8 6.4 8.06 25.92-35.28-19.77v-22.85h38zm-37.37.7v21.6l33.57 18.9-8.12-24.72 11.02-6.64v-9.12h-36.47z"/><g id="Group" fill-rule="nonzero"><path id="Shape" fill="#2196F3" d="M1045.26 281.75l8.44 32.6-26.83-24.47z"/><path id="Shape" fill="#1E81C4" d="M1027.5 275.36l-.63 14.52 36.8-13.5z"/><path id="Shape" fill="#2196F3" d="M864.7 214.07l3.2 67.68 195.75-5.05 1.58-53.08z"/></g><g fill-rule="nonzero"><path id="Shape" fill="#E2E2E2" d="M866.53 252.76l-.38-13.1-14.12 6.62z"/><path id="Shape" fill="#545454" d="M852.03 246.28l65.62-5.13-2.8 26.4-48.45 2.44z" opacity=".4"/><path fill="#fff" d="M852.03 246.28l62.54-2.6-2.63 28.34-58.48 1.02z"/></g><g fill="#2196F3"><path d="M866.4 265.44L864 262h1.27l1.8 2.66 1.84-2.66h1.27l-2.4 3.44 2.5 3.56h-1.3l-1.9-2.77-1.86 2.77h-1.3z"/><path d="M859 253.38c0-.4.06-.78.2-1.12.1-.34.3-.63.5-.87.24-.26.5-.45.82-.58.3-.14.65-.2 1.02-.2.25 0 .5.02.75.1.24.06.48.15.7.28v.6c-.22-.14-.46-.26-.7-.34-.23-.08-.46-.1-.7-.1-.28 0-.54.04-.78.15-.25.12-.45.27-.62.47-.17.2-.3.44-.4.7-.1.28-.15.58-.15.9 0 .33.05.63.15.9.1.28.23.5.4.7.17.2.37.37.62.47.24.1.5.17.8.17.22 0 .45-.03.7-.1.22-.1.46-.2.7-.36v.62c-.24.12-.48.22-.73.28-.26.07-.5.1-.76.1-.37 0-.7-.06-1.02-.2-.32-.14-.58-.33-.8-.57-.23-.25-.4-.54-.53-.88-.14-.35-.2-.72-.2-1.12zm4.73 0c0-.4.06-.78.18-1.12.13-.34.3-.63.52-.88.22-.24.48-.43.78-.57.3-.12.64-.2 1-.2.37 0 .7.08 1 .2.3.15.57.34.8.58.2.25.38.54.5.88.13.34.2.7.2 1.12 0 .4-.07.77-.2 1.1-.12.35-.3.64-.5.9-.23.24-.5.43-.8.56-.3.14-.63.2-1 .2-.36 0-.7-.06-1-.2-.3-.13-.56-.32-.78-.57-.22-.25-.4-.54-.5-.88-.13-.35-.2-.72-.2-1.12zm.65 0c0 .32.04.62.13.9.1.27.22.5.38.7.17.2.36.36.58.46.23.1.48.17.75.17.28 0 .52-.05.75-.16.22-.1.42-.26.58-.45.16-.2.28-.45.37-.72.1-.28.13-.58.13-.9 0-.33-.04-.63-.13-.9-.1-.28-.2-.52-.37-.7-.16-.2-.36-.36-.58-.47-.23-.1-.47-.15-.74-.15-.26 0-.5.05-.74.16-.22.12-.4.27-.58.47-.16.2-.28.43-.37.7-.08.28-.12.58-.12.9zm5.47-2.68h.56l1.9 2.7 1.9-2.7h.56v5.35h-.6v-4.3l-1.65 2.33h-.4l-1.64-2.34v4.3h-.6v-5.34zm6.46 0h1.67c.26 0 .5.04.72.12.2.08.4.2.56.34.16.15.28.32.38.52.1.2.13.43.13.67 0 .24-.04.47-.13.67-.1.2-.22.37-.38.52-.16.14-.35.26-.57.34-.23.08-.47.12-.73.12h-1.04v2.05h-.62v-5.35zm.63 2.8h.94c.2 0 .36-.03.5-.1.17-.04.3-.12.4-.22.12-.1.2-.22.26-.36.06-.14.1-.3.1-.47 0-.17-.04-.33-.1-.47-.06-.14-.14-.26-.25-.36-.1-.1-.24-.18-.4-.23-.15-.07-.32-.1-.5-.1h-.95v2.3zm4.55-.07h.9c.2 0 .36-.03.5-.08.16-.06.3-.13.4-.23.1-.1.18-.22.24-.35.06-.13.1-.28.1-.45 0-.16-.04-.3-.1-.45-.06-.13-.14-.25-.25-.35-.1-.1-.23-.18-.38-.23-.16-.07-.33-.1-.5-.1h-.92v2.23zm-.62-2.73h1.62c.26 0 .5.04.72.12.22.08.4.2.56.33.16.14.28.3.37.5.1.2.13.43.13.67 0 .4-.1.72-.32 1-.22.26-.52.44-.9.55l1.36 2.18h-.7l-1.3-2.1h-.92v2.1h-.62v-5.35zm4.7 0h3.07v.52h-2.43v1.86h2.12v.5h-2.12v1.96h2.5v.5h-3.13v-5.34zm1.9-1.7h.64l-.9 1.15h-.54l.8-1.15z"/><path d="M877.9 268.28c-.6-.07-1.18-.23-1.76-.47v-1.74c.75.47 1.5.7 2.24.7.34 0 .6-.07.8-.2.2-.14.3-.32.3-.55 0-.18-.1-.34-.26-.44-.18-.1-.4-.2-.64-.3-.26-.08-.54-.17-.84-.27-.3-.1-.6-.23-.84-.4-.25-.15-.47-.36-.64-.63-.17-.26-.26-.6-.26-1.03 0-.52.17-.96.5-1.32.35-.37.8-.63 1.4-.8V259h1.7v1.72c.52.07 1.03.2 1.55.4v1.7c-.66-.4-1.34-.58-2.04-.58-.3 0-.56.06-.75.18-.2.12-.3.3-.3.5 0 .18.1.32.27.42.17.1.38.2.64.27.25.1.53.18.84.28.3.1.58.22.83.4.26.16.47.38.65.65.17.27.25.62.25 1.06 0 .53-.17 1-.52 1.37-.34.4-.8.66-1.4.8V270h-1.7v-1.72zm7.36-5.73l-1.98 1.02v-1.73l2.7-1.37h1.32v8.06h-2.04v-5.98zm4.1 1.95c0-.62.07-1.18.23-1.7.15-.5.37-.95.66-1.3.3-.38.63-.67 1.04-.87.4-.2.84-.3 1.33-.3.48 0 .92.1 1.32.3.4.2.74.5 1.03.86.3.35.5.8.67 1.3.16.52.24 1.08.24 1.7 0 .62-.1 1.18-.25 1.7-.16.5-.38.95-.67 1.3-.3.38-.63.67-1.03.87-.4.2-.84.3-1.32.3-.5 0-.93-.1-1.33-.3-.4-.2-.75-.5-1.04-.86-.3-.35-.5-.8-.67-1.3-.17-.52-.25-1.08-.25-1.7zm2 0c0 .78.1 1.4.34 1.85.22.46.53.68.93.68s.7-.22.92-.68c.22-.45.33-1.07.33-1.85 0-.8-.1-1.4-.33-1.86-.22-.45-.53-.67-.92-.67-.4 0-.7.22-.93.67-.23.45-.34 1.07-.34 1.86zm5.12 3.08c0-.32.1-.6.32-.8.2-.2.5-.3.83-.3.35 0 .62.1.83.3.2.2.32.48.32.8 0 .32-.1.6-.32.8-.2.2-.48.3-.83.3-.34 0-.62-.1-.83-.3-.2-.2-.32-.48-.32-.8zm8.37-5.47H902v1.33c.2-.02.38-.03.6-.03.4 0 .77.06 1.1.17.34.12.63.3.87.5.24.23.42.5.56.8.14.32.2.67.2 1.05 0 .4-.08.78-.24 1.1-.17.35-.4.64-.68.88-.3.24-.63.43-1.03.57-.42.14-.86.2-1.33.2-.7 0-1.37-.15-2.04-.45v-1.8c.64.4 1.26.6 1.84.6.42 0 .76-.1 1.02-.3.25-.2.38-.47.38-.8 0-.33-.14-.6-.4-.8-.27-.2-.62-.32-1.06-.32-.26 0-.53.02-.8.06-.26.03-.53.1-.8.18v-4.57h4.63v1.64z"/></g><g fill="#fff"><path d="M936.25 238.86l-3.25 1.76v-3l4.43-2.38h2.2v13.97h-3.38v-10.34zm6.74 3.37c0-1.07.13-2.05.4-2.94.25-.9.62-1.65 1.1-2.3.47-.63 1.04-1.12 1.7-1.47.67-.35 1.4-.53 2.2-.53.8 0 1.52.18 2.18.53.66.35 1.22.84 1.7 1.48.47.65.84 1.4 1.1 2.3.27.88.4 1.86.4 2.93 0 1.06-.13 2.04-.4 2.93-.26.9-.63 1.65-1.1 2.28-.48.64-1.04 1.13-1.7 1.48-.66.36-1.38.53-2.18.53-.8 0-1.53-.17-2.2-.53-.66-.35-1.23-.84-1.7-1.48-.48-.63-.85-1.4-1.1-2.28-.27-.9-.4-1.87-.4-2.93zm3.3 0c0 1.35.2 2.42.56 3.2.38.8.9 1.18 1.54 1.18.65 0 1.15-.38 1.52-1.17.37-.78.55-1.85.55-3.2 0-1.37-.18-2.44-.55-3.22-.37-.77-.87-1.16-1.52-1.16s-1.16.4-1.54 1.17c-.37.8-.56 1.86-.56 3.23zm14.55-7h3.4v5.5h5.6v-5.5h3.37v13.98h-3.37v-5.74h-5.6v5.75h-3.4v-13.96zm14.83 7c0-1.06.17-2.03.5-2.92.36-.87.85-1.63 1.48-2.27.63-.64 1.37-1.13 2.23-1.5.85-.35 1.8-.53 2.84-.53 1.03 0 1.98.18 2.85.54.85.36 1.6.85 2.22 1.5.63.63 1.1 1.4 1.45 2.27.35.9.52 1.87.52 2.93 0 1.05-.18 2.02-.53 2.9-.34.9-.82 1.66-1.45 2.3-.62.63-1.37 1.13-2.23 1.48-.88.37-1.83.55-2.86.55-1.04 0-2-.18-2.85-.54-.87-.34-1.6-.84-2.24-1.48-.63-.63-1.12-1.4-1.47-2.28-.35-.9-.52-1.86-.52-2.9zm3.47 0c0 .65.1 1.24.26 1.77.2.54.43 1 .74 1.38.32.4.7.7 1.14.9.45.22.94.33 1.46.33.53 0 1.02-.1 1.46-.3.44-.23.82-.53 1.13-.92.32-.38.57-.84.75-1.38.17-.53.26-1.12.26-1.77 0-.65-.1-1.25-.26-1.78-.18-.53-.43-1-.75-1.38-.3-.4-.7-.7-1.13-.9-.44-.22-.93-.33-1.46-.33-.52 0-1 .1-1.46.33-.44.2-.82.5-1.14.9-.3.4-.55.85-.73 1.38-.16.53-.25 1.13-.25 1.78zm16.4-.6h1.56c.6 0 1.06-.2 1.44-.54.37-.36.56-.8.56-1.33 0-.55-.2-1-.56-1.34-.38-.34-.85-.5-1.43-.5h-1.54v3.7zm-3.3-6.4h5.3c.72 0 1.38.13 1.98.35.6.22 1.13.53 1.57.93.44.4.78.9 1.02 1.44.25.56.37 1.17.37 1.83 0 .9-.24 1.7-.68 2.4-.45.7-1.08 1.25-1.9 1.64l3.12 5.4h-3.62l-2.72-4.92h-1.14v4.93h-3.3v-13.96zm16.74 0h2.9l5.48 13.98h-3.3l-1.07-2.87h-5.13l-1.06 2.88h-3.3l5.5-13.96zm-.2 8.58h3.28l-1.63-4.48-1.64 4.5zm9.7 1.73c.64.42 1.3.73 1.97.94.67.2 1.33.3 1.98.3.65 0 1.18-.15 1.58-.44.4-.3.6-.7.6-1.16 0-.4-.16-.7-.48-.92-.32-.23-.72-.43-1.2-.6-.48-.18-1-.36-1.55-.54-.56-.17-1.07-.42-1.56-.72-.48-.3-.88-.7-1.2-1.2-.3-.5-.47-1.17-.47-1.98 0-.62.13-1.2.38-1.7.26-.52.62-.96 1.08-1.33.46-.38 1-.66 1.66-.87.63-.2 1.34-.3 2.1-.3.66 0 1.3.06 1.95.18.64.12 1.3.3 1.94.57v2.96c-.62-.34-1.23-.6-1.84-.77-.6-.17-1.2-.25-1.8-.25-.63 0-1.13.13-1.52.4-.4.28-.58.63-.58 1.08 0 .38.16.68.48.9.32.2.7.4 1.2.57.46.17.98.35 1.54.53.56.18 1.08.43 1.55.74.48.3.87.72 1.2 1.23.3.5.47 1.17.47 2 0 .63-.13 1.22-.4 1.75-.26.54-.63 1-1.1 1.37-.46.38-1.02.68-1.67.9-.65.2-1.36.3-2.13.3-1.42 0-2.82-.3-4.2-.9v-3.02z"/><path d="M933 263v-8.13h2.66c.6 0 1.07.04 1.38.12.45.1.82.3 1.14.57.4.36.7.82.9 1.4.2.55.32 1.2.32 1.92 0 .6-.07 1.16-.2 1.63-.15.48-.32.87-.54 1.2-.2.3-.45.54-.7.72-.26.18-.57.32-.93.4-.36.1-.77.15-1.24.15H933zm1.02-.96h1.66c.5 0 .9-.05 1.2-.15.3-.1.52-.25.7-.43.23-.26.42-.6.56-1.03.13-.43.2-.95.2-1.57 0-.85-.13-1.5-.4-1.96-.26-.44-.6-.75-.97-.9-.27-.1-.7-.17-1.32-.17h-1.63v6.2zm6.8.96v-8.13h5.6v.96h-4.57v2.5h4.28v.94h-4.28v2.77h4.75v.96h-5.77zm10.37 0v-8.13h1V263h-1zm2.8 0v-8.13h1.06l4.06 6.38v-6.38h.98V263h-1.05l-4.06-6.4v6.4h-1zm9.8 0v-7.17h-2.56v-.96h6.13v.96h-2.56V263h-1zm4.64 0v-8.13h5.6v.96h-4.57v2.5h4.28v.94h-4.28v2.77h4.75v.96h-5.78zm7.2 0v-8.13h3.44c.7 0 1.2.07 1.57.22.36.14.65.4.86.76.22.37.33.78.33 1.23 0 .57-.18 1.05-.53 1.45-.36.4-.9.64-1.65.75.27.14.48.27.62.4.3.3.58.66.85 1.1l1.35 2.2h-1.3l-1.02-1.7c-.3-.48-.54-.85-.73-1.1-.2-.27-.37-.45-.52-.55-.16-.1-.3-.18-.47-.22-.12-.03-.3-.04-.57-.04h-1.2v3.6h-1zm1.03-4.54h2.2c.47 0 .84-.05 1.1-.15.26-.1.46-.26.6-.48.14-.23.2-.47.2-.73 0-.4-.13-.7-.4-.96-.26-.25-.68-.37-1.25-.37h-2.45v2.7zm6.76 4.54v-8.13h1.05l4.06 6.38v-6.38h.98V263h-1.05l-4.06-6.4v6.4h-.97zm7.83 0v-8.13h5.6v.96h-4.57v2.5h4.26v.94h-4.27v2.77h4.73v.96h-5.77zm9.16 0v-7.17h-2.55v-.96h6.13v.96h-2.56V263h-1.02z"/></g></g></g></g></svg>