<?xml version="1.0" encoding="UTF-8"?>
<svg width="40px" height="40px" viewBox="0 0 40 40" version="1.1" xmlns="http://www.w3.org/2000/svg" xmlns:xlink="http://www.w3.org/1999/xlink">
    <!-- Generator: Sketch 48.2 (47327) - http://www.bohemiancoding.com/sketch -->
    <title>american-express_squar/40px@1x</title>
    <desc>Created with Sketch.</desc>
    <defs></defs>
    <g id="Symbols" stroke="none" stroke-width="1" fill="none" fill-rule="evenodd">
        <g id="american-express_squar/40px">
            <rect id="Rectangle-9" x="0" y="0" width="40" height="40"></rect>
            <g id="american-express-(1)-copy" transform="translate(0.000000, 6.000000)" fill-rule="nonzero">
                <path d="M40,25.2563281 C40,26.5622656 38.9414062,27.6209375 37.6355469,27.6209375 L2.36445312,27.6209375 C1.05859375,27.6210156 0,26.5622656 0,25.2563281 L0,2.39976563 C0,1.09390625 1.05859375,0.035234375 2.36445312,0.035234375 L37.6355469,0.035234375 C38.9414844,0.035234375 40,1.09390625 40,2.39976562 L40,25.2563281 Z" id="Shape" fill="#5394DD"></path>
                <path d="M1.68101562,25.2563281 L1.68101562,2.39976563 C1.68101562,1.09390625 2.73976562,0.035234375 4.045625,0.035234375 L2.364375,0.035234375 C1.05859375,0.035234375 0,1.09382813 0,2.39976563 L0,25.2564063 C0,26.5623438 1.05859375,27.6210156 2.36445312,27.6210156 L4.04570312,27.6210156 C2.73984375,27.6210156 1.68101562,26.5622656 1.68101562,25.2563281 Z" id="Shape" fill="#202121" opacity="0.15"></path>
                <g id="Group" transform="translate(2.812500, 8.125000)" fill="#FFFFFF">
                    <polygon id="Shape" points="3.01484375 2.9490625 4.21 2.9490625 3.61257812 1.42796875"></polygon>
                    <polygon id="Shape" points="9.37078125 8.05523437 9.37078125 8.7615625 11.3808594 8.7615625 11.3808594 9.52226562 9.37078125 9.52226562 9.37078125 10.3373437 11.5980469 10.3373437 12.6301562 9.19625 11.6524219 8.05523437"></polygon>
                    <polygon id="Shape" points="25.0701563 1.42796875 24.4182031 2.9490625 25.6678125 2.9490625"></polygon>
                    <polygon id="Shape" points="15.1834375 10.7714844 15.1834375 7.67507812 13.7709375 9.19625"></polygon>
                    <path d="M17.8453125,8.544375 C17.7909375,8.2184375 17.5734375,8.05523437 17.2473437,8.05523437 L16.1067969,8.05523437 L16.1067969,9.0330469 L17.3020312,9.03304688 C17.6278906,9.033125 17.8453125,8.87023438 17.8453125,8.544375 Z" id="Shape"></path>
                    <path d="M21.6476562,8.9246875 C21.7563281,8.87023437 21.8108594,8.70710937 21.8108594,8.54445312 C21.8652344,8.32734375 21.7563281,8.21851562 21.6476562,8.16414062 C21.5392969,8.10976562 21.3760937,8.10976562 21.2133594,8.10976562 L20.1266406,8.10976562 L20.1266406,8.9790625 L21.2132812,8.9790625 C21.3760156,8.9790625 21.5392187,8.9790625 21.6476562,8.9246875 Z" id="Shape"></path>
                    <path d="M29.4700781,0.01546875 L29.4700781,0.66734375 L29.144375,0.01546875 L26.5914062,0.01546875 L26.5914062,0.66734375 L26.2653125,0.01546875 L22.7885937,0.01546875 C22.1910937,0.01546875 21.7019531,0.12421875 21.2675781,0.341484375 L21.2675781,0.01546875 L18.823125,0.01546875 L18.823125,0.06984375 L18.823125,0.341484375 C18.5515625,0.124296875 18.225625,0.01546875 17.7910156,0.01546875 L9.04492188,0.01546875 L8.44710938,1.37359375 L7.8496875,0.01546875 L5.89414063,0.01546875 L5.07921875,0.01546875 L5.07921875,0.66734375 L4.80757813,0.01546875 L4.75320313,0.01546875 L2.41734375,0.01546875 L1.33070312,2.56859375 L0.08140625,5.3390625 L0.0584375,5.39351563 L0.08140625,5.39351563 L2.85195312,5.39351563 L2.88664062,5.39351563 L2.90632812,5.3390625 L3.23242187,4.524375 L3.93859375,4.524375 L4.26453125,5.39351563 L7.415,5.39351563 L7.415,5.3390625 L7.415,4.74164063 L7.68679687,5.3934375 L9.26203125,5.3934375 L9.53351562,4.74164063 L9.53351562,5.3390625 L9.53351562,5.39351563 L10.7829687,5.39351563 L17.0302344,5.39351563 L17.0846094,5.39351563 L17.0846094,3.98101562 L17.1935156,3.98101562 C17.3020312,3.98101562 17.3020312,3.98101562 17.3020312,4.1440625 L17.3020312,5.33914062 L21.2133594,5.33914062 L21.2133594,5.01320312 C21.5392969,5.17640625 22.0278906,5.33914062 22.6798437,5.33914062 L24.3097656,5.33914062 L24.6357031,4.47015625 L25.3960156,4.47015625 L25.7219531,5.33914062 L28.8725781,5.33914062 L28.8725781,4.79601562 L28.8725781,4.52445312 L29.3617187,5.33914062 L29.4700781,5.33914062 L29.5246094,5.33914062 L31.9148437,5.33914062 L31.9148437,0.01546875 L29.4702344,0.01546875 L29.4700781,0.01546875 Z M11.0547656,4.57882813 L10.5114063,4.57882813 L10.1855469,4.57882813 L10.1855469,4.253125 L10.1855469,1.5909375 L10.1311719,1.71554688 L10.1311719,1.7140625 L8.86742187,4.57882812 L8.82742188,4.57882812 L8.536875,4.57882812 L8.06679688,4.57882812 L6.763125,1.5909375 L6.763125,4.57882812 L4.91625,4.57882812 L4.53601563,3.76398437 L2.68882812,3.76398437 L2.30851562,4.57882812 L1.35359375,4.57882813 L2.960625,0.77609375 L4.31859375,0.77609375 L5.83960937,4.41570312 L5.83960937,0.77609375 L6.16546875,0.77609375 L7.27882812,0.77609375 L7.30445313,0.830546875 L7.30632813,0.830546875 L7.99171875,2.32226562 L8.48390625,3.43992187 L8.50132813,3.38359375 L9.58773438,0.776171875 L11.0546875,0.776171875 L11.0547656,4.57882813 Z M14.8032031,1.5909375 L12.6845313,1.5909375 L12.6845313,2.29710937 L14.7488281,2.29710937 L14.7488281,3.05757813 L12.6845313,3.05757813 L12.6845313,3.81835938 L14.8032031,3.81835938 L14.8032031,4.63296875 L11.7610938,4.63296875 L11.7610938,0.776171875 L14.8032031,0.776171875 L14.8032031,1.5909375 Z M18.6778125,2.99171875 C18.6792188,2.99296875 18.6810156,2.99382812 18.6827344,2.995 C18.7032813,3.01671875 18.7208594,3.03851562 18.7358594,3.059375 C18.8399219,3.19578125 18.9240625,3.39867188 18.9282813,3.69617188 C18.9285938,3.70132813 18.9288281,3.70640625 18.9291406,3.7115625 C18.9291406,3.71453125 18.9296875,3.71710938 18.9296875,3.72015625 C18.9296875,3.721875 18.9295313,3.72320313 18.9295313,3.72484375 C18.9307813,3.75476563 18.9315625,3.7853125 18.9315625,3.81835938 L18.9315625,4.57890625 L18.116875,4.57890625 L18.116875,4.14414063 C18.116875,3.926875 18.116875,3.60085938 17.9536719,3.38359375 C17.9023438,3.33226563 17.8503906,3.2984375 17.7938281,3.274375 C17.7124219,3.22164063 17.558125,3.22078125 17.3020313,3.22078125 L16.3239063,3.22078125 L16.3239063,4.57890625 L15.400625,4.57890625 L15.400625,0.776171875 L17.4650781,0.776171875 C17.9536719,0.776171875 18.2797656,0.776171875 18.5514844,0.939140625 C18.8176563,1.09898438 18.9784375,1.3640625 18.9845313,1.78382813 C18.9719531,2.36195313 18.6008594,2.67914063 18.3340625,2.78609375 C18.3340625,2.78609375 18.5153125,2.82257812 18.6778125,2.99171875 Z M20.5071094,4.57882813 L19.5835156,4.57882813 L19.5835156,0.77609375 L20.5071094,0.77609375 L20.5071094,4.57882813 Z M31.1002344,4.57882813 L29.9049219,4.57882813 L28.1666406,1.69953125 L28.1666406,4.08976563 L28.1609375,4.08414063 L28.1609375,4.58117188 L27.2432031,4.58117188 L27.2432031,4.57890625 L26.3196094,4.57890625 L25.9936719,3.7640625 L24.0921875,3.7640625 L23.76625,4.63304687 L22.7341406,4.63304687 C22.2998437,4.63304687 21.75625,4.52453125 21.4304687,4.19859375 C21.1045312,3.87265625 20.9417187,3.43804688 20.9417187,2.73195312 C20.9417187,2.18875 21.0502344,1.64515625 21.4304687,1.21070312 C21.701875,0.88453125 22.1910156,0.776171875 22.7884375,0.776171875 L23.6578125,0.776171875 L23.6578125,1.5909375 L22.7884375,1.5909375 C22.4625,1.5909375 22.2998437,1.64507812 22.0821094,1.80835937 C21.9194531,1.97125 21.8107031,2.29710937 21.8107031,2.67734375 C21.8107031,3.11203125 21.8650781,3.38359375 22.0821094,3.60085937 C22.2454687,3.7640625 22.4625781,3.8184375 22.7341406,3.8184375 L23.114375,3.8184375 L24.3636719,0.830703125 L24.9071875,0.830703125 L25.721875,0.830703125 L27.243125,4.4703125 L27.243125,4.2846875 L27.243125,3.05773437 L27.243125,2.94921875 L27.243125,0.83078125 L28.6010937,0.83078125 L30.1761719,3.4925 L30.1761719,0.83078125 L31.1000781,0.83078125 L31.1000781,4.57898437 L31.1002344,4.57898437 L31.1002344,4.57882813 Z" id="Shape"></path>
                    <path d="M17.9032031,2.35992187 C17.9190625,2.34296875 17.9334375,2.32375 17.945625,2.30171875 C17.9948438,2.22382812 18.05125,2.08351562 18.0208594,1.89203125 C18.0196094,1.87445313 18.0164062,1.85820313 18.0126562,1.8425 C18.0116406,1.838125 18.0117969,1.83429688 18.010625,1.82992188 L18.0100781,1.83 C17.9830469,1.73695313 17.9140625,1.67976563 17.8452344,1.64507813 C17.7363281,1.5909375 17.5733594,1.5909375 17.4104687,1.5909375 L16.3238281,1.5909375 L16.3238281,2.46023438 L17.4104687,2.46023438 C17.5733594,2.46023438 17.7364063,2.46023438 17.8452344,2.40578125 C17.8615625,2.3975 17.8760937,2.38625 17.8900781,2.37351563 L17.8902344,2.37421875 C17.8903125,2.37414063 17.8958594,2.36835938 17.9032031,2.35992187 Z" id="Shape"></path>
                    <path d="M34.3050781,10.01125 C34.3050781,9.63101562 34.1965625,9.250625 34.0336719,8.9790625 L34.0336719,6.53460938 L34.0311719,6.53460938 L34.0311719,6.37140625 C34.0311719,6.37140625 31.7542188,6.37140625 31.4153125,6.37140625 C31.0765625,6.37140625 30.6654687,6.69726563 30.6654687,6.69726563 L30.6654687,6.37140625 L28.1667188,6.37140625 C27.78625,6.37140625 27.2976563,6.48015625 27.0800781,6.69726563 L27.0800781,6.37140625 L22.6257031,6.37140625 L22.6257031,6.53460938 L22.6257031,6.6971875 C22.3,6.42578125 21.7019531,6.37132813 21.4305469,6.37132813 L18.4970313,6.37132813 L18.4970313,6.53453125 L18.4970313,6.69710938 C18.2254688,6.42570313 17.5732813,6.37125 17.2471875,6.37125 L13.9882812,6.37125 L13.2275781,7.18617188 L12.5213281,6.37125 L12.2939062,6.37125 L11.9238281,6.37125 L7.63242187,6.37125 L7.63242187,6.53445313 L7.63242187,6.96359375 L7.63242187,11.8582031 L12.4128906,11.8582031 L13.1983594,11.0725 L13.8792187,11.8582031 L13.93375,11.8582031 L16.6882813,11.8582031 L16.813125,11.8582031 L16.8675,11.8582031 L16.9215625,11.8582031 L16.9215625,11.315 L16.9215625,10.6088281 L17.1933594,10.6088281 C17.5732813,10.6088281 18.0624219,10.6088281 18.4426562,10.445625 L18.4426562,11.8035938 L18.4426562,11.9125 L20.8872656,11.9125 L20.8872656,11.8035938 L20.8872656,10.5 L20.995625,10.5 C21.1588281,10.5 21.1588281,10.5 21.1588281,10.6629688 L21.1588281,11.8035938 L21.1588281,11.9125 L28.5465625,11.9125 C29.0358594,11.9125 29.5244531,11.8035938 29.7960156,11.5863281 L29.7960156,11.8035938 L29.7960156,11.9125 L32.1321094,11.9125 C32.6207031,11.9125 33.11,11.8582031 33.4359375,11.6407813 C33.9360937,11.3407031 34.2513281,10.8095313 34.2982031,10.1760156 C34.3003906,10.1572656 34.303125,10.1385156 34.3048437,10.1196875 L34.3016406,10.1166406 C34.3036719,10.0814844 34.3050781,10.0467188 34.3050781,10.01125 Z M17.1934375,9.68539063 L16.1067187,9.68539063 L16.1067187,9.84796875 L16.1067187,10.1740625 L16.1067187,10.5000781 L16.1067187,11.0976563 L14.3211719,11.0976563 L13.2819531,9.90242188 L13.2783594,9.90640625 L13.2275781,9.84796875 L12.0325,11.0976563 L8.55585938,11.0976563 L8.55585938,7.29507813 L12.086875,7.29507813 L13.0515625,8.35171875 L13.254375,8.57296875 L13.281875,8.54445312 L14.4228125,7.29515625 L17.301875,7.29515625 C17.860625,7.29515625 18.4863281,7.43304687 18.7234375,8.0015625 C18.7519531,8.11414062 18.7685156,8.23929687 18.7685156,8.38148437 C18.7685156,9.46789063 18.0079687,9.68539063 17.1934375,9.68539063 Z M22.6257031,9.6309375 C22.7342187,9.79351563 22.7885937,10.0111719 22.7885937,10.3372656 L22.7885937,11.0975781 L21.8652344,11.0975781 L21.8652344,10.6088281 C21.8652344,10.3911719 21.8652344,10.0111719 21.7020312,9.84796875 C21.5936719,9.68539063 21.3760937,9.68539063 21.0503906,9.68539063 L20.0726562,9.68539063 L20.0726562,11.0976563 L19.1492187,11.0976563 L19.1492187,7.24070313 L21.2133594,7.24070313 C21.6476563,7.24070313 22.0278906,7.24070313 22.3,7.40351563 C22.5714062,7.56664063 22.7885938,7.83828125 22.7885938,8.27289063 C22.7885938,8.8703125 22.4085156,9.19625 22.1367969,9.30507813 C22.4085156,9.41328125 22.5714062,9.52226562 22.6257031,9.6309375 Z M26.3741406,8.05523438 L24.2552344,8.05523438 L24.2552344,8.76148438 L26.3196094,8.76148438 L26.3196094,9.5221875 L24.2552344,9.5221875 L24.2552344,10.2828125 L26.3741406,10.2828125 L26.3741406,11.0975781 L23.3320312,11.0975781 L23.3320312,7.240625 L26.3741406,7.240625 L26.3741406,8.05523438 Z M28.6555469,11.0976563 L26.9171094,11.0976563 L26.9171094,10.2828906 L28.6555469,10.2828906 C28.8182031,10.2828906 28.9271094,10.2828906 29.0360156,10.1741406 C29.0903906,10.1196875 29.144375,10.01125 29.144375,9.9025 C29.144375,9.79359375 29.0903906,9.68546875 29.0360156,9.63101563 C28.9814844,9.57671875 28.8726562,9.52234375 28.7097656,9.52234375 C27.8405469,9.46796875 26.8084375,9.52234375 26.8084375,8.32734375 C26.8084375,7.7840625 27.134375,7.18640625 28.1122656,7.18640625 L29.9048437,7.18640625 L29.9048437,8.10976563 L28.2209375,8.10976563 C28.0580469,8.10976563 27.9492188,8.10976563 27.8404687,8.16414063 C27.7321094,8.21859375 27.7321094,8.32734375 27.7321094,8.43585938 C27.7321094,8.59890625 27.8404687,8.65328125 27.9491406,8.7071875 C28.0580469,8.76164063 28.1665625,8.76164063 28.2750781,8.76164063 L28.7640625,8.76164063 C29.2530469,8.76164063 29.5789062,8.8703125 29.7961719,9.08765625 C29.9592188,9.25070313 30.0678906,9.52234375 30.0678906,9.9025 C30.0678906,10.7171094 29.5789844,11.0976563 28.6555469,11.0976563 Z M33.3273437,10.7171094 C33.1103125,10.9346875 32.7298437,11.0976562 32.1864062,11.0976562 L30.4484375,11.0976562 L30.4484375,10.2828906 L32.1863281,10.2828906 C32.349375,10.2828906 32.4582812,10.2828906 32.5667969,10.1741406 C32.6209375,10.1196875 32.6754687,10.01125 32.6754687,9.9025 C32.6754687,9.79359375 32.6209375,9.68546875 32.5667969,9.63101562 C32.5124219,9.57671875 32.4039062,9.52234375 32.2408594,9.52234375 C31.3719531,9.46796875 30.3395312,9.52234375 30.3395312,8.32742187 C30.3395312,7.81109375 30.6349219,7.3446875 31.3634375,7.20617187 C31.4505469,7.19414062 31.5425781,7.18640625 31.6433594,7.18640625 L33.4361719,7.18640625 L33.4361719,8.10976563 L32.2408594,8.10976563 L31.8064062,8.10976563 L31.7520312,8.10976563 C31.5889844,8.10976563 31.4804687,8.10976563 31.3719531,8.16414063 C31.3172656,8.21859375 31.2628906,8.32734375 31.2628906,8.43585938 C31.2628906,8.59890625 31.3172656,8.65328125 31.4804687,8.7071875 C31.5889844,8.76164063 31.6976562,8.76164063 31.8064062,8.76164063 L31.8603906,8.76164063 L32.2951562,8.76164063 C32.5325781,8.76164063 32.7121094,8.7909375 32.8764062,8.84867188 C33.026875,8.903125 33.525,9.1259375 33.6364062,9.70757813 C33.6460937,9.76851563 33.6532031,9.83210938 33.6532031,9.9025 C33.6532031,10.2285156 33.5445312,10.5000781 33.3273437,10.7171094 Z" id="Shape"></path>
                </g>
            </g>
        </g>
    </g>
</svg>