<?xml version="1.0" encoding="UTF-8"?>
<svg width="40px" height="40px" viewBox="0 0 40 40" version="1.1" xmlns="http://www.w3.org/2000/svg" xmlns:xlink="http://www.w3.org/1999/xlink">
    <!-- Generator: Sketch 48.2 (47327) - http://www.bohemiancoding.com/sketch -->
    <title>Group 7</title>
    <desc>Created with Sketch.</desc>
    <defs></defs>
    <g id="Recharge-Flow-step-3.2-variant-6-acordion-hover-Copy" stroke="none" stroke-width="1" fill="none" fill-rule="evenodd">
        <g id="Group-7">
            <rect id="Rectangle" fill-opacity="0" fill="#D8D8D8" x="0" y="0" width="40" height="40"></rect>
            <g id="visa-(2)-copy" fill-rule="nonzero">
                <path d="M40,25.5998777 C40,26.9254284 38.9414062,28 37.6355469,28 L2.36445312,28 C1.05859375,28.0000793 0,26.9254284 0,25.5998777 L0,2.40004305 C0,1.07449228 1.05859375,0 2.36445312,0 L37.6355469,0 C38.9414844,0 40,1.07457158 40,2.40004305 L40,25.5998777 Z" id="Shape" fill="#FFFFFF"></path>
                <path d="M9,14 L7.98777935,9.77829671 C7.81475378,9.19611144 7.31125358,9.02291261 6.68213091,9 L2.0413409,9 L2,9.1928905 C5.61450841,9.95471648 8.00613438,11.7925567 9,14 Z" id="Shape" fill="#F7981D"></path>
                <g id="Group" fill="#293688">
                    <polygon id="Shape" points="18.8874523 8.77997489 16.1005134 8.77997489 14.3599385 19.0222065 17.1422603 19.0222065"></polygon>
                    <path d="M10.5915884,19.0119272 L14.9747194,8.78695857 L12.0251641,8.78695857 L9.29848259,15.7728343 L9.0074477,14.7180634 C8.4729577,13.4491525 6.94539624,11.6228029 5.15207665,10.4730854 L7.64453733,19.0153798 L10.5915884,19.0119272 Z" id="Shape"></path>
                    <path d="M26.8364846,15.6740427 C26.8468144,14.511221 26.1022064,13.6242938 24.4976409,12.8917137 C23.5224901,12.4185499 22.9281341,12.1030289 22.9352554,11.6228814 C22.9352554,11.1986817 23.4385994,10.7430163 24.5291781,10.7430163 C25.4417239,10.7289705 26.0987632,10.9287508 26.6126718,11.1355932 L26.8645003,11.251334 L27.2421648,9.03248588 C26.6897542,8.82556497 25.8261967,8.60475518 24.7461826,8.60475518 C21.9949286,8.60475518 20.0583219,9.99293785 20.0407925,11.983914 C20.0232631,13.4562147 21.4253016,14.2764438 22.4808998,14.7671061 C23.5645137,15.267263 23.9280921,15.5873352 23.9211273,16.0360169 C23.9141625,16.7220653 23.0575699,17.0349184 22.257087,17.0349184 C21.1419358,17.0349184 20.5511013,16.8807282 19.6347992,16.4979598 L19.2787334,16.3339611 L18.8876088,18.6290804 C19.5373702,18.9138418 20.7397771,19.1627433 21.9879638,19.1731011 C24.9137292,19.1731011 26.8155119,17.8025738 26.8364846,15.6740427 Z" id="Shape"></path>
                    <path d="M30.1468793,17.4870527 C30.4649908,17.4870527 33.3070221,17.4905838 33.7127023,17.4905838 C33.796593,17.8472222 34.0517865,19.0258161 34.0517865,19.0258161 L36.6351027,19.0258161 L34.3803062,8.79056811 L32.2304512,8.79056811 C31.5626909,8.79056811 31.0664682,8.97284997 30.7726943,9.63873195 L26.6372442,19.0258161 L29.5634009,19.0258161 C29.5631661,19.0258161 30.0384944,17.7641243 30.1468793,17.4870527 Z M32.0554703,12.5270716 C32.0416972,12.5550847 32.2863262,11.9347144 32.42617,11.5491212 L32.6148458,12.4323603 C32.6148458,12.4323603 33.146362,14.8791588 33.2581119,15.3909291 L30.9473622,15.3909291 C31.1781398,14.802103 32.0554703,12.5270716 32.0554703,12.5270716 Z" id="Shape"></path>
                    <path d="M37.6987613,0.0353892028 L2.36842457,0.0353892028 C1.06037181,0.0353892028 0,1.09863465 0,2.41031073 L0,4.87515694 L40.0671858,4.87515694 L40.0671858,2.41031073 C40.0671858,1.09863465 39.0068923,0.0353892028 37.6987613,0.0353892028 Z" id="Shape"></path>
                </g>
                <path d="M37.6355469,28 L2.36445312,28 C1.05859375,28 0,26.9014722 0,25.5464509 L0,23 L40,23 L40,25.5464509 C40,26.9014722 38.9414844,28 37.6355469,28 Z" id="Shape" fill="#F7981D"></path>
                <path d="M1.66202568,25.5998052 L1.66202568,2.40003625 C1.66202568,1.07448924 2.70873805,0 3.99992276,0 L2.33766535,0 C1.04663513,0 0,1.07448924 0,2.40003625 L0,25.5998845 C0,26.9254315 1.04663513,28 2.33774259,28 L4,28 C2.70881529,28 1.66202568,26.9253522 1.66202568,25.5998052 Z" id="Shape" fill="#202121" opacity="0.15"></path>
            </g>
        </g>
    </g>
</svg>