<svg xmlns="http://www.w3.org/2000/svg" xmlns:xlink="http://www.w3.org/1999/xlink" width="480" height="488" viewBox="0 0 480 488">
    <defs>
        <path id="a" d="M.007 450.22V156.152h.749v19.857l1.822.004v-19.595h2.8l3.734-6.402h2.583l.029-3.012 5.633.021v2.991h2.032l3.791 6.522 2.933.027v24.825h.537v-3.83h2.265V125.57h3.923v-2.677l5.603-4.657v-3.957h4.145v-5.246l2.564.01-.01-8.578h1.85l-.01 8.585 2.545.01-.038 5.22h4.085v3.84l6.724 5.587v1.978h3.222v16.996h9.246v10.244h3.643v7.523h1.598v3.422h3.546v3.022h2.842V136.28h2.574v-12.456h3.838V82.377l3.26.039v-1.27h4.824l.037-7.379 1.465.03-.018 7.35h17.355v1.54l3.338.038v36.327l2.661 2.21h7.036v-21.65l9.806-8.149h16.252v6.286h3.923v6.625l7.695-.042.039-32.698h8.12l.038 32.972 2.601-.01v-23.61h1.829v-1.72h6.843V75.08h6.687v4.185h6.843v1.722h2.033v46.38h1.263v-2.445h3.92V47.23h2.555l-.005-14.012 3.073-.06.074 14.072h18.04l.028-28.913 3.08.055.032 28.858h2.676v58.79h4.202V86.825h2.004v-2.458h2.747v2.458h2.747v-.719h2.138v.719h2.442v-.719h3.053v.719h3.358v-1.807h2.288v1.807h1.07v-.719h2.136v.719h2.863l.008 4.201h2.725v-1.71h1.67v-8.911h9.662v-4.133l4.4-.015v4.148h3.26v-.651h3.26v.65h3.26v-.65h1.63v.65h1.994v8.748h6.778v1.874h4.003l.008 4.745h1.05v-2.665h1.711v1.3h1.14v1.365h9.695v-.846h2.853v.846h2.28v-6.13l1.141-.013v6.143h8.554v-1.236h1.332v1.236h.925v57.1h1.108v-13.853h1.144v-.967l5.719.017v.835l3.384.008-.047 22.596h1.593V65.289l14.648-2.793.445-11.176c-1.467-.586-2.469-1.691-2.469-2.975 0-1.377 1.149-2.557 2.796-3.1l1.207-22.37 1.27-22.772.598 22.775 1.041 22.401c1.596.558 2.705 1.715 2.705 3.066 0 1.271-.983 2.367-2.426 2.959l.609 11.283 13.413 2.468v85.941h.47l2.282-1.645v-31.74l2.038-.02 3.142-4.48 2.019-.002v-9.99l9.03.001.043-6.065 3.055.008.031-4.451 5.494-.023v4.489l2.176.007v6.037h17.705l-.007 3.655h5.01v15.184h1.642l9.035 6.71v12.548h11.873v2.957l4.804 3.482v2.034h3.431v.672h3.919v-5.853h4.063v-4.507h5.184v4.507h1.68v17.578h4.624v7.714h4.483l.041-15.428h4.905v-4.191h9.666v6.636h2.902l-.043 13.501 8.425.03v-2.327h.98v-2.29h4.053l-.018-2.788 7.481.007-.01 2.78h4.347v2.29h6.25v2.678h7.06v-5.937h5.462v4.308h4.483v-8.264h9.343V450.22H.006z"/>
        <path id="c" d="M.007.103h571.879V516H.006z"/>
        <path id="e" d="M.006.044H116.08v3.46H.006z"/>
    </defs>
    <g fill="none" fill-rule="evenodd">
        <path fill="#FFF" d="M-45-23h572v534H-45z"/>
        <g transform="translate(-46 -5)">
            <mask id="b" fill="#fff">
                <use xlink:href="#a"/>
            </mask>
            <path d="M.007 515.842h571.89V-54.532H.007z" mask="url(#b)"/>
        </g>
        <g transform="translate(-46 -5)">
            <mask id="d" fill="#fff">
                <use xlink:href="#c"/>
            </mask>
            <path fill="#B3C2BD" d="M571.886 160.857v54.576H0v-59.234h.756v30.274h1.822v-30.008h2.8l3.734-6.404h2.583l.029-3.012 5.633.02v2.992h2.032l3.791 6.524 2.933.027v31.525h1.402v-3.145h1.4v-59.383h3.923v-2.678l5.603-4.658v-3.959h4.145v-5.248l2.564.01-.01-8.58h1.85l-.01 8.587 2.545.01-.038 5.221h4.085v3.842l6.724 5.59v1.978h3.222v17.001h9.246v10.247h3.643v13.971h7.986v-30.622h2.574v-12.46h3.838V82.403l3.26.038v-1.27h4.824l.037-7.381 1.465.03-.018 7.351h17.355v1.542l3.338.038v36.338l2.661 2.21h7.036V99.643l9.806-8.15h16.252v6.287h3.923v23.637h4.764v-10.013h10.927v12.342h2.802V81.012h1.829V79.29h6.843v-4.187h6.687v4.187h6.843v1.722h2.033v49.37h5.184V47.243h2.554l-.005-14.016 3.073-.06.074 14.076h18.04l.028-28.921 3.08.054.032 28.867h2.676v107.362h4.202V86.852h2.004v-2.46h2.747v2.46h2.747v-.72h2.138v.72h2.442v-.72h3.053v.72h3.358v-1.808h2.288v1.808h1.07v-.72h2.136v.72h2.863l.122 62.58v5.124l.644-.01 3.638-.05V80.43h9.661v-4.135l4.4-.014v4.149h3.26v-.652h3.26v.652h3.26v-.652h1.63v.652h1.994v69.744l3.244.023 6.844 9.352V95.8h1.751v-2.666h1.711v1.301h1.14V95.8h9.695v-.846h2.853v.846h2.28v-6.132l1.141-.013V95.8h8.554v-1.236h1.332V95.8h.925v65.817h12.9V65.309l14.649-2.793.445-11.18c-1.467-.587-2.469-1.692-2.469-2.976 0-1.377 1.149-2.558 2.796-3.102l1.207-22.377 1.27-22.778.598 22.782 1.041 22.408c1.596.558 2.705 1.716 2.705 3.067 0 1.272-.983 2.368-2.426 2.96l.609 11.286 13.413 2.47v94.299h9.95V103.15l9.032.001.042-6.067 3.055.008.031-4.453 5.494-.022v4.49l2.176.007v6.038l17.705.001-.007 3.655h5.01V122h1.642l9.035 6.711v21.7h6.682v-1.76h8.165l.038 1.76h9.142v-5.855h4.063v-4.508h5.184v4.508h1.68v17.583h4.624v7.718h4.483l.041-15.434h4.905v-4.192h9.666v6.638h2.902l-.043 13.506 8.425.03v-2.329h.98v-2.29h4.053l-.018-2.789 7.481.007-.01 2.781h4.347v2.291h6.25v2.679h7.06v-5.94h5.462v4.31h4.483v-8.267h9.343" mask="url(#d)"/>
            <path fill="#8BA29E" d="M568.569 190.98v-3.26h-4.804v4.484h-4.346v-2.038h-7.32v-3.913h-8.808v3.913h-.8v1.792h-8.35v-.978h-3.317v-1.467h-3.317v-4.972h-8.464v3.098h-4.232v4.972h-4.003v-6.846h-4.003V172.8l-11.131.004h-2.449l-4.285-4.81h-7.957l-3.052 5.49-2.808 1.745v21.293h-2.517v-46.785h-3.431v-2.034l-4.804-3.484v-2.958h-13.268v2.87l-5.833 4.18v1.508h-2.86v12.715h-8.12v7.662h-3.088v10.433h-6.977v-22.904h-2.288v-9.292h-3.317v-31.05l-2.192.023-3.41-4.284-13.729.02-2.024.003-3.142 4.48-2.038.02v31.75l-2.282 1.646h-6.182v-20.76l-8.537-6.136H360.86v4.727h-3.546v32.683h-3.41l.046-22.602-3.384-.008v-.836l-5.719-.017v.968h-1.144v13.856h-2.402v-36.596h-5.261v-.733h-4.546l.028-4.219-7.034-.02v4.239h-3.775v.733h-5.375v52.652h-3.308l-.124-77.919h-4.003V89.18h-12.01v1.904l-11.208.018v-1.758h-12.696v1.711h-4.003v88.906l-3.187.015-.107-72.864h-6.657v-1.14h-8.007v1.058h-6.176v-.977h-6.29v.977h-2.746v58.521h-3.094l-5.713 4.066v-42.21h-6.062v-2.445h-15.212v2.445h-6.176v43.769h-11.324v-66.577l-10.599.04-.038-32.982h-8.12l-.04 32.708-10.712.06v59.334h-15.44v-6.847h-6.063v-9.943h-2.86v-1.06h-1.944v1.06h-7.32v-.897h-9.264v.897h-4.437l-7.916 5.657v15.616H81.55v-4.32h-3.546v-3.424H73.43v3.424h-1.487v13.122H67.94v5.787H64.05v-3.912h-4.346v-3.098H51.24v4.973h-3.317v1.466h-3.317v.978h-8.235v-1.793h-.915v-3.83H26.65v3.83h-7.32v2.038h-4.347V179h-4.69v3.26H6.292v-6.182l-6.285-.017.053 27.472H0v160.019h571.886V190.98h-3.317" mask="url(#d)"/>
            <path fill="#9FA09C" d="M.007 516h571.879v-65.641H.006z" mask="url(#d)"/>
            <path fill="#527236" d="M.007 450.359h571.879v-97.13H.006z" mask="url(#d)"/>
            <path fill="#73A441" d="M.007 396.37h571.879V275.784H.006z" mask="url(#d)"/>
            <path fill="#6F6F6C" d="M.007 464.282h571.879V450.36H.006z" mask="url(#d)"/>
            <path fill="#4B6933" d="M283.44 446.893c-109.062 0-197.474-10.364-197.474-23.149 0-4.135 9.248-8.017 25.458-11.378l-1.69 3.396c-.379.66-.525 1.298-.49 1.904l-.034.063v4.92c.391 5.353 4.25 7.192 7.904 7.192h329.048c4.008 0 8.087-2.539 8.014-8.832v-2.17l-.21-.428c.348-1.001.29-2.128-.377-3.34l-1.712-3.417c18.417 3.52 29.036 7.66 29.036 12.09 0 12.785-88.412 23.15-197.474 23.15" mask="url(#d)"/>
            <path fill="#52524F" d="M446.162 429.841H117.114c-3.654 0-7.513-1.84-7.904-7.192v-4.92l36.018-66.398a11.465 11.465 0 0 1 10.268-6.35H407.3c4.7 0 15.062 9.232 17.162 13.426l29.714 60.432v2.17c.073 6.293-4.006 8.832-8.014 8.832" mask="url(#d)"/>
            <path fill="#FFFEFD" d="M446.192 422.89h-329.05c-3.653 0-9.668-3.197-7.408-7.128l35.523-71.382a11.467 11.467 0 0 1 10.268-6.35H407.33c4.699 0 8.995 2.649 11.095 6.841l35.164 70.2c2.465 4.476-3.39 7.818-7.397 7.818" mask="url(#d)"/>
            <path fill="#52524F" d="M146.416 338.375h269.466V168.5H146.416z" mask="url(#d)"/>
            <path fill="#FFFEFD" d="M151.568 328.038h259.066V174.69H151.568z" mask="url(#d)"/>
            <path fill="#C3C3BE" d="M329.363 419.8h-96.957a1.745 1.745 0 0 1-1.726-2.02l4.088-25.477a2.838 2.838 0 0 1 2.805-2.385h87.45c1.239 0 2.291.906 2.47 2.129l3.747 25.623a1.89 1.89 0 0 1-1.877 2.13M170.146 353.292h-10.52c-1.468 0-2.48-.432-2.263-.964l.641-1.571c.215-.525 1.564-.948 3.013-.948h10.399c1.449 0 2.474.423 2.287.948l-.558 1.571c-.188.532-1.532.964-2.999.964M187.887 353.292h-10.519c-1.467 0-2.506-.432-2.32-.964l.548-1.571c.183-.525 1.508-.948 2.957-.948h10.4c1.448 0 2.498.423 2.343.948l-.466 1.571c-.158.532-1.475.964-2.943.964M205.63 353.292h-10.52c-1.468 0-2.532-.432-2.378-.964l.457-1.571c.152-.525 1.45-.948 2.9-.948h10.4c1.449 0 2.524.423 2.4.948l-.374 1.571c-.127.532-1.418.964-2.886.964M223.37 353.292h-10.519c-1.467 0-2.556-.432-2.434-.964l.364-1.571c.121-.525 1.394-.948 2.845-.948h10.399c1.449 0 2.55.423 2.455.948l-.28 1.571c-.095.532-1.362.964-2.83.964M241.113 353.292h-10.52c-1.467 0-2.582-.432-2.49-.964l.27-1.571c.09-.525 1.339-.948 2.789-.948h10.398c1.45 0 2.576.423 2.513.948l-.188 1.571c-.064.532-1.305.964-2.772.964M258.855 353.292h-10.52c-1.468 0-2.608-.432-2.548-.964l.179-1.571c.06-.525 1.282-.948 2.732-.948h10.398c1.45 0 2.601.423 2.57.948l-.097 1.571c-.032.532-1.248.964-2.714.964M276.596 353.292h-10.52c-1.467 0-2.632-.432-2.604-.964l.086-1.571c.028-.525 1.226-.948 2.676-.948h10.399c1.45 0 2.624.423 2.624.948l-.003 1.571c-.001.532-1.19.964-2.658.964M294.338 353.292h-10.52c-1.468 0-2.658-.432-2.66-.964l-.009-1.571c-.002-.525 1.171-.948 2.622-.948h10.398c1.45 0 2.65.423 2.68.948l.09 1.571c.03.532-1.133.964-2.6.964M312.08 353.292h-10.52c-1.468 0-2.685-.432-2.718-.964l-.1-1.571c-.034-.525 1.115-.948 2.565-.948h10.398c1.45 0 2.675.423 2.736.948l.183 1.571c.062.532-1.077.964-2.544.964M329.821 353.292h-10.52c-1.466 0-2.709-.432-2.774-.964l-.193-1.571c-.064-.525 1.06-.948 2.51-.948h10.397c1.45 0 2.7.423 2.792.948l.276 1.571c.093.532-1.02.964-2.488.964M347.563 353.292h-10.52c-1.467 0-2.735-.432-2.832-.964l-.285-1.571c-.095-.525 1.003-.948 2.454-.948h10.398c1.45 0 2.725.423 2.848.948l.368 1.571c.125.532-.963.964-2.43.964M365.305 353.292h-10.52c-1.467 0-2.76-.432-2.889-.964l-.377-1.571c-.126-.525.947-.948 2.397-.948h10.398c1.45 0 2.75.423 2.904.948l.461 1.571c.156.532-.907.964-2.374.964M383.047 353.292h-10.52c-1.467 0-2.787-.432-2.946-.964l-.47-1.571c-.158-.525.891-.948 2.341-.948h10.398c1.45 0 2.775.423 2.96.948l.554 1.571c.186.532-.85.964-2.317.964M400.789 353.292h-10.52c-1.468 0-2.812-.432-3.003-.964l-.563-1.571c-.188-.525.835-.948 2.286-.948h10.398c1.45 0 2.8.423 3.016.948l.645 1.571c.22.532-.793.964-2.26.964M169.176 359.163h-13.424c-.334 0-.564-.1-.514-.223l1.99-4.9c.05-.12.355-.218.683-.218h13.191c.329 0 .56.098.517.218l-1.756 4.9c-.045.123-.352.223-.687.223M193.96 365.59h-13.706c-.341 0-.584-.104-.542-.233l1.632-5.105c.04-.126.344-.227.68-.227h13.461c.335 0 .58.101.546.227l-1.389 5.105c-.035.129-.34.234-.681.234M196.201 372.294h-14c-.348 0-.596-.11-.555-.245l1.634-5.324c.04-.13.35-.236.692-.236h13.746c.342 0 .592.106.558.236l-1.38 5.324c-.035.135-.346.245-.695.245M204.083 379.29h-14.306c-.356 0-.613-.116-.574-.256l1.54-5.557c.038-.136.353-.247.703-.247h14.04c.35 0 .608.111.576.247l-1.275 5.557c-.033.14-.348.256-.704.256M158.949 387.42h-14.58c-.388 0-.65-.128-.587-.285l2.68-6.597c.062-.15.419-.273.799-.273h14.268c.379 0 .643.122.59.273l-2.366 6.597c-.057.157-.417.285-.804.285M178.42 387.42h-14.58c-.388 0-.658-.128-.603-.285l2.296-6.597c.053-.15.403-.273.782-.273h14.268c.38 0 .651.122.605.273l-1.982 6.597c-.047.157-.4.285-.787.285M197.302 387.42h-14.58c-.388 0-.665-.128-.619-.285l1.925-6.597c.044-.15.387-.273.767-.273h14.268c.379 0 .657.122.62.273l-1.61 6.597c-.038.157-.384.285-.771.285M221.099 387.42h-19.238c-.443 0-.768-.146-.725-.325l1.531-6.518c.04-.172.424-.312.858-.312h18.826c.434 0 .761.14.731.312l-1.125 6.518c-.031.179-.415.325-.858.325M339.448 387.42H320.21c-.442 0-.819-.146-.84-.325l-.771-6.518c-.021-.172.314-.312.748-.312h18.827c.433 0 .809.14.84.312l1.178 6.518c.032.179-.3.325-.744.325M358.926 387.42h-14.374c-.386 0-.722-.127-.752-.283l-1.262-6.6c-.029-.15.253-.272.63-.272h14.066c.378 0 .711.121.747.272l1.574 6.6c.038.156-.245.283-.63.283M315.412 387.42h-88.77c-.931 0-1.636-.306-1.574-.682l.951-5.817c.06-.362.846-.656 1.757-.656h86.874c.912 0 1.683.294 1.723.656l.648 5.817c.043.376-.678.682-1.609.682M222.66 379.29h-14.306c-.356 0-.62-.116-.59-.256l1.227-5.557c.03-.136.337-.247.687-.247h14.04c.35 0 .614.111.592.247l-.961 5.557c-.024.14-.333.256-.689.256M241.237 379.29h-14.306c-.356 0-.626-.116-.603-.256l.91-5.557c.021-.136.323-.247.673-.247h14.04c.35 0 .62.111.605.247l-.644 5.557c-.017.14-.319.256-.675.256M259.815 379.29h-14.307c-.356 0-.632-.116-.617-.256l.593-5.557c.015-.136.31-.247.66-.247h14.04c.35 0 .627.111.619.247l-.329 5.557c-.008.14-.304.256-.66.256M278.392 379.29h-14.306c-.356 0-.639-.116-.632-.256l.277-5.557c.007-.136.296-.247.646-.247h14.04c.35 0 .632.111.632.247l-.012 5.557c0 .14-.29.256-.645.256M296.969 379.29h-14.305c-.357 0-.647-.116-.648-.256l-.038-5.557c0-.136.282-.247.632-.247h14.04c.35 0 .639.111.646.247l.304 5.557c.008.14-.276.256-.631.256M315.546 379.29H301.24c-.357 0-.653-.116-.661-.256l-.355-5.557c-.01-.136.268-.247.618-.247h14.04c.35 0 .645.111.66.247l.62 5.557c.015.14-.26.256-.617.256M334.123 379.29h-14.305c-.357 0-.659-.116-.676-.256l-.67-5.557c-.016-.136.254-.247.604-.247h14.04c.35 0 .651.111.674.247l.936 5.557c.023.14-.246.256-.603.256M352.7 379.29h-14.305c-.357 0-.666-.116-.69-.256l-.987-5.557c-.024-.136.24-.247.59-.247h14.04c.35 0 .658.111.689.247l1.251 5.557c.032.14-.231.256-.588.256M376.147 387.53h-11.149c-1.417 0-2.681-.465-2.823-1.038l-.412-1.667c-.138-.565.886-1.021 2.287-1.021h11.026c1.4 0 2.673.456 2.84 1.021l.492 1.667c.169.573-.843 1.039-2.26 1.039M395.252 387.53h-11.15c-1.417 0-2.708-.465-2.882-1.038l-.505-1.667c-.172-.565.825-1.021 2.228-1.021h11.024c1.403 0 2.7.456 2.899 1.021l.587 1.667c.202.573-.784 1.039-2.201 1.039M393.814 383.359h-11.01c-1.4 0-2.674-.454-2.843-1.013l-.494-1.625c-.167-.553.82-.998 2.205-.998h10.889c1.385 0 2.663.445 2.858.998l.573 1.625c.197.559-.778 1.013-2.178 1.013M414.356 387.53h-11.15c-1.416 0-2.734-.465-2.94-1.038l-.601-1.667c-.204-.565.767-1.021 2.17-1.021h11.024c1.402 0 2.726.456 2.957 1.021l.683 1.667c.233.573-.726 1.039-2.143 1.039M214.549 372.294H200.55c-.349 0-.604-.11-.57-.245l1.328-5.324c.033-.13.337-.236.68-.236h13.744c.342 0 .599.106.572.236l-1.074 5.324c-.027.135-.333.245-.681.245M232.897 372.294h-14c-.347 0-.61-.11-.583-.245l1.024-5.324c.024-.13.322-.236.664-.236h13.746c.342 0 .604.106.586.236l-.77 5.324c-.02.135-.318.245-.667.245M251.245 372.294h-14c-.348 0-.616-.11-.598-.245l.719-5.324c.017-.13.309-.236.652-.236h13.744c.343 0 .611.106.6.236l-.465 5.324c-.011.135-.303.245-.652.245M269.48 372.294h-13.998c-.349 0-.623-.11-.613-.245l.415-5.324c.01-.13.296-.236.638-.236h13.745c.343 0 .616.106.613.236l-.16 5.324c-.005.135-.29.245-.64.245M287.829 372.294h-14c-.349 0-.629-.11-.626-.245l.11-5.324c.001-.13.282-.236.624-.236h13.745c.342 0 .623.106.626.236l.145 5.324c.004.135-.275.245-.624.245M305.391 372.294h-14c-.348 0-.634-.11-.639-.245l-.183-5.324c-.004-.13.27-.236.611-.236h13.746c.342 0 .628.106.64.236l.436 5.324c.012.135-.263.245-.61.245M323.57 372.294h-14c-.347 0-.64-.11-.652-.245l-.486-5.324c-.012-.13.256-.236.598-.236h13.746c.342 0 .634.106.653.236l.739 5.324c.02.135-.249.245-.597.245M341.75 372.294H327.75c-.349 0-.647-.11-.668-.245l-.788-5.324c-.02-.13.243-.236.585-.236h13.745c.342 0 .64.106.666.236l1.043 5.324c.026.135-.235.245-.584.245M359.818 372.294h-14c-.349 0-.653-.11-.68-.245l-1.09-5.324c-.027-.13.23-.236.571-.236h13.746c.342 0 .646.106.68.236l1.342 5.324c.035.135-.22.245-.57.245M377.885 372.294h-13.999c-.349 0-.66-.11-.695-.245l-1.39-5.324c-.034-.13.216-.236.558-.236h13.745c.343 0 .653.106.693.236l1.644 5.324c.042.135-.207.245-.556.245M371.097 379.29H356.79c-.355 0-.671-.116-.704-.256l-1.298-5.557c-.032-.136.225-.247.575-.247h14.04c.35 0 .664.111.702.247l1.565 5.557c.04.14-.218.256-.573.256M409.894 372.294h-27.033c-.478 0-.913-.151-.973-.336l-1.645-5.145c-.057-.18.278-.324.748-.324h26.542c.47 0 .91.145.983.324l2.107 5.145c.077.185-.25.336-.729.336M412.605 379.29h-37.043c-.564 0-1.073-.182-1.138-.404l-1.527-5.265c-.062-.216.336-.39.89-.39h36.356c.553 0 1.074.174 1.162.39l2.156 5.265c.091.222-.292.404-.856.404M178.006 372.294h-27.322c-.482 0-.81-.151-.734-.338l2.088-5.14c.073-.181.516-.327.988-.327h26.826c.473 0 .81.146.753.326l-1.62 5.14c-.06.188-.498.339-.979.339M185.275 379.29h-37.582c-.569 0-.954-.183-.864-.408l2.143-5.259c.088-.217.612-.393 1.169-.393h36.885c.558 0 .96.176.898.393l-1.504 5.26c-.064.224-.577.407-1.145.407M211.832 365.59h-13.706c-.342 0-.59-.104-.557-.233l1.342-5.105c.032-.126.33-.227.666-.227h13.463c.335 0 .584.101.558.227l-1.098 5.105c-.027.129-.326.234-.668.234M229.594 365.59h-13.706c-.34 0-.596-.104-.57-.233l1.051-5.105c.027-.126.32-.227.655-.227h13.462c.335 0 .591.101.57.227l-.807 5.105c-.02.129-.313.234-.655.234M247.466 365.59h-13.705c-.342 0-.603-.104-.584-.233l.76-5.105c.02-.126.305-.227.641-.227h13.463c.335 0 .597.101.583.227l-.516 5.105c-.014.129-.3.234-.642.234M265.338 365.59h-13.706c-.34 0-.609-.104-.596-.233l.468-5.105c.011-.126.293-.227.628-.227h13.462c.336 0 .603.101.597.227l-.224 5.105c-.006.129-.287.234-.63.234M283.1 365.59h-13.706c-.341 0-.615-.104-.61-.233l.18-5.105c.004-.126.279-.227.615-.227h13.462c.335 0 .609.101.61.227l.064 5.105c.002.129-.274.234-.614.234M300.46 365.59h-13.706c-.342 0-.621-.104-.624-.233l-.104-5.105c-.002-.126.268-.227.603-.227h13.462c.335 0 .614.101.622.227l.348 5.105c.01.129-.26.234-.601.234M318.477 365.59h-13.705c-.341 0-.626-.104-.636-.233l-.398-5.105c-.01-.126.254-.227.589-.227h13.463c.335 0 .62.101.635.227l.641 5.105c.016.129-.247.234-.589.234M336.277 365.59H322.57c-.341 0-.632-.104-.649-.233l-.688-5.105c-.017-.126.241-.227.576-.227h13.464c.335 0 .624.101.647.227l.932 5.105c.023.129-.234.234-.575.234M353.782 365.59h-13.706c-.342 0-.638-.104-.663-.233l-.973-5.105c-.023-.126.228-.227.564-.227h13.463c.335 0 .63.101.66.227l1.217 5.105c.03.129-.221.234-.562.234M372.02 365.59h-13.706c-.341 0-.644-.104-.676-.233l-1.27-5.105c-.032-.126.215-.226.55-.226h13.463c.335 0 .637.1.673.226l1.515 5.105c.039.129-.207.234-.55.234M389.453 365.59h-13.707c-.34 0-.65-.104-.689-.233l-1.555-5.105c-.038-.126.204-.226.539-.226h13.462c.335 0 .643.1.687.226l1.798 5.105c.046.129-.194.234-.535.234M407.398 365.59h-13.706c-.342 0-.657-.104-.704-.233l-1.847-5.105c-.044-.126.19-.227.525-.227h13.463c.336 0 .649.101.7.227l2.091 5.105c.053.129-.18.234-.522.234M186.933 359.163h-13.425c-.334 0-.57-.1-.526-.223l1.706-4.9c.043-.12.342-.218.67-.218h13.192c.328 0 .566.098.53.218l-1.474 4.9c-.038.123-.339.223-.673.223M204.152 359.163h-13.426c-.334 0-.575-.1-.539-.223l1.431-4.9c.036-.12.33-.218.66-.218h13.19c.328 0 .571.098.541.218l-1.197 4.9c-.031.123-.326.223-.66.223M221.8 359.163h-13.425c-.334 0-.582-.1-.553-.223l1.15-4.9c.028-.12.318-.218.646-.218h13.19c.33 0 .577.098.556.218l-.917 4.9c-.024.123-.313.223-.647.223M239.01 359.163h-13.426c-.334 0-.587-.1-.565-.223l.875-4.9c.021-.12.305-.218.633-.218h13.191c.329 0 .583.098.567.218l-.64 4.9c-.018.123-.302.223-.636.223M256.756 359.163h-13.424c-.336 0-.594-.1-.58-.223l.592-4.9c.015-.12.293-.218.621-.218h13.191c.33 0 .588.098.58.218l-.358 4.9c-.009.123-.288.223-.622.223M273.813 359.163h-13.425c-.334 0-.599-.1-.59-.223l.318-4.9c.008-.12.28-.218.61-.218h13.19c.33 0 .594.098.591.218l-.085 4.9c-.003.123-.275.223-.609.223M291.534 359.163h-13.426c-.334 0-.604-.1-.603-.223l.036-4.9c0-.12.267-.218.597-.218h13.19c.33 0 .599.098.604.218l.197 4.9c.005.123-.261.223-.595.223M308.75 359.163h-13.424c-.334 0-.61-.1-.616-.223l-.24-4.9c-.005-.12.257-.218.585-.218h13.191c.329 0 .604.098.616.218l.473 4.9c.012.123-.25.223-.584.223M326.436 359.163H313.01c-.335 0-.616-.1-.629-.223l-.521-4.9c-.014-.12.242-.218.57-.218h13.192c.328 0 .61.098.629.218l.754 4.9c.02.123-.236.223-.57.223M344.084 359.163H330.66c-.334 0-.623-.1-.643-.223l-.803-4.9c-.02-.12.231-.218.56-.218h13.19c.329 0 .616.098.64.218l1.038 4.9c.027.123-.224.223-.558.223M361.553 359.163h-13.424c-.334 0-.628-.1-.656-.223l-1.082-4.9c-.026-.121.219-.218.547-.218h13.191c.328 0 .621.097.653.218l1.317 4.9c.033.123-.21.223-.546.223M378.341 359.163h-13.424c-.335 0-.634-.1-.668-.223l-1.351-4.9c-.033-.121.207-.218.535-.218h13.191c.329 0 .626.097.665.218l1.585 4.9c.04.123-.199.223-.533.223M403.504 359.163h-20.079c-.927 0-1.774-.278-1.888-.623l-1.368-4.113c-.111-.335.539-.605 1.451-.605h19.73c.912 0 1.762.27 1.9.605l1.682 4.113c.14.345-.5.623-1.428.623M174.752 365.59h-20.5c-.948 0-1.599-.29-1.452-.648l1.74-4.287c.142-.348 1.012-.63 1.943-.63h20.135c.932 0 1.593.282 1.479.63l-1.414 4.287c-.119.358-.984.649-1.93.649" mask="url(#d)"/>
        </g>
        <g transform="translate(118.862 199.399)">
            <mask id="f" fill="#fff">
                <use xlink:href="#e"/>
            </mask>
            <path fill="#D2D0CC" d="M.006 3.504H116.08V.044H.006z" mask="url(#f)"/>
        </g>
        <path fill="#D2D0CC" d="M237.684 202.08h112.633v-3.202H237.684zM118.65 227.358h35.481v-21.657h-35.48zM158.056 227.358h35.481v-21.657h-35.48z"/>
        <path fill="#E5E4DF" d="M197.462 227.358h35.482v-21.657h-35.482zM314.836 227.135h35.48v-21.659h-35.48z"/>
        <path fill="#D2D0CC" d="M236.144 227.358h35.482v-21.657h-35.482zM275.55 227.358h35.481v-21.657h-35.48zM119.12 234.566h48.174v-1.982H119.12zM119.12 239.091h115.363v-1.78H119.12zM119.12 243.158h115.363v-1.779H119.12zM119.12 247.226h115.363v-1.78H119.12zM242.105 233.753h40.834v-1.982h-40.834zM242.105 239.091h108.212v-1.78H242.105zM242.105 243.158h108.212v-1.779H242.105zM242.105 249.987h108.212v-1.78H242.105z"/>
        <path fill="#E5E4DF" d="M242.105 256.885h97.785v-1.78h-97.785zM242.105 261.664h97.785v-1.78h-97.785zM242.105 266.443h97.785v-1.78h-97.785zM242.105 271.222h97.785v-1.78h-97.785zM242.105 276.001h97.785v-1.78h-97.785z"/>
        <path fill="#D2D0CC" d="M119.12 253.124h115.363v-1.78H119.12zM119.12 256.885h115.363v-1.78H119.12zM119.394 286.525H234.76v-1.78H119.394zM119.4 292.554h115.363v-1.78H119.4zM119.406 298.583h115.363v-1.78H119.406z"/>
        <path fill="#E5E4DF" d="M119.417 302.833h230.9v-1.78h-230.9zM119.417 306.96h230.9v-1.779h-230.9zM119.417 311.343h230.9v-1.78h-230.9z"/>
        <path fill="#D2D0CC" d="M119.4 261.664h115.363v-1.78H119.4zM119.655 265.934h35.354v-1.779h-35.354zM119.655 269.087h35.354v-1.78h-35.354zM119.655 281.085h36.016v-8.694h-36.016zM161.858 281.085h36.016v-8.694h-36.016zM242.105 293.629h36.017v-13.89h-36.017z"/>
        <path fill="#E5E4DF" d="M282.03 293.629h36.017v-13.89H282.03z"/>
        <path fill="#D2D0CC" d="M321.881 293.629h18.009v-13.89H321.88z"/>
        <path fill="#3B4646" d="M351.005 414.003s-4.595-2.881-6.356-2.881h-35.584c-1.761 0-6.356 2.881-6.356 2.881 0 1.757-.604 3.505 1.157 3.505h45.982c1.761 0 1.157-1.748 1.157-3.505"/>
        <path fill="#D3B293" d="M340.364 356.539l-5.462-4.664c-4.56-2.109-4.46-5.39-4.46-5.39h-9.45s.134 3.253-4.425 5.362l-3.823 4.676 13.227-.197 14.393.213"/>
        <path fill="#EAD0B0" d="M349.35 458.4s-.34 6.256 1.107 9.537l-11.484-1.146s1.804-3.404-.008-8.391h10.384M303.107 457.555s.34 6.256-1.108 9.537l11.484-1.146s-1.804-3.404.01-8.391h-10.386"/>
        <path fill="#1C3C44" d="M304.064 466.405c-.814-.065-1.519-.28-1.995-.578-.34.322-.76.7-1.235 1.112a45.447 45.447 0 0 1-1.117.939c-.013.012-.025.018-.038.03-.142.118-.29.236-.443.358-.032.019-.065.05-.096.075-.328.259-.674.523-1.032.781-.077.056-.155.11-.231.167-.135.098-.276.197-.417.295-.103.074-.205.147-.314.221-.294.203-.596.412-.91.601-.146.105-.306.203-.46.302a27.143 27.143 0 0 1-3.85 2.03c-.236.102-.472.205-.72.295-4.751 1.818-5.172 4.46-5.026 5.812.06.55.212.887.212.887s1.922.987 4.431 1.039c9.2.2 23.55-4.737 23.55-4.737s1.028-1.224.68-4.042a11.355 11.355 0 0 0-.054-.405c-.029-.19-1.345-5.525-1.855-7.042-1.185.407-3.07.992-6.477 1.681-.305.063-.585.109-.838.143-.17.021-.337.037-.488.053a5.304 5.304 0 0 1-.81.012l-.025-.001-.096-.001a.05.05 0 0 0-.03-.008l-.316-.019"/>
        <path fill="#FFFFFE" d="M290.663 479.035c-2.086-.045-3.805-.695-4.49-.99-.025.29-.02.571.007.8.058.55.212.887.212.887s1.932.987 4.445 1.04c9.195.196 23.549-4.74 23.549-4.74s.458-.552.657-1.761c-3.737 1.206-16.023 4.942-24.38 4.764M304.55 468.878c-.094.301-.515.445-.93.31l-4.13-1.31c.379-.308.731-.605 1.052-.882l3.428 1.09c.415.133.68.485.58.792M302.618 470.022c-.092.308-.513.452-.928.318l-3.81-1.218c.36-.258.704-.522 1.033-.781.03-.025.064-.056.096-.075l3.03.97c.421.134.68.486.58.786M300.617 471.266c-.095.308-.508.452-.929.317l-3.68-1.177c.314-.189.616-.398.91-.6.11-.075.212-.148.315-.222l2.817.897c.415.133.673.484.567.785"/>
        <path fill="#1C3C44" d="M348.445 467.25c.814-.065 1.518-.279 1.993-.578a42.173 42.173 0 0 0 1.3 1.17c.32.276.674.573 1.053.881.012.012.025.018.037.03.142.118.29.236.444.358.032.02.064.05.096.075a27.63 27.63 0 0 0 1.263.948c.135.098.275.197.417.295.103.074.205.147.314.222.295.203.595.411.909.6.147.107.306.204.46.302a27.02 27.02 0 0 0 3.851 2.03c.236.103.472.205.72.295 4.75 1.818 5.173 4.461 5.026 5.813-.06.55-.211.886-.211.886s-1.923.988-4.433 1.039c-9.199.2-23.549-4.737-23.549-4.737s-1.028-1.224-.681-4.042c.017-.133.034-.266.056-.405.028-.19 1.344-5.524 1.855-7.042 1.184.407 3.068.993 6.477 1.681.305.063.583.109.837.143.171.022.336.038.488.054.304.026.575.027.81.011l.025-.001.095-.001c.012-.007.018-.007.032-.008l.316-.019"/>
        <path fill="#FFFFFE" d="M361.844 479.88c2.086-.044 3.805-.695 4.49-.99.025.29.02.571-.006.8-.06.55-.211.887-.211.887s-1.933.988-4.447 1.04c-9.194.196-23.548-4.74-23.548-4.74s-.459-.552-.658-1.761c3.738 1.207 16.024 4.942 24.38 4.764M347.958 469.723c.094.301.514.445.93.312l4.13-1.312a47.996 47.996 0 0 1-1.053-.882l-3.427 1.09c-.415.133-.68.485-.58.792M349.889 470.867c.094.308.515.452.929.318l3.81-1.218a27.63 27.63 0 0 1-1.032-.781c-.032-.025-.064-.056-.096-.075l-3.031.97c-.421.134-.68.486-.58.786M351.89 472.112c.095.308.51.451.93.317l3.678-1.177c-.313-.19-.615-.398-.909-.601a12.393 12.393 0 0 1-.313-.222l-2.818.897c-.414.133-.674.484-.568.786"/>
        <path fill="#FFFEFE" d="M337.98 355.721l-12.779 35.92-12.767-35.883 12.786-.463 12.76.426"/>
        <path fill="#E2E0DC" d="M337.211 353.846l-.25-.213c.096.012.194.024.296.03l-.046.183m-1.737-1.483l-.572-.488a10.975 10.975 0 0 1-1.264-.683l.077-.05 1.469.348.29.873"/>
        <path fill="#ADAEAA" d="M337.257 353.664a4.72 4.72 0 0 1-.296-.031l-1.487-1.27-.29-.873 2.47.582-.397 1.592"/>
        <path fill="#BB9E85" d="M336.754 355.68l-7.872-.263c-.067-.237-.328-.408-.73-.408h-.485l5.971-3.817c.376.237.795.466 1.264.683l2.059 1.758.25.213-.457 1.834"/>
        <path fill="#DFE0DD" d="M334.73 363.137l-6.347-6.468.446-.866a.521.521 0 0 0 .053-.386l7.872.263-1.233 4.934-.792 2.523"/>
        <path fill="#E26B58" d="M327.743 357.911c-.067.129-.348.225-.634.225h-1.9c-.287 0-.568-.096-.634-.225l-1.088-2.108c-.212-.41.078-.794.678-.794h3.987c.6 0 .889.384.677.794l-1.086 2.108"/>
        <path fill="#E26B58" d="M331.128 404.43h-9.95l3.386-46.562h3.179l3.385 46.561"/>
        <path fill="#576A90" d="M362.523 378.844l-2.893-9.824c-3.305-13.16-19.987-16.592-19.987-16.592l-3.66 6.716-9.89 31.526-9.891-31.526-3.66-6.716s-16.682 3.432-19.987 16.592l-2.895 9.824a29.23 29.23 0 0 0-.682 13.624l.026.145a11.242 11.242 0 0 0 2.384 5.11l6.014 7.282 6.194-5.153-5.212-7.26s.025-3.775.79-5.878l7.407-9.627-.743 22.484-2.086 9.39s-.29 2.469 1.552 3.054l20.75.25h.076l20.751-.25c1.843-.585 1.551-3.053 1.551-3.053l-2.086-9.39-.744-22.485 7.41 9.627c.763 2.103.788 5.877.788 5.877l-5.211 7.261 6.194 5.153 6.013-7.281a11.229 11.229 0 0 0 2.411-5.256c.847-4.534.62-9.2-.684-13.624"/>
        <path fill="#FFFEFE" d="M327.106 354.857l7.753 7.9 2.886-10.795-4.764-1.33-5.875 4.225"/>
        <path fill="#D5D4CF" d="M339.912 366.356h-4.437l1.504 2.343-9.89 21.94 8.025-35.211.926-3.942s3.694.878 4.957 1.392l-1.085 13.478"/>
        <path fill="#E2E0DC" d="M314.49 354.386l-.176-.711h.758l-.581.71m1.524-1.864l-.238-.888 2.008-.473.008.027c-.366.228-.773.45-1.226.66l-.552.674"/>
        <path fill="#ADAEAA" d="M315.072 353.675h-.758l-.4-1.603 1.863-.439.238.888-.943 1.154M317.797 351.213l-.012-.043.107-.027.007.005-.102.065"/>
        <path fill="#BB9E85" d="M314.812 355.67l-.321-1.284 2.076-2.54c.453-.21.86-.43 1.226-.659l.065-.04 6.075 3.883c-.241.048-.407.17-.477.328l-8.644.313"/>
        <path fill="#DFE0DD" d="M317.305 362.66l-1.103-3.516-.964-1.77-.426-1.703 8.644-.313a.51.51 0 0 0 .031.445l.189.365-6.37 6.492"/>
        <path fill="#C8604E" d="M323.676 356.168l-.189-.365a.51.51 0 0 1-.03-.445c.069-.158.235-.28.476-.328l.528.338-.785.8"/>
        <path fill="#4F6081" d="M316.71 363.268l-1.472-5.894.964 1.77 1.103 3.516-.595.608"/>
        <path fill="#FFFEFE" d="M324.461 354.857l-7.751 7.9-2.888-10.795 4.766-1.33 5.873 4.225"/>
        <path fill="#D5D4CF" d="M311.656 366.356h4.437l-1.504 2.343 9.89 21.94-8.026-35.211-.925-3.942s-3.694.878-4.957 1.392l1.085 13.478"/>
        <path fill="#3B4646" d="M314.1 456.609l-12.694-1.393s-1.023-16.42-.77-18.102c.943-6.314.697-16.734 2.141-21.102 1.444-4.368 6.823-5.99 6.823-5.99s6.733-4.555 10.614-1.897c1.077.737 5.122 2.646-2.075 33.497-1.887 8.09-4.04 14.987-4.04 14.987M337.78 456.448l12.752-.926s1.856-16.367 1.69-18.057c-.623-6.343.152-16.745-1.07-21.161-1.22-4.418-6.511-6.235-6.511-6.235s-6.496-4.797-10.507-2.283c-1.114.698-5.253 2.458.37 33.543a235.395 235.395 0 0 0 3.277 15.12"/>
        <path fill="#313A39" d="M314.598 460.348h-13.42a1.01 1.01 0 0 1-1.01-1.007v-3.763a1.01 1.01 0 0 1 1.01-1.007h13.42c.556 0 1.01.453 1.01 1.007v3.763a1.01 1.01 0 0 1-1.01 1.007M337.803 460.348h13.418c.556 0 1.011-.453 1.011-1.007v-3.763c0-.554-.455-1.007-1.01-1.007h-13.42c-.555 0-1.01.453-1.01 1.007v3.763c0 .554.455 1.007 1.01 1.007"/>
        <path fill="#D3B293" d="M311.373 326.675c.072 2.068-.352 3.87-1.423 3.907-1.071.037-1.847-1.614-1.919-3.682-.07-2.067.752-3.774 1.822-3.81 1.072-.037 1.448 1.518 1.52 3.585"/>
        <path fill="#E9CFB0" d="M339.262 326.26c-.071 2.068.352 3.87 1.423 3.907 1.071.036 1.847-1.614 1.919-3.682.072-2.068-.75-3.774-1.822-3.81-1.072-.038-1.448 1.517-1.52 3.585"/>
        <path fill="#EAD0B0" d="M340.11 327.124c0 11.387-6.517 20.619-14.557 20.619s-14.558-9.232-14.558-20.62c0-11.387 6.517-20.619 14.558-20.619 8.04 0 14.556 9.232 14.556 20.62"/>
        <path fill="#2A2B29" d="M311.756 333.72s-3.33-12.368 3.803-18.562c0 0 5.316 4.27 11.783 2.77 0 0 2.138-.458 4.715-2.07 0 0 5.05-2.135 6.71 2.8 1.768 5.256.869 10.603.976 13.799 0 0 2.865-8.527 2.972-10.229 0 0 .888-6.183-.722-9.823 0 0-1.18-3.9-5.689-5.9 0 0-1.543-5.066-12.187-4.214 0 0-7.86-1.1-9.718 4.463 0 0-6.643 1.452-6.023 12.975 0 0-.592 8.694 3.38 13.992"/>
        <path fill="#F6F6F4" d="M353.102 411.135h-55.21a2.727 2.727 0 0 1-2.732-2.724v-32.627a2.727 2.727 0 0 1 2.731-2.723h55.21c1.508 0 2.73 1.22 2.73 2.723v32.627a2.727 2.727 0 0 1-2.73 2.724"/>
        <path fill="#DADAD5" d="M295.649 409.94a2.74 2.74 0 0 0 2.282 1.239h55.21c1.508 0 2.703-1.242 2.703-2.746v-32.626c0-.668-.227-1.273-.627-1.747l-59.568 35.88"/>
        <path fill="#BBBBB6" d="M355.2 411.02h-59.347a.984.984 0 0 0-.984.981v1.474c0 .543.441.982.984.982H355.2c.544 0 .984-.44.984-.982V412a.983.983 0 0 0-.984-.982"/>
        <path fill="#ECD1B1" d="M109.835 74.615c.255-.457.582-1.122.984-2.081a6.648 6.648 0 0 0 .267-4.343c-.467-1.677-1.182-3.97-1.98-5.572 0 0-.802-4.378.718-8.857 0 0 9.759-12.122 21.379-2.7 0 0 11.294 8.851 2.534 22.674l-.972.98 5.624-.503 1.771 4.045L127.952 90l-3.32-7.58s-6.536 3.32-7.842 1.465c0 0-.735-.803-.144-2.043 0 0-.017-.213-.055-.557a7.348 7.348 0 0 1-.748-.918c-.837-1.217-2.112-3.031-2.449-3.288-.335-.257-.88-.486-2.008-.822-.805-.24-1.959-.908-1.55-1.64"/>
        <path fill="#2A2B29" d="M109.862 62.15a.877.877 0 0 1-1.505.118c-.64-.912-2.082-3.587-.456-9.908.427-1.657 2.422-3.685 4.472-4.514 1.942-.784 5.015-1.695 8.055-1.237.582.087 1.15.253 1.697.467.635.246 2.014.636 4.143.479 2.06-.152 4.127.162 6.024.979 2.861 1.232 5.675 3.965 6.967 7.536 0 0 2.208 6.93 1.219 9.423a.607.607 0 0 0-.046.196c-.061 1.01-3.362 6.451-.303 12.245.1.191-.08.421-.256.545-.753.523-2.896 1.683-5.363.044 0 0-1.385-.81-2.551-3.49-.646-1.483-.89-3.104-.783-4.718.076-1.144-.082-2.786-1.24-4.192a.5.5 0 0 0-.042-.045c-.274-.28-2.998-2.948-4.205-.583a.527.527 0 0 1-.047.077c-.167.23-1.092 1.446-2.389 2.068a2.074 2.074 0 0 1-2.597-.713c-.514-.755-2.561-3.38-2.876-4.413-.072-.238-.035-.704-.067-1.249-.185-3.166-4.248-4.405-6.174-1.88-.536.703-1.103 1.606-1.677 2.765"/>
        <path fill="#C3A38A" d="M75.828 195.773s-.482 6.651-2.451 9.922l12.28.325s-1.448-3.835 1.136-8.858l-10.965-1.389"/>
        <path fill="#A2635B" d="M75.665 201.56c-.85-.178-1.565-.499-2.027-.878a44.882 44.882 0 0 1-1.528 1.061c-.378.25-.79.516-1.23.79-.017.012-.03.017-.045.028-.166.105-.338.209-.516.317-.037.017-.076.045-.112.067-.381.228-.782.462-1.196.687l-.266.145c-.156.085-.317.17-.48.255-.117.065-.235.13-.36.192-.338.176-.685.356-1.041.514-.17.092-.351.173-.526.256a28.808 28.808 0 0 1-4.34 1.629 13.23 13.23 0 0 1-.799.216c-5.261 1.285-6.061 4.018-6.089 5.465-.01.59.105.965.105.965s1.897 1.299 4.54 1.689c9.685 1.44 25.501-1.854 25.501-1.854s1.252-1.155 1.263-4.176c.001-.144.001-.285-.003-.436-.005-.204-.679-6.013-1.014-7.683-1.305.272-3.372.638-7.064.91-.33.025-.63.036-.904.038-.183 0-.359-.006-.521-.01a5.641 5.641 0 0 1-.858-.095l-.026-.005-.1-.013c-.011-.01-.018-.01-.032-.013l-.332-.061"/>
        <path fill="#FFFEFD" d="M59.82 213.103c-2.197-.325-3.925-1.242-4.608-1.646a4.428 4.428 0 0 0-.102.847c-.011.588.105.965.105.965s1.908 1.3 4.555 1.692c9.682 1.435 25.501-1.858 25.501-1.858s.558-.522.931-1.771c-4.108.774-17.583 3.076-26.382 1.771M75.847 204.235c-.14.306-.604.402-1.023.205l-4.185-1.937c.44-.275.853-.54 1.23-.79l3.472 1.608c.42.197.654.603.506.914M73.654 205.185c-.14.313-.603.409-1.023.211l-3.86-1.795c.414-.225.815-.457 1.195-.686.037-.023.076-.05.113-.067l3.068 1.43c.427.197.654.604.507.907M71.373 206.231c-.142.313-.597.41-1.023.211l-3.726-1.734c.356-.159.702-.34 1.04-.515.126-.063.243-.126.362-.19l2.854 1.322c.42.197.646.603.493.906"/>
        <path fill="#182F33" d="M79.922 199.983l-5.485-.491s2.466-55.147 14.549-54.1c8.132.703.616 25.705.616 25.705l-9.68 28.886"/>
        <path fill="#F6F6F4" d="M84.508 137.888h41.63c.56 0 1.015.453 1.015 1.013v3.112c0 .559-.454 1.013-1.014 1.013h-41.63c-.561 0-1.016-.454-1.016-1.013V138.9c0-.56.455-1.013 1.015-1.013"/>
        <path fill="#F6F6F4" d="M64.098 104.506l22.644 35.413a.77.77 0 0 1-.236 1.064l-.664.422a.773.773 0 0 1-1.066-.235l-22.644-35.414a.77.77 0 0 1 .236-1.064l.664-.422a.774.774 0 0 1 1.066.236"/>
        <path fill="#D3B293" d="M82.486 197.618s-.482 6.65-2.452 9.922l12.281.325s-1.449-3.836 1.136-8.86l-10.965-1.387"/>
        <path fill="#8F5248" d="M82.324 203.404c-.85-.178-1.567-.499-2.028-.877a46.185 46.185 0 0 1-2.76 1.85c-.014.012-.03.017-.044.028-.166.105-.337.209-.516.317-.037.017-.074.045-.11.068-.382.229-.783.462-1.197.686l-.265.145c-.156.086-.318.171-.48.256a9.673 9.673 0 0 1-.362.191c-.338.176-.684.356-1.04.515-.17.09-.35.172-.527.255a28.755 28.755 0 0 1-4.34 1.629c-.261.077-.524.154-.798.217-5.262 1.284-6.062 4.018-6.089 5.464-.01.59.104.965.104.965s1.898 1.3 4.541 1.69c9.686 1.44 25.502-1.854 25.502-1.854s1.25-1.156 1.263-4.177c0-.144 0-.285-.005-.436-.005-.204-.677-6.013-1.012-7.683-1.305.272-3.374.638-7.065.91-.33.026-.631.036-.903.038-.184 0-.36-.006-.523-.009a5.608 5.608 0 0 1-.857-.096l-.026-.004-.1-.014c-.012-.01-.019-.01-.033-.013l-.33-.061"/>
        <path fill="#FFFEFD" d="M66.478 214.948c-2.197-.325-3.925-1.243-4.608-1.646a4.418 4.418 0 0 0-.102.846c-.011.589.104.965.104.965s1.909 1.3 4.556 1.693c9.681 1.436 25.5-1.858 25.5-1.858s.56-.522.932-1.772c-4.109.775-17.583 3.076-26.382 1.772M82.505 206.08c-.14.305-.603.401-1.023.204l-4.186-1.937c.442-.275.855-.54 1.23-.79L82 205.165c.42.197.653.603.506.915M80.312 207.03c-.14.312-.604.408-1.023.21l-3.86-1.795c.414-.224.815-.457 1.196-.686.037-.023.074-.05.11-.066l3.07 1.429c.427.197.654.604.507.908M78.03 208.076c-.14.312-.596.41-1.023.21l-3.725-1.734c.356-.159.702-.339 1.04-.513.125-.064.243-.128.361-.192l2.855 1.323c.42.196.646.602.493.906"/>
        <path fill="#1C3C44" d="M83.885 156.272c1.032-6.824 2.485-12.711 8.769-13.002 8.958-.414 14.418-.353 24.412-.184.988.016 8.028.553 10.67-.571 14.593 6.988 23.112 9.234 27.578 9.913-.148.933-.32 1.85-.522 2.738-.85 3.727-6.635 7.942-10.548 8.172-6.663.392-15.115 0-21.726 0-7.76.034-17.42 0-22.046-.184 0 1.498-.001 2.626.001 3.755.016 10.404-3.516 33.54-3.704 34.619-8.461.462-10.589-.622-17.586-.807-1.125-.03.987-16.501 1.11-17.336 1.356-9.222 1.789-17.583 3.592-27.113"/>
        <path fill="#5273A2" d="M126.265 88.838c.678-.819.678-.819 5.184-5.185 3.399-2.948 5.511-4.864 8.058-6.996 2.373 4.273 1.714 3.309 3.85 7.563 4.029 8.933 4.778 10.237 6.844 17.337 3.507 12.062 6.31 23.99 6.071 36.55-.051 2.697-.117 5.625-.321 8.543a66.664 66.664 0 0 1-.637 5.778c-4.466-.68-12.985-2.925-27.578-9.913.242-.103.45-.22.611-.352l-3.053-30.524c-.911 1.149-2.106 2.517-3.369 3.941l-4.778-6.696c4.384-5.8 3.887-13.712 9.118-20.046"/>
        <path fill="#ECD1B1" d="M100.514 127.986l-3.289 3.358-4.66-4.46 3.464-3.644 4.485 4.746"/>
        <path fill="#ECD1B1" d="M93.28 126.17l3.976 5.045s-.718 4.727-1.77 5.834c0 0-1.73 3.498-4.696 3.805 0 0-2.719.528-2.386-.92 0 0-3.516-.256-2.294-2.603 0 0-3.79-.301-1.85-3.324 0 0-2.662-.798-.257-2.876 0 0 .574-.462 1.402-2.278 0 0 1.04-2.044 3.643-1.786 0 0 1.785.646 4.232-.897"/>
        <path fill="#5273A2" d="M92.767 125.467l21.2-15.536s5.023-4.215 6.44-6.612c2.66-4.505 2.06-3.064 2.11-4.253l6.982 3.791c-.381 3.116-.823 6.464-.94 8.901-.218 4.535-4.63 7.275-4.63 7.275l-24.421 16.319-6.741-9.885"/>
        <path fill="#FFFFFE" d="M95.642 123.425l6.578 9.14c.454.631.307 1.517-.325 1.97l-2.072 1.483a1.422 1.422 0 0 1-1.975-.324l-6.577-9.14a1.413 1.413 0 0 1 .325-1.97l2.071-1.483a1.422 1.422 0 0 1 1.975.324"/>
        <path fill="#21437B" d="M105.72 198.878h258.943v-29.615H105.72z"/>
        <path fill="#B9927C" d="M384.578 165.786s-.011-.851-.739-2.043l.044-.091-.202-.154c-.808-1.207-2.41-2.868-5.155-4.625-2.59-1.968-5.384-3.382-6.038-3.846-4.062-2.886-13.407-8.217-13.407-8.217h-34.087s-8.064 5.331-12.126 8.217c-.654.464-3.448 1.878-6.038 3.846-2.747 1.757-4.347 3.418-5.156 4.625l-.202.154.045.09c-.729 1.193-.739 2.044-.739 2.044-1.276 3.369 4.28 13.853 4.28 13.853l14.66 33.436c8.898 1.348 9.534-2.005 9.534-2.005-.225-1.91-2.35-14.03-2.35-14.03-3.03-12.523-7.989-19.187-10.404-22.605a1.485 1.485 0 0 1 .694-2.25c1.736-.653 3.56-1.356 5.342-2.075 6.225-2.51 10.915-4.833 14.44-6.944l11.466.035c-.005.048.047.075.145.086 3.502 2.079 8.13 4.361 14.236 6.823 1.868.753 3.78 1.49 5.591 2.167a1.303 1.303 0 0 1 .63 1.943c-2.204 3.31-6.753 9.832-9.842 22.608 0 0-2.47 12.172-2.695 14.08 0 0 .234 3.515 9.131 2.167l14.661-33.436s5.557-10.484 4.281-13.853"/>
        <path fill="#D4B394" d="M358.12 99.332l-6.877-2.533c-5.15-1.69-4.042-4.644-4.042-4.644H336.53s1.108 2.954-4.042 4.644l-6.878 2.535 16.255 1.951 16.255-1.953"/>
        <path fill="#FFFEFD" d="M332.513 96.193c.011 0 .023-.001.034-.003l3.008 15.488.022.107 2.433 12.528.855 20.263h5.282l1.214-19.51 5.58-28.739c-.635-.34-1.5-.693-2.316-.819 0 0 .582 4.185-6.014 4.353-7.41.19-7.506-4.353-7.506-4.353-.913.094-1.778.44-2.629.685.013 0 .024-.001.036-.003l.001.003"/>
        <path fill="#D1642D" d="M373.05 126.516l-4.31-16.305c-2.765-11.007-17.931-14.003-17.931-14.003l-9.132 46.79-8.837-46.915s-15.461 3.12-18.227 14.128l-4.308 16.305s-.891 3.331-.177 7.902a11.826 11.826 0 0 0 2.245 5.295l3.505 4.652 7.417-1.617-4.496-7.652s.02-3.157.659-4.914l3.835-9.238 1.494 14.765.657 11.153h32.467l.655-11.153 1.496-14.765 3.834 9.238c.639 1.757.66 4.914.66 4.914l-4.497 7.652 7.416 1.617 3.506-4.652a11.826 11.826 0 0 0 2.245-5.295c.715-4.57-.176-7.902-.176-7.902"/>
        <path fill="#ECD1B1" d="M355.68 75.62c0 10.576-6.022 19.148-13.451 19.148-7.43 0-13.452-8.572-13.452-19.148 0-10.575 6.022-19.148 13.452-19.148 7.429 0 13.452 8.573 13.452 19.148"/>
        <path fill="#2A2B29" d="M327.458 71.918c-.232-2.711-.456-6.842.995-10.97.92-2.618 2.161-5.769 4.727-6.84 3.18-1.327.97.833 7.602-.472 2.835-.557 5.471-1.976 10.06-.675 0 0 4.51 1.374 5.845 11.588l.007.044c.053.28.596 3.318.384 7.098-.038.66-.68 3.841-1.214 4.234-.825.604-.834-.119-.91-.153-.275-.123.358-3.871.317-4.169-.238-1.712-1.452-7.12-4.253-8.47-.016-.009-1.757-.59-4.64.808-5.566 2.697-8.176.33-8.9.123-.048-.014-.892-.508-.937-.53-.545-.262-3.739-1.578-5.33 1.358a.812.812 0 0 1-.057.091c-.21.298-1.63 2.33-2.148 6.957-.03.276.616 3.61.543 3.945-.002.004-.82.405-.949-.119-.033-.135-1.02-2.41-1.142-3.848"/>
        <path fill="#2A2B29" d="M354.91 75.63c.044.53-.573 3.285-1.262 4.82-.17.38-.327.733-.475 1.057-.937 2.056-3.433 3.336-5.418 2.251-.987-.54-1.562-1.147-4.203-1.493l-1.326.017-1.326-.017c-2.64.346-3.216.954-4.203 1.493-1.986 1.085-4.481-.195-5.418-2.251-.148-.324-.305-.677-.475-1.056-.688-1.536-1.307-4.291-1.263-4.82h-.974c.12 1.782.341 3.598.72 5.222 0 0 1.894 13.208 12.393 13.919 0 0 .185.02.512.024h.069c.326-.004.51-.024.51-.024 10.5-.711 12.394-13.919 12.394-13.919.38-1.624.6-3.44.72-5.222h-.974"/>
        <path fill="#EAD0B0" d="M366.743 211.43s-.312 5.746 1.018 8.76l-10.549-1.053s1.657-3.126-.008-7.707h9.54M318.864 210.498s.312 5.746-1.018 8.76l10.55-1.053s-1.657-3.126.008-7.707h-9.54"/>
        <path fill="#223639" d="M319.743 218.628c-.748-.06-1.395-.256-1.831-.531-.314.295-.698.642-1.135 1.022-.017.017-.034.034-.06.051-.294.255-.618.528-.966.81-.012.012-.024.018-.035.03-.13.107-.267.214-.407.327-.03.018-.06.045-.089.07-.3.237-.618.48-.949.717l-.211.153c-.124.09-.253.18-.382.271-.095.067-.189.136-.29.203-.27.186-.546.379-.835.552-.135.097-.28.186-.422.276-1.1.694-2.29 1.338-3.537 1.865-.216.096-.433.19-.661.273-4.366 1.67-4.752 4.096-4.617 5.337.054.507.194.816.194.816s1.766.907 4.072.953c8.45.184 21.63-4.35 21.63-4.35s.945-1.125.627-3.713c-.016-.122-.03-.244-.051-.373-.027-.174-1.236-5.074-1.704-6.467-1.088.373-2.82.91-5.95 1.543-.28.058-.536.1-.77.131-.156.02-.308.035-.447.049a4.59 4.59 0 0 1-.744.01H320.062c-.01-.008-.016-.008-.029-.008l-.29-.017"/>
        <path fill="#31414D" d="M307.434 230.229c-1.915-.04-3.495-.638-4.124-.91-.023.267-.018.526.006.735.054.506.194.816.194.816s1.775.907 4.084.955c8.447.18 21.63-4.355 21.63-4.355s.422-.507.605-1.617c-3.434 1.108-14.718 4.539-22.395 4.376"/>
        <path fill="#223639" d="M365.912 219.56c.748-.06 1.395-.257 1.832-.531a37.31 37.31 0 0 0 1.193 1.073c.295.255.62.528.968.81.011.012.023.018.034.03.13.106.266.214.408.327.029.018.059.045.088.07.301.236.619.48.948.717l.212.152c.124.09.253.18.383.272.094.067.188.136.288.203.27.186.548.379.835.552.135.097.283.186.423.276 1.1.693 2.29 1.338 3.538 1.865.216.096.433.19.66.272 4.365 1.67 4.752 4.097 4.618 5.338a2.929 2.929 0 0 1-.195.816s-1.765.907-4.071.953c-8.45.184-21.632-4.351-21.632-4.351s-.944-1.125-.625-3.713c.015-.122.03-.244.051-.373.026-.173 1.235-5.073 1.704-6.467 1.088.375 2.818.912 5.949 1.544.28.058.536.1.77.13.156.021.308.036.448.05.279.025.528.026.744.01h.023l.087-.001c.011-.007.017-.007.029-.007l.29-.017"/>
        <path fill="#31414D" d="M378.22 231.16c1.917-.04 3.495-.637 4.126-.91.023.267.018.526-.006.736-.055.506-.195.816-.195.816s-1.776.907-4.084.954c-8.446.18-21.631-4.354-21.631-4.354s-.421-.507-.604-1.618c3.433 1.109 14.72 4.54 22.394 4.377"/>
        <path fill="#9E635E" d="M329.42 213.064h-12.327a.93.93 0 0 1-.928-.926v-3.456a.93.93 0 0 1 .928-.926h12.326a.93.93 0 0 1 .929.926v3.456a.93.93 0 0 1-.929.926M356.137 213.22h12.327a.93.93 0 0 0 .928-.927v-3.455a.93.93 0 0 0-.928-.925h-12.327a.93.93 0 0 0-.929.925v3.455c0 .51.418.927.929.927"/>
        <path fill="#F6F6F4" d="M368.993 149.008h-53.286a2.633 2.633 0 0 1-2.637-2.63v-31.49a2.633 2.633 0 0 1 2.637-2.628h53.286a2.632 2.632 0 0 1 2.635 2.629v31.49a2.632 2.632 0 0 1-2.635 2.629"/>
        <path fill="#DADAD5" d="M313.542 147.855a2.643 2.643 0 0 0 2.202 1.196h53.287c1.456 0 2.609-1.199 2.609-2.65v-31.49a2.59 2.59 0 0 0-.605-1.686l-57.493 34.63"/>
        <path fill="#BBBBB6" d="M371.019 148.897h-57.28a.949.949 0 0 0-.95.948v1.422c0 .524.425.947.95.947h57.28c.525 0 .95-.423.95-.947v-1.422a.949.949 0 0 0-.95-.948"/>
        <path fill="#304753" d="M145.436 335.39l6.215-.25 6.068-.267-2.529.527s-3.438.553-6.7.806l-6.197.413s-3.487.287-4.08 2.205c0 0-.5 1.25-.225 2.54.228 1.105.919 1.828.919 1.828 1.087 1.592 4.683.674 4.683.674l5.957-1.752c3.149-.887 6.566-1.553 6.566-1.553l2.556-.379-5.787 1.842-5.917 1.91c-2.462 1.032-8.268 1.874-8.268 1.874-4.873.746-6.071-1.494-6.071-1.494-.248-.407-.593-1.122-.705-1.885-.28-1.556-.323-1.941-.103-2.563 0 0 .818-2.475 5.21-3.383 0 0 5.74-1.212 8.408-1.093"/>
        <path fill="#E5BD95" d="M142.293 336.619l6.198-.413c3.261-.253 6.706-.809 6.706-.809l3.673-.764 1.038 5.364-3.787.561s-3.422.668-6.57 1.556l-5.959 1.75s-3.598.92-4.684-.672c0 0-.692-.723-.92-1.828-.275-1.29.226-2.54.226-2.54.592-1.918 4.08-2.205 4.08-2.205"/>
        <path fill="#304753" d="M209.65 335.26l-6.213-.25-6.07-.269 2.53.527s3.438.554 6.7.807l6.196.413s3.487.287 4.08 2.204c0 0 .502 1.25.226 2.54-.227 1.106-.92 1.829-.92 1.829-1.086 1.593-4.683.674-4.683.674l-5.957-1.752c-3.148-.887-6.566-1.553-6.566-1.553l-2.556-.38 5.788 1.843 5.916 1.91c2.463 1.033 8.268 1.874 8.268 1.874 4.874.746 6.073-1.494 6.073-1.494.247-.407.591-1.122.704-1.885.28-1.555.322-1.941.103-2.563 0 0-.817-2.474-5.21-3.382 0 0-5.74-1.213-8.409-1.094"/>
        <path fill="#E5BD95" d="M212.793 336.488l-6.196-.413c-3.262-.253-6.707-.808-6.707-.808l-3.672-.764-1.039 5.363 3.787.562s3.42.666 6.57 1.555l5.96 1.75s3.596.92 4.683-.672c0 0 .691-.723.92-1.829.275-1.29-.225-2.54-.225-2.54-.594-1.917-4.08-2.204-4.08-2.204"/>
        <path fill="#2A2B29" d="M161.848 283.633h28.978v-38.495h-28.978z"/>
        <path fill="#EBD0B1" d="M189.777 254.022c0 9.087-5.697 16.454-12.724 16.454s-12.723-7.367-12.723-16.454 5.696-16.454 12.723-16.454c7.027 0 12.724 7.367 12.724 16.454"/>
        <path fill="#2A2B29" d="M197.578 285.118s-3.188-8.705-3.473-14.312c0 0 .457-18.812.532-23.439 0 0-.047-7.034-3.78-12.106 0 0-2.239-3.558-5.646-3.394 0 0-2.192-3.845-6.253-4.294 0 0-.703-.092-1.988-.092-1.287 0-1.99.092-1.99.092-4.06.449-6.756 2.424-6.756 2.424-3.271 2.052-5.374 5.075-5.374 5.075-3.733 5.07-3.548 12.295-3.548 12.295.075 4.627.532 23.439.532 23.439-.285 5.607-3.472 14.312-3.472 14.312l-2.614 17.71c3.594 3.476 13.113.286 13.113.286 3.721-1.144 4.684-2.35 4.684-2.35-1.96-6.912-4.31-24.992-4.31-24.992-.63-7.867.051-10.67.051-10.67-2.51-2.744-3.023-7.575-3.023-7.575-.653-8.934 2.045-12.389 2.045-12.389 3.817 1.335 7.39 1.584 10.662 1.475 3.272.109 6.959-.18 10.775-1.513 0 0 2.583 3.493 1.93 12.427 0 0-.513 4.83-3.023 7.575 0 0 .682 2.803.051 10.67 0 0-2.35 18.08-4.309 24.992 0 0 1.034 1.134 4.683 2.35 0 0 9.52 3.19 13.113-.287l-2.612-17.71"/>
        <path fill="#D4B494" d="M173.727 279.061l-7.47.328-1.305 4.659 10.877 7.72 10.184-3.931 2.783-8.448-15.069-.328"/>
        <path fill="#EBD0B1" d="M153.821 287.834c.188-1.04 2.136-1.397 4.353-.8 2.217.6 3.863 1.926 3.676 2.965a.86.86 0 0 1-.073.22s-5.68 5.606-.354 18.192c5.212 12.316 8.146 9.39 8.146 9.39l-7.903 1.31s-6.645-6.984-7.918-10.83c-2.397-7.25.075-20.134.075-20.134a.988.988 0 0 1-.002-.313M201.1 287.834c-.187-1.04-2.136-1.397-4.353-.8-2.216.6-3.862 1.926-3.675 2.965a.86.86 0 0 0 .073.22s5.68 5.606.353 18.192c-5.212 12.316-8.145 9.39-8.145 9.39l7.903 1.31s6.644-6.984 7.916-10.83c2.399-7.25-.073-20.134-.073-20.134a.988.988 0 0 0 .001-.313"/>
        <path fill="#8A566E" d="M193.295 317.888c0-3.194.439-6.389.933-8.971 1.959-1.47 3.27-4.136 3.27-7.184 0-2.029-.586-3.892-1.551-5.345.011-1.451.025-2.357.032-3.278l6.24-1.47-.88-4.288c-.383-1.807-2.568-3.695-4.708-4.492l-2.096-.975c-.03-.016-.058-.033-.091-.049-.299-.16-.727-.356-1.26-.584-1.105-.475-2.658-1.1-4.388-1.863-1.643 1.132-5.11 8.663-11.274 9.512-6.164-.849-9.62-8.38-11.264-9.512-1.73.764-3.272 1.388-4.378 1.863-.532.228-.96.425-1.26.584-.033.016-.061.033-.09.05l-2.363 1.099c-.463.216-.88.504-1.243.845-1.638.95-3.061 2.426-3.363 3.852l-.882 4.288 6.41 1.51c.007.803.019 1.65.028 2.908-.964 1.453-1.551 3.316-1.551 5.345 0 3.122 1.375 5.842 3.413 7.289.486 2.566.915 5.722.915 8.876 0 8.83.164 7.494-.03 7.94-.948 1.931 2.748.646 1.705 5.284l26.89.575c-1.044-4.638 4.647-3.21 3.698-5.144-.193-.444-.862.166-.862-8.665"/>
        <path fill="#E6E4CB" d="M177.891 232.348c-.244.004-.486-.006-.742-.012h-.036c-.22.006-.485.016-.73.012-2.012-.03-11.612.731-14.029 14.026h.867s1.73-8.731 10.138-10.986c.663-.178 3.297-.337 3.757-.316 1.726.076 2.612.018 3.805.45 8.204 2.975 9.68 10.852 9.68 10.852h.927c-3.55-13.514-11.626-14.057-13.637-14.026"/>
        <path fill="#D4B494" d="M181.653 269.369s-2.22 1.106-4.63 1.106c-2.277 0-4.197-.895-4.197-.895s3.303 7.487-6.568 9.809l11.295 4.768 11.243-4.768c-8.846-.702-7.143-10.02-7.143-10.02"/>
        <path fill="#C8A78B" d="M173.246 271.084l10.41 6.164s-2.759-2.36-2.003-7.88c0 0-4.35 2.356-8.825.219 0 0 .274.626.418 1.497"/>
        <path fill="#C47F4C" d="M147.764 331.22l8.326 1.795c2.406.247 12.01 1.93 15.893 3.021 17.723 4.975 31.067 5.133 31.067 5.133l1.46-5.287s-17.963-6.21-25.475-8.018c-6.647-1.6-19.424-8.164-30.536-8.473-5.174-.145-9.143 7.617-.735 11.83"/>
        <path fill="#B77449" d="M208.114 331.274l-8.329 1.776c-2.405.243-12.013 1.906-15.9 2.988-17.731 4.939-31.077 5.068-31.077 5.068l-1.45-5.289s17.977-6.173 25.493-7.965c6.65-1.586 19.442-8.124 30.554-8.41 5.174-.134 9.126 7.637.71 11.832"/>
        <path fill="#F6F6F4" d="M195.538 326.981h-36.061a1.78 1.78 0 0 1-1.783-1.778v-21.31c0-.984.798-1.78 1.783-1.78h36.061a1.78 1.78 0 0 1 1.783 1.78v21.31a1.78 1.78 0 0 1-1.783 1.778"/>
        <path fill="#DADAD5" d="M158.012 326.2c.319.485.868.81 1.491.81h36.06c.985 0 1.766-.81 1.766-1.792v-21.312c0-.435-.148-.83-.409-1.14l-38.908 23.435"/>
        <path fill="#BBBBB6" d="M196.909 326.907h-38.763a.642.642 0 0 0-.643.64v.964c0 .354.287.64.643.64h38.763a.641.641 0 0 0 .642-.64v-.963a.642.642 0 0 0-.642-.641"/>
        <path fill="#FFFEFD" d="M344.212 183.778c0 4.274-3.474 7.739-7.759 7.739s-7.759-3.465-7.759-7.739 3.474-7.738 7.759-7.738 7.759 3.464 7.759 7.738"/>
        <path fill="#D25950" d="M344.267 180.672a4.638 4.638 0 0 1-4.645 4.632 4.638 4.638 0 0 1-4.644-4.632 4.638 4.638 0 0 1 4.644-4.632 4.638 4.638 0 0 1 4.645 4.632"/>
        <path fill="#FFFEFD" d="M145.617 183.778a3.97 3.97 0 0 1-3.976 3.966 3.97 3.97 0 0 1-3.976-3.966 3.97 3.97 0 0 1 3.976-3.966 3.97 3.97 0 0 1 3.976 3.966M124.167 183.778c0 2.19-1.78 3.966-3.977 3.966a3.972 3.972 0 0 1-3.976-3.966c0-2.19 1.78-3.966 3.976-3.966a3.972 3.972 0 0 1 3.977 3.966M134.892 183.778c0 2.19-1.78 3.966-3.976 3.966a3.972 3.972 0 0 1-3.977-3.966c0-2.19 1.78-3.966 3.977-3.966a3.972 3.972 0 0 1 3.976 3.966"/>
    </g>
</svg>
