<?xml version="1.0" encoding="UTF-8"?>
<svg width="20px" height="20px" viewBox="0 0 20 20" version="1.1" xmlns="http://www.w3.org/2000/svg" xmlns:xlink="http://www.w3.org/1999/xlink">
    <defs></defs>
    <g id="Form" stroke="none" stroke-width="1" fill="none" fill-rule="evenodd">
        <rect id="Rectangle-8" x="0" y="0" width="20" height="20"></rect>
        <path d="M9.61523712,11.6068752 C9.53883139,11.377658 9.27141134,11.1866437 9.00399129,11.2248466 L8.73657125,11.2248466 C5.2983135,11.2248466 2.50950443,8.47424039 2.50950443,5.0741855 L2.50950443,4.92137405 C2.50950443,4.61575113 2.08927293,4.50114254 1.93646147,4.73035973 C1.70724429,5.03598264 1.55443284,5.41801128 1.43982424,5.80003991 C0.90498415,7.55737165 1.5926357,9.46751485 3.08254739,10.537195 C3.77019894,11.0338323 4.49605336,11.2630495 5.22190777,11.3394552 L5.45112495,11.9124981 C5.48932782,11.9889039 5.52753068,12.0653096 5.60393641,12.1035125 L6.52080514,12.4855411 C6.6736166,12.5619468 6.75002232,12.7147583 6.6736166,12.8675697 L6.36799369,13.7462356 C6.29158796,13.8990471 6.40619655,14.0518585 6.52080514,14.1282642 L7.01744237,14.3574814 C7.17025383,14.4338872 7.24665956,14.5866986 7.17025383,14.7395101 L6.90283378,15.6945817 C6.86463092,15.8473931 6.94103664,16.0002046 7.05564524,16.0766103 L7.78149965,16.3822332 C7.93431111,16.4586389 8.01071683,16.6114504 7.93431111,16.7642619 L7.66689106,17.7193334 C7.62868819,17.8721449 7.70509392,18.0249564 7.85790538,18.1013621 L9.95906289,19.0564337 C10.1118743,19.1328394 10.3028887,19.0564337 10.3792944,18.9036222 L11.2961631,16.8406676 C11.3725689,16.6878561 11.3725689,16.5350447 11.334366,16.3822332 L9.61523712,11.6068752 Z M17.8670557,11.3012523 L12.9006834,6.18206855 C13.1299006,5.41801128 13.1299006,4.57754827 12.8242777,3.6988824 C12.2512347,2.05615925 10.7231202,0.871870473 8.92758557,0.757261881 C6.25338509,0.64265329 4.07582185,2.89662226 4.3432419,5.57082273 C4.57245908,7.4045602 5.94776218,8.93267475 7.78149965,9.27650053 C8.58375979,9.42931198 9.38601993,9.35290626 10.0736715,9.12368907 L10.493903,9.58212344 C10.5703087,9.65852917 10.6085116,9.65852917 10.7231202,9.65852917 L11.7928004,9.65852917 C11.9838147,9.65852917 12.0984233,9.77313776 12.0984233,9.96415208 L12.174829,10.9192237 C12.174829,11.0720351 12.3276405,11.1866437 12.4804519,11.1866437 L13.0916977,11.1866437 C13.282712,11.1866437 13.3973206,11.3012523 13.3973206,11.4922666 L13.5501321,12.4855411 C13.588335,12.6383526 13.7029436,12.7147583 13.855755,12.7147583 L14.6198123,12.7147583 C14.8108266,12.7147583 14.9254352,12.8293669 14.9254352,13.0203812 L15.0782467,14.0136557 C15.1164495,14.1664671 15.2310581,14.2428728 15.3838696,14.2428728 L17.7142443,14.2428728 C17.9052586,14.2428728 18.0198672,14.1282642 18.0198672,13.9372499 L18.0198672,11.683281 C18.05807,11.5304695 17.9816643,11.377658 17.8670557,11.3012523 Z M8.08712256,5.95285137 C7.20845669,5.95285137 6.52080514,5.26519982 6.52080514,4.42473681 C6.52080514,3.58427381 7.20845669,2.89662226 8.08712256,2.89662226 C8.96578843,2.89662226 9.65343998,3.58427381 9.65343998,4.42473681 C9.65343998,5.26519982 8.96578843,5.95285137 8.08712256,5.95285137 Z" id="Shape" fill="#5C6870" fill-rule="nonzero"></path>
    </g>
</svg>