<svg xmlns="http://www.w3.org/2000/svg" xmlns:xlink="http://www.w3.org/1999/xlink" width="1280" height="850" viewBox="0 0 1280 850">
    <defs>
        <path id="a" d="M.06.477H1286V850H.06z"/>
    </defs>
    <g fill="none" fill-rule="evenodd">
        <mask id="b" fill="#fff">
            <use xlink:href="#a"/>
        </mask>
        <path fill="#01ADFF" d="M0 850h1285.94V.477H0z" mask="url(#b)"/>
        <path fill="#3398C8" d="M139.621 621.625l6.875-28.718h44.492l-6.875 28.718h-44.492zm-8.187 34.211l6.875-28.718h44.492l-6.875 28.718h-44.492zm-8.188 34.219l6.875-28.75h44.492l-6.875 28.75h-44.492zm-8.172 34.18l6.871-28.711h44.477l-6.871 28.711h-44.477zm-8.191 34.219l6.875-28.719h44.492l-6.891 28.719h-44.476zm-8.188 34.211l6.875-28.719h44.493l-6.891 28.719H98.695zm-8.187 34.218l6.875-28.718h44.492L135 826.883H90.508zm114.637-479.062l6.871-28.719h44.492l-6.871 28.719h-44.492zm-8.188 34.215l6.871-28.735h44.492l-6.875 28.735h-44.488zm-8.191 34.199l6.875-28.719h44.492l-6.875 28.719h-44.492zm-8.188 34.211l6.891-28.715h44.476l-6.875 28.715h-44.492zm-8.187 34.234l6.89-28.75h44.477l-6.875 28.75h-44.492zm-8.172 34.18l6.871-28.719h44.476l-6.871 28.719h-44.476zm-8.192 34.219l6.875-28.719h44.493l-6.875 28.719h-44.493zm40.203 17.937l-1.98 8.211-1.949 8.188h-44.488l6.902-28.844h44.492l-2.977 12.445zm-49.96 0L78.785 853h5.469l4.941-20.656h44.489L128.746 853h5.484l132.989-555.793h-5.485l-3.925 16.399h-44.477l3.926-16.399h-5.469L146.27 571.016z"/>
        <path fill="#EAEBED" d="M189.114 327.407c-18.84 0-34.114-15.266-34.114-34.094 0-15.883 10.879-29.246 25.594-33.024.074-23.914 19.504-43.289 43.449-43.289 18.067 0 33.567 11.024 40.125 26.711a43.368 43.368 0 0 1 16.317-3.172c24.004 0 43.449 19.45 43.449 43.442 0 23.976-19.445 43.426-43.449 43.426h-91.371"/>
        <path fill="#2D2E2C" d="M217.258 621.625h44.476v-28.718h-44.476v28.718zm0 34.211h44.476v-28.718h-44.476v28.718zm0 34.219h44.476v-28.75h-44.476v28.75zm0 34.18h44.476v-28.711h-44.476v28.711zm0 34.219h44.476v-28.719h-44.476v28.719zm0 34.211h44.476v-28.719h-44.476v28.719zm0 34.218h44.476v-28.718h-44.476v28.718zm0-479.062h44.476v-28.719h-44.476v28.719zm0 34.215h44.476v-28.735h-44.476v28.735zm0 34.199h44.476v-28.719h-44.476v28.719zm0 34.211h44.476v-28.715h-44.476v28.715zm0 34.234h44.476v-28.75h-44.476v28.75zm0 34.18h44.476v-28.719h-44.476v28.719zm0 34.219h44.476V524.36h-44.476v28.719zm44.476 17.937v16.399h-44.476v-28.844h44.476v12.445zm-49.945 0V853h5.469v-20.656h44.476V853h5.485V297.207h-5.485v16.399h-44.476v-16.399h-5.469v273.809z"/>
        <path fill="#EAEBED" d="M40.184 120.743c-11.254 0-20.395-9.137-20.395-20.383 0-9.5 6.512-17.469 15.305-19.735.047-14.285 11.648-25.867 25.969-25.867 10.804 0 20.05 6.586 23.96 15.961a26.297 26.297 0 0 1 9.774-1.886c14.34 0 25.973 11.609 25.973 25.953 0 14.332-11.633 25.957-25.973 25.957H40.184M1073.395 170.985c-11.254 0-20.395-9.137-20.395-20.383 0-9.5 6.512-17.469 15.305-19.735.047-14.285 11.648-25.867 25.969-25.867 10.804 0 20.05 6.586 23.96 15.961a26.297 26.297 0 0 1 9.774-1.886c14.34 0 25.973 11.609 25.973 25.953 0 14.332-11.633 25.957-25.973 25.957h-54.613M1173.258 334.316c-10.633 0-19.258-8.625-19.258-19.254 0-8.969 6.148-16.504 14.453-18.633.047-13.496 11-24.429 24.523-24.429 10.196 0 18.946 6.222 22.641 15.07a24.564 24.564 0 0 1 9.219-1.781c13.555 0 24.515 10.976 24.515 24.504 0 13.543-10.96 24.523-24.515 24.523h-51.578M553.781 125.543c-6.859 0-12.437-5.57-12.437-12.425 0-5.797 3.976-10.676 9.336-12.051.031-8.711 7.101-15.778 15.836-15.778 6.601 0 12.234 4.016 14.64 9.739a15.84 15.84 0 0 1 5.946-1.16c8.75 0 15.851 7.093 15.851 15.836 0 8.742-7.101 15.839-15.851 15.839h-33.321"/>
    </g>
</svg>
