<?xml version="1.0" encoding="UTF-8"?>
<svg width="175px" height="189px" viewBox="0 0 175 189" version="1.1" xmlns="http://www.w3.org/2000/svg" xmlns:xlink="http://www.w3.org/1999/xlink">
    <!-- Generator: Sketch 48.2 (47327) - http://www.bohemiancoding.com/sketch -->
    <title>select_price</title>
    <desc>Created with Sketch.</desc>
    <defs>
        <rect id="path-1" x="0" y="0" width="80" height="11.9669317"></rect>
        <filter x="-2.1%" y="-12.5%" width="104.1%" height="128.4%" filterUnits="objectBoundingBox" id="filter-2">
            <feOffset dx="0" dy="0" in="SourceAlpha" result="shadowOffsetOuter1"></feOffset>
            <feGaussianBlur stdDeviation="0.5" in="shadowOffsetOuter1" result="shadowBlurOuter1"></feGaussianBlur>
            <feColorMatrix values="0 0 0 0 0   0 0 0 0 0   0 0 0 0 0  0 0 0 0.12 0" type="matrix" in="shadowBlurOuter1" result="shadowMatrixOuter1"></feColorMatrix>
            <feOffset dx="0" dy="0.25" in="SourceAlpha" result="shadowOffsetOuter2"></feOffset>
            <feGaussianBlur stdDeviation="0.075" in="shadowOffsetOuter2" result="shadowBlurOuter2"></feGaussianBlur>
            <feColorMatrix values="0 0 0 0 0   0 0 0 0 0   0 0 0 0 0  0 0 0 0.24 0" type="matrix" in="shadowBlurOuter2" result="shadowMatrixOuter2"></feColorMatrix>
            <feMerge>
                <feMergeNode in="shadowMatrixOuter1"></feMergeNode>
                <feMergeNode in="shadowMatrixOuter2"></feMergeNode>
            </feMerge>
        </filter>
        <path d="M2.6319737,8.9532092 L4.37242477,3.50316192 C4.44310885,3.28182007 4.35846391,2.99990838 4.22132577,2.99990838 L3.0591796,2.99990838 L3.81040765,0.984451381 C3.88739234,0.763611628 3.80327171,0.470101454 3.66300549,0.470101454 L1.66065719,0.470101454 C1.58240172,0.470101454 1.51351273,0.567240819 1.49146506,0.708648555 L1.22228218,4.19858538 C1.18913513,4.41124093 1.27378896,4.62421447 1.39147431,4.62421447 L2.96364857,4.62421447 L2.47033518,8.83180173 C2.44879404,9.01553639 2.58049358,9.1144331 2.6319737,8.9532092 Z" id="path-3"></path>
        <filter x="-62.8%" y="-11.7%" width="225.7%" height="146.7%" filterUnits="objectBoundingBox" id="filter-4">
            <feOffset dx="0" dy="1" in="SourceAlpha" result="shadowOffsetOuter1"></feOffset>
            <feGaussianBlur stdDeviation="0.5" in="shadowOffsetOuter1" result="shadowBlurOuter1"></feGaussianBlur>
            <feColorMatrix values="0 0 0 0 0   0 0 0 0 0   0 0 0 0 0  0 0 0 0.176347373 0" type="matrix" in="shadowBlurOuter1"></feColorMatrix>
        </filter>
        <filter x="-94.3%" y="-23.4%" width="288.5%" height="170.1%" filterUnits="objectBoundingBox" id="filter-5">
            <feGaussianBlur stdDeviation="1.5" in="SourceAlpha" result="shadowBlurInner1"></feGaussianBlur>
            <feOffset dx="0" dy="1" in="shadowBlurInner1" result="shadowOffsetInner1"></feOffset>
            <feComposite in="shadowOffsetInner1" in2="SourceAlpha" operator="arithmetic" k2="-1" k3="1" result="shadowInnerInner1"></feComposite>
            <feColorMatrix values="0 0 0 0 0.924372874   0 0 0 0 0.912756104   0 0 0 0 0.861620999  0 0 0 0.159759964 0" type="matrix" in="shadowInnerInner1"></feColorMatrix>
        </filter>
        <rect id="path-6" x="0" y="0" width="34.641118" height="34.641118" rx="2"></rect>
        <filter x="-1.4%" y="-0.7%" width="102.9%" height="102.9%" filterUnits="objectBoundingBox" id="filter-7">
            <feOffset dx="0" dy="0.25" in="SourceAlpha" result="shadowOffsetOuter1"></feOffset>
            <feGaussianBlur stdDeviation="0.125" in="shadowOffsetOuter1" result="shadowBlurOuter1"></feGaussianBlur>
            <feComposite in="shadowBlurOuter1" in2="SourceAlpha" operator="out" result="shadowBlurOuter1"></feComposite>
            <feColorMatrix values="0 0 0 0 0   0 0 0 0 0   0 0 0 0 0  0 0 0 0.232478487 0" type="matrix" in="shadowBlurOuter1"></feColorMatrix>
        </filter>
        <rect id="path-8" x="0" y="0" width="34.641118" height="34.641118" rx="2"></rect>
        <filter x="-1.4%" y="-0.7%" width="102.9%" height="102.9%" filterUnits="objectBoundingBox" id="filter-9">
            <feOffset dx="0" dy="0.25" in="SourceAlpha" result="shadowOffsetOuter1"></feOffset>
            <feGaussianBlur stdDeviation="0.125" in="shadowOffsetOuter1" result="shadowBlurOuter1"></feGaussianBlur>
            <feComposite in="shadowBlurOuter1" in2="SourceAlpha" operator="out" result="shadowBlurOuter1"></feComposite>
            <feColorMatrix values="0 0 0 0 0   0 0 0 0 0   0 0 0 0 0  0 0 0 0.232478487 0" type="matrix" in="shadowBlurOuter1"></feColorMatrix>
        </filter>
        <rect id="path-10" x="0" y="5.25499224" width="35.5176857" height="34.4248338" rx="2"></rect>
        <filter x="-4.6%" y="-4.0%" width="109.2%" height="109.4%" filterUnits="objectBoundingBox" id="filter-11">
            <feOffset dx="0" dy="0.25" in="SourceAlpha" result="shadowOffsetOuter1"></feOffset>
            <feGaussianBlur stdDeviation="0.5" in="shadowOffsetOuter1" result="shadowBlurOuter1"></feGaussianBlur>
            <feComposite in="shadowBlurOuter1" in2="SourceAlpha" operator="out" result="shadowBlurOuter1"></feComposite>
            <feColorMatrix values="0 0 0 0 0   0 0 0 0 0   0 0 0 0 0  0 0 0 0.232478487 0" type="matrix" in="shadowBlurOuter1"></feColorMatrix>
        </filter>
        <rect id="path-12" x="0" y="0" width="34.641118" height="34.641118" rx="2"></rect>
        <filter x="-1.4%" y="-0.7%" width="102.9%" height="102.9%" filterUnits="objectBoundingBox" id="filter-13">
            <feOffset dx="0" dy="0.25" in="SourceAlpha" result="shadowOffsetOuter1"></feOffset>
            <feGaussianBlur stdDeviation="0.125" in="shadowOffsetOuter1" result="shadowBlurOuter1"></feGaussianBlur>
            <feComposite in="shadowBlurOuter1" in2="SourceAlpha" operator="out" result="shadowBlurOuter1"></feComposite>
            <feColorMatrix values="0 0 0 0 0   0 0 0 0 0   0 0 0 0 0  0 0 0 0.232478487 0" type="matrix" in="shadowBlurOuter1"></feColorMatrix>
        </filter>
    </defs>
    <g id="Page-1" stroke="none" stroke-width="1" fill="none" fill-rule="evenodd">
        <g id="select_price" transform="translate(0.000000, -11.000000)">
            <polygon id="Shape" fill="#FCCD95" points="18.1434143 159.633028 1 200 44 200 51.4428691 174.704016"></polygon>
            <polygon id="Shape" fill="#B7B7B7" points="4 190 0 200 39 200"></polygon>
            <ellipse id="Oval" fill="#FCCD95" cx="46.3969975" cy="154.587156" rx="28.8990826" ry="29.8165138"></ellipse>
            <path d="M38.3558728,102.038735 C36.1542642,101.355047 33.7394421,102.447629 32.9991841,104.467918 L18.9103264,142.879779 C17.6238586,146.383958 18.836061,152.589915 22.6523423,153.774828 C26.4686236,154.959742 30.6586274,153.069156 31.9379082,149.56278 L44.3977193,115.494868 C46.4819408,109.794533 43.0513602,103.498443 38.3558728,102.038735 Z" id="Shape" fill="#D4A873"></path>
            <g id="phone-good" transform="translate(40.433695, 11.009174)" fill-rule="nonzero">
                <g id="phone_9_">
                    <path d="M85.6832514,149.636534 C85.6832514,152.087309 83.6845721,154.074098 81.2198609,154.074098 L4.45979815,154.074098 C1.99476033,154.074098 0,152.086984 0,149.636534 L0,4.43756418 C0,1.98646504 1.99476033,0 4.45979815,0 L81.2198609,0 C83.6848987,0 85.6832514,1.98678973 85.6832514,4.43756418 L85.6832514,149.636534 Z" id="Shape" fill="#E5E9EA"></path>
                    <rect id="Rectangle-path" fill="#F3F4F6" x="2.69868508" y="11.4378152" width="79.61121" height="129.18003"></rect>
                    <path d="M51.9496879,6.73253499 C51.9496879,7.91363817 51.0899494,8.07375189 50.0283483,8.07375189 L34.3058775,8.07375189 C33.2442764,8.07375189 32.384221,7.91363817 32.384221,6.73253499 C32.384221,5.55107914 33.2439595,5.38250126 34.3058775,5.38250126 L50.0283483,5.38250126 C51.0896325,5.38250126 51.9496879,5.55107914 51.9496879,6.73253499 Z" id="Shape" fill="#B4BBC0"></path>
                    <ellipse id="Oval" fill="#B4BBC0" cx="42.5042901" cy="147.345972" rx="4.04802763" ry="4.03687594"></ellipse>
                </g>
            </g>
            <g id="price" transform="translate(43.000000, 22.500000)">
                <g id="Group-5">
                    <g id="Rectangle-5">
                        <use fill="black" fill-opacity="1" filter="url(#filter-2)" xlink:href="#path-1"></use>
                        <use fill="#2196F3" fill-rule="evenodd" xlink:href="#path-1"></use>
                    </g>
                    <g id="logo" transform="translate(4.348474, 1.087903)">
                        <g id="Group-2-Copy-14" transform="translate(0.218182, 0.000000)">
                            <path d="M3.03490909,4.79553191 L3.03490909,5.82765957 C3.03490909,6.63510638 2.70763636,7.09148936 1.96145455,7.09148936 C1.69963636,7.09148936 1.36581818,7.0493617 1.14981818,6.99319149 L1.14981818,8.40446809 L0.207272727,8.54489362 L0.207272727,3.60191489 L0.946909091,3.60191489 L1.04509091,3.87574468 C1.26763636,3.7212766 1.68,3.53170213 2.02690909,3.53170213 C2.67490909,3.53170213 3.03490909,3.96 3.03490909,4.79553191 Z M1.14981818,4.67617021 L1.14981818,6.12957447 C1.31345455,6.17170213 1.55563636,6.21382979 1.752,6.21382979 C2.00072727,6.21382979 2.09236364,6.05234043 2.09236364,5.82765957 L2.09236364,4.79553191 C2.09236364,4.55680851 2.00072727,4.4093617 1.752,4.4093617 C1.536,4.4093617 1.28727273,4.54978723 1.14981818,4.67617021 Z M4.99854545,7.09148936 C3.86618182,7.09148936 3.55854545,6.41042553 3.55854545,5.70829787 L3.55854545,4.91489362 C3.55854545,4.21276596 3.86618182,3.53170213 4.99854545,3.53170213 C6.13090909,3.53170213 6.43854545,4.21276596 6.43854545,4.91489362 L6.43854545,5.70829787 C6.43854545,6.41042553 6.13090909,7.09148936 4.99854545,7.09148936 Z M4.99854545,6.24191489 C5.33890909,6.24191489 5.496,6.0593617 5.496,5.73638298 L5.496,4.88680851 C5.496,4.56382979 5.33890909,4.3812766 4.99854545,4.3812766 C4.65818182,4.3812766 4.50109091,4.56382979 4.50109091,4.88680851 L4.50109091,5.73638298 C4.50109091,6.0593617 4.65818182,6.24191489 4.99854545,6.24191489 Z M9.92727273,7.0212766 L8.98472727,7.0212766 L8.98472727,4.76042553 C8.98472727,4.60595745 8.91927273,4.51468085 8.75563636,4.51468085 C8.58545455,4.51468085 8.27127273,4.64106383 8.06836364,4.76042553 L8.06836364,7.0212766 L7.12581818,7.0212766 L7.12581818,3.60191489 L7.82618182,3.60191489 L7.92436364,3.86170213 C8.31709091,3.65808511 8.82763636,3.53170213 9.19418182,3.53170213 C9.73745455,3.53170213 9.92727273,3.96702128 9.92727273,4.62702128 L9.92727273,7.0212766 Z M11.688,7.0212766 L10.7454545,7.0212766 L10.7454545,2.20468085 L11.688,2.06425532 L11.688,7.0212766 Z M15.0196364,7.0212766 L14.2472727,7.0212766 L14.1818182,6.80361702 C13.8152727,7.0212766 13.488,7.09148936 13.272,7.09148936 C12.6829091,7.09148936 12.4407273,6.63510638 12.4407273,6.05234043 C12.4407273,5.36425532 12.7352727,5.09042553 13.3898182,5.09042553 L14.0770909,5.09042553 L14.0770909,4.8306383 C14.0770909,4.47957447 14.0181818,4.36021277 13.5141818,4.36021277 C13.2327273,4.36021277 12.9512727,4.39531915 12.6501818,4.45851064 L12.5258182,3.70021277 C12.8269091,3.60191489 13.3047273,3.53170213 13.6712727,3.53170213 C14.7774545,3.53170213 15.0196364,3.88978723 15.0196364,4.83765957 L15.0196364,7.0212766 Z M14.0770909,6.18574468 L14.0770909,5.79255319 L13.6254545,5.79255319 C13.4225455,5.79255319 13.344,5.8487234 13.344,6.03829787 C13.344,6.22787234 13.416,6.30510638 13.5992727,6.30510638 C13.7956364,6.30510638 13.9330909,6.25595745 14.0770909,6.18574468 Z" id="ponla" fill="#FFFFFF"></path>
                            <path d="M22.3243636,7.0212766 L21.552,7.0212766 L21.4865455,6.80361702 C21.12,7.0212766 20.7927273,7.09148936 20.5767273,7.09148936 C19.9876364,7.09148936 19.7454545,6.63510638 19.7454545,6.05234043 C19.7454545,5.36425532 20.04,5.09042553 20.6945455,5.09042553 L21.3818182,5.09042553 L21.3818182,4.8306383 C21.3818182,4.47957447 21.3229091,4.36021277 20.8189091,4.36021277 C20.5374545,4.36021277 20.256,4.39531915 19.9549091,4.45851064 L19.8305455,3.70021277 C20.1316364,3.60191489 20.6094545,3.53170213 20.976,3.53170213 C22.0821818,3.53170213 22.3243636,3.88978723 22.3243636,4.83765957 L22.3243636,7.0212766 Z M21.3818182,6.18574468 L21.3818182,5.79255319 L20.9301818,5.79255319 C20.7272727,5.79255319 20.6487273,5.8487234 20.6487273,6.03829787 C20.6487273,6.22787234 20.7207273,6.30510638 20.904,6.30510638 C21.1003636,6.30510638 21.2378182,6.25595745 21.3818182,6.18574468 Z" id="a" fill="#FFFFFF"></path>
                            <g id="electric-ray-copy" transform="translate(17.548545, 5.559292) rotate(18.000000) translate(-17.548545, -5.559292) translate(14.712181, 0.878441)" fill-rule="nonzero">
                                <g id="Shape" transform="translate(2.806477, 4.752259) rotate(-18.000000) translate(-2.806477, -4.752259) ">
                                    <use fill="black" fill-opacity="1" filter="url(#filter-4)" xlink:href="#path-3"></use>
                                    <use fill="#FFFFFF" fill-rule="evenodd" xlink:href="#path-3"></use>
                                    <use fill="black" fill-opacity="1" filter="url(#filter-5)" xlink:href="#path-3"></use>
                                </g>
                            </g>
                        </g>
                    </g>
                </g>
                <g transform="translate(3.561737, 23.744912)">
                    <g id="visualpicker-copy-3" transform="translate(38.420149, 17.005640)">
                        <g id="Rectangle-4-Copy-2">
                            <use fill="black" fill-opacity="1" filter="url(#filter-7)" xlink:href="#path-6"></use>
                            <use fill="#FFFFFF" fill-rule="evenodd" xlink:href="#path-6"></use>
                            <rect stroke-opacity="0.15" stroke="#000000" stroke-width="0.25" x="0.125" y="0.125" width="34.391118" height="34.391118" rx="2"></rect>
                        </g>
                        <path d="M12.2430431,19.3198927 C12.0660406,19.3005824 11.8853533,19.2655829 11.7009758,19.2148933 C11.5165982,19.1642037 11.3359109,19.0978254 11.1589084,19.0157565 L11.1589084,18.1467958 C11.5964979,18.4316232 12.0340807,18.5740348 12.4716701,18.5740348 C12.7125902,18.5740348 12.9080275,18.5185184 13.0579879,18.407484 C13.2079483,18.2964496 13.2829274,18.1516243 13.2829274,17.9730037 C13.2829274,17.8233486 13.2288441,17.7062814 13.1206759,17.6217987 C13.0125078,17.537316 12.8772996,17.4636965 12.7150473,17.4009379 C12.5527951,17.3381793 12.3757952,17.2766285 12.1840426,17.2162837 C11.9922899,17.1559389 11.8152901,17.076285 11.6530378,16.9773195 C11.4907856,16.8783541 11.3555774,16.7492181 11.2474092,16.5899079 C11.139241,16.4305976 11.0851578,16.2206009 11.0851578,15.9599114 C11.0851578,15.6412909 11.1896368,15.3697434 11.3985981,15.1452607 C11.6075593,14.9207781 11.8890382,14.7699184 12.2430431,14.692677 L12.2430431,13.5847522 L13.0616754,13.5847522 L13.0616754,14.6419877 C13.2190109,14.6564704 13.3788024,14.6842286 13.5410547,14.7252631 C13.7033069,14.7662975 13.8655568,14.8230208 14.027809,14.8954345 L14.027809,15.7426712 C13.6344702,15.5061196 13.2362206,15.3878456 12.8330484,15.3878456 C12.6019618,15.3878456 12.4138995,15.4385345 12.2688558,15.5399137 C12.1238121,15.641293 12.0512914,15.7764633 12.0512914,15.9454287 C12.0512914,16.0854286 12.1053747,16.1952545 12.2135428,16.2749096 C12.321711,16.3545648 12.4569192,16.4245637 12.6191715,16.4849085 C12.7814237,16.5452533 12.9584235,16.606804 13.1501762,16.6695626 C13.3419289,16.7323212 13.5189287,16.8143889 13.6811809,16.9157682 C13.8434332,17.0171474 13.9786414,17.149904 14.0868096,17.3140418 C14.1949777,17.4781796 14.249061,17.6930039 14.249061,17.958521 C14.249061,18.2916242 14.1421236,18.5740336 13.9282456,18.8057577 C13.7143677,19.0374817 13.4255138,19.1943758 13.0616754,19.2764447 L13.0616754,20.3771282 L12.2430431,20.3771282 L12.2430431,19.3198927 Z M15.1193188,18.8781711 C15.5077408,18.5450678 15.8383863,18.2421415 16.1112651,17.969383 C16.3841439,17.6966245 16.6066229,17.4468008 16.7787086,17.2199044 C16.9507943,16.993008 17.0773983,16.785425 17.1585245,16.5971492 C17.2396506,16.4088735 17.2802131,16.2326693 17.2802131,16.0685315 C17.2802131,15.8174971 17.2003173,15.6135348 17.0405234,15.4566383 C16.8807295,15.2997419 16.6754589,15.2212948 16.4247054,15.2212948 C16.2378695,15.2212948 16.0436614,15.2599149 15.8420752,15.3371562 C15.6404891,15.4143976 15.438906,15.5302578 15.2373198,15.6847405 L15.2373198,14.8085385 C15.6994929,14.5381938 16.1862424,14.4030235 16.6975829,14.4030235 C16.9237527,14.4030235 17.13394,14.4404367 17.328151,14.5152642 C17.522362,14.5900918 17.6882993,14.6950902 17.8259679,14.8302625 C17.9636365,14.9654348 18.0718031,15.1247427 18.1504708,15.3081909 C18.2291386,15.491639 18.2684719,15.6943945 18.2684719,15.9164634 C18.2684719,16.1047391 18.2328261,16.3002533 18.1615334,16.5030118 C18.0902408,16.7057703 17.9796159,16.9193877 17.8296555,17.1438703 C17.679695,17.368353 17.4879452,17.6073148 17.2544003,17.8607629 C17.0208554,18.114211 16.7442932,18.3857585 16.4247054,18.6754136 L18.3200973,18.6754136 L18.3200973,19.4719609 L15.1193188,19.4719609 L15.1193188,18.8781711 Z M19.0502289,16.9809402 C19.0502289,16.5995611 19.0969371,16.2507734 19.1903551,15.9345667 C19.2837731,15.61836 19.4140646,15.3468125 19.5812336,15.1199161 C19.7484026,14.8930196 19.9487565,14.7168155 20.1823015,14.5912983 C20.4158464,14.4657811 20.6752003,14.4030235 20.9603709,14.4030235 C21.2406248,14.4030235 21.4975204,14.4657811 21.7310653,14.5912983 C21.9646102,14.7168155 22.1649642,14.8930196 22.3321332,15.1199161 C22.4993021,15.3468125 22.6295937,15.61836 22.7230116,15.9345667 C22.8164296,16.2507734 22.8631379,16.5995611 22.8631379,16.9809402 C22.8631379,17.3623193 22.8164296,17.711107 22.7230116,18.0273137 C22.6295937,18.3435204 22.4993021,18.6150679 22.3321332,18.8419644 C22.1649642,19.0688608 21.9646102,19.2450649 21.7310653,19.3705821 C21.4975204,19.4960993 21.2406248,19.5588569 20.9603709,19.5588569 C20.6752003,19.5588569 20.4158464,19.4960993 20.1823015,19.3705821 C19.9487565,19.2450649 19.7484026,19.0688608 19.5812336,18.8419644 C19.4140646,18.6150679 19.2837731,18.3435204 19.1903551,18.0273137 C19.0969371,17.711107 19.0502289,17.3623193 19.0502289,16.9809402 Z M20.0016124,16.9809402 C20.0016124,17.2512849 20.0237373,17.4962811 20.0679879,17.7159361 C20.1122386,17.9355912 20.1761552,18.1226572 20.2597397,18.2771399 C20.3433242,18.4316226 20.4441157,18.5511035 20.5621174,18.6355862 C20.680119,18.7200689 20.8128689,18.7623096 20.9603709,18.7623096 C21.1029562,18.7623096 21.2332478,18.7200689 21.3512494,18.6355862 C21.469251,18.5511035 21.5700426,18.4316226 21.6536271,18.2771399 C21.7372116,18.1226572 21.8011282,17.9355912 21.8453788,17.7159361 C21.8896294,17.4962811 21.9117544,17.2512849 21.9117544,16.9809402 C21.9117544,16.7105955 21.8896294,16.4655993 21.8453788,16.2459443 C21.8011282,16.0262892 21.7372116,15.8392232 21.6536271,15.6847405 C21.5700426,15.5302578 21.469251,15.4107769 21.3512494,15.3262942 C21.2332478,15.2418115 21.1029562,15.1995708 20.9603709,15.1995708 C20.8128689,15.1995708 20.680119,15.2418115 20.5621174,15.3262942 C20.4441157,15.4107769 20.3433242,15.5302578 20.2597397,15.6847405 C20.1761552,15.8392232 20.1122386,16.0262892 20.0679879,16.2459443 C20.0237373,16.4655993 20.0016124,16.7105955 20.0016124,16.9809402 Z" id="$20" fill="#2196F3"></path>
                    </g>
                    <g id="visualpicker-copy-4" transform="translate(38.420149, 54.795950)">
                        <g id="Rectangle-4-Copy-2">
                            <use fill="black" fill-opacity="1" filter="url(#filter-9)" xlink:href="#path-8"></use>
                            <use fill="#FFFFFF" fill-rule="evenodd" xlink:href="#path-8"></use>
                            <rect stroke-opacity="0.15" stroke="#000000" stroke-width="0.25" x="0.125" y="0.125" width="34.391118" height="34.391118" rx="2"></rect>
                        </g>
                        <path d="M13.6286878,19.3198927 C13.4516854,19.3005824 13.2709981,19.2655829 13.0866205,19.2148933 C12.9022429,19.1642037 12.7215556,19.0978254 12.5445531,19.0157565 L12.5445531,18.1467958 C12.9821426,18.4316232 13.4197254,18.5740348 13.8573149,18.5740348 C14.0982349,18.5740348 14.2936722,18.5185184 14.4436326,18.407484 C14.593593,18.2964496 14.6685721,18.1516243 14.6685721,17.9730037 C14.6685721,17.8233486 14.6144888,17.7062814 14.5063207,17.6217987 C14.3981525,17.537316 14.2629443,17.4636965 14.100692,17.4009379 C13.9384398,17.3381793 13.76144,17.2766285 13.5696873,17.2162837 C13.3779346,17.1559389 13.2009348,17.076285 13.0386826,16.9773195 C12.8764303,16.8783541 12.7412221,16.7492181 12.6330539,16.5899079 C12.5248858,16.4305976 12.4708025,16.2206009 12.4708025,15.9599114 C12.4708025,15.6412909 12.5752815,15.3697434 12.7842428,15.1452607 C12.993204,14.9207781 13.2746829,14.7699184 13.6286878,14.692677 L13.6286878,13.5847522 L14.4473201,13.5847522 L14.4473201,14.6419877 C14.6046557,14.6564704 14.7644471,14.6842286 14.9266994,14.7252631 C15.0889517,14.7662975 15.2512015,14.8230208 15.4134538,14.8954345 L15.4134538,15.7426712 C15.0201149,15.5061196 14.6218654,15.3878456 14.2186931,15.3878456 C13.9876065,15.3878456 13.7995442,15.4385345 13.6545006,15.5399137 C13.5094569,15.641293 13.4369361,15.7764633 13.4369361,15.9454287 C13.4369361,16.0854286 13.4910194,16.1952545 13.5991876,16.2749096 C13.7073557,16.3545648 13.8425639,16.4245637 14.0048162,16.4849085 C14.1670684,16.5452533 14.3440682,16.606804 14.5358209,16.6695626 C14.7275736,16.7323212 14.9045734,16.8143889 15.0668257,16.9157682 C15.2290779,17.0171474 15.3642861,17.149904 15.4724543,17.3140418 C15.5806225,17.4781796 15.6347057,17.6930039 15.6347057,17.958521 C15.6347057,18.2916242 15.5277683,18.5740336 15.3138904,18.8057577 C15.1000124,19.0374817 14.8111585,19.1943758 14.4473201,19.2764447 L14.4473201,20.3771282 L13.6286878,20.3771282 L13.6286878,19.3198927 Z M19.477115,15.2864669 L17.6407236,15.2864669 L17.6407236,16.3943917 C17.7243081,16.3847366 17.8042039,16.3762884 17.8804133,16.3690471 C17.9566227,16.3618057 18.0316018,16.358185 18.1053528,16.358185 C18.3462728,16.358185 18.5687517,16.3955983 18.7727962,16.4704258 C18.9768407,16.5452533 19.1501531,16.6490448 19.2927384,16.7818034 C19.4353237,16.9145619 19.5471777,17.0762835 19.6283039,17.2669731 C19.70943,17.4576626 19.7499925,17.6688663 19.7499925,17.9005903 C19.7499925,18.1419694 19.7032842,18.364035 19.6098662,18.5667935 C19.5164482,18.769552 19.3873859,18.9445493 19.2226753,19.0917906 C19.0579646,19.2390319 18.860069,19.3536852 18.6289825,19.4357542 C18.3978959,19.5178231 18.1422295,19.5588569 17.8619756,19.5588569 C17.4538866,19.5588569 17.055637,19.4647205 16.6672149,19.2764447 L16.6672149,18.3930013 C17.0408868,18.6392081 17.4096364,18.7623096 17.7734748,18.7623096 C17.9209769,18.7623096 18.0561851,18.7417927 18.1791034,18.7007582 C18.3020218,18.6597238 18.40773,18.6005868 18.4962313,18.5233454 C18.5847325,18.4461041 18.6535658,18.3543814 18.7027331,18.2481745 C18.7519005,18.1419677 18.7764838,18.0261074 18.7764838,17.9005903 C18.7764838,17.7799007 18.7519005,17.667661 18.7027331,17.563868 C18.6535658,17.460075 18.5847325,17.370766 18.4962313,17.2959385 C18.40773,17.2211109 18.3020218,17.1619739 18.1791034,17.1185256 C18.0561851,17.0750774 17.9209769,17.0533536 17.7734748,17.0533536 C17.4588038,17.0533536 17.1343041,17.1016287 16.7999661,17.1981804 L16.7999661,14.4899196 L19.477115,14.4899196 L19.477115,15.2864669 Z M20.4358736,16.9809402 C20.4358736,16.5995611 20.4825819,16.2507734 20.5759998,15.9345667 C20.6694178,15.61836 20.7997093,15.3468125 20.9668783,15.1199161 C21.1340473,14.8930196 21.3344013,14.7168155 21.5679462,14.5912983 C21.8014911,14.4657811 22.060845,14.4030235 22.3460156,14.4030235 C22.6262695,14.4030235 22.8831651,14.4657811 23.11671,14.5912983 C23.3502549,14.7168155 23.5506089,14.8930196 23.7177779,15.1199161 C23.8849469,15.3468125 24.0152384,15.61836 24.1086564,15.9345667 C24.2020743,16.2507734 24.2487826,16.5995611 24.2487826,16.9809402 C24.2487826,17.3623193 24.2020743,17.711107 24.1086564,18.0273137 C24.0152384,18.3435204 23.8849469,18.6150679 23.7177779,18.8419644 C23.5506089,19.0688608 23.3502549,19.2450649 23.11671,19.3705821 C22.8831651,19.4960993 22.6262695,19.5588569 22.3460156,19.5588569 C22.060845,19.5588569 21.8014911,19.4960993 21.5679462,19.3705821 C21.3344013,19.2450649 21.1340473,19.0688608 20.9668783,18.8419644 C20.7997093,18.6150679 20.6694178,18.3435204 20.5759998,18.0273137 C20.4825819,17.711107 20.4358736,17.3623193 20.4358736,16.9809402 Z M21.3872571,16.9809402 C21.3872571,17.2512849 21.409382,17.4962811 21.4536327,17.7159361 C21.4978833,17.9355912 21.5617999,18.1226572 21.6453844,18.2771399 C21.7289689,18.4316226 21.8297604,18.5511035 21.9477621,18.6355862 C22.0657637,18.7200689 22.1985136,18.7623096 22.3460156,18.7623096 C22.4886009,18.7623096 22.6188925,18.7200689 22.7368941,18.6355862 C22.8548958,18.5511035 22.9556873,18.4316226 23.0392718,18.2771399 C23.1228563,18.1226572 23.1867729,17.9355912 23.2310235,17.7159361 C23.2752741,17.4962811 23.2973991,17.2512849 23.2973991,16.9809402 C23.2973991,16.7105955 23.2752741,16.4655993 23.2310235,16.2459443 C23.1867729,16.0262892 23.1228563,15.8392232 23.0392718,15.6847405 C22.9556873,15.5302578 22.8548958,15.4107769 22.7368941,15.3262942 C22.6188925,15.2418115 22.4886009,15.1995708 22.3460156,15.1995708 C22.1985136,15.1995708 22.0657637,15.2418115 21.9477621,15.3262942 C21.8297604,15.4107769 21.7289689,15.5302578 21.6453844,15.6847405 C21.5617999,15.8392232 21.4978833,16.0262892 21.4536327,16.2459443 C21.409382,16.4655993 21.3872571,16.7105955 21.3872571,16.9809402 Z" id="$50" fill="#2196F3"></path>
                    </g>
                    <g id="visualpicker-copy-3" transform="translate(0.000000, 11.966932)">
                        <g id="Rectangle-4-Copy-2">
                            <use fill="black" fill-opacity="1" filter="url(#filter-11)" xlink:href="#path-10"></use>
                            <use fill="#FFFFFF" fill-rule="evenodd" xlink:href="#path-10"></use>
                            <rect stroke="#2196F3" stroke-width="0.5" x="0.25" y="5.50499224" width="35.0176857" height="33.9248338" rx="2"></rect>
                        </g>
                        <path d="M33.5491484,5.42298018 L40.2387308,11.8830348 L24.2695219,12.1532017 L30.7211521,5.47234304 C31.4884505,4.67778224 32.7545876,4.65568173 33.5491484,5.42298018 Z" id="Triangle" fill="#2196F3" transform="translate(32.254126, 8.507430) rotate(-314.000000) translate(-32.254126, -8.507430) "></path>
                        <g id="ic_done_24px" transform="translate(29.345495, 6.388702)">
                            <polygon id="Shape" points="0 0 5.00249095 0 5.00249095 4.84856815 0 4.84856815"></polygon>
                            <polygon id="Shape" fill="#FFFFFF" fill-rule="nonzero" points="1.8759341 3.2727835 1.00049819 2.42428407 0.708686217 2.70711722 1.8759341 3.83844978 4.37717958 1.41416571 4.08536761 1.13133257"></polygon>
                        </g>
                    </g>
                    <g id="three-actions-SELECT-AMOUNT-Copy" transform="translate(0.000000, 54.795950)">
                        <g id="visualpicker-copy-3">
                            <g id="Rectangle-4-Copy-2">
                                <use fill="black" fill-opacity="1" filter="url(#filter-13)" xlink:href="#path-12"></use>
                                <use fill="#FFFFFF" fill-rule="evenodd" xlink:href="#path-12"></use>
                                <rect stroke-opacity="0.15" stroke="#000000" stroke-width="0.25" x="0.125" y="0.125" width="34.391118" height="34.391118" rx="2"></rect>
                            </g>
                        </g>
                        <path d="M12.2430431,19.3198927 C12.0660406,19.3005824 11.8853533,19.2655829 11.7009758,19.2148933 C11.5165982,19.1642037 11.3359109,19.0978254 11.1589084,19.0157565 L11.1589084,18.1467958 C11.5964979,18.4316232 12.0340807,18.5740348 12.4716701,18.5740348 C12.7125902,18.5740348 12.9080275,18.5185184 13.0579879,18.407484 C13.2079483,18.2964496 13.2829274,18.1516243 13.2829274,17.9730037 C13.2829274,17.8233486 13.2288441,17.7062814 13.1206759,17.6217987 C13.0125078,17.537316 12.8772996,17.4636965 12.7150473,17.4009379 C12.5527951,17.3381793 12.3757952,17.2766285 12.1840426,17.2162837 C11.9922899,17.1559389 11.8152901,17.076285 11.6530378,16.9773195 C11.4907856,16.8783541 11.3555774,16.7492181 11.2474092,16.5899079 C11.139241,16.4305976 11.0851578,16.2206009 11.0851578,15.9599114 C11.0851578,15.6412909 11.1896368,15.3697434 11.3985981,15.1452607 C11.6075593,14.9207781 11.8890382,14.7699184 12.2430431,14.692677 L12.2430431,13.5847522 L13.0616754,13.5847522 L13.0616754,14.6419877 C13.2190109,14.6564704 13.3788024,14.6842286 13.5410547,14.7252631 C13.7033069,14.7662975 13.8655568,14.8230208 14.027809,14.8954345 L14.027809,15.7426712 C13.6344702,15.5061196 13.2362206,15.3878456 12.8330484,15.3878456 C12.6019618,15.3878456 12.4138995,15.4385345 12.2688558,15.5399137 C12.1238121,15.641293 12.0512914,15.7764633 12.0512914,15.9454287 C12.0512914,16.0854286 12.1053747,16.1952545 12.2135428,16.2749096 C12.321711,16.3545648 12.4569192,16.4245637 12.6191715,16.4849085 C12.7814237,16.5452533 12.9584235,16.606804 13.1501762,16.6695626 C13.3419289,16.7323212 13.5189287,16.8143889 13.6811809,16.9157682 C13.8434332,17.0171474 13.9786414,17.149904 14.0868096,17.3140418 C14.1949777,17.4781796 14.249061,17.6930039 14.249061,17.958521 C14.249061,18.2916242 14.1421236,18.5740336 13.9282456,18.8057577 C13.7143677,19.0374817 13.4255138,19.1943758 13.0616754,19.2764447 L13.0616754,20.3771282 L12.2430431,20.3771282 L12.2430431,19.3198927 Z M16.0854524,16.5754252 L16.3214545,16.5754252 C16.6017084,16.5754252 16.8278748,16.5078401 16.9999606,16.3726677 C17.1720463,16.2374954 17.2580879,16.0612912 17.2580879,15.84405 C17.2580879,15.646119 17.1855671,15.4856043 17.0405234,15.3625009 C16.8954797,15.2393975 16.7049591,15.1778468 16.4689558,15.1778468 C16.2772031,15.1778468 16.0842242,15.2092256 15.8900132,15.2719842 C15.6958021,15.3347428 15.5003648,15.4240517 15.3036954,15.5399137 L15.3036954,14.692677 C15.7265346,14.4995737 16.1493675,14.4030235 16.5722067,14.4030235 C16.8131268,14.4030235 17.0356057,14.4356092 17.2396502,14.5007816 C17.4436947,14.5659539 17.617007,14.6588835 17.7595923,14.7795731 C17.9021777,14.9002627 18.0140317,15.0438812 18.0951578,15.2104328 C18.176284,15.3769844 18.2168464,15.5616367 18.2168464,15.7643952 C18.2168464,16.0250847 18.1455548,16.2580122 18.0029695,16.4631845 C17.8603842,16.6683568 17.6661761,16.814389 17.4203393,16.9012855 C17.7005932,16.9978371 17.921843,17.157145 18.0840952,17.3792139 C18.2463475,17.6012827 18.3274724,17.8571408 18.3274724,18.1467958 C18.3274724,18.3543819 18.2844516,18.5450686 18.1984088,18.7188616 C18.1123659,18.8926546 17.9894494,19.0411006 17.8296555,19.1642039 C17.6698616,19.2873073 17.4805701,19.3838575 17.2617754,19.4538575 C17.0429807,19.5238575 16.8008351,19.5588569 16.5353314,19.5588569 C16.0928252,19.5588569 15.6429507,19.4526517 15.1856944,19.240238 L15.1856944,18.3785187 C15.6085336,18.6488633 16.0166165,18.7840336 16.4099553,18.7840336 C16.6902092,18.7840336 16.9176048,18.7176554 17.0921489,18.5848968 C17.266693,18.4521383 17.3539637,18.277141 17.3539637,18.0598997 C17.3539637,17.8378309 17.2642346,17.6567992 17.0847738,17.5167993 C16.905313,17.3767994 16.6680841,17.3068005 16.37308,17.3068005 L16.0854524,17.3068005 L16.0854524,16.5754252 Z M19.0502289,16.9809402 C19.0502289,16.5995611 19.0969371,16.2507734 19.1903551,15.9345667 C19.2837731,15.61836 19.4140646,15.3468125 19.5812336,15.1199161 C19.7484026,14.8930196 19.9487565,14.7168155 20.1823015,14.5912983 C20.4158464,14.4657811 20.6752003,14.4030235 20.9603709,14.4030235 C21.2406248,14.4030235 21.4975204,14.4657811 21.7310653,14.5912983 C21.9646102,14.7168155 22.1649642,14.8930196 22.3321332,15.1199161 C22.4993021,15.3468125 22.6295937,15.61836 22.7230116,15.9345667 C22.8164296,16.2507734 22.8631379,16.5995611 22.8631379,16.9809402 C22.8631379,17.3623193 22.8164296,17.711107 22.7230116,18.0273137 C22.6295937,18.3435204 22.4993021,18.6150679 22.3321332,18.8419644 C22.1649642,19.0688608 21.9646102,19.2450649 21.7310653,19.3705821 C21.4975204,19.4960993 21.2406248,19.5588569 20.9603709,19.5588569 C20.6752003,19.5588569 20.4158464,19.4960993 20.1823015,19.3705821 C19.9487565,19.2450649 19.7484026,19.0688608 19.5812336,18.8419644 C19.4140646,18.6150679 19.2837731,18.3435204 19.1903551,18.0273137 C19.0969371,17.711107 19.0502289,17.3623193 19.0502289,16.9809402 Z M20.0016124,16.9809402 C20.0016124,17.2512849 20.0237373,17.4962811 20.0679879,17.7159361 C20.1122386,17.9355912 20.1761552,18.1226572 20.2597397,18.2771399 C20.3433242,18.4316226 20.4441157,18.5511035 20.5621174,18.6355862 C20.680119,18.7200689 20.8128689,18.7623096 20.9603709,18.7623096 C21.1029562,18.7623096 21.2332478,18.7200689 21.3512494,18.6355862 C21.469251,18.5511035 21.5700426,18.4316226 21.6536271,18.2771399 C21.7372116,18.1226572 21.8011282,17.9355912 21.8453788,17.7159361 C21.8896294,17.4962811 21.9117544,17.2512849 21.9117544,16.9809402 C21.9117544,16.7105955 21.8896294,16.4655993 21.8453788,16.2459443 C21.8011282,16.0262892 21.7372116,15.8392232 21.6536271,15.6847405 C21.5700426,15.5302578 21.469251,15.4107769 21.3512494,15.3262942 C21.2332478,15.2418115 21.1029562,15.1995708 20.9603709,15.1995708 C20.8128689,15.1995708 20.680119,15.2418115 20.5621174,15.3262942 C20.4441157,15.4107769 20.3433242,15.5302578 20.2597397,15.6847405 C20.1761552,15.8392232 20.1122386,16.0262892 20.0679879,16.2459443 C20.0237373,16.4655993 20.0016124,16.7105955 20.0016124,16.9809402 Z" id="$30" fill="#2196F3"></path>
                    </g>
                    <path d="M12.0075537,36.8015913 C11.8087809,36.7794722 11.60587,36.7393819 11.398815,36.6813192 C11.19176,36.6232566 10.9888491,36.5472233 10.7900763,36.453217 L10.7900763,35.4578621 C11.2814868,35.7841189 11.7728901,35.9472449 12.2643006,35.9472449 C12.5348525,35.9472449 12.7543276,35.8836534 12.9227323,35.7564686 C13.0911371,35.6292837 13.1753382,35.4633928 13.1753382,35.2587911 C13.1753382,35.087368 13.114603,34.9532729 12.9931307,34.8565018 C12.8716584,34.7597307 12.7198203,34.6754028 12.5376119,34.6035157 C12.3554035,34.5316286 12.1566336,34.461125 11.9412964,34.3920028 C11.7259592,34.3228806 11.5271894,34.2316406 11.3449809,34.1182802 C11.1627725,34.0049197 11.0109344,33.8570004 10.8894622,33.6745177 C10.7679899,33.4920351 10.7072547,33.2514934 10.7072547,32.9528854 C10.7072547,32.5879201 10.8245841,32.2768747 11.0592464,32.0197401 C11.2939088,31.7626054 11.6100081,31.5898025 12.0075537,31.501326 L12.0075537,30.2322485 L12.9268734,30.2322485 L12.9268734,31.4432637 C13.1035604,31.459853 13.2830053,31.4916487 13.4652138,31.5386519 C13.6474222,31.585655 13.8296279,31.6506289 14.0118363,31.7335755 L14.0118363,32.7040466 C13.5701189,32.4330875 13.1228868,32.29761 12.6701265,32.29761 C12.4106175,32.29761 12.1994245,32.3556718 12.0365413,32.4717971 C11.873658,32.5879225 11.7922176,32.7427539 11.7922176,32.9362961 C11.7922176,33.0966597 11.8529528,33.2224602 11.9744251,33.3137016 C12.0958973,33.4049429 12.2477354,33.4851235 12.4299438,33.5542457 C12.6121523,33.6233679 12.8109221,33.6938715 13.0262593,33.7657586 C13.2415965,33.8376457 13.4403664,33.9316505 13.6225748,34.0477759 C13.8047832,34.1639012 13.9566213,34.3159678 14.0780936,34.5039802 C14.1995659,34.6919927 14.2603011,34.9380641 14.2603011,35.2422018 C14.2603011,35.6237565 14.140211,35.9472436 13.9000271,36.2126729 C13.6598433,36.4781022 13.335462,36.6578173 12.9268734,36.7518235 L12.9268734,38.0126065 L12.0075537,38.0126065 L12.0075537,36.8015913 Z M17.0016959,32.4386186 L15.6102931,33.2100188 L15.6102931,32.231253 L17.3661109,31.2690766 L18.0866588,31.2690766 L18.0866588,36.9757784 L17.0016959,36.9757784 L17.0016959,32.4386186 Z M19.6519869,34.1224275 C19.6519869,33.6855751 19.7044401,33.2860546 19.8093479,32.9238542 C19.9142558,32.5616538 20.0605725,32.2506085 20.2483024,31.9907089 C20.4360323,31.7308094 20.6610287,31.5289755 20.9232984,31.3852013 C21.1855681,31.2414271 21.4768211,31.1695411 21.7970662,31.1695411 C22.1117898,31.1695411 22.4002822,31.2414271 22.6625519,31.3852013 C22.9248216,31.5289755 23.149818,31.7308094 23.3375479,31.9907089 C23.5252778,32.2506085 23.6715944,32.5616538 23.7765023,32.9238542 C23.8814102,33.2860546 23.9338634,33.6855751 23.9338634,34.1224275 C23.9338634,34.5592799 23.8814102,34.9588003 23.7765023,35.3210008 C23.6715944,35.6832012 23.5252778,35.9942465 23.3375479,36.2541461 C23.149818,36.5140456 22.9248216,36.7158794 22.6625519,36.8596537 C22.4002822,37.0034279 22.1117898,37.0753139 21.7970662,37.0753139 C21.4768211,37.0753139 21.1855681,37.0034279 20.9232984,36.8596537 C20.6610287,36.7158794 20.4360323,36.5140456 20.2483024,36.2541461 C20.0605725,35.9942465 19.9142558,35.6832012 19.8093479,35.3210008 C19.7044401,34.9588003 19.6519869,34.5592799 19.6519869,34.1224275 Z M20.7203855,34.1224275 C20.7203855,34.432095 20.7452317,34.712727 20.7949249,34.9643319 C20.8446181,35.2159368 20.9163961,35.4302124 21.0102611,35.6071653 C21.104126,35.7841182 21.2173144,35.9209781 21.3498296,36.0177492 C21.4823448,36.1145204 21.6314222,36.1629052 21.7970662,36.1629052 C21.9571888,36.1629052 22.1035054,36.1145204 22.2360207,36.0177492 C22.3685359,35.9209781 22.4817243,35.7841182 22.5755892,35.6071653 C22.6694541,35.4302124 22.7412321,35.2159368 22.7909253,34.9643319 C22.8406186,34.712727 22.8654648,34.432095 22.8654648,34.1224275 C22.8654648,33.8127599 22.8406186,33.5321279 22.7909253,33.2805231 C22.7412321,33.0289182 22.6694541,32.8146425 22.5755892,32.6376896 C22.4817243,32.4607368 22.3685359,32.3238768 22.2360207,32.2271057 C22.1035054,32.1303346 21.9571888,32.0819498 21.7970662,32.0819498 C21.6314222,32.0819498 21.4823448,32.1303346 21.3498296,32.2271057 C21.2173144,32.3238768 21.104126,32.4607368 21.0102611,32.6376896 C20.9163961,32.8146425 20.8446181,33.0289182 20.7949249,33.2805231 C20.7452317,33.5321279 20.7203855,33.8127599 20.7203855,34.1224275 Z" id="$10" fill="#2196F3"></path>
                    <path d="M1.36950299,4.54450643 C1.87679691,4.87755703 2.37885347,5.04407983 2.87568772,5.04407983 C3.17378827,5.04407983 3.41566448,4.97156184 3.60132359,4.82652367 C3.78698271,4.68148551 3.87981087,4.49079004 3.87981087,4.25443155 C3.87981087,4.06641912 3.81574636,3.91735435 3.68761542,3.80723278 C3.55948449,3.69711121 3.39736206,3.6031064 3.20124327,3.52521554 C3.00512449,3.44732467 2.79462682,3.37212083 2.56974395,3.29960174 C2.34486107,3.22708266 2.1343634,3.12904908 1.93824462,3.00549805 C1.74212583,2.88194702 1.5800034,2.72348177 1.45187247,2.53009755 C1.32374153,2.33671333 1.25967702,2.07887157 1.25967702,1.75656454 C1.25967702,1.52020605 1.30674482,1.30399499 1.40088184,1.10792488 C1.49501885,0.911854772 1.62707019,0.742646118 1.7970398,0.600293846 C1.96700941,0.457941573 2.17096989,0.347821656 2.40892735,0.26993079 C2.6468848,0.192039924 2.90706516,0.153095075 3.1894762,0.153095075 C3.67062095,0.153095075 4.15437336,0.255157437 4.64074795,0.459285224 L4.64074795,1.41814385 C4.41063524,1.27847747 4.17921855,1.17372926 3.94649092,1.10389607 C3.7137633,1.03406288 3.48496149,0.999146804 3.26007861,0.999146804 C2.97243773,0.999146804 2.73840616,1.06629309 2.55797688,1.20058769 C2.3775476,1.33488229 2.28733431,1.51483435 2.28733431,1.74044927 C2.28733431,1.92308992 2.35139882,2.06678299 2.47952976,2.17153277 C2.60766069,2.27628256 2.76978312,2.36760151 2.96590191,2.44549238 C3.16202069,2.52338324 3.37251836,2.59858709 3.59740123,2.67110617 C3.82228411,2.74362526 4.03278178,2.84300177 4.22890056,2.96923869 C4.42501935,3.09547561 4.58714178,3.25796963 4.71527271,3.45672564 C4.84340365,3.65548164 4.90746816,3.91600925 4.90746816,4.23831628 C4.90746816,4.48004655 4.85909292,4.70297224 4.76234099,4.90710003 C4.66558905,5.11122782 4.53092284,5.28580817 4.35833831,5.43084634 C4.18575378,5.5758845 3.97917843,5.68869027 3.73860605,5.76926703 C3.49803368,5.84984379 3.23393101,5.89013156 2.94629013,5.89013156 C2.68479842,5.89013156 2.42200319,5.85924427 2.15789656,5.79746875 C1.89378993,5.73569324 1.6309947,5.64303136 1.36950299,5.51948033 L1.36950299,4.54450643 Z M5.53504513,3.74680051 C5.53504513,3.44060883 5.58342037,3.16128026 5.68017231,2.90880642 C5.77692424,2.65633258 5.91159045,2.43743567 6.08417498,2.25210913 C6.25675951,2.06678258 6.46071999,1.92308952 6.69606253,1.82102563 C6.93140507,1.71896173 7.19027798,1.66793055 7.47268903,1.66793055 C7.72895091,1.66793055 7.96298248,1.71761881 8.17479077,1.81699681 C8.38659905,1.91637481 8.56833307,2.05469617 8.71999826,2.23196504 C8.87166345,2.40923391 8.98933296,2.62141619 9.0730103,2.86851824 C9.15668765,3.1156203 9.1985257,3.38689132 9.1985257,3.68233943 L9.1985257,3.86363623 C9.1985257,3.92541174 9.19329594,3.99121511 9.18283627,4.0610483 L6.52347886,4.0610483 C6.55485787,4.36723998 6.67906457,4.61568126 6.89610269,4.80637958 C7.11314081,4.99707791 7.38639555,5.09242565 7.71587511,5.09242565 C7.8989193,5.09242565 8.08849795,5.06019543 8.28461674,4.99573402 C8.48073552,4.93127261 8.68077368,4.83726781 8.88473721,4.71371678 L8.88473721,5.57588378 C8.43497147,5.78538335 7.99044223,5.89013156 7.55113615,5.89013156 C7.2530356,5.89013156 6.9810883,5.83775745 6.73528609,5.73300767 C6.48948388,5.62825788 6.27767877,5.48053604 6.09986441,5.28983772 C5.92205004,5.09913939 5.78346151,4.87352785 5.68409466,4.61299633 C5.58472781,4.35246481 5.53504513,4.06373576 5.53504513,3.74680051 Z M8.23362611,3.39226455 C8.2179366,3.11830357 8.13687539,2.89537789 7.99044003,2.7234808 C7.84400467,2.55158372 7.65834834,2.46563647 7.43346547,2.46563647 C7.18766326,2.46563647 6.98108791,2.55024079 6.81373321,2.71945199 C6.64637851,2.88866318 6.54962803,3.11293179 6.52347886,3.39226455 L8.23362611,3.39226455 Z M9.99868634,0 L11.0028095,0 L11.0028095,5.79343994 L9.99868634,5.79343994 L9.99868634,0 Z M11.834349,3.74680051 C11.834349,3.44060883 11.8827242,3.16128026 11.9794762,2.90880642 C12.0762281,2.65633258 12.2108943,2.43743567 12.3834788,2.25210913 C12.5560634,2.06678258 12.7600238,1.92308952 12.9953664,1.82102563 C13.2307089,1.71896173 13.4895818,1.66793055 13.7719929,1.66793055 C14.0282548,1.66793055 14.2622863,1.71761881 14.4740946,1.81699681 C14.6859029,1.91637481 14.8676369,2.05469617 15.0193021,2.23196504 C15.1709673,2.40923391 15.2886368,2.62141619 15.3723141,2.86851824 C15.4559915,3.1156203 15.4978295,3.38689132 15.4978295,3.68233943 L15.4978295,3.86363623 C15.4978295,3.92541174 15.4925998,3.99121511 15.4821401,4.0610483 L12.8227827,4.0610483 C12.8541617,4.36723998 12.9783684,4.61568126 13.1954065,4.80637958 C13.4124447,4.99707791 13.6856994,5.09242565 14.0151789,5.09242565 C14.1982231,5.09242565 14.3878018,5.06019543 14.5839206,4.99573402 C14.7800394,4.93127261 14.9800775,4.83726781 15.1840411,4.71371678 L15.1840411,5.57588378 C14.7342753,5.78538335 14.2897461,5.89013156 13.85044,5.89013156 C13.5523394,5.89013156 13.2803921,5.83775745 13.0345899,5.73300767 C12.7887877,5.62825788 12.5769826,5.48053604 12.3991683,5.28983772 C12.2213539,5.09913939 12.0827654,4.87352785 11.9833985,4.61299633 C11.8840317,4.35246481 11.834349,4.06373576 11.834349,3.74680051 Z M14.53293,3.39226455 C14.5172404,3.11830357 14.4361792,2.89537789 14.2897439,2.7234808 C14.1433085,2.55158372 13.9576522,2.46563647 13.7327693,2.46563647 C13.4869671,2.46563647 13.2803917,2.55024079 13.1130371,2.71945199 C12.9456824,2.88866318 12.8489319,3.11293179 12.8227827,3.39226455 L14.53293,3.39226455 Z M16.03127,3.77903106 C16.03127,3.46746759 16.0809526,3.18276732 16.1803195,2.92492169 C16.2796863,2.66707607 16.4182749,2.44549331 16.5960892,2.26016676 C16.7739036,2.07484022 16.9857087,1.92980423 17.2315109,1.82505444 C17.4773131,1.72030466 17.7492604,1.66793055 18.047361,1.66793055 C18.4395986,1.66793055 18.8344451,1.76193536 19.2319125,1.94994779 L19.2319125,2.87657588 C18.8867435,2.64558917 18.5520391,2.53009755 18.2277894,2.53009755 C18.0552048,2.53009755 17.8983122,2.56098485 17.7571066,2.62276036 C17.6159011,2.68453587 17.4930019,2.7691402 17.3884052,2.87657588 C17.2838085,2.98401156 17.2027473,3.11561829 17.1452191,3.27140002 C17.0876909,3.42718175 17.0589273,3.5963904 17.0589273,3.77903106 C17.0589273,3.96167171 17.0876909,4.12953744 17.1452191,4.28263328 C17.2027473,4.43572912 17.2838085,4.56733585 17.3884052,4.67745742 C17.4930019,4.78757899 17.6159011,4.87352624 17.7571066,4.93530175 C17.8983122,4.99707727 18.0552048,5.02796456 18.2277894,5.02796456 C18.5520391,5.02796456 18.8867435,4.91247294 19.2319125,4.68148623 L19.2319125,5.60811432 C18.8344451,5.79612675 18.4395986,5.89013156 18.047361,5.89013156 C17.7492604,5.89013156 17.4773131,5.83775745 17.2315109,5.73300767 C16.9857087,5.62825788 16.7739036,5.48322189 16.5960892,5.29789535 C16.4182749,5.11256881 16.2796863,4.88964312 16.1803195,4.6291116 C16.0809526,4.36858009 16.03127,4.08522274 16.03127,3.77903106 Z M19.8359554,3.77903106 C19.8359554,3.46746759 19.885638,3.18276732 19.9850049,2.92492169 C20.0843717,2.66707607 20.2229603,2.44549331 20.4007746,2.26016676 C20.578589,2.07484022 20.7903941,1.92980423 21.0361963,1.82505444 C21.2819985,1.72030466 21.5539458,1.66793055 21.8520464,1.66793055 C22.2442839,1.66793055 22.6391305,1.76193536 23.0365979,1.94994779 L23.0365979,2.87657588 C22.6914288,2.64558917 22.3567245,2.53009755 22.0324748,2.53009755 C21.8598902,2.53009755 21.7029975,2.56098485 21.561792,2.62276036 C21.4205865,2.68453587 21.2976872,2.7691402 21.1930906,2.87657588 C21.0884939,2.98401156 21.0074327,3.11561829 20.9499045,3.27140002 C20.8923763,3.42718175 20.8636126,3.5963904 20.8636126,3.77903106 C20.8636126,3.96167171 20.8923763,4.12953744 20.9499045,4.28263328 C21.0074327,4.43572912 21.0884939,4.56733585 21.1930906,4.67745742 C21.2976872,4.78757899 21.4205865,4.87352624 21.561792,4.93530175 C21.7029975,4.99707727 21.8598902,5.02796456 22.0324748,5.02796456 C22.3567245,5.02796456 22.6914288,4.91247294 23.0365979,4.68148623 L23.0365979,5.60811432 C22.6391305,5.79612675 22.2442839,5.89013156 21.8520464,5.89013156 C21.5539458,5.89013156 21.2819985,5.83775745 21.0361963,5.73300767 C20.7903941,5.62825788 20.578589,5.48322189 20.4007746,5.29789535 C20.2229603,5.11256881 20.0843717,4.88964312 19.9850049,4.6291116 C19.885638,4.36858009 19.8359554,4.08522274 19.8359554,3.77903106 Z M23.907361,1.76462218 L24.9114841,1.76462218 L24.9114841,5.79343994 L23.907361,5.79343994 L23.907361,1.76462218 Z M23.8367585,0.652668477 C23.8367585,0.480771393 23.8903635,0.339764181 23.9975751,0.229642612 C24.1047867,0.119521043 24.2420678,0.0644610841 24.4094225,0.0644610841 C24.5767772,0.0644610841 24.7140583,0.119521043 24.8212699,0.229642612 C24.9284815,0.339764181 24.9820865,0.480771393 24.9820865,0.652668477 C24.9820865,0.82456556 24.9284815,0.964229846 24.8212699,1.07166552 C24.7140583,1.1791012 24.5767772,1.23281823 24.4094225,1.23281823 C24.2420678,1.23281823 24.1047867,1.1791012 23.9975751,1.07166552 C23.8903635,0.964229846 23.8367585,0.82456556 23.8367585,0.652668477 Z M25.7430236,3.77903106 C25.7430236,3.46746759 25.7927063,3.18276732 25.8920731,2.92492169 C25.99144,2.66707607 26.1313359,2.44549331 26.3117652,2.26016676 C26.4921945,2.07484022 26.7053071,1.92980423 26.9511093,1.82505444 C27.1969115,1.72030466 27.4688588,1.66793055 27.7669593,1.66793055 C28.0650599,1.66793055 28.3370072,1.72030466 28.5828094,1.82505444 C28.8286116,1.92980423 29.0404167,2.07484022 29.2182311,2.26016676 C29.3960454,2.44549331 29.534634,2.66707607 29.6340008,2.92492169 C29.7333677,3.18276732 29.7830503,3.46746759 29.7830503,3.77903106 C29.7830503,4.08522274 29.7333677,4.36858009 29.6340008,4.6291116 C29.534634,4.88964312 29.3960454,5.11256881 29.2182311,5.29789535 C29.0404167,5.48322189 28.8286116,5.62825788 28.5828094,5.73300767 C28.3370072,5.83775745 28.0650599,5.89013156 27.7669593,5.89013156 C27.4688588,5.89013156 27.1969115,5.83775745 26.9511093,5.73300767 C26.7053071,5.62825788 26.4921945,5.48322189 26.3117652,5.29789535 C26.1313359,5.11256881 25.99144,4.88964312 25.8920731,4.6291116 C25.7927063,4.36858009 25.7430236,4.08522274 25.7430236,3.77903106 Z M26.7706809,3.77903106 C26.7706809,3.96704349 26.7955222,4.13759507 26.8452056,4.29069091 C26.8948891,4.44378675 26.9628759,4.57405056 27.0491682,4.68148623 C27.1354604,4.78892191 27.2400555,4.87352624 27.3629566,4.93530175 C27.4858578,4.99707727 27.620524,5.02796456 27.7669593,5.02796456 C27.9133947,5.02796456 28.0467535,4.99707727 28.1670396,4.93530175 C28.2873258,4.87352624 28.3906135,4.78892191 28.4769058,4.68148623 C28.563198,4.57405056 28.6311849,4.44378675 28.6808683,4.29069091 C28.7305517,4.13759507 28.7553931,3.96704349 28.7553931,3.77903106 C28.7553931,3.5963904 28.7305517,3.42718175 28.6808683,3.27140002 C28.6311849,3.11561829 28.563198,2.98401156 28.4769058,2.87657588 C28.3906135,2.7691402 28.2873258,2.68453587 28.1670396,2.62276036 C28.0467535,2.56098485 27.9133947,2.53009755 27.7669593,2.53009755 C27.620524,2.53009755 27.4858578,2.56098485 27.3629566,2.62276036 C27.2400555,2.68453587 27.1354604,2.7691402 27.0491682,2.87657588 C26.9628759,2.98401156 26.8948891,3.11561829 26.8452056,3.27140002 C26.7955222,3.42718175 26.7706809,3.5963904 26.7706809,3.77903106 Z M30.6145898,1.76462218 L31.618713,1.76462218 L31.618713,2.1111005 C31.9795715,1.81565239 32.3613437,1.66793055 32.764041,1.66793055 C32.9680045,1.66793055 33.1549683,1.70284662 33.3249379,1.77267981 C33.4949075,1.842513 33.6426481,1.94188951 33.7681641,2.07081233 C33.8936801,2.19973514 33.9904306,2.35282868 34.0584185,2.53009755 C34.1264063,2.70736642 34.1603997,2.90343359 34.1603997,3.11830494 L34.1603997,5.79343994 L33.1484318,5.79343994 L33.1484318,3.30363056 C33.1484318,3.08875921 33.0843673,2.91283592 32.9562364,2.77585543 C32.8281055,2.63887495 32.6620607,2.57038573 32.4580972,2.57038573 C32.1599966,2.57038573 31.8802047,2.71273587 31.618713,2.99744041 L31.618713,5.79343994 L30.6145898,5.79343994 L30.6145898,1.76462218 Z M34.9527156,3.74680051 C34.9527156,3.44060883 35.0010909,3.16128026 35.0978428,2.90880642 C35.1945947,2.65633258 35.329261,2.43743567 35.5018455,2.25210913 C35.67443,2.06678258 35.8783905,1.92308952 36.113733,1.82102563 C36.3490756,1.71896173 36.6079485,1.66793055 36.8903595,1.66793055 C37.1466214,1.66793055 37.380653,1.71761881 37.5924613,1.81699681 C37.8042696,1.91637481 37.9860036,2.05469617 38.1376688,2.23196504 C38.289334,2.40923391 38.4070035,2.62141619 38.4906808,2.86851824 C38.5743582,3.1156203 38.6161962,3.38689132 38.6161962,3.68233943 L38.6161962,3.86363623 C38.6161962,3.92541174 38.6109664,3.99121511 38.6005068,4.0610483 L35.9411494,4.0610483 C35.9725284,4.36723998 36.0967351,4.61568126 36.3137732,4.80637958 C36.5308113,4.99707791 36.8040661,5.09242565 37.1335456,5.09242565 C37.3165898,5.09242565 37.5061685,5.06019543 37.7022872,4.99573402 C37.898406,4.93127261 38.0984442,4.83726781 38.3024077,4.71371678 L38.3024077,5.57588378 C37.852642,5.78538335 37.4081127,5.89013156 36.9688067,5.89013156 C36.6707061,5.89013156 36.3987588,5.83775745 36.1529566,5.73300767 C35.9071544,5.62825788 35.6953493,5.48053604 35.5175349,5.28983772 C35.3397205,5.09913939 35.201132,4.87352785 35.1017652,4.61299633 C35.0023983,4.35246481 34.9527156,4.06373576 34.9527156,3.74680051 Z M37.6512966,3.39226455 C37.6356071,3.11830357 37.5545459,2.89537789 37.4081105,2.7234808 C37.2616752,2.55158372 37.0760188,2.46563647 36.851136,2.46563647 C36.6053338,2.46563647 36.3987584,2.55024079 36.2314037,2.71945199 C36.064049,2.88866318 35.9672985,3.11293179 35.9411494,3.39226455 L37.6512966,3.39226455 Z M41.1108147,3.74680051 C41.1108147,3.44060883 41.1591899,3.16128026 41.2559418,2.90880642 C41.3526938,2.65633258 41.48736,2.43743567 41.6599445,2.25210913 C41.832529,2.06678258 42.0364895,1.92308952 42.2718321,1.82102563 C42.5071746,1.71896173 42.7660475,1.66793055 43.0484586,1.66793055 C43.3047204,1.66793055 43.538752,1.71761881 43.7505603,1.81699681 C43.9623686,1.91637481 44.1441026,2.05469617 44.2957678,2.23196504 C44.447433,2.40923391 44.5651025,2.62141619 44.6487798,2.86851824 C44.7324572,3.1156203 44.7742952,3.38689132 44.7742952,3.68233943 L44.7742952,3.86363623 C44.7742952,3.92541174 44.7690655,3.99121511 44.7586058,4.0610483 L42.0992484,4.0610483 C42.1306274,4.36723998 42.2548341,4.61568126 42.4718722,4.80637958 C42.6889103,4.99707791 42.9621651,5.09242565 43.2916446,5.09242565 C43.4746888,5.09242565 43.6642675,5.06019543 43.8603863,4.99573402 C44.0565051,4.93127261 44.2565432,4.83726781 44.4605067,4.71371678 L44.4605067,5.57588378 C44.010741,5.78538335 43.5662118,5.89013156 43.1269057,5.89013156 C42.8288051,5.89013156 42.5568578,5.83775745 42.3110556,5.73300767 C42.0652534,5.62825788 41.8534483,5.48053604 41.6756339,5.28983772 C41.4978196,5.09913939 41.359231,4.87352785 41.2598642,4.61299633 C41.1604973,4.35246481 41.1108147,4.06373576 41.1108147,3.74680051 Z M43.8093956,3.39226455 C43.7937061,3.11830357 43.7126449,2.89537789 43.5662096,2.7234808 C43.4197742,2.55158372 43.2341179,2.46563647 43.009235,2.46563647 C42.7634328,2.46563647 42.5568574,2.55024079 42.3895027,2.71945199 C42.222148,2.88866318 42.1253976,3.11293179 42.0992484,3.39226455 L43.8093956,3.39226455 Z M45.5744559,0 L46.578579,0 L46.578579,5.79343994 L45.5744559,5.79343994 L45.5744559,0 Z M52.383666,3.77903106 C52.383666,3.5963904 52.3601321,3.4298676 52.3130636,3.27945765 C52.2659951,3.12904771 52.2006231,3.00012683 52.1169458,2.89269115 C52.0332684,2.78525547 51.9325956,2.70199407 51.8149244,2.64290445 C51.6972531,2.58381483 51.5678166,2.55427046 51.4266111,2.55427046 C51.1389702,2.55427046 50.8774824,2.67513378 50.6421399,2.91686406 L50.6421399,4.64119806 C50.8774824,4.88292833 51.1389702,5.00379165 51.4266111,5.00379165 C51.5678166,5.00379165 51.6972531,4.97424729 51.8149244,4.91515766 C51.9325956,4.85606804 52.0332684,4.77280664 52.1169458,4.66537096 C52.2006231,4.55793529 52.2659951,4.42901441 52.3130636,4.27860446 C52.3601321,4.12819451 52.383666,3.96167171 52.383666,3.77903106 Z M49.6380168,1.76462218 L50.6421399,1.76462218 L50.6421399,2.03858179 C50.9611598,1.79147973 51.2932493,1.66793055 51.6384183,1.66793055 C51.8999101,1.66793055 52.1391714,1.72030466 52.3562095,1.82505444 C52.5732476,1.92980423 52.7602114,2.07484022 52.9171064,2.26016676 C53.0740015,2.44549331 53.1955933,2.66707607 53.2818855,2.92492169 C53.3681778,3.18276732 53.4113233,3.46746759 53.4113233,3.77903106 C53.4113233,4.09059452 53.3681778,4.3752948 53.2818855,4.63314042 C53.1955933,4.89098605 53.0740015,5.11256881 52.9171064,5.29789535 C52.7602114,5.48322189 52.5732476,5.62825788 52.3562095,5.73300767 C52.1391714,5.83775745 51.8999101,5.89013156 51.6384183,5.89013156 C51.2932493,5.89013156 50.9611598,5.76389653 50.6421399,5.51142269 L50.6421399,7.55806211 L49.6380168,7.55806211 L49.6380168,1.76462218 Z M54.2428628,1.76462218 L55.2469859,1.76462218 L55.2469859,2.16750395 C55.5398566,1.83445335 55.8614866,1.66793055 56.2118855,1.66793055 C56.2694137,1.66793055 56.3243261,1.6706164 56.3766245,1.67598819 C56.4289228,1.68135997 56.4838353,1.69210338 56.5413634,1.70821873 L56.5413634,2.62678918 C56.4315369,2.59455847 56.3138674,2.57844336 56.1883514,2.57844336 C56.0209967,2.57844336 55.8549519,2.62275992 55.6902122,2.71139435 C55.5254724,2.80002878 55.3777318,2.93029259 55.2469859,3.10218967 L55.2469859,5.79343994 L54.2428628,5.79343994 L54.2428628,1.76462218 Z M57.0277356,3.74680051 C57.0277356,3.44060883 57.0761108,3.16128026 57.1728628,2.90880642 C57.2696147,2.65633258 57.4042809,2.43743567 57.5768654,2.25210913 C57.74945,2.06678258 57.9534104,1.92308952 58.188753,1.82102563 C58.4240955,1.71896173 58.6829684,1.66793055 58.9653795,1.66793055 C59.2216414,1.66793055 59.4556729,1.71761881 59.6674812,1.81699681 C59.8792895,1.91637481 60.0610235,2.05469617 60.2126887,2.23196504 C60.3643539,2.40923391 60.4820234,2.62141619 60.5657008,2.86851824 C60.6493781,3.1156203 60.6912162,3.38689132 60.6912162,3.68233943 L60.6912162,3.86363623 C60.6912162,3.92541174 60.6859864,3.99121511 60.6755267,4.0610483 L58.0161693,4.0610483 C58.0475483,4.36723998 58.171755,4.61568126 58.3887931,4.80637958 C58.6058313,4.99707791 58.879086,5.09242565 59.2085656,5.09242565 C59.3916098,5.09242565 59.5811884,5.06019543 59.7773072,4.99573402 C59.973426,4.93127261 60.1734641,4.83726781 60.3774277,4.71371678 L60.3774277,5.57588378 C59.9276619,5.78538335 59.4831327,5.89013156 59.0438266,5.89013156 C58.7457261,5.89013156 58.4737787,5.83775745 58.2279765,5.73300767 C57.9821743,5.62825788 57.7703692,5.48053604 57.5925549,5.28983772 C57.4147405,5.09913939 57.276152,4.87352785 57.1767851,4.61299633 C57.0774183,4.35246481 57.0277356,4.06373576 57.0277356,3.74680051 Z M59.7263166,3.39226455 C59.7106271,3.11830357 59.6295658,2.89537789 59.4831305,2.7234808 C59.3366951,2.55158372 59.1510388,2.46563647 58.9261559,2.46563647 C58.6803537,2.46563647 58.4737784,2.55024079 58.3064237,2.71945199 C58.139069,2.88866318 58.0423185,3.11293179 58.0161693,3.39226455 L59.7263166,3.39226455 Z M61.2246566,3.77903106 C61.2246566,3.46746759 61.2743393,3.18276732 61.3737061,2.92492169 C61.473073,2.66707607 61.6116615,2.44549331 61.7894758,2.26016676 C61.9672902,2.07484022 62.1790953,1.92980423 62.4248975,1.82505444 C62.6706997,1.72030466 62.942647,1.66793055 63.2407476,1.66793055 C63.6329852,1.66793055 64.0278317,1.76193536 64.4252991,1.94994779 L64.4252991,2.87657588 C64.0801301,2.64558917 63.7454257,2.53009755 63.421176,2.53009755 C63.2485914,2.53009755 63.0916988,2.56098485 62.9504932,2.62276036 C62.8092877,2.68453587 62.6863885,2.7691402 62.5817918,2.87657588 C62.4771951,2.98401156 62.3961339,3.11561829 62.3386057,3.27140002 C62.2810775,3.42718175 62.2523139,3.5963904 62.2523139,3.77903106 C62.2523139,3.96167171 62.2810775,4.12953744 62.3386057,4.28263328 C62.3961339,4.43572912 62.4771951,4.56733585 62.5817918,4.67745742 C62.6863885,4.78757899 62.8092877,4.87352624 62.9504932,4.93530175 C63.0916988,4.99707727 63.2485914,5.02796456 63.421176,5.02796456 C63.7454257,5.02796456 64.0801301,4.91247294 64.4252991,4.68148623 L64.4252991,5.60811432 C64.0278317,5.79612675 63.6329852,5.89013156 63.2407476,5.89013156 C62.942647,5.89013156 62.6706997,5.83775745 62.4248975,5.73300767 C62.1790953,5.62825788 61.9672902,5.48322189 61.7894758,5.29789535 C61.6116615,5.11256881 61.473073,4.88964312 61.3737061,4.6291116 C61.2743393,4.36858009 61.2246566,4.08522274 61.2246566,3.77903106 Z M65.2960622,1.76462218 L66.3001853,1.76462218 L66.3001853,5.79343994 L65.2960622,5.79343994 L65.2960622,1.76462218 Z M65.2254598,0.652668477 C65.2254598,0.480771393 65.2790648,0.339764181 65.3862764,0.229642612 C65.493488,0.119521043 65.6307691,0.0644610841 65.7981238,0.0644610841 C65.9654784,0.0644610841 66.1027595,0.119521043 66.2099711,0.229642612 C66.3171827,0.339764181 66.3707877,0.480771393 66.3707877,0.652668477 C66.3707877,0.82456556 66.3171827,0.964229846 66.2099711,1.07166552 C66.1027595,1.1791012 65.9654784,1.23281823 65.7981238,1.23281823 C65.6307691,1.23281823 65.493488,1.1791012 65.3862764,1.07166552 C65.2790648,0.964229846 65.2254598,0.82456556 65.2254598,0.652668477 Z M67.1317248,3.77903106 C67.1317248,3.46746759 67.1814075,3.18276732 67.2807743,2.92492169 C67.3801412,2.66707607 67.5200372,2.44549331 67.7004664,2.26016676 C67.8808957,2.07484022 68.0940083,1.92980423 68.3398105,1.82505444 C68.5856127,1.72030466 68.85756,1.66793055 69.1556605,1.66793055 C69.4537611,1.66793055 69.7257084,1.72030466 69.9715106,1.82505444 C70.2173128,1.92980423 70.4291179,2.07484022 70.6069323,2.26016676 C70.7847467,2.44549331 70.9233352,2.66707607 71.022702,2.92492169 C71.1220689,3.18276732 71.1717516,3.46746759 71.1717516,3.77903106 C71.1717516,4.08522274 71.1220689,4.36858009 71.022702,4.6291116 C70.9233352,4.88964312 70.7847467,5.11256881 70.6069323,5.29789535 C70.4291179,5.48322189 70.2173128,5.62825788 69.9715106,5.73300767 C69.7257084,5.83775745 69.4537611,5.89013156 69.1556605,5.89013156 C68.85756,5.89013156 68.5856127,5.83775745 68.3398105,5.73300767 C68.0940083,5.62825788 67.8808957,5.48322189 67.7004664,5.29789535 C67.5200372,5.11256881 67.3801412,4.88964312 67.2807743,4.6291116 C67.1814075,4.36858009 67.1317248,4.08522274 67.1317248,3.77903106 Z M68.1593821,3.77903106 C68.1593821,3.96704349 68.1842234,4.13759507 68.2339069,4.29069091 C68.2835903,4.44378675 68.3515771,4.57405056 68.4378694,4.68148623 C68.5241616,4.78892191 68.6287568,4.87352624 68.7516579,4.93530175 C68.874559,4.99707727 69.0092252,5.02796456 69.1556605,5.02796456 C69.3020959,5.02796456 69.4354547,4.99707727 69.5557409,4.93530175 C69.6760271,4.87352624 69.7793147,4.78892191 69.865607,4.68148623 C69.9518993,4.57405056 70.0198861,4.44378675 70.0695695,4.29069091 C70.1192529,4.13759507 70.1440943,3.96704349 70.1440943,3.77903106 C70.1440943,3.5963904 70.1192529,3.42718175 70.0695695,3.27140002 C70.0198861,3.11561829 69.9518993,2.98401156 69.865607,2.87657588 C69.7793147,2.7691402 69.6760271,2.68453587 69.5557409,2.62276036 C69.4354547,2.56098485 69.3020959,2.53009755 69.1556605,2.53009755 C69.0092252,2.53009755 68.874559,2.56098485 68.7516579,2.62276036 C68.6287568,2.68453587 68.5241616,2.7691402 68.4378694,2.87657588 C68.3515771,2.98401156 68.2835903,3.11561829 68.2339069,3.27140002 C68.1842234,3.42718175 68.1593821,3.5963904 68.1593821,3.77903106 Z" id="Seleccione-el-precio" fill="#2196F3"></path>
                </g>
            </g>
            <path d="M17.6524365,162.185824 C12.6456565,167.326259 14.2682463,176.306449 21.2763003,182.244537 C27.4732855,187.49327 35.8067119,188.606434 41.1144706,185.239535 C41.8091564,184.798871 42.4520129,184.281464 43.0314667,183.686542 C48.0382468,178.546107 46.415657,169.565917 39.4076029,163.627829 C32.3995489,157.689741 22.6592166,157.04539 17.6524365,162.185824 Z" id="Shape" fill="#FCCD95"></path>
            <path d="M33.5156648,98.1651376 L18.000605,145.115514 C16.6940992,149.06563 17.9251829,156.063828 21.8009066,157.399532 C25.6766303,158.735236 29.9318977,156.604057 31.2335375,152.653941 L43.3691998,115.816754 C46.9043075,105.07908 36.6955587,98.903616 33.5156648,98.1651376 Z" id="Shape" fill="#FCCD95"></path>
            <polygon id="Shape" fill="#FCCD95" points="165.096323 171.727273 170 190.420986 133 200 129.356085 184.137277"></polygon>
            <polygon id="Shape" fill="#B7B7B7" points="171.582343 186.727273 175 199.978516 131.280278 199.97852 129.636364 196.445998"></polygon>
            <path d="M91.1913354,141.976019 L108.308226,168.116873 C110.511198,171.480523 122.203516,182.054434 125.732169,180.12747 C129.258385,178.202945 124.752529,166.79239 122.461829,163.482403 L109.263497,145.73238 C101.699313,135.553619 94.7687266,139.470966 91.1913354,141.976019 Z" id="Shape" fill="#D4A873"></path>
            <path d="M98.4411575,91.4163833 L111.819821,125.011417 C113.177183,119.054903 122.339983,118.442665 125.45436,124.208922 C126.00754,117.91336 134.583044,116.627904 138.426059,121.30628 C139.890645,115.586368 149.070504,115.33757 151.573215,121.555078 L163.034027,150.037559 C166.253191,158.033241 166.070423,170.06579 164.301222,175.51983 C159.064292,191.686816 137.490284,191.481923 130.069877,186.210822 C124.284641,182.100779 119.700804,179.812814 117.921856,175.556418 L84.9942605,96.6313824 C80.8222621,86.6575136 95.2341774,83.1255591 98.4411575,91.4163833 Z" id="Shape" fill="#FCCD95"></path>
            <path d="M142.863681,131.109405 C142.863681,131.109405 140.702137,125.413885 138.762353,120.36719 C138.628323,120.662333 138.516225,120.97455 138.430933,121.30628 C138.092202,120.896495 137.719354,120.533055 137.317263,120.211081 C139.783421,125.150452 142.863681,131.109405 142.863681,131.109405 Z M117.266326,137.100068 L117.380861,136.892737 C117.807321,138.085503 118.070508,138.829458 118.070508,138.829458 C118.070508,138.829458 117.758583,138.161118 117.266326,137.100068 Z M124.596566,123.789381 L124.871938,123.289346 C125.083949,123.577171 125.281339,123.88207 125.456797,124.208922 C125.493351,123.789381 125.566458,123.394231 125.671246,123.021034 C127.869343,128.589717 130.564571,135.497517 130.564571,135.497517 C130.564571,135.497517 127.123647,128.887298 124.596566,123.789381 Z M124.871938,123.291785 L124.596566,123.79182 C124.306573,123.206413 124.026328,122.642959 123.768015,122.108775 C124.170106,122.452702 124.540517,122.847851 124.871938,123.291785 Z M117.380861,136.892737 L117.266326,137.100068 C115.889469,134.129129 113.099201,128.082364 111.822258,125.011417 C111.849064,125.074836 111.861248,125.0041 111.863685,124.843113 C112.000153,124.316247 112.197543,123.835725 112.446108,123.394231 C114.008171,127.499396 116.25988,133.755932 117.380861,136.892737 Z" id="Shape" fill="#D4A873"></path>
            <rect id="Rectangle-8" fill-opacity="0" fill="#D8D8D8" x="0" y="0" width="200" height="200"></rect>
        </g>
    </g>
</svg>