<svg xmlns="http://www.w3.org/2000/svg" xmlns:xlink="http://www.w3.org/1999/xlink" width="80" height="80" viewBox="0 0 80 80">
    <defs>
        <radialGradient id="a" cx="50.021%" cy="49.987%" r="52.737%" fx="50.021%" fy="49.987%">
            <stop offset="0%" stop-color="#AFDEFC"/>
            <stop offset="100%" stop-color="#2196F3"/>
        </radialGradient>
        <circle id="b" cx="40" cy="40" r="40"/>
        <circle id="c" cx="40" cy="40" r="40"/>
        <linearGradient id="f" x1="50%" x2="50%" y1="0%" y2="100%">
            <stop offset="0%" stop-color="#FFF" stop-opacity="0"/>
            <stop offset="100%" stop-color="#8CCCFF" stop-opacity=".52"/>
        </linearGradient>
        <path id="e" d="M62.101 60.936c-.994-6.05-6.217-10.664-12.514-10.664a12.61 12.61 0 0 0-8.984 3.752A13.683 13.683 0 0 0 30.901 50c-5.776 0-10.718 3.579-12.762 8.65-1.91.484-4.376 3.931-4.674 5.919-2 4.431 3 13.048 4.674 14.07 6.903 4.208 15.2 3.272 23.916 3.272 7.804 0 20.71-1.407 27.117-4.91 1.593-.87 3.293-10.001 0-12.432a10.353 10.353 0 0 0-7.07-3.633z"/>
    </defs>
    <g fill="none" fill-rule="evenodd">
        <g>
            <use fill="url(#a)" xlink:href="#b"/>
            <circle cx="40" cy="40" r="39.5"/>
        </g>
        <g>
            <mask id="d" fill="#fff">
                <use xlink:href="#c"/>
            </mask>
            <path fill="#ECF0F1" fill-rule="nonzero" d="M79.317 78.326c5.809-4.151 9.993-14.7 8.94-24.754-.336-3.204-7.905-8.258-7.424-10.572a13.836 13.836 0 0 0-11.077 9.104 14.013 14.013 0 0 0-.667 2.715c-4.116-.922-8.366 1.365-9.816 5.464-.11.31-.198.62-.27.933a7.74 7.74 0 0 0-1.67-.838c-4.027-1.441-8.452.673-9.884 4.723a7.788 7.788 0 0 0-.415 3.33c2.686.185 5.669 11.908 8.217 11.957 3.91.076 20.93.179 24.066-2.062z" mask="url(#d)" opacity=".5"/>
            <path fill="#ECF0F1" fill-rule="nonzero" d="M24.313 54.471c-3.44-4.702-9.949-5.787-14.706-2.523a14.417 14.417 0 0 0-1.82-3.338 14.259 14.259 0 0 0-17.002-4.762c1.251 3.145-7.775 16.074-6 18.904 3.168 5.053 16.124 13.221 20.694 17 3.585 2.966 8.964-9.148 13.05-8.46a10.706 10.706 0 0 0 3.497-1.71c4.78-3.537 5.804-10.302 2.287-15.111z" mask="url(#d)" opacity=".5" transform="rotate(5 5.479 61.487)"/>
            <g fill-rule="evenodd" mask="url(#d)">
                <use fill="#FFF" xlink:href="#e"/>
                <use fill="url(#f)" xlink:href="#e"/>
            </g>
        </g>
        <g fill-rule="nonzero">
            <path fill="#2196F3" d="M54.987 37.002l-31.434 2.433a.616.616 0 0 0-.551.67l1.37 19.317c.025.343.31.602.64.576l31.435-2.433a.616.616 0 0 0 .551-.67l-1.37-19.317a.605.605 0 0 0-.64-.576z"/>
            <path fill="#000" d="M55.888 37.287L23.77 39.781a.63.63 0 0 0-.563.685l.18 2.552 33.336-2.589-.18-2.552a.62.62 0 0 0-.655-.59z" opacity=".272"/>
            <path fill="#FFDB57" d="M42.907 38.002l-6.332.47a.622.622 0 0 0-.573.668l1.425 19.283c.026.343.323.601.666.575l6.332-.47a.622.622 0 0 0 .573-.668l-1.427-19.283a.621.621 0 0 0-.664-.575z"/>
            <path fill="#F5BA3D" d="M43.125 38.002l-6.532.52c-.352.029-.618.359-.591.74L36.19 42l7.81-.623-.19-2.738c-.024-.38-.332-.664-.685-.637z"/>
            <path fill="#FFDB57" d="M53.169 25.436c-.68-1.551-1.69-3.04-2.696-3.982-.37-.345-.846-.497-1.373-.443-1.744.183-4.427 2.764-7.977 7.673a.656.656 0 0 0-.121.43l.227 3.306c.024.344.303.604.625.578l8.949-.713c1.993-.16 2.744-1.267 3.023-2.168.374-1.2.14-2.862-.657-4.681z"/>
            <path fill="#EF9325" d="M54.55 26.912a.611.611 0 0 0-.094-.169c-1.028-1.308-2.988-.647-4.45.137-4.252 2.278-5.864 5.107-5.93 5.226-.109.193-.1.43.022.617a.616.616 0 0 0 .562.275l6.973-.509c1.335-.096 2.296-.572 2.854-1.413.662-.998.684-2.437.063-4.164z"/>
            <path fill="#FFDB57" d="M37.563 29.084c-4.445-4.127-7.642-6.173-9.502-6.081-.563.028-1.04.246-1.376.63-.922 1.05-1.764 2.617-2.252 4.196-.574 1.851-.577 3.469-.01 4.554.424.814 1.375 1.752 3.494 1.6l9.51-.685a.608.608 0 0 0 .571-.646l-.243-3.177a.609.609 0 0 0-.192-.39z"/>
            <path fill="#EF9325" d="M34.88 32.578c-.08-.103-2.027-2.545-6.403-4.103-1.506-.537-3.468-.889-4.26.486a.546.546 0 0 0-.063.171c-.341 1.713-.113 3.067.663 3.915.652.715 1.636 1.03 2.924.937l6.714-.484a.57.57 0 1 0 .425-.921z"/>
            <path fill="#F5BA3D" d="M42.004 28.002l-5.405.348c-.356.023-.624.293-.597.604l.3 3.525c.027.31.336.543.694.52l5.405-.35c.356-.022.624-.292.597-.603l-.3-3.525c-.027-.31-.338-.543-.694-.52z"/>
            <path fill="#2196F3" d="M57.899 31.002L20.565 33.77a.61.61 0 0 0-.563.655l.445 6.01a.61.61 0 0 0 .654.563l37.334-2.768a.61.61 0 0 0 .563-.655l-.445-6.01a.611.611 0 0 0-.654-.563z"/>
            <path fill="#FFDB57" d="M44.246 38.658l-8.975.665-.517-6.98 8.975-.666z"/>
        </g>
    </g>
</svg>
