<svg xmlns="http://www.w3.org/2000/svg" width="80" height="80" viewBox="0 0 80 80">
    <defs>
        <radialGradient id="a" r="48.585%" fx="50%" fy="50%" gradientTransform="matrix(.94325 0 0 1 .028 0)">
            <stop offset="0%" stop-color="#BDE4FF"/>
            <stop offset="100%" stop-color="#018DE8"/>
        </radialGradient>
    </defs>
    <g fill="none" fill-rule="nonzero">
        <path fill="url(#a)" d="M80 40.03c0 13.478-6.657 25.4-16.86 32.654-6.531 4.644-15.22 2.058-23.843 2.058-9.638 0-17.777 1.906-24.683-3.776C5.691 63.624 0 52.492 0 40.029 0 17.922 17.909 0 40 0s40 17.922 40 40.03z"/>
        <path fill="#ECF0F1" d="M63.15 72.569C71.205 66.85 77.047 58.224 79.14 48.22c-5.175.74-9.775 4.248-11.65 9.51a14.583 14.583 0 0 0-.701 2.837c-4.33-.963-8.8 1.426-10.325 5.708a8.986 8.986 0 0 0-.284.974 8.149 8.149 0 0 0-1.756-.875c-4.234-1.505-8.888.704-10.395 4.934a8.089 8.089 0 0 0-.436 3.48c7.158.487 14.108 1.647 19.556-2.22zM27.076 62.524c-2.488-3.376-7.197-4.156-10.638-1.812-.324-.834-.76-1.64-1.317-2.396-2.882-3.91-8-5.201-12.299-3.419a40.004 40.004 0 0 0 11.752 16.021c2.594 2.129 5.362 3.189 8.318 3.683a7.759 7.759 0 0 0 2.53-1.228 7.75 7.75 0 0 0 1.654-10.85z" opacity=".5"/>
        <path fill="#F2C500" d="M10.92 26.94l56.197-11.725L22.9 38.037z"/>
        <path fill="#F59D00" d="M22.945 48.957V38.04l44.172-22.825z"/>
        <path fill="#F2C500" d="M43.59 54.847L30.43 43.154l36.687-27.94z"/>
        <path fill="#ECF0F1" d="M57.049 69.404c-.881-5.338-5.508-9.41-11.086-9.41-3.11 0-5.925 1.266-7.96 3.31a12.149 12.149 0 0 0-8.595-3.55c-5.117 0-9.496 3.158-11.307 7.633-1.692.426-2.99 2.154-3.254 3.908C21.743 76.932 30.549 80 40.144 80a39.82 39.82 0 0 0 23.169-7.391 9.18 9.18 0 0 0-6.264-3.205z"/>
    </g>
</svg>
